G75*
G70*
%OFA0B0*%
%FSLAX24Y24*%
%IPPOS*%
%LPD*%
%AMOC8*
5,1,8,0,0,1.08239X$1,22.5*
%
%ADD10C,0.0000*%
%ADD11C,0.0100*%
%ADD12C,0.0560*%
%ADD13C,0.0740*%
%ADD14C,0.0660*%
%ADD15OC8,0.0614*%
%ADD16C,0.1266*%
%ADD17OC8,0.1900*%
%ADD18R,0.1900X0.1900*%
%ADD19R,0.0880X0.0480*%
%ADD20R,0.0866X0.1417*%
%ADD21C,0.0555*%
%ADD22C,0.0480*%
%ADD23C,0.0476*%
%ADD24C,0.0600*%
%ADD25C,0.0634*%
%ADD26C,0.0600*%
%ADD27C,0.0080*%
%ADD28C,0.0160*%
%ADD29C,0.0240*%
%ADD30C,0.0317*%
%ADD31C,0.0120*%
%ADD32C,0.0320*%
%ADD33C,0.0320*%
D10*
X007531Y015342D02*
X007533Y015392D01*
X007539Y015442D01*
X007549Y015491D01*
X007563Y015539D01*
X007580Y015586D01*
X007601Y015631D01*
X007626Y015675D01*
X007654Y015716D01*
X007686Y015755D01*
X007720Y015792D01*
X007757Y015826D01*
X007797Y015856D01*
X007839Y015883D01*
X007883Y015907D01*
X007929Y015928D01*
X007976Y015944D01*
X008024Y015957D01*
X008074Y015966D01*
X008123Y015971D01*
X008174Y015972D01*
X008224Y015969D01*
X008273Y015962D01*
X008322Y015951D01*
X008370Y015936D01*
X008416Y015918D01*
X008461Y015896D01*
X008504Y015870D01*
X008545Y015841D01*
X008584Y015809D01*
X008620Y015774D01*
X008652Y015736D01*
X008682Y015696D01*
X008709Y015653D01*
X008732Y015609D01*
X008751Y015563D01*
X008767Y015515D01*
X008779Y015466D01*
X008787Y015417D01*
X008791Y015367D01*
X008791Y015317D01*
X008787Y015267D01*
X008779Y015218D01*
X008767Y015169D01*
X008751Y015121D01*
X008732Y015075D01*
X008709Y015031D01*
X008682Y014988D01*
X008652Y014948D01*
X008620Y014910D01*
X008584Y014875D01*
X008545Y014843D01*
X008504Y014814D01*
X008461Y014788D01*
X008416Y014766D01*
X008370Y014748D01*
X008322Y014733D01*
X008273Y014722D01*
X008224Y014715D01*
X008174Y014712D01*
X008123Y014713D01*
X008074Y014718D01*
X008024Y014727D01*
X007976Y014740D01*
X007929Y014756D01*
X007883Y014777D01*
X007839Y014801D01*
X007797Y014828D01*
X007757Y014858D01*
X007720Y014892D01*
X007686Y014929D01*
X007654Y014968D01*
X007626Y015009D01*
X007601Y015053D01*
X007580Y015098D01*
X007563Y015145D01*
X007549Y015193D01*
X007539Y015242D01*
X007533Y015292D01*
X007531Y015342D01*
X028031Y017342D02*
X028033Y017392D01*
X028039Y017442D01*
X028049Y017491D01*
X028063Y017539D01*
X028080Y017586D01*
X028101Y017631D01*
X028126Y017675D01*
X028154Y017716D01*
X028186Y017755D01*
X028220Y017792D01*
X028257Y017826D01*
X028297Y017856D01*
X028339Y017883D01*
X028383Y017907D01*
X028429Y017928D01*
X028476Y017944D01*
X028524Y017957D01*
X028574Y017966D01*
X028623Y017971D01*
X028674Y017972D01*
X028724Y017969D01*
X028773Y017962D01*
X028822Y017951D01*
X028870Y017936D01*
X028916Y017918D01*
X028961Y017896D01*
X029004Y017870D01*
X029045Y017841D01*
X029084Y017809D01*
X029120Y017774D01*
X029152Y017736D01*
X029182Y017696D01*
X029209Y017653D01*
X029232Y017609D01*
X029251Y017563D01*
X029267Y017515D01*
X029279Y017466D01*
X029287Y017417D01*
X029291Y017367D01*
X029291Y017317D01*
X029287Y017267D01*
X029279Y017218D01*
X029267Y017169D01*
X029251Y017121D01*
X029232Y017075D01*
X029209Y017031D01*
X029182Y016988D01*
X029152Y016948D01*
X029120Y016910D01*
X029084Y016875D01*
X029045Y016843D01*
X029004Y016814D01*
X028961Y016788D01*
X028916Y016766D01*
X028870Y016748D01*
X028822Y016733D01*
X028773Y016722D01*
X028724Y016715D01*
X028674Y016712D01*
X028623Y016713D01*
X028574Y016718D01*
X028524Y016727D01*
X028476Y016740D01*
X028429Y016756D01*
X028383Y016777D01*
X028339Y016801D01*
X028297Y016828D01*
X028257Y016858D01*
X028220Y016892D01*
X028186Y016929D01*
X028154Y016968D01*
X028126Y017009D01*
X028101Y017053D01*
X028080Y017098D01*
X028063Y017145D01*
X028049Y017193D01*
X028039Y017242D01*
X028033Y017292D01*
X028031Y017342D01*
X028031Y028342D02*
X028033Y028392D01*
X028039Y028442D01*
X028049Y028491D01*
X028063Y028539D01*
X028080Y028586D01*
X028101Y028631D01*
X028126Y028675D01*
X028154Y028716D01*
X028186Y028755D01*
X028220Y028792D01*
X028257Y028826D01*
X028297Y028856D01*
X028339Y028883D01*
X028383Y028907D01*
X028429Y028928D01*
X028476Y028944D01*
X028524Y028957D01*
X028574Y028966D01*
X028623Y028971D01*
X028674Y028972D01*
X028724Y028969D01*
X028773Y028962D01*
X028822Y028951D01*
X028870Y028936D01*
X028916Y028918D01*
X028961Y028896D01*
X029004Y028870D01*
X029045Y028841D01*
X029084Y028809D01*
X029120Y028774D01*
X029152Y028736D01*
X029182Y028696D01*
X029209Y028653D01*
X029232Y028609D01*
X029251Y028563D01*
X029267Y028515D01*
X029279Y028466D01*
X029287Y028417D01*
X029291Y028367D01*
X029291Y028317D01*
X029287Y028267D01*
X029279Y028218D01*
X029267Y028169D01*
X029251Y028121D01*
X029232Y028075D01*
X029209Y028031D01*
X029182Y027988D01*
X029152Y027948D01*
X029120Y027910D01*
X029084Y027875D01*
X029045Y027843D01*
X029004Y027814D01*
X028961Y027788D01*
X028916Y027766D01*
X028870Y027748D01*
X028822Y027733D01*
X028773Y027722D01*
X028724Y027715D01*
X028674Y027712D01*
X028623Y027713D01*
X028574Y027718D01*
X028524Y027727D01*
X028476Y027740D01*
X028429Y027756D01*
X028383Y027777D01*
X028339Y027801D01*
X028297Y027828D01*
X028257Y027858D01*
X028220Y027892D01*
X028186Y027929D01*
X028154Y027968D01*
X028126Y028009D01*
X028101Y028053D01*
X028080Y028098D01*
X028063Y028145D01*
X028049Y028193D01*
X028039Y028242D01*
X028033Y028292D01*
X028031Y028342D01*
X008031Y034342D02*
X008033Y034392D01*
X008039Y034442D01*
X008049Y034491D01*
X008063Y034539D01*
X008080Y034586D01*
X008101Y034631D01*
X008126Y034675D01*
X008154Y034716D01*
X008186Y034755D01*
X008220Y034792D01*
X008257Y034826D01*
X008297Y034856D01*
X008339Y034883D01*
X008383Y034907D01*
X008429Y034928D01*
X008476Y034944D01*
X008524Y034957D01*
X008574Y034966D01*
X008623Y034971D01*
X008674Y034972D01*
X008724Y034969D01*
X008773Y034962D01*
X008822Y034951D01*
X008870Y034936D01*
X008916Y034918D01*
X008961Y034896D01*
X009004Y034870D01*
X009045Y034841D01*
X009084Y034809D01*
X009120Y034774D01*
X009152Y034736D01*
X009182Y034696D01*
X009209Y034653D01*
X009232Y034609D01*
X009251Y034563D01*
X009267Y034515D01*
X009279Y034466D01*
X009287Y034417D01*
X009291Y034367D01*
X009291Y034317D01*
X009287Y034267D01*
X009279Y034218D01*
X009267Y034169D01*
X009251Y034121D01*
X009232Y034075D01*
X009209Y034031D01*
X009182Y033988D01*
X009152Y033948D01*
X009120Y033910D01*
X009084Y033875D01*
X009045Y033843D01*
X009004Y033814D01*
X008961Y033788D01*
X008916Y033766D01*
X008870Y033748D01*
X008822Y033733D01*
X008773Y033722D01*
X008724Y033715D01*
X008674Y033712D01*
X008623Y033713D01*
X008574Y033718D01*
X008524Y033727D01*
X008476Y033740D01*
X008429Y033756D01*
X008383Y033777D01*
X008339Y033801D01*
X008297Y033828D01*
X008257Y033858D01*
X008220Y033892D01*
X008186Y033929D01*
X008154Y033968D01*
X008126Y034009D01*
X008101Y034053D01*
X008080Y034098D01*
X008063Y034145D01*
X008049Y034193D01*
X008039Y034242D01*
X008033Y034292D01*
X008031Y034342D01*
D11*
X007161Y014342D02*
X008161Y013342D01*
X025161Y013342D01*
X026161Y014342D01*
X028661Y014342D01*
X028661Y015342D01*
X029661Y016342D01*
X029661Y029242D01*
X028661Y030242D01*
X028661Y034742D01*
X028061Y035342D01*
X021161Y035342D01*
X020161Y036342D01*
X009661Y036342D01*
X008661Y035342D01*
X002661Y035342D01*
X002661Y014342D01*
X007161Y014342D01*
D12*
X009661Y018562D02*
X009661Y019122D01*
X010661Y019122D02*
X010661Y018562D01*
X011661Y018562D02*
X011661Y019122D01*
X012661Y019122D02*
X012661Y018562D01*
X013661Y018562D02*
X013661Y019122D01*
X014661Y019122D02*
X014661Y018562D01*
X015661Y018562D02*
X015661Y019122D01*
X016661Y019122D02*
X016661Y018562D01*
X017661Y018562D02*
X017661Y019122D01*
X018661Y019122D02*
X018661Y018562D01*
X019661Y018562D02*
X019661Y019122D01*
X020661Y019122D02*
X020661Y018562D01*
X021661Y018562D02*
X021661Y019122D01*
X022661Y019122D02*
X022661Y018562D01*
X023661Y018562D02*
X023661Y019122D01*
X024661Y019122D02*
X024661Y018562D01*
X025661Y018562D02*
X025661Y019122D01*
X026661Y019122D02*
X026661Y018562D01*
X027661Y018562D02*
X027661Y019122D01*
X028661Y019122D02*
X028661Y018562D01*
X028661Y024562D02*
X028661Y025122D01*
X027661Y025122D02*
X027661Y024562D01*
X026661Y024562D02*
X026661Y025122D01*
X025661Y025122D02*
X025661Y024562D01*
X024661Y024562D02*
X024661Y025122D01*
X023661Y025122D02*
X023661Y024562D01*
X022661Y024562D02*
X022661Y025122D01*
X021661Y025122D02*
X021661Y024562D01*
X020661Y024562D02*
X020661Y025122D01*
X019661Y025122D02*
X019661Y024562D01*
X018661Y024562D02*
X018661Y025122D01*
X017661Y025122D02*
X017661Y024562D01*
X016661Y024562D02*
X016661Y025122D01*
X015661Y025122D02*
X015661Y024562D01*
X014661Y024562D02*
X014661Y025122D01*
X013661Y025122D02*
X013661Y024562D01*
X012661Y024562D02*
X012661Y025122D01*
X011661Y025122D02*
X011661Y024562D01*
X010661Y024562D02*
X010661Y025122D01*
X009661Y025122D02*
X009661Y024562D01*
X014161Y028062D02*
X014161Y028622D01*
X015161Y028622D02*
X015161Y028062D01*
X016161Y028062D02*
X016161Y028622D01*
X017161Y028622D02*
X017161Y028062D01*
X018161Y028062D02*
X018161Y028622D01*
X019161Y028622D02*
X019161Y028062D01*
X020161Y028062D02*
X020161Y028622D01*
X021161Y028622D02*
X021161Y028062D01*
X022161Y028062D02*
X022161Y028622D01*
X023161Y028622D02*
X023161Y028062D01*
X024161Y028062D02*
X024161Y028622D01*
X025161Y028622D02*
X025161Y028062D01*
X026161Y028062D02*
X026161Y028622D01*
X027161Y028622D02*
X027161Y028062D01*
X027161Y031062D02*
X027161Y031622D01*
X026161Y031622D02*
X026161Y031062D01*
X025161Y031062D02*
X025161Y031622D01*
X024161Y031622D02*
X024161Y031062D01*
X023161Y031062D02*
X023161Y031622D01*
X022161Y031622D02*
X022161Y031062D01*
X021161Y031062D02*
X021161Y031622D01*
X020161Y031622D02*
X020161Y031062D01*
X019161Y031062D02*
X019161Y031622D01*
X018161Y031622D02*
X018161Y031062D01*
X017161Y031062D02*
X017161Y031622D01*
X016161Y031622D02*
X016161Y031062D01*
X015161Y031062D02*
X015161Y031622D01*
X014161Y031622D02*
X014161Y031062D01*
D13*
X020661Y034342D03*
X021661Y034342D03*
X022661Y034342D03*
X023661Y034342D03*
X024661Y034342D03*
X025661Y034342D03*
X026661Y034342D03*
X027661Y034342D03*
X027661Y015342D03*
X026661Y015342D03*
X025661Y015342D03*
X024661Y015342D03*
X023661Y015342D03*
X023661Y014342D03*
X022661Y014342D03*
X022661Y015342D03*
X020661Y015342D03*
X019661Y015342D03*
X018661Y015342D03*
X017661Y015342D03*
X016661Y015342D03*
X015661Y015342D03*
X014661Y014342D03*
X013661Y014342D03*
X012661Y014342D03*
X011661Y014342D03*
X010661Y014342D03*
X009661Y014342D03*
D14*
X012061Y034342D03*
X013061Y034342D03*
X014061Y034342D03*
X015061Y034342D03*
X016061Y034342D03*
X017061Y034342D03*
X018061Y034342D03*
X019061Y034342D03*
X019061Y035342D03*
X018061Y035342D03*
X017061Y035342D03*
X016061Y035342D03*
X015061Y035342D03*
X014061Y035342D03*
X013061Y035342D03*
X012061Y035342D03*
D15*
X006015Y029834D03*
X005228Y029834D03*
X005228Y028850D03*
X006015Y028850D03*
D16*
X004161Y026980D03*
X004161Y031704D03*
D17*
X007261Y017612D03*
X006081Y015642D03*
D18*
X004901Y017612D03*
D19*
X005981Y019832D03*
X005981Y020742D03*
X005981Y021652D03*
X005981Y023832D03*
X005981Y024742D03*
X005981Y025652D03*
D20*
X003541Y024742D03*
X003541Y020742D03*
D21*
X007861Y020342D03*
X007861Y021142D03*
X007861Y022592D03*
X007861Y023392D03*
X007861Y024842D03*
X007861Y025642D03*
X007861Y027092D03*
X007861Y027892D03*
X009911Y027742D03*
X010911Y027742D03*
X011911Y027742D03*
X011911Y030742D03*
X010911Y030742D03*
X009911Y030742D03*
X016611Y027092D03*
X016611Y026092D03*
X018611Y026092D03*
X018611Y027092D03*
X025411Y027092D03*
X025411Y026092D03*
X027411Y026092D03*
X027411Y027092D03*
D22*
X022911Y026832D02*
X022911Y026352D01*
X020911Y026352D02*
X020911Y026832D01*
D23*
X021911Y026830D02*
X021911Y026354D01*
D24*
X010461Y032592D03*
X010461Y033592D03*
X010411Y034592D03*
X010411Y035592D03*
D25*
X006241Y034632D03*
X006241Y032852D03*
X003681Y032852D03*
X003681Y034632D03*
X003411Y022742D03*
X006411Y022742D03*
D26*
X007611Y030592D02*
X008211Y030592D01*
X008211Y031592D02*
X007611Y031592D01*
X007611Y032592D02*
X008211Y032592D01*
D27*
X008610Y032407D02*
X010061Y032407D01*
X010088Y032343D02*
X010212Y032219D01*
X010373Y032152D01*
X010548Y032152D01*
X010710Y032219D01*
X010834Y032343D01*
X010901Y032504D01*
X010901Y032680D01*
X010834Y032841D01*
X010710Y032965D01*
X010548Y033032D01*
X010373Y033032D01*
X010212Y032965D01*
X010088Y032841D01*
X010021Y032680D01*
X010021Y032504D01*
X010088Y032343D01*
X010102Y032328D02*
X008569Y032328D01*
X008584Y032343D02*
X008651Y032504D01*
X008651Y032680D01*
X008584Y032841D01*
X008460Y032965D01*
X008298Y033032D01*
X007523Y033032D01*
X007362Y032965D01*
X007238Y032841D01*
X007171Y032680D01*
X007171Y032504D01*
X007238Y032343D01*
X007362Y032219D01*
X007523Y032152D01*
X008298Y032152D01*
X008460Y032219D01*
X008584Y032343D01*
X008491Y032250D02*
X010181Y032250D01*
X010327Y032171D02*
X008345Y032171D01*
X008298Y032032D02*
X008460Y031965D01*
X008584Y031841D01*
X008651Y031680D01*
X008651Y031504D01*
X008584Y031343D01*
X008460Y031219D01*
X008298Y031152D01*
X007523Y031152D01*
X007362Y031219D01*
X007238Y031343D01*
X007171Y031504D01*
X007171Y031680D01*
X007238Y031841D01*
X007362Y031965D01*
X007523Y032032D01*
X008298Y032032D01*
X008341Y032014D02*
X011162Y032014D01*
X011162Y032051D02*
X011162Y031933D01*
X011184Y031879D01*
X011102Y031962D01*
X010920Y031962D01*
X010639Y031962D01*
X010570Y031990D01*
X010451Y031990D01*
X010342Y031945D01*
X010258Y031861D01*
X010212Y031751D01*
X010212Y031633D01*
X010258Y031523D01*
X010319Y031462D01*
X010302Y031462D01*
X010252Y031512D01*
X010070Y031512D01*
X009702Y031512D01*
X009520Y031512D01*
X009498Y031490D01*
X009451Y031490D01*
X009342Y031445D01*
X009258Y031361D01*
X009212Y031251D01*
X009212Y031133D01*
X009258Y031023D01*
X009342Y030939D01*
X009451Y030894D01*
X009522Y030894D01*
X009493Y030825D01*
X009493Y030659D01*
X009557Y030506D01*
X009674Y030388D01*
X009828Y030325D01*
X009994Y030325D01*
X010147Y030388D01*
X010265Y030506D01*
X010328Y030659D01*
X010328Y030825D01*
X010265Y030979D01*
X010221Y031022D01*
X010600Y031022D01*
X010557Y030979D01*
X010493Y030825D01*
X010493Y030659D01*
X010557Y030506D01*
X010674Y030388D01*
X010828Y030325D01*
X010994Y030325D01*
X011147Y030388D01*
X011265Y030506D01*
X011328Y030659D01*
X011328Y030825D01*
X011265Y030979D01*
X011221Y031022D01*
X011600Y031022D01*
X011557Y030979D01*
X011493Y030825D01*
X011493Y030692D01*
X011003Y030202D01*
X008419Y030202D01*
X008460Y030219D01*
X008584Y030343D01*
X008651Y030504D01*
X008651Y030680D01*
X008584Y030841D01*
X008460Y030965D01*
X008298Y031032D01*
X007523Y031032D01*
X007362Y030965D01*
X007238Y030841D01*
X007171Y030680D01*
X007171Y030504D01*
X007210Y030411D01*
X006501Y031120D01*
X006501Y032466D01*
X006628Y032593D01*
X006698Y032761D01*
X006698Y032943D01*
X006628Y033111D01*
X006500Y033239D01*
X006332Y033309D01*
X006150Y033309D01*
X005982Y033239D01*
X005853Y033111D01*
X005784Y032943D01*
X005784Y032761D01*
X005853Y032593D01*
X005981Y032466D01*
X005981Y031833D01*
X004881Y032933D01*
X004752Y033062D01*
X004088Y033062D01*
X004068Y033111D01*
X003940Y033239D01*
X003772Y033309D01*
X003590Y033309D01*
X003422Y033239D01*
X003293Y033111D01*
X003224Y032943D01*
X003224Y032761D01*
X003293Y032593D01*
X003422Y032465D01*
X003590Y032395D01*
X003772Y032395D01*
X003940Y032465D01*
X004068Y032593D01*
X004080Y032622D01*
X004570Y032622D01*
X005591Y031601D01*
X005591Y030801D01*
X005720Y030672D01*
X006111Y030281D01*
X005830Y030281D01*
X005621Y030073D01*
X005413Y030281D01*
X005043Y030281D01*
X004781Y030019D01*
X004781Y029649D01*
X005043Y029387D01*
X005305Y029387D01*
X005395Y029297D01*
X005268Y029297D01*
X005268Y028890D01*
X005188Y028890D01*
X005188Y029297D01*
X005043Y029297D01*
X004781Y029035D01*
X004781Y028890D01*
X005188Y028890D01*
X005188Y028810D01*
X005268Y028810D01*
X005268Y028403D01*
X005413Y028403D01*
X005621Y028611D01*
X005830Y028403D01*
X006200Y028403D01*
X006462Y028665D01*
X006462Y028930D01*
X006491Y028901D01*
X006620Y028772D01*
X011970Y028772D01*
X014891Y025851D01*
X014930Y025812D01*
X014763Y025812D01*
X014731Y025889D01*
X012658Y027962D01*
X012562Y028002D01*
X012459Y028002D01*
X012241Y028002D01*
X012147Y028096D01*
X011994Y028159D01*
X011828Y028159D01*
X011674Y028096D01*
X011580Y028002D01*
X011241Y028002D01*
X011147Y028096D01*
X010994Y028159D01*
X010828Y028159D01*
X010674Y028096D01*
X010580Y028002D01*
X010241Y028002D01*
X010147Y028096D01*
X009994Y028159D01*
X009828Y028159D01*
X009674Y028096D01*
X009557Y027979D01*
X009493Y027825D01*
X009493Y027692D01*
X009153Y027352D01*
X008191Y027352D01*
X008097Y027446D01*
X007986Y027492D01*
X008097Y027538D01*
X008215Y027656D01*
X008278Y027809D01*
X008278Y027975D01*
X008215Y028129D01*
X008097Y028246D01*
X007944Y028309D01*
X007778Y028309D01*
X007624Y028246D01*
X007530Y028152D01*
X005018Y028152D01*
X003221Y029950D01*
X003221Y034034D01*
X003428Y034242D01*
X003590Y034175D01*
X003772Y034175D01*
X003940Y034245D01*
X004068Y034373D01*
X004138Y034541D01*
X004138Y034723D01*
X004068Y034891D01*
X003940Y035019D01*
X003772Y035089D01*
X003590Y035089D01*
X003422Y035019D01*
X003293Y034891D01*
X003259Y034808D01*
X003230Y034779D01*
X002851Y034400D01*
X002851Y035152D01*
X008739Y035152D01*
X008851Y035263D01*
X009739Y036152D01*
X020082Y036152D01*
X020971Y035263D01*
X021022Y035212D01*
X020363Y035212D01*
X020330Y035245D01*
X020220Y035290D01*
X020101Y035290D01*
X019992Y035245D01*
X019908Y035161D01*
X019862Y035051D01*
X019862Y034933D01*
X019908Y034823D01*
X019992Y034739D01*
X020101Y034694D01*
X020220Y034694D01*
X020330Y034739D01*
X020363Y034772D01*
X020370Y034772D01*
X020228Y034631D01*
X020151Y034444D01*
X020151Y034241D01*
X020228Y034053D01*
X020320Y033962D01*
X020052Y033962D01*
X020002Y034012D01*
X019820Y034012D01*
X019395Y034012D01*
X019459Y034076D01*
X019531Y034249D01*
X019531Y034436D01*
X019459Y034608D01*
X019327Y034740D01*
X019154Y034812D01*
X018967Y034812D01*
X018795Y034740D01*
X018662Y034608D01*
X018591Y034436D01*
X018591Y034249D01*
X018662Y034076D01*
X018726Y034012D01*
X018395Y034012D01*
X018459Y034076D01*
X018531Y034249D01*
X018531Y034436D01*
X018459Y034608D01*
X018327Y034740D01*
X018154Y034812D01*
X017967Y034812D01*
X017795Y034740D01*
X017662Y034608D01*
X017591Y034436D01*
X017591Y034249D01*
X017662Y034076D01*
X017726Y034012D01*
X017395Y034012D01*
X017459Y034076D01*
X017531Y034249D01*
X017531Y034436D01*
X017459Y034608D01*
X017327Y034740D01*
X017154Y034812D01*
X016967Y034812D01*
X016795Y034740D01*
X016662Y034608D01*
X016591Y034436D01*
X016591Y034249D01*
X016662Y034076D01*
X016795Y033944D01*
X016841Y033924D01*
X016841Y033851D01*
X016980Y033712D01*
X016502Y033712D01*
X016287Y033927D01*
X016327Y033944D01*
X016459Y034076D01*
X016531Y034249D01*
X016531Y034436D01*
X016459Y034608D01*
X016327Y034740D01*
X016154Y034812D01*
X015967Y034812D01*
X015795Y034740D01*
X015761Y034707D01*
X015761Y034731D01*
X015921Y034891D01*
X015967Y034872D01*
X016154Y034872D01*
X016327Y034944D01*
X016459Y035076D01*
X016531Y035249D01*
X016531Y035436D01*
X016459Y035608D01*
X016327Y035740D01*
X016154Y035812D01*
X015967Y035812D01*
X015795Y035740D01*
X015662Y035608D01*
X015591Y035436D01*
X015591Y035249D01*
X015610Y035202D01*
X015341Y034933D01*
X015341Y034751D01*
X015361Y034731D01*
X015361Y034707D01*
X015327Y034740D01*
X015154Y034812D01*
X014967Y034812D01*
X014795Y034740D01*
X014761Y034707D01*
X014761Y034731D01*
X014921Y034891D01*
X014967Y034872D01*
X015154Y034872D01*
X015327Y034944D01*
X015459Y035076D01*
X015531Y035249D01*
X015531Y035436D01*
X015459Y035608D01*
X015327Y035740D01*
X015154Y035812D01*
X014967Y035812D01*
X014795Y035740D01*
X014662Y035608D01*
X014591Y035436D01*
X014591Y035249D01*
X014610Y035202D01*
X014341Y034933D01*
X014341Y034751D01*
X014361Y034731D01*
X014361Y034707D01*
X014327Y034740D01*
X014154Y034812D01*
X013967Y034812D01*
X013795Y034740D01*
X013761Y034707D01*
X013761Y034731D01*
X013921Y034891D01*
X013967Y034872D01*
X014154Y034872D01*
X014327Y034944D01*
X014459Y035076D01*
X014531Y035249D01*
X014531Y035436D01*
X014459Y035608D01*
X014327Y035740D01*
X014154Y035812D01*
X013967Y035812D01*
X013795Y035740D01*
X013662Y035608D01*
X013591Y035436D01*
X013591Y035249D01*
X013610Y035202D01*
X013341Y034933D01*
X013341Y034751D01*
X013361Y034731D01*
X013361Y034705D01*
X013307Y034744D01*
X013241Y034778D01*
X013171Y034800D01*
X013101Y034811D01*
X013101Y034382D01*
X013021Y034382D01*
X013021Y034811D01*
X012951Y034800D01*
X012880Y034778D01*
X012814Y034744D01*
X012761Y034705D01*
X012761Y034731D01*
X012921Y034891D01*
X012967Y034872D01*
X013154Y034872D01*
X013327Y034944D01*
X013459Y035076D01*
X013531Y035249D01*
X013531Y035436D01*
X013459Y035608D01*
X013327Y035740D01*
X013154Y035812D01*
X012967Y035812D01*
X012795Y035740D01*
X012662Y035608D01*
X012591Y035436D01*
X012591Y035249D01*
X012610Y035202D01*
X012341Y034933D01*
X012341Y034751D01*
X012361Y034731D01*
X012361Y034707D01*
X012327Y034740D01*
X012154Y034812D01*
X011967Y034812D01*
X011795Y034740D01*
X011662Y034608D01*
X011591Y034436D01*
X011591Y034249D01*
X011662Y034076D01*
X011795Y033944D01*
X011967Y033872D01*
X012154Y033872D01*
X012327Y033944D01*
X012341Y033957D01*
X012341Y033683D01*
X012070Y033412D01*
X011913Y033412D01*
X011880Y033445D01*
X011770Y033490D01*
X011651Y033490D01*
X011542Y033445D01*
X011458Y033361D01*
X011412Y033251D01*
X011412Y033133D01*
X011430Y033090D01*
X011401Y033090D01*
X011292Y033045D01*
X011208Y032961D01*
X011162Y032851D01*
X011162Y032733D01*
X011208Y032623D01*
X011292Y032539D01*
X011401Y032494D01*
X011430Y032494D01*
X011412Y032451D01*
X011412Y032333D01*
X011430Y032290D01*
X011401Y032290D01*
X011292Y032245D01*
X011208Y032161D01*
X011162Y032051D01*
X011180Y032093D02*
X006501Y032093D01*
X006501Y032171D02*
X007477Y032171D01*
X007480Y032014D02*
X006501Y032014D01*
X006501Y031936D02*
X007332Y031936D01*
X007254Y031857D02*
X006501Y031857D01*
X006501Y031779D02*
X007212Y031779D01*
X007179Y031700D02*
X006501Y031700D01*
X006501Y031622D02*
X007171Y031622D01*
X007171Y031543D02*
X006501Y031543D01*
X006501Y031464D02*
X007187Y031464D01*
X007220Y031386D02*
X006501Y031386D01*
X006501Y031307D02*
X007273Y031307D01*
X007352Y031229D02*
X006501Y031229D01*
X006501Y031150D02*
X009212Y031150D01*
X009212Y031229D02*
X008470Y031229D01*
X008548Y031307D02*
X009236Y031307D01*
X009283Y031386D02*
X008602Y031386D01*
X008634Y031464D02*
X009389Y031464D01*
X009238Y031072D02*
X006549Y031072D01*
X006627Y030993D02*
X007430Y030993D01*
X007311Y030915D02*
X006706Y030915D01*
X006784Y030836D02*
X007236Y030836D01*
X007203Y030758D02*
X006863Y030758D01*
X006941Y030679D02*
X007171Y030679D01*
X007171Y030601D02*
X007020Y030601D01*
X007099Y030522D02*
X007171Y030522D01*
X007177Y030443D02*
X007196Y030443D01*
X008433Y030208D02*
X011009Y030208D01*
X011087Y030286D02*
X008527Y030286D01*
X008593Y030365D02*
X009730Y030365D01*
X009619Y030443D02*
X008625Y030443D01*
X008651Y030522D02*
X009550Y030522D01*
X009518Y030601D02*
X008651Y030601D01*
X008651Y030679D02*
X009493Y030679D01*
X009493Y030758D02*
X008618Y030758D01*
X008586Y030836D02*
X009498Y030836D01*
X009401Y030915D02*
X008510Y030915D01*
X008392Y030993D02*
X009288Y030993D01*
X008651Y031543D02*
X010249Y031543D01*
X010217Y031622D02*
X008651Y031622D01*
X008642Y031700D02*
X010212Y031700D01*
X010224Y031779D02*
X008610Y031779D01*
X008568Y031857D02*
X010256Y031857D01*
X010332Y031936D02*
X008489Y031936D01*
X008643Y032486D02*
X010029Y032486D01*
X010021Y032564D02*
X008651Y032564D01*
X008651Y032643D02*
X010021Y032643D01*
X010038Y032721D02*
X008634Y032721D01*
X008601Y032800D02*
X010071Y032800D01*
X010125Y032878D02*
X008547Y032878D01*
X008468Y032957D02*
X010203Y032957D01*
X010276Y033192D02*
X006546Y033192D01*
X006625Y033114D02*
X011420Y033114D01*
X011412Y033192D02*
X010646Y033192D01*
X010710Y033219D02*
X010834Y033343D01*
X010901Y033504D01*
X010901Y033680D01*
X010834Y033841D01*
X010710Y033965D01*
X010548Y034032D01*
X010373Y034032D01*
X010212Y033965D01*
X010088Y033841D01*
X010021Y033680D01*
X010021Y033504D01*
X010088Y033343D01*
X010212Y033219D01*
X010373Y033152D01*
X010548Y033152D01*
X010710Y033219D01*
X010762Y033271D02*
X011420Y033271D01*
X011453Y033350D02*
X010837Y033350D01*
X010869Y033428D02*
X011525Y033428D01*
X011897Y033428D02*
X012086Y033428D01*
X012164Y033507D02*
X010901Y033507D01*
X010901Y033585D02*
X012243Y033585D01*
X012321Y033664D02*
X010901Y033664D01*
X010875Y033742D02*
X012341Y033742D01*
X012341Y033821D02*
X010842Y033821D01*
X010776Y033899D02*
X011901Y033899D01*
X011760Y033978D02*
X010679Y033978D01*
X010647Y034214D02*
X011605Y034214D01*
X011591Y034292D02*
X010733Y034292D01*
X010784Y034343D02*
X010660Y034219D01*
X010498Y034152D01*
X010323Y034152D01*
X010162Y034219D01*
X010038Y034343D01*
X009971Y034504D01*
X009971Y034680D01*
X010038Y034841D01*
X010162Y034965D01*
X010323Y035032D01*
X010498Y035032D01*
X010660Y034965D01*
X010784Y034841D01*
X010851Y034680D01*
X010851Y034504D01*
X010784Y034343D01*
X010795Y034371D02*
X011591Y034371D01*
X011596Y034449D02*
X010828Y034449D01*
X010851Y034528D02*
X011629Y034528D01*
X011661Y034606D02*
X010851Y034606D01*
X010849Y034685D02*
X011739Y034685D01*
X011850Y034763D02*
X010816Y034763D01*
X010783Y034842D02*
X012341Y034842D01*
X012341Y034920D02*
X012271Y034920D01*
X012327Y034944D02*
X012459Y035076D01*
X012531Y035249D01*
X012531Y035436D01*
X012459Y035608D01*
X012327Y035740D01*
X012154Y035812D01*
X011967Y035812D01*
X011795Y035740D01*
X011662Y035608D01*
X011591Y035436D01*
X011591Y035249D01*
X011662Y035076D01*
X011795Y034944D01*
X011967Y034872D01*
X012154Y034872D01*
X012327Y034944D01*
X012382Y034999D02*
X012407Y034999D01*
X012460Y035077D02*
X012485Y035077D01*
X012492Y035156D02*
X012564Y035156D01*
X012597Y035235D02*
X012525Y035235D01*
X012531Y035313D02*
X012591Y035313D01*
X012591Y035392D02*
X012531Y035392D01*
X012516Y035470D02*
X012605Y035470D01*
X012638Y035549D02*
X012484Y035549D01*
X012440Y035627D02*
X012681Y035627D01*
X012760Y035706D02*
X012362Y035706D01*
X012221Y035784D02*
X012901Y035784D01*
X013221Y035784D02*
X013901Y035784D01*
X013760Y035706D02*
X013362Y035706D01*
X013440Y035627D02*
X013681Y035627D01*
X013638Y035549D02*
X013484Y035549D01*
X013516Y035470D02*
X013605Y035470D01*
X013591Y035392D02*
X013531Y035392D01*
X013531Y035313D02*
X013591Y035313D01*
X013597Y035235D02*
X013525Y035235D01*
X013492Y035156D02*
X013564Y035156D01*
X013485Y035077D02*
X013460Y035077D01*
X013407Y034999D02*
X013382Y034999D01*
X013341Y034920D02*
X013271Y034920D01*
X013341Y034842D02*
X012872Y034842D01*
X012852Y034763D02*
X012793Y034763D01*
X013021Y034763D02*
X013101Y034763D01*
X013101Y034685D02*
X013021Y034685D01*
X013021Y034606D02*
X013101Y034606D01*
X013101Y034528D02*
X013021Y034528D01*
X013021Y034449D02*
X013101Y034449D01*
X013101Y034302D02*
X013101Y033873D01*
X013171Y033884D01*
X013241Y033906D01*
X013307Y033940D01*
X013361Y033979D01*
X013361Y033953D01*
X013341Y033933D01*
X013341Y033733D01*
X012620Y033012D01*
X012292Y033012D01*
X012781Y033501D01*
X012781Y033683D01*
X012781Y033965D01*
X012814Y033940D01*
X012880Y033906D01*
X012951Y033884D01*
X013021Y033873D01*
X013021Y034302D01*
X013101Y034302D01*
X013101Y034292D02*
X013021Y034292D01*
X013021Y034214D02*
X013101Y034214D01*
X013101Y034135D02*
X013021Y034135D01*
X013021Y034056D02*
X013101Y034056D01*
X013101Y033978D02*
X013021Y033978D01*
X013021Y033899D02*
X013101Y033899D01*
X013219Y033899D02*
X013341Y033899D01*
X013341Y033821D02*
X012781Y033821D01*
X012781Y033899D02*
X012902Y033899D01*
X012781Y033742D02*
X013341Y033742D01*
X013271Y033664D02*
X012781Y033664D01*
X012781Y033585D02*
X013193Y033585D01*
X013114Y033507D02*
X012781Y033507D01*
X012708Y033428D02*
X013036Y033428D01*
X012957Y033350D02*
X012629Y033350D01*
X012551Y033271D02*
X012879Y033271D01*
X012800Y033192D02*
X012472Y033192D01*
X012394Y033114D02*
X012722Y033114D01*
X012643Y033035D02*
X012315Y033035D01*
X011282Y033035D02*
X006659Y033035D01*
X006692Y032957D02*
X007353Y032957D01*
X007275Y032878D02*
X006698Y032878D01*
X006698Y032800D02*
X007221Y032800D01*
X007188Y032721D02*
X006681Y032721D01*
X006649Y032643D02*
X007171Y032643D01*
X007171Y032564D02*
X006599Y032564D01*
X006520Y032486D02*
X007179Y032486D01*
X007211Y032407D02*
X006501Y032407D01*
X006501Y032328D02*
X007252Y032328D01*
X007331Y032250D02*
X006501Y032250D01*
X005981Y032250D02*
X005564Y032250D01*
X005485Y032328D02*
X005981Y032328D01*
X005981Y032407D02*
X005407Y032407D01*
X005328Y032486D02*
X005961Y032486D01*
X005883Y032564D02*
X005250Y032564D01*
X005171Y032643D02*
X005833Y032643D01*
X005800Y032721D02*
X005093Y032721D01*
X005014Y032800D02*
X005784Y032800D01*
X005784Y032878D02*
X004936Y032878D01*
X004857Y032957D02*
X005790Y032957D01*
X005822Y033035D02*
X004779Y033035D01*
X004628Y032564D02*
X004039Y032564D01*
X004010Y032464D02*
X004110Y032477D01*
X004121Y032477D01*
X004121Y031744D01*
X004121Y031664D01*
X004201Y031664D01*
X004201Y031744D01*
X004934Y031744D01*
X004934Y031755D01*
X004921Y031855D01*
X004894Y031953D01*
X004856Y032047D01*
X004805Y032135D01*
X004743Y032215D01*
X004672Y032287D01*
X004591Y032348D01*
X004503Y032399D01*
X004410Y032438D01*
X004312Y032464D01*
X004211Y032477D01*
X004201Y032477D01*
X004201Y031744D01*
X004121Y031744D01*
X003388Y031744D01*
X003388Y031755D01*
X003401Y031855D01*
X003427Y031953D01*
X003466Y032047D01*
X003517Y032135D01*
X003578Y032215D01*
X003650Y032287D01*
X003730Y032348D01*
X003818Y032399D01*
X003912Y032438D01*
X004010Y032464D01*
X003960Y032486D02*
X004706Y032486D01*
X004785Y032407D02*
X004484Y032407D01*
X004617Y032328D02*
X004863Y032328D01*
X004942Y032250D02*
X004708Y032250D01*
X004777Y032171D02*
X005020Y032171D01*
X005099Y032093D02*
X004829Y032093D01*
X004869Y032014D02*
X005177Y032014D01*
X005256Y031936D02*
X004899Y031936D01*
X004920Y031857D02*
X005334Y031857D01*
X005413Y031779D02*
X004931Y031779D01*
X004934Y031664D02*
X004201Y031664D01*
X004201Y030931D01*
X004211Y030931D01*
X004312Y030944D01*
X004410Y030971D01*
X004503Y031009D01*
X004591Y031060D01*
X004672Y031122D01*
X004743Y031193D01*
X004805Y031274D01*
X004856Y031362D01*
X004894Y031455D01*
X004921Y031553D01*
X004934Y031654D01*
X004934Y031664D01*
X004930Y031622D02*
X005570Y031622D01*
X005591Y031543D02*
X004918Y031543D01*
X004897Y031464D02*
X005591Y031464D01*
X005591Y031386D02*
X004866Y031386D01*
X004824Y031307D02*
X005591Y031307D01*
X005591Y031229D02*
X004770Y031229D01*
X004700Y031150D02*
X005591Y031150D01*
X005591Y031072D02*
X004606Y031072D01*
X004464Y030993D02*
X005591Y030993D01*
X005591Y030915D02*
X003221Y030915D01*
X003221Y030993D02*
X003857Y030993D01*
X003818Y031009D02*
X003912Y030971D01*
X004010Y030944D01*
X004110Y030931D01*
X004121Y030931D01*
X004121Y031664D01*
X003388Y031664D01*
X003388Y031654D01*
X003401Y031553D01*
X003427Y031455D01*
X003466Y031362D01*
X003517Y031274D01*
X003578Y031193D01*
X003650Y031122D01*
X003730Y031060D01*
X003818Y031009D01*
X003715Y031072D02*
X003221Y031072D01*
X003221Y031150D02*
X003621Y031150D01*
X003551Y031229D02*
X003221Y031229D01*
X003221Y031307D02*
X003497Y031307D01*
X003456Y031386D02*
X003221Y031386D01*
X003221Y031464D02*
X003425Y031464D01*
X003404Y031543D02*
X003221Y031543D01*
X003221Y031622D02*
X003392Y031622D01*
X003391Y031779D02*
X003221Y031779D01*
X003221Y031857D02*
X003401Y031857D01*
X003422Y031936D02*
X003221Y031936D01*
X003221Y032014D02*
X003452Y032014D01*
X003492Y032093D02*
X003221Y032093D01*
X003221Y032171D02*
X003545Y032171D01*
X003613Y032250D02*
X003221Y032250D01*
X003221Y032328D02*
X003704Y032328D01*
X003800Y032407D02*
X003837Y032407D01*
X003561Y032407D02*
X003221Y032407D01*
X003221Y032486D02*
X003401Y032486D01*
X003323Y032564D02*
X003221Y032564D01*
X003221Y032643D02*
X003273Y032643D01*
X003240Y032721D02*
X003221Y032721D01*
X003221Y032800D02*
X003224Y032800D01*
X003221Y032878D02*
X003224Y032878D01*
X003221Y032957D02*
X003230Y032957D01*
X003221Y033035D02*
X003262Y033035D01*
X003297Y033114D02*
X003221Y033114D01*
X003221Y033192D02*
X003375Y033192D01*
X003498Y033271D02*
X003221Y033271D01*
X003221Y033350D02*
X010085Y033350D01*
X010052Y033428D02*
X003221Y033428D01*
X003221Y033507D02*
X010021Y033507D01*
X010021Y033585D02*
X008845Y033585D01*
X008814Y033572D02*
X009097Y033689D01*
X009313Y033906D01*
X009431Y034189D01*
X009431Y034495D01*
X009313Y034778D01*
X009097Y034995D01*
X008814Y035112D01*
X008508Y035112D01*
X008225Y034995D01*
X008008Y034778D01*
X007891Y034495D01*
X007891Y034189D01*
X008008Y033906D01*
X008225Y033689D01*
X008508Y033572D01*
X008814Y033572D01*
X009035Y033664D02*
X010021Y033664D01*
X010047Y033742D02*
X009150Y033742D01*
X009228Y033821D02*
X010079Y033821D01*
X010146Y033899D02*
X009307Y033899D01*
X009343Y033978D02*
X010243Y033978D01*
X010175Y034214D02*
X009431Y034214D01*
X009431Y034292D02*
X010089Y034292D01*
X010026Y034371D02*
X009431Y034371D01*
X009431Y034449D02*
X009994Y034449D01*
X009971Y034528D02*
X009417Y034528D01*
X009385Y034606D02*
X009971Y034606D01*
X009973Y034685D02*
X009352Y034685D01*
X009320Y034763D02*
X010005Y034763D01*
X010038Y034842D02*
X009250Y034842D01*
X009171Y034920D02*
X010117Y034920D01*
X010243Y034999D02*
X009087Y034999D01*
X008897Y035077D02*
X011662Y035077D01*
X011629Y035156D02*
X010471Y035156D01*
X010450Y035156D02*
X010372Y035156D01*
X010372Y035153D02*
X010372Y035553D01*
X010450Y035553D01*
X010450Y035631D01*
X010850Y035631D01*
X010840Y035695D01*
X010819Y035761D01*
X010787Y035823D01*
X010746Y035879D01*
X010697Y035928D01*
X010641Y035968D01*
X010580Y036000D01*
X010514Y036021D01*
X010450Y036031D01*
X010450Y035631D01*
X010372Y035631D01*
X010372Y036031D01*
X010308Y036021D01*
X010242Y036000D01*
X010180Y035968D01*
X010124Y035928D01*
X010075Y035879D01*
X010034Y035823D01*
X010003Y035761D01*
X009982Y035695D01*
X009971Y035631D01*
X010372Y035631D01*
X010372Y035553D01*
X009971Y035553D01*
X009982Y035489D01*
X010003Y035423D01*
X010034Y035361D01*
X010075Y035305D01*
X010124Y035256D01*
X010180Y035216D01*
X010242Y035184D01*
X010308Y035163D01*
X010372Y035153D01*
X010351Y035156D02*
X008743Y035156D01*
X008822Y035235D02*
X010154Y035235D01*
X010070Y035313D02*
X008901Y035313D01*
X008851Y035263D02*
X008851Y035263D01*
X008979Y035392D02*
X010019Y035392D01*
X009988Y035470D02*
X009058Y035470D01*
X009136Y035549D02*
X009972Y035549D01*
X009985Y035706D02*
X009293Y035706D01*
X009215Y035627D02*
X010372Y035627D01*
X010450Y035627D02*
X011681Y035627D01*
X011638Y035549D02*
X010849Y035549D01*
X010850Y035553D02*
X010450Y035553D01*
X010450Y035153D01*
X010514Y035163D01*
X010580Y035184D01*
X010641Y035216D01*
X010697Y035256D01*
X010746Y035305D01*
X010787Y035361D01*
X010819Y035423D01*
X010840Y035489D01*
X010850Y035553D01*
X010834Y035470D02*
X011605Y035470D01*
X011591Y035392D02*
X010802Y035392D01*
X010752Y035313D02*
X011591Y035313D01*
X011597Y035235D02*
X010667Y035235D01*
X010450Y035235D02*
X010372Y035235D01*
X010372Y035313D02*
X010450Y035313D01*
X010450Y035392D02*
X010372Y035392D01*
X010372Y035470D02*
X010450Y035470D01*
X010450Y035549D02*
X010372Y035549D01*
X010372Y035706D02*
X010450Y035706D01*
X010450Y035784D02*
X010372Y035784D01*
X010372Y035863D02*
X010450Y035863D01*
X010450Y035941D02*
X010372Y035941D01*
X010372Y036020D02*
X010450Y036020D01*
X010517Y036020D02*
X020214Y036020D01*
X020136Y036099D02*
X009686Y036099D01*
X009607Y036020D02*
X010304Y036020D01*
X010143Y035941D02*
X009529Y035941D01*
X009450Y035863D02*
X010064Y035863D01*
X010015Y035784D02*
X009372Y035784D01*
X008424Y035077D02*
X006348Y035077D01*
X006348Y035078D02*
X006281Y035088D01*
X006281Y034672D01*
X006697Y034672D01*
X006686Y034739D01*
X006664Y034807D01*
X006631Y034871D01*
X006589Y034930D01*
X006538Y034980D01*
X006480Y035023D01*
X006416Y035055D01*
X006348Y035078D01*
X006281Y035077D02*
X006201Y035077D01*
X006201Y035088D02*
X006134Y035078D01*
X006065Y035055D01*
X006001Y035023D01*
X005943Y034980D01*
X005892Y034930D01*
X005850Y034871D01*
X005817Y034807D01*
X005795Y034739D01*
X005785Y034672D01*
X006201Y034672D01*
X006201Y035088D01*
X006133Y035077D02*
X003799Y035077D01*
X003960Y034999D02*
X005969Y034999D01*
X005886Y034920D02*
X004039Y034920D01*
X004088Y034842D02*
X005835Y034842D01*
X005803Y034763D02*
X004121Y034763D01*
X004138Y034685D02*
X005787Y034685D01*
X005785Y034592D02*
X005795Y034525D01*
X005817Y034457D01*
X005850Y034393D01*
X005892Y034334D01*
X005943Y034284D01*
X006001Y034241D01*
X006065Y034209D01*
X006134Y034186D01*
X006201Y034176D01*
X006201Y034592D01*
X006281Y034592D01*
X006281Y034672D01*
X006201Y034672D01*
X006201Y034592D01*
X005785Y034592D01*
X005795Y034528D02*
X004132Y034528D01*
X004138Y034606D02*
X006201Y034606D01*
X006201Y034528D02*
X006281Y034528D01*
X006281Y034592D02*
X006281Y034176D01*
X006348Y034186D01*
X006416Y034209D01*
X006480Y034241D01*
X006538Y034284D01*
X006589Y034334D01*
X006631Y034393D01*
X006664Y034457D01*
X006686Y034525D01*
X006697Y034592D01*
X006281Y034592D01*
X006281Y034606D02*
X007937Y034606D01*
X007904Y034528D02*
X006687Y034528D01*
X006660Y034449D02*
X007891Y034449D01*
X007891Y034371D02*
X006615Y034371D01*
X006547Y034292D02*
X007891Y034292D01*
X007891Y034214D02*
X006426Y034214D01*
X006281Y034214D02*
X006201Y034214D01*
X006201Y034292D02*
X006281Y034292D01*
X006281Y034371D02*
X006201Y034371D01*
X006201Y034449D02*
X006281Y034449D01*
X006281Y034685D02*
X006201Y034685D01*
X006201Y034763D02*
X006281Y034763D01*
X006281Y034842D02*
X006201Y034842D01*
X006201Y034920D02*
X006281Y034920D01*
X006281Y034999D02*
X006201Y034999D01*
X006513Y034999D02*
X008235Y034999D01*
X008150Y034920D02*
X006596Y034920D01*
X006647Y034842D02*
X008072Y034842D01*
X008002Y034763D02*
X006678Y034763D01*
X006695Y034685D02*
X007969Y034685D01*
X007913Y034135D02*
X003321Y034135D01*
X003243Y034056D02*
X007946Y034056D01*
X007978Y033978D02*
X003221Y033978D01*
X003221Y033899D02*
X008015Y033899D01*
X008093Y033821D02*
X003221Y033821D01*
X003221Y033742D02*
X008172Y033742D01*
X008286Y033664D02*
X003221Y033664D01*
X003221Y033585D02*
X008476Y033585D01*
X009376Y034056D02*
X011682Y034056D01*
X011638Y034135D02*
X009408Y034135D01*
X010160Y033271D02*
X006423Y033271D01*
X006058Y033271D02*
X003863Y033271D01*
X003986Y033192D02*
X005935Y033192D01*
X005857Y033114D02*
X004065Y033114D01*
X004121Y032407D02*
X004201Y032407D01*
X004201Y032328D02*
X004121Y032328D01*
X004121Y032250D02*
X004201Y032250D01*
X004201Y032171D02*
X004121Y032171D01*
X004121Y032093D02*
X004201Y032093D01*
X004201Y032014D02*
X004121Y032014D01*
X004121Y031936D02*
X004201Y031936D01*
X004201Y031857D02*
X004121Y031857D01*
X004121Y031779D02*
X004201Y031779D01*
X004201Y031700D02*
X005492Y031700D01*
X005800Y032014D02*
X005981Y032014D01*
X005981Y031936D02*
X005878Y031936D01*
X005957Y031857D02*
X005981Y031857D01*
X005981Y032093D02*
X005721Y032093D01*
X005643Y032171D02*
X005981Y032171D01*
X005591Y030836D02*
X003221Y030836D01*
X003221Y030758D02*
X005634Y030758D01*
X005713Y030679D02*
X003221Y030679D01*
X003221Y030601D02*
X005791Y030601D01*
X005720Y030672D02*
X005720Y030672D01*
X005870Y030522D02*
X003221Y030522D01*
X003221Y030443D02*
X005948Y030443D01*
X006027Y030365D02*
X003221Y030365D01*
X003221Y030286D02*
X006105Y030286D01*
X005757Y030208D02*
X005486Y030208D01*
X005565Y030129D02*
X005678Y030129D01*
X004969Y030208D02*
X003221Y030208D01*
X003221Y030129D02*
X004891Y030129D01*
X004812Y030051D02*
X003221Y030051D01*
X003221Y029972D02*
X004781Y029972D01*
X004781Y029894D02*
X003277Y029894D01*
X003355Y029815D02*
X004781Y029815D01*
X004781Y029737D02*
X003434Y029737D01*
X003512Y029658D02*
X004781Y029658D01*
X004850Y029579D02*
X003591Y029579D01*
X003670Y029501D02*
X004929Y029501D01*
X005007Y029422D02*
X003748Y029422D01*
X003827Y029344D02*
X005348Y029344D01*
X005268Y029265D02*
X005188Y029265D01*
X005188Y029187D02*
X005268Y029187D01*
X005268Y029108D02*
X005188Y029108D01*
X005188Y029030D02*
X005268Y029030D01*
X005268Y028951D02*
X005188Y028951D01*
X005188Y028873D02*
X004298Y028873D01*
X004219Y028951D02*
X004781Y028951D01*
X004781Y029030D02*
X004141Y029030D01*
X004062Y029108D02*
X004854Y029108D01*
X004932Y029187D02*
X003984Y029187D01*
X003905Y029265D02*
X005011Y029265D01*
X005188Y028810D02*
X004781Y028810D01*
X004781Y028665D01*
X005043Y028403D01*
X005188Y028403D01*
X005188Y028810D01*
X005188Y028794D02*
X005268Y028794D01*
X005268Y028715D02*
X005188Y028715D01*
X005188Y028637D02*
X005268Y028637D01*
X005268Y028558D02*
X005188Y028558D01*
X005188Y028480D02*
X005268Y028480D01*
X005490Y028480D02*
X005753Y028480D01*
X005674Y028558D02*
X005568Y028558D01*
X004966Y028480D02*
X004691Y028480D01*
X004769Y028401D02*
X012340Y028401D01*
X012262Y028480D02*
X006277Y028480D01*
X006356Y028558D02*
X012183Y028558D01*
X012105Y028637D02*
X006434Y028637D01*
X006462Y028715D02*
X012026Y028715D01*
X012419Y028323D02*
X004848Y028323D01*
X004926Y028244D02*
X007623Y028244D01*
X007544Y028166D02*
X005005Y028166D01*
X004887Y028558D02*
X004612Y028558D01*
X004534Y028637D02*
X004809Y028637D01*
X004781Y028715D02*
X004455Y028715D01*
X004376Y028794D02*
X004781Y028794D01*
X004112Y028323D02*
X002851Y028323D01*
X002851Y028401D02*
X004034Y028401D01*
X003955Y028480D02*
X002851Y028480D01*
X002851Y028558D02*
X003877Y028558D01*
X003798Y028637D02*
X002851Y028637D01*
X002851Y028715D02*
X003720Y028715D01*
X003641Y028794D02*
X002851Y028794D01*
X002851Y028873D02*
X003563Y028873D01*
X003484Y028951D02*
X002851Y028951D01*
X002851Y029030D02*
X003406Y029030D01*
X003327Y029108D02*
X002851Y029108D01*
X002851Y029187D02*
X003248Y029187D01*
X003170Y029265D02*
X002851Y029265D01*
X002851Y029344D02*
X003091Y029344D01*
X003013Y029422D02*
X002851Y029422D01*
X002851Y029501D02*
X002934Y029501D01*
X002856Y029579D02*
X002851Y029579D01*
X002851Y029584D02*
X004690Y027745D01*
X004764Y027672D01*
X004859Y027632D01*
X007530Y027632D01*
X007624Y027538D01*
X007736Y027492D01*
X007624Y027446D01*
X007507Y027329D01*
X007443Y027175D01*
X007443Y027009D01*
X007507Y026856D01*
X007624Y026738D01*
X007778Y026675D01*
X007944Y026675D01*
X008097Y026738D01*
X008191Y026832D01*
X009209Y026832D01*
X009312Y026832D01*
X009408Y026872D01*
X009861Y027325D01*
X009994Y027325D01*
X010147Y027388D01*
X010241Y027482D01*
X010580Y027482D01*
X010674Y027388D01*
X010828Y027325D01*
X010994Y027325D01*
X011112Y027374D01*
X011112Y027283D01*
X011158Y027173D01*
X011242Y027089D01*
X011351Y027044D01*
X011398Y027044D01*
X011520Y026922D01*
X011702Y026922D01*
X012320Y026922D01*
X013700Y025542D01*
X013577Y025542D01*
X013423Y025478D01*
X013379Y025435D01*
X012081Y026733D01*
X011952Y026862D01*
X011020Y026862D01*
X011013Y026862D01*
X010980Y026895D01*
X010870Y026940D01*
X010751Y026940D01*
X010642Y026895D01*
X010558Y026811D01*
X010512Y026701D01*
X010512Y026583D01*
X010558Y026473D01*
X010642Y026389D01*
X010751Y026344D01*
X010870Y026344D01*
X010980Y026389D01*
X011013Y026422D01*
X011020Y026422D01*
X011770Y026422D01*
X012650Y025542D01*
X012577Y025542D01*
X012423Y025478D01*
X012379Y025435D01*
X011731Y026083D01*
X011602Y026212D01*
X010702Y026212D01*
X010609Y026305D01*
X010609Y026351D01*
X010564Y026461D01*
X010480Y026545D01*
X010370Y026590D01*
X010251Y026590D01*
X010142Y026545D01*
X010061Y026464D01*
X009980Y026545D01*
X009870Y026590D01*
X009751Y026590D01*
X009642Y026545D01*
X009561Y026464D01*
X009480Y026545D01*
X009370Y026590D01*
X009251Y026590D01*
X009142Y026545D01*
X009061Y026464D01*
X008980Y026545D01*
X008870Y026590D01*
X008751Y026590D01*
X008642Y026545D01*
X008558Y026461D01*
X008512Y026351D01*
X008512Y026233D01*
X008558Y026123D01*
X008642Y026039D01*
X008751Y025994D01*
X008798Y025994D01*
X008941Y025851D01*
X008941Y024251D01*
X009070Y024122D01*
X010020Y023172D01*
X010202Y023172D01*
X010820Y023172D01*
X012220Y021772D01*
X012402Y021772D01*
X026402Y021772D01*
X026531Y021901D01*
X028791Y024162D01*
X028899Y024206D01*
X029017Y024324D01*
X029081Y024478D01*
X029081Y025206D01*
X029017Y025360D01*
X028899Y025478D01*
X028744Y025542D01*
X028577Y025542D01*
X028423Y025478D01*
X028305Y025360D01*
X028241Y025206D01*
X028241Y024478D01*
X028305Y024324D01*
X028318Y024311D01*
X026220Y022212D01*
X025842Y022212D01*
X027791Y024162D01*
X027899Y024206D01*
X028017Y024324D01*
X028081Y024478D01*
X028081Y025206D01*
X028017Y025360D01*
X027899Y025478D01*
X027744Y025542D01*
X027577Y025542D01*
X027423Y025478D01*
X027305Y025360D01*
X027241Y025206D01*
X027241Y024478D01*
X027305Y024324D01*
X027318Y024311D01*
X025520Y022512D01*
X021892Y022512D01*
X022173Y022794D01*
X022220Y022794D01*
X022330Y022839D01*
X022414Y022923D01*
X022459Y023033D01*
X022459Y023151D01*
X022414Y023261D01*
X022330Y023345D01*
X022220Y023390D01*
X022101Y023390D01*
X021992Y023345D01*
X021908Y023261D01*
X021862Y023151D01*
X021862Y023105D01*
X021570Y022812D01*
X021442Y022812D01*
X022791Y024162D01*
X022899Y024206D01*
X023017Y024324D01*
X023081Y024478D01*
X023081Y025206D01*
X023017Y025360D01*
X023005Y025372D01*
X023317Y025372D01*
X023305Y025360D01*
X023241Y025206D01*
X023241Y024478D01*
X023305Y024324D01*
X023423Y024206D01*
X023577Y024142D01*
X023744Y024142D01*
X023899Y024206D01*
X024017Y024324D01*
X024081Y024478D01*
X024081Y025206D01*
X024017Y025360D01*
X024005Y025372D01*
X024317Y025372D01*
X024305Y025360D01*
X024241Y025206D01*
X024241Y024478D01*
X024305Y024324D01*
X024423Y024206D01*
X024577Y024142D01*
X024744Y024142D01*
X024899Y024206D01*
X025017Y024324D01*
X025081Y024478D01*
X025081Y025111D01*
X025241Y024951D01*
X025241Y024478D01*
X025305Y024324D01*
X025423Y024206D01*
X025577Y024142D01*
X025744Y024142D01*
X025899Y024206D01*
X026017Y024324D01*
X026081Y024478D01*
X026081Y025206D01*
X026017Y025360D01*
X025899Y025478D01*
X025744Y025542D01*
X025577Y025542D01*
X025423Y025478D01*
X025379Y025435D01*
X025002Y025812D01*
X024820Y025812D01*
X018921Y025812D01*
X018965Y025856D01*
X018971Y025872D01*
X020320Y025872D01*
X020502Y025872D01*
X020678Y026048D01*
X020696Y026030D01*
X020835Y025972D01*
X020986Y025972D01*
X021126Y026030D01*
X021233Y026137D01*
X021291Y026276D01*
X021291Y026908D01*
X021233Y027047D01*
X021208Y027072D01*
X021618Y027072D01*
X021617Y027071D01*
X021576Y027009D01*
X021547Y026940D01*
X021533Y026867D01*
X021533Y026611D01*
X021891Y026611D01*
X021891Y026573D01*
X021533Y026573D01*
X021533Y026317D01*
X021547Y026244D01*
X021576Y026175D01*
X021617Y026113D01*
X021670Y026060D01*
X021732Y026019D01*
X021800Y025990D01*
X021874Y025976D01*
X021892Y025976D01*
X021892Y026573D01*
X021930Y026573D01*
X021930Y026611D01*
X022289Y026611D01*
X022289Y026867D01*
X022280Y026912D01*
X022531Y026661D01*
X022531Y026276D01*
X022589Y026137D01*
X022696Y026030D01*
X022835Y025972D01*
X022986Y025972D01*
X023126Y026030D01*
X023233Y026137D01*
X023291Y026276D01*
X023291Y026908D01*
X023233Y027047D01*
X023126Y027154D01*
X022986Y027212D01*
X022835Y027212D01*
X022696Y027154D01*
X022678Y027136D01*
X022442Y027372D01*
X025100Y027372D01*
X025092Y027364D01*
X025054Y027311D01*
X025024Y027252D01*
X025004Y027190D01*
X024994Y027131D01*
X025372Y027131D01*
X025372Y027053D01*
X025450Y027053D01*
X025450Y027131D01*
X025827Y027131D01*
X025818Y027190D01*
X025798Y027252D01*
X025768Y027311D01*
X025729Y027364D01*
X025721Y027372D01*
X026459Y027372D01*
X026492Y027339D01*
X026601Y027294D01*
X026720Y027294D01*
X026830Y027339D01*
X026914Y027423D01*
X026959Y027533D01*
X026959Y027651D01*
X026939Y027699D01*
X027077Y027642D01*
X027244Y027642D01*
X027399Y027706D01*
X027441Y027748D01*
X027441Y027509D01*
X027328Y027509D01*
X027174Y027446D01*
X027057Y027329D01*
X026993Y027175D01*
X026993Y027009D01*
X027057Y026856D01*
X027174Y026738D01*
X027328Y026675D01*
X027494Y026675D01*
X027647Y026738D01*
X027765Y026856D01*
X027828Y027009D01*
X027828Y027175D01*
X027821Y027192D01*
X027881Y027251D01*
X027881Y027433D01*
X027881Y029433D01*
X027752Y029562D01*
X026752Y030562D01*
X026570Y030562D01*
X022752Y030562D01*
X022503Y030811D01*
X022517Y030824D01*
X022581Y030978D01*
X022581Y031706D01*
X022517Y031860D01*
X022455Y031922D01*
X022867Y031922D01*
X022840Y031896D01*
X022802Y031842D01*
X022772Y031783D01*
X022751Y031720D01*
X022741Y031655D01*
X022741Y031382D01*
X023121Y031382D01*
X023121Y031302D01*
X023201Y031302D01*
X023201Y031382D01*
X023581Y031382D01*
X023581Y031655D01*
X023570Y031720D01*
X023550Y031783D01*
X023520Y031842D01*
X023481Y031896D01*
X023455Y031922D01*
X023820Y031922D01*
X023867Y031922D01*
X023805Y031860D01*
X023741Y031706D01*
X023741Y030978D01*
X023805Y030824D01*
X023923Y030706D01*
X024077Y030642D01*
X024244Y030642D01*
X024399Y030706D01*
X024517Y030824D01*
X024581Y030978D01*
X024581Y031706D01*
X024517Y031860D01*
X024505Y031872D01*
X024817Y031872D01*
X024805Y031860D01*
X024741Y031706D01*
X024741Y030978D01*
X024805Y030824D01*
X024923Y030706D01*
X025077Y030642D01*
X025244Y030642D01*
X025399Y030706D01*
X025517Y030824D01*
X025581Y030978D01*
X025581Y031706D01*
X025517Y031860D01*
X025505Y031872D01*
X025817Y031872D01*
X025805Y031860D01*
X025741Y031706D01*
X025741Y030978D01*
X025805Y030824D01*
X025923Y030706D01*
X026077Y030642D01*
X026244Y030642D01*
X026399Y030706D01*
X026517Y030824D01*
X026581Y030978D01*
X026581Y031706D01*
X026517Y031860D01*
X026505Y031872D01*
X026817Y031872D01*
X026805Y031860D01*
X026741Y031706D01*
X026741Y030978D01*
X026805Y030824D01*
X026923Y030706D01*
X027077Y030642D01*
X027244Y030642D01*
X027399Y030706D01*
X027517Y030824D01*
X027581Y030978D01*
X027581Y031706D01*
X027517Y031860D01*
X027505Y031872D01*
X027552Y031872D01*
X027573Y031894D01*
X027620Y031894D01*
X027730Y031939D01*
X027814Y032023D01*
X027859Y032133D01*
X027859Y032251D01*
X027814Y032361D01*
X027730Y032445D01*
X027620Y032490D01*
X027501Y032490D01*
X027392Y032445D01*
X027308Y032361D01*
X027287Y032312D01*
X026930Y032312D01*
X026959Y032383D01*
X026959Y032501D01*
X026914Y032611D01*
X026830Y032695D01*
X026720Y032740D01*
X026601Y032740D01*
X026492Y032695D01*
X026459Y032662D01*
X026252Y032662D01*
X025902Y033012D01*
X025720Y033012D01*
X025363Y033012D01*
X025330Y033045D01*
X025220Y033090D01*
X025101Y033090D01*
X024992Y033045D01*
X024945Y032998D01*
X024959Y033033D01*
X024959Y033151D01*
X024930Y033222D01*
X025870Y033222D01*
X026170Y032922D01*
X026352Y032922D01*
X026867Y032922D01*
X026908Y032823D01*
X026992Y032739D01*
X027101Y032694D01*
X027220Y032694D01*
X027330Y032739D01*
X027414Y032823D01*
X027459Y032933D01*
X027459Y033051D01*
X027414Y033161D01*
X027330Y033245D01*
X027220Y033290D01*
X027173Y033290D01*
X027102Y033362D01*
X026352Y033362D01*
X026257Y033457D01*
X026331Y033488D01*
X026415Y033572D01*
X026461Y033682D01*
X026461Y033802D01*
X026425Y033888D01*
X026559Y033832D01*
X026762Y033832D01*
X026950Y033910D01*
X027093Y034053D01*
X027161Y034216D01*
X027228Y034053D01*
X027372Y033910D01*
X027559Y033832D01*
X027762Y033832D01*
X027862Y033874D01*
X027862Y033783D01*
X027908Y033673D01*
X027992Y033589D01*
X028101Y033544D01*
X028220Y033544D01*
X028330Y033589D01*
X028414Y033673D01*
X028459Y033783D01*
X028459Y033829D01*
X028471Y033841D01*
X028471Y030163D01*
X028582Y030052D01*
X028582Y030052D01*
X029471Y029163D01*
X029471Y016421D01*
X028582Y015532D01*
X028471Y015421D01*
X028471Y014532D01*
X026239Y014532D01*
X026082Y014532D01*
X025082Y013532D01*
X008239Y013532D01*
X007351Y014421D01*
X007239Y014532D01*
X002851Y014532D01*
X002851Y029584D01*
X002851Y028244D02*
X004191Y028244D01*
X004269Y028166D02*
X002851Y028166D01*
X002851Y028087D02*
X004348Y028087D01*
X004427Y028009D02*
X002851Y028009D01*
X002851Y027930D02*
X004505Y027930D01*
X004584Y027851D02*
X002851Y027851D01*
X002851Y027773D02*
X004662Y027773D01*
X004690Y027745D02*
X004690Y027745D01*
X004741Y027694D02*
X004456Y027694D01*
X004410Y027713D02*
X004312Y027740D01*
X004211Y027753D01*
X004201Y027753D01*
X004201Y027020D01*
X004934Y027020D01*
X004934Y027031D01*
X004921Y027131D01*
X004894Y027229D01*
X004856Y027322D01*
X004805Y027410D01*
X004743Y027491D01*
X004672Y027562D01*
X004591Y027624D01*
X004503Y027675D01*
X004410Y027713D01*
X004201Y027694D02*
X004121Y027694D01*
X004121Y027753D02*
X004110Y027753D01*
X004010Y027740D01*
X003912Y027713D01*
X003818Y027675D01*
X003730Y027624D01*
X003650Y027562D01*
X003578Y027491D01*
X003517Y027410D01*
X003466Y027322D01*
X003427Y027229D01*
X003401Y027131D01*
X003388Y027031D01*
X003388Y027020D01*
X004121Y027020D01*
X004121Y027753D01*
X004121Y027616D02*
X004201Y027616D01*
X004201Y027537D02*
X004121Y027537D01*
X004121Y027459D02*
X004201Y027459D01*
X004201Y027380D02*
X004121Y027380D01*
X004121Y027302D02*
X004201Y027302D01*
X004201Y027223D02*
X004121Y027223D01*
X004121Y027145D02*
X004201Y027145D01*
X004201Y027066D02*
X004121Y027066D01*
X004121Y027020D02*
X004201Y027020D01*
X004201Y026940D01*
X004934Y026940D01*
X004934Y026929D01*
X004921Y026829D01*
X004894Y026731D01*
X004856Y026637D01*
X004805Y026549D01*
X004743Y026469D01*
X004672Y026397D01*
X004591Y026336D01*
X004503Y026285D01*
X004410Y026246D01*
X004312Y026220D01*
X004211Y026207D01*
X004201Y026207D01*
X004201Y026940D01*
X004121Y026940D01*
X003388Y026940D01*
X003388Y026929D01*
X003401Y026829D01*
X003427Y026731D01*
X003466Y026637D01*
X003517Y026549D01*
X003578Y026469D01*
X003650Y026397D01*
X003730Y026336D01*
X003818Y026285D01*
X003912Y026246D01*
X004010Y026220D01*
X004110Y026207D01*
X004121Y026207D01*
X004121Y026940D01*
X004121Y027020D01*
X004121Y026988D02*
X002851Y026988D01*
X002851Y027066D02*
X003392Y027066D01*
X003405Y027145D02*
X002851Y027145D01*
X002851Y027223D02*
X003426Y027223D01*
X003457Y027302D02*
X002851Y027302D01*
X002851Y027380D02*
X003499Y027380D01*
X003554Y027459D02*
X002851Y027459D01*
X002851Y027537D02*
X003625Y027537D01*
X003720Y027616D02*
X002851Y027616D01*
X002851Y027694D02*
X003866Y027694D01*
X004602Y027616D02*
X007547Y027616D01*
X007626Y027537D02*
X004697Y027537D01*
X004768Y027459D02*
X007655Y027459D01*
X007559Y027380D02*
X004822Y027380D01*
X004864Y027302D02*
X007496Y027302D01*
X007463Y027223D02*
X004896Y027223D01*
X004917Y027145D02*
X007443Y027145D01*
X007443Y027066D02*
X004929Y027066D01*
X004931Y026909D02*
X007485Y026909D01*
X007452Y026988D02*
X004201Y026988D01*
X004201Y026909D02*
X004121Y026909D01*
X004121Y026830D02*
X004201Y026830D01*
X004201Y026752D02*
X004121Y026752D01*
X004121Y026673D02*
X004201Y026673D01*
X004201Y026595D02*
X004121Y026595D01*
X004121Y026516D02*
X004201Y026516D01*
X004201Y026438D02*
X004121Y026438D01*
X004121Y026359D02*
X004201Y026359D01*
X004201Y026281D02*
X004121Y026281D01*
X003829Y026281D02*
X002851Y026281D01*
X002851Y026359D02*
X003700Y026359D01*
X003610Y026438D02*
X002851Y026438D01*
X002851Y026516D02*
X003542Y026516D01*
X003490Y026595D02*
X002851Y026595D01*
X002851Y026673D02*
X003451Y026673D01*
X003421Y026752D02*
X002851Y026752D01*
X002851Y026830D02*
X003401Y026830D01*
X003390Y026909D02*
X002851Y026909D01*
X002851Y026202D02*
X008525Y026202D01*
X008512Y026281D02*
X004493Y026281D01*
X004622Y026359D02*
X008516Y026359D01*
X008548Y026438D02*
X004712Y026438D01*
X004779Y026516D02*
X008613Y026516D01*
X009009Y026516D02*
X009113Y026516D01*
X009509Y026516D02*
X009613Y026516D01*
X010009Y026516D02*
X010113Y026516D01*
X010509Y026516D02*
X010540Y026516D01*
X010512Y026595D02*
X004831Y026595D01*
X004871Y026673D02*
X010512Y026673D01*
X010533Y026752D02*
X008111Y026752D01*
X008190Y026830D02*
X010577Y026830D01*
X010675Y026909D02*
X009445Y026909D01*
X009524Y026988D02*
X011454Y026988D01*
X011297Y027066D02*
X009602Y027066D01*
X009681Y027145D02*
X011186Y027145D01*
X011137Y027223D02*
X009760Y027223D01*
X009838Y027302D02*
X011112Y027302D01*
X010693Y027380D02*
X010128Y027380D01*
X010218Y027459D02*
X010604Y027459D01*
X010946Y026909D02*
X012333Y026909D01*
X012411Y026830D02*
X011983Y026830D01*
X012062Y026752D02*
X012490Y026752D01*
X012568Y026673D02*
X012141Y026673D01*
X012219Y026595D02*
X012647Y026595D01*
X012725Y026516D02*
X012298Y026516D01*
X012376Y026438D02*
X012804Y026438D01*
X012883Y026359D02*
X012455Y026359D01*
X012533Y026281D02*
X012961Y026281D01*
X013040Y026202D02*
X012612Y026202D01*
X012690Y026124D02*
X013118Y026124D01*
X013197Y026045D02*
X012769Y026045D01*
X012847Y025966D02*
X013275Y025966D01*
X013354Y025888D02*
X012926Y025888D01*
X013005Y025809D02*
X013432Y025809D01*
X013511Y025731D02*
X013083Y025731D01*
X013162Y025652D02*
X013589Y025652D01*
X013668Y025574D02*
X013240Y025574D01*
X013319Y025495D02*
X013464Y025495D01*
X012618Y025574D02*
X012240Y025574D01*
X012162Y025652D02*
X012539Y025652D01*
X012461Y025731D02*
X012083Y025731D01*
X012005Y025809D02*
X012382Y025809D01*
X012304Y025888D02*
X011926Y025888D01*
X011847Y025966D02*
X012225Y025966D01*
X012147Y026045D02*
X011769Y026045D01*
X011690Y026124D02*
X012068Y026124D01*
X011990Y026202D02*
X011612Y026202D01*
X011833Y026359D02*
X010908Y026359D01*
X010714Y026359D02*
X010606Y026359D01*
X010593Y026438D02*
X010573Y026438D01*
X010633Y026281D02*
X011911Y026281D01*
X012319Y025495D02*
X012464Y025495D01*
X013869Y026752D02*
X013990Y026752D01*
X013947Y026673D02*
X014068Y026673D01*
X014026Y026595D02*
X014147Y026595D01*
X014104Y026516D02*
X014225Y026516D01*
X014183Y026438D02*
X014304Y026438D01*
X014261Y026359D02*
X014383Y026359D01*
X014340Y026281D02*
X014461Y026281D01*
X014418Y026202D02*
X014540Y026202D01*
X014497Y026124D02*
X014618Y026124D01*
X014575Y026045D02*
X014697Y026045D01*
X014654Y025966D02*
X014775Y025966D01*
X014732Y025888D02*
X014854Y025888D01*
X014891Y025851D02*
X014891Y025851D01*
X015202Y026162D02*
X013992Y027372D01*
X016300Y027372D01*
X016292Y027364D01*
X016254Y027311D01*
X016224Y027252D01*
X016204Y027190D01*
X016194Y027131D01*
X016572Y027131D01*
X016572Y027053D01*
X016650Y027053D01*
X016650Y027131D01*
X017027Y027131D01*
X017018Y027190D01*
X016998Y027252D01*
X016968Y027311D01*
X016929Y027364D01*
X016921Y027372D01*
X018300Y027372D01*
X018257Y027329D01*
X018193Y027175D01*
X018193Y027009D01*
X018257Y026856D01*
X018374Y026738D01*
X018528Y026675D01*
X018694Y026675D01*
X018847Y026738D01*
X018965Y026856D01*
X019028Y027009D01*
X019028Y027072D01*
X020613Y027072D01*
X020589Y027047D01*
X020531Y026908D01*
X020531Y026523D01*
X020320Y026312D01*
X018971Y026312D01*
X018965Y026329D01*
X018847Y026446D01*
X018694Y026509D01*
X018528Y026509D01*
X018374Y026446D01*
X018257Y026329D01*
X018193Y026175D01*
X018193Y026009D01*
X018257Y025856D01*
X018300Y025812D01*
X016921Y025812D01*
X016929Y025820D01*
X016968Y025873D01*
X016998Y025932D01*
X017018Y025994D01*
X017027Y026053D01*
X016650Y026053D01*
X016650Y026131D01*
X017027Y026131D01*
X017018Y026190D01*
X016998Y026252D01*
X016968Y026311D01*
X016929Y026364D01*
X016883Y026410D01*
X016830Y026449D01*
X016771Y026479D01*
X016709Y026499D01*
X016650Y026509D01*
X016650Y026131D01*
X016572Y026131D01*
X016572Y026509D01*
X016513Y026499D01*
X016451Y026479D01*
X016392Y026449D01*
X016339Y026410D01*
X016292Y026364D01*
X016254Y026311D01*
X016224Y026252D01*
X016204Y026190D01*
X016194Y026131D01*
X016572Y026131D01*
X016572Y026053D01*
X016261Y026053D01*
X016152Y026162D01*
X015970Y026162D01*
X015202Y026162D01*
X015162Y026202D02*
X016208Y026202D01*
X016190Y026124D02*
X016572Y026124D01*
X016650Y026124D02*
X018193Y026124D01*
X018205Y026202D02*
X017014Y026202D01*
X016983Y026281D02*
X018237Y026281D01*
X018288Y026359D02*
X016933Y026359D01*
X016845Y026438D02*
X018366Y026438D01*
X018361Y026752D02*
X016853Y026752D01*
X016830Y026735D02*
X016883Y026774D01*
X016929Y026820D01*
X016968Y026873D01*
X016998Y026932D01*
X017018Y026994D01*
X017027Y027053D01*
X016650Y027053D01*
X016650Y026675D01*
X016709Y026685D01*
X016771Y026705D01*
X016830Y026735D01*
X016937Y026830D02*
X018282Y026830D01*
X018235Y026909D02*
X016986Y026909D01*
X017016Y026988D02*
X018202Y026988D01*
X018193Y027066D02*
X016650Y027066D01*
X016572Y027066D02*
X014298Y027066D01*
X014376Y026988D02*
X016206Y026988D01*
X016204Y026994D02*
X016224Y026932D01*
X016254Y026873D01*
X016292Y026820D01*
X016339Y026774D01*
X016392Y026735D01*
X016451Y026705D01*
X016513Y026685D01*
X016572Y026675D01*
X016572Y027053D01*
X016194Y027053D01*
X016204Y026994D01*
X016236Y026909D02*
X014455Y026909D01*
X014533Y026830D02*
X016285Y026830D01*
X016369Y026752D02*
X014612Y026752D01*
X014691Y026673D02*
X020531Y026673D01*
X020531Y026595D02*
X014769Y026595D01*
X014848Y026516D02*
X020524Y026516D01*
X020445Y026438D02*
X018855Y026438D01*
X018934Y026359D02*
X020367Y026359D01*
X020531Y026752D02*
X018861Y026752D01*
X018940Y026830D02*
X020531Y026830D01*
X020531Y026909D02*
X018987Y026909D01*
X019019Y026988D02*
X020564Y026988D01*
X020607Y027066D02*
X019028Y027066D01*
X018246Y027302D02*
X016972Y027302D01*
X017007Y027223D02*
X018213Y027223D01*
X018193Y027145D02*
X017025Y027145D01*
X016650Y026988D02*
X016572Y026988D01*
X016572Y026909D02*
X016650Y026909D01*
X016650Y026830D02*
X016572Y026830D01*
X016572Y026752D02*
X016650Y026752D01*
X016650Y026438D02*
X016572Y026438D01*
X016572Y026359D02*
X016650Y026359D01*
X016650Y026281D02*
X016572Y026281D01*
X016572Y026202D02*
X016650Y026202D01*
X016376Y026438D02*
X014926Y026438D01*
X015005Y026359D02*
X016289Y026359D01*
X016238Y026281D02*
X015083Y026281D01*
X014219Y027145D02*
X016196Y027145D01*
X016214Y027223D02*
X014141Y027223D01*
X014062Y027302D02*
X016249Y027302D01*
X017026Y026045D02*
X018193Y026045D01*
X018211Y025966D02*
X017009Y025966D01*
X016975Y025888D02*
X018243Y025888D01*
X018323Y025372D02*
X018302Y025342D01*
X018272Y025283D01*
X018251Y025220D01*
X018241Y025155D01*
X018241Y024882D01*
X018621Y024882D01*
X018621Y024802D01*
X018701Y024802D01*
X018701Y024882D01*
X019081Y024882D01*
X019081Y025155D01*
X019070Y025220D01*
X019050Y025283D01*
X019020Y025342D01*
X018998Y025372D01*
X019317Y025372D01*
X019305Y025360D01*
X019241Y025206D01*
X019241Y024478D01*
X019305Y024324D01*
X019318Y024311D01*
X019220Y024212D01*
X019020Y024012D01*
X017592Y024012D01*
X017712Y024132D01*
X017712Y024132D01*
X017737Y024142D01*
X017744Y024142D01*
X017899Y024206D01*
X018017Y024324D01*
X018081Y024478D01*
X018081Y025206D01*
X018017Y025360D01*
X018005Y025372D01*
X018323Y025372D01*
X018300Y025338D02*
X018026Y025338D01*
X018058Y025260D02*
X018264Y025260D01*
X018245Y025181D02*
X018081Y025181D01*
X018081Y025102D02*
X018241Y025102D01*
X018241Y025024D02*
X018081Y025024D01*
X018081Y024945D02*
X018241Y024945D01*
X018241Y024802D02*
X018241Y024529D01*
X018251Y024464D01*
X018272Y024401D01*
X018302Y024342D01*
X018340Y024288D01*
X018387Y024242D01*
X018441Y024203D01*
X018500Y024173D01*
X018562Y024152D01*
X018621Y024143D01*
X018621Y024802D01*
X018241Y024802D01*
X018241Y024788D02*
X018081Y024788D01*
X018081Y024710D02*
X018241Y024710D01*
X018241Y024631D02*
X018081Y024631D01*
X018081Y024553D02*
X018241Y024553D01*
X018249Y024474D02*
X018079Y024474D01*
X018046Y024396D02*
X018274Y024396D01*
X018320Y024317D02*
X018010Y024317D01*
X017931Y024239D02*
X018392Y024239D01*
X018539Y024160D02*
X017788Y024160D01*
X017661Y024081D02*
X019089Y024081D01*
X019168Y024160D02*
X018782Y024160D01*
X018759Y024152D02*
X018822Y024173D01*
X018881Y024203D01*
X018934Y024242D01*
X018981Y024288D01*
X019020Y024342D01*
X019050Y024401D01*
X019070Y024464D01*
X019081Y024529D01*
X019081Y024802D01*
X018701Y024802D01*
X018701Y024143D01*
X018759Y024152D01*
X018701Y024160D02*
X018621Y024160D01*
X018621Y024239D02*
X018701Y024239D01*
X018701Y024317D02*
X018621Y024317D01*
X018621Y024396D02*
X018701Y024396D01*
X018701Y024474D02*
X018621Y024474D01*
X018621Y024553D02*
X018701Y024553D01*
X018701Y024631D02*
X018621Y024631D01*
X018621Y024710D02*
X018701Y024710D01*
X018701Y024788D02*
X018621Y024788D01*
X018621Y024867D02*
X018081Y024867D01*
X018701Y024867D02*
X019241Y024867D01*
X019241Y024945D02*
X019081Y024945D01*
X019081Y025024D02*
X019241Y025024D01*
X019241Y025102D02*
X019081Y025102D01*
X019077Y025181D02*
X019241Y025181D01*
X019263Y025260D02*
X019058Y025260D01*
X019022Y025338D02*
X019296Y025338D01*
X019241Y024788D02*
X019081Y024788D01*
X019081Y024710D02*
X019241Y024710D01*
X019241Y024631D02*
X019081Y024631D01*
X019081Y024553D02*
X019241Y024553D01*
X019243Y024474D02*
X019072Y024474D01*
X019047Y024396D02*
X019275Y024396D01*
X019312Y024317D02*
X019002Y024317D01*
X018930Y024239D02*
X019246Y024239D01*
X020518Y025888D02*
X025046Y025888D01*
X025054Y025873D02*
X025092Y025820D01*
X025139Y025774D01*
X025192Y025735D01*
X025251Y025705D01*
X025313Y025685D01*
X025372Y025675D01*
X025372Y026053D01*
X025450Y026053D01*
X025450Y026131D01*
X025827Y026131D01*
X025818Y026190D01*
X025798Y026252D01*
X025768Y026311D01*
X025729Y026364D01*
X025683Y026410D01*
X025630Y026449D01*
X025571Y026479D01*
X025509Y026499D01*
X025450Y026509D01*
X025450Y026131D01*
X025372Y026131D01*
X025372Y026509D01*
X025313Y026499D01*
X025251Y026479D01*
X025192Y026449D01*
X025139Y026410D01*
X025092Y026364D01*
X025054Y026311D01*
X025024Y026252D01*
X025004Y026190D01*
X024994Y026131D01*
X025372Y026131D01*
X025372Y026053D01*
X024994Y026053D01*
X025004Y025994D01*
X025024Y025932D01*
X025054Y025873D01*
X025005Y025809D02*
X025103Y025809D01*
X025083Y025731D02*
X025200Y025731D01*
X025162Y025652D02*
X029471Y025652D01*
X029471Y025574D02*
X025240Y025574D01*
X025319Y025495D02*
X025464Y025495D01*
X025450Y025675D02*
X025509Y025685D01*
X025571Y025705D01*
X025630Y025735D01*
X025683Y025774D01*
X025729Y025820D01*
X025768Y025873D01*
X025798Y025932D01*
X025818Y025994D01*
X025827Y026053D01*
X025450Y026053D01*
X025450Y025675D01*
X025450Y025731D02*
X025372Y025731D01*
X025372Y025809D02*
X025450Y025809D01*
X025450Y025888D02*
X025372Y025888D01*
X025372Y025966D02*
X025450Y025966D01*
X025450Y026045D02*
X025372Y026045D01*
X025372Y026124D02*
X023220Y026124D01*
X023260Y026202D02*
X025008Y026202D01*
X025038Y026281D02*
X023291Y026281D01*
X023291Y026359D02*
X025089Y026359D01*
X025176Y026438D02*
X023291Y026438D01*
X023291Y026516D02*
X029471Y026516D01*
X029471Y026438D02*
X027655Y026438D01*
X027647Y026446D02*
X027494Y026509D01*
X027328Y026509D01*
X027174Y026446D01*
X027057Y026329D01*
X026993Y026175D01*
X026993Y026009D01*
X027057Y025856D01*
X027174Y025738D01*
X027328Y025675D01*
X027494Y025675D01*
X027647Y025738D01*
X027765Y025856D01*
X027828Y026009D01*
X027828Y026175D01*
X027765Y026329D01*
X027647Y026446D01*
X027734Y026359D02*
X029471Y026359D01*
X029471Y026281D02*
X027785Y026281D01*
X027817Y026202D02*
X029471Y026202D01*
X029471Y026124D02*
X027828Y026124D01*
X027828Y026045D02*
X029471Y026045D01*
X029471Y025966D02*
X027811Y025966D01*
X027778Y025888D02*
X029471Y025888D01*
X029471Y025809D02*
X027719Y025809D01*
X027630Y025731D02*
X029471Y025731D01*
X029471Y025495D02*
X028857Y025495D01*
X028960Y025417D02*
X029471Y025417D01*
X029471Y025338D02*
X029026Y025338D01*
X029058Y025260D02*
X029471Y025260D01*
X029471Y025181D02*
X029081Y025181D01*
X029081Y025102D02*
X029471Y025102D01*
X029471Y025024D02*
X029081Y025024D01*
X029081Y024945D02*
X029471Y024945D01*
X029471Y024867D02*
X029081Y024867D01*
X029081Y024788D02*
X029471Y024788D01*
X029471Y024710D02*
X029081Y024710D01*
X029081Y024631D02*
X029471Y024631D01*
X029471Y024553D02*
X029081Y024553D01*
X029079Y024474D02*
X029471Y024474D01*
X029471Y024396D02*
X029046Y024396D01*
X029010Y024317D02*
X029471Y024317D01*
X029471Y024239D02*
X028931Y024239D01*
X028790Y024160D02*
X029471Y024160D01*
X029471Y024081D02*
X028711Y024081D01*
X028633Y024003D02*
X029471Y024003D01*
X029471Y023924D02*
X028554Y023924D01*
X028476Y023846D02*
X029471Y023846D01*
X029471Y023767D02*
X028397Y023767D01*
X028319Y023689D02*
X029471Y023689D01*
X029471Y023610D02*
X028240Y023610D01*
X028161Y023532D02*
X029471Y023532D01*
X029471Y023453D02*
X028083Y023453D01*
X028004Y023375D02*
X029471Y023375D01*
X029471Y023296D02*
X027926Y023296D01*
X027847Y023217D02*
X029471Y023217D01*
X029471Y023139D02*
X027769Y023139D01*
X027690Y023060D02*
X029471Y023060D01*
X029471Y022982D02*
X027612Y022982D01*
X027533Y022903D02*
X029471Y022903D01*
X029471Y022825D02*
X027455Y022825D01*
X027376Y022746D02*
X029471Y022746D01*
X029471Y022668D02*
X027297Y022668D01*
X027219Y022589D02*
X029471Y022589D01*
X029471Y022511D02*
X027140Y022511D01*
X027062Y022432D02*
X029471Y022432D01*
X029471Y022353D02*
X026983Y022353D01*
X026905Y022275D02*
X029471Y022275D01*
X029471Y022196D02*
X026826Y022196D01*
X026748Y022118D02*
X029471Y022118D01*
X029471Y022039D02*
X026669Y022039D01*
X026591Y021961D02*
X029471Y021961D01*
X029471Y021882D02*
X026512Y021882D01*
X026434Y021804D02*
X029471Y021804D01*
X029471Y021725D02*
X011589Y021725D01*
X011667Y021647D02*
X029471Y021647D01*
X029471Y021568D02*
X011746Y021568D01*
X011752Y021562D02*
X011459Y021855D01*
X011459Y021901D01*
X011414Y022011D01*
X011330Y022095D01*
X011220Y022140D01*
X011101Y022140D01*
X010992Y022095D01*
X010908Y022011D01*
X010862Y021901D01*
X010862Y021783D01*
X010908Y021673D01*
X010992Y021589D01*
X011101Y021544D01*
X011148Y021544D01*
X011441Y021251D01*
X011570Y021122D01*
X025570Y021122D01*
X026862Y019829D01*
X026862Y019783D01*
X026908Y019673D01*
X026992Y019589D01*
X027101Y019544D01*
X027220Y019544D01*
X027330Y019589D01*
X027414Y019673D01*
X027459Y019783D01*
X027459Y019901D01*
X027414Y020011D01*
X027330Y020095D01*
X027220Y020140D01*
X027173Y020140D01*
X025881Y021433D01*
X025752Y021562D01*
X011752Y021562D01*
X011510Y021804D02*
X012188Y021804D01*
X012109Y021882D02*
X011459Y021882D01*
X011435Y021961D02*
X012031Y021961D01*
X011952Y022039D02*
X011386Y022039D01*
X011275Y022118D02*
X011874Y022118D01*
X011795Y022196D02*
X007996Y022196D01*
X007944Y022175D02*
X008097Y022238D01*
X008215Y022356D01*
X008278Y022509D01*
X008278Y022675D01*
X008215Y022829D01*
X008097Y022946D01*
X007984Y022993D01*
X008021Y023005D01*
X008080Y023035D01*
X008133Y023074D01*
X008179Y023120D01*
X008218Y023173D01*
X008248Y023232D01*
X008268Y023294D01*
X008277Y023353D01*
X007900Y023353D01*
X007900Y023431D01*
X008277Y023431D01*
X008268Y023490D01*
X008248Y023552D01*
X008218Y023611D01*
X008179Y023664D01*
X008133Y023710D01*
X008080Y023749D01*
X008021Y023779D01*
X007959Y023799D01*
X007900Y023809D01*
X007900Y023431D01*
X007822Y023431D01*
X007822Y023809D01*
X007763Y023799D01*
X007701Y023779D01*
X007642Y023749D01*
X007589Y023710D01*
X007542Y023664D01*
X007504Y023611D01*
X007474Y023552D01*
X007454Y023490D01*
X007444Y023431D01*
X007822Y023431D01*
X007822Y023353D01*
X007467Y023353D01*
X006768Y024052D01*
X006672Y024092D01*
X006569Y024092D01*
X006561Y024092D01*
X006561Y024130D01*
X006479Y024212D01*
X005483Y024212D01*
X005401Y024130D01*
X005401Y023620D01*
X004823Y023042D01*
X003757Y023042D01*
X003670Y023129D01*
X003502Y023199D01*
X003320Y023199D01*
X003152Y023129D01*
X003023Y023001D01*
X002954Y022833D01*
X002954Y022651D01*
X003023Y022483D01*
X003152Y022355D01*
X003320Y022285D01*
X003502Y022285D01*
X003670Y022355D01*
X003757Y022442D01*
X004950Y022442D01*
X005012Y022468D01*
X004841Y022296D01*
X004756Y022212D01*
X004711Y022102D01*
X004711Y019402D01*
X004711Y019282D01*
X004756Y019172D01*
X005156Y018772D01*
X005227Y018702D01*
X004941Y018702D01*
X004941Y017652D01*
X005991Y017652D01*
X005991Y018458D01*
X006278Y018171D01*
X006171Y018064D01*
X006171Y017161D01*
X006809Y016522D01*
X007712Y016522D01*
X008351Y017161D01*
X008351Y018064D01*
X007712Y018702D01*
X006809Y018702D01*
X006702Y018595D01*
X006101Y019196D01*
X005990Y019242D01*
X005871Y019242D01*
X005535Y019242D01*
X005311Y019466D01*
X005311Y021918D01*
X005835Y022442D01*
X006065Y022442D01*
X006152Y022355D01*
X006320Y022285D01*
X006502Y022285D01*
X006670Y022355D01*
X006798Y022483D01*
X006868Y022651D01*
X006868Y022833D01*
X006798Y023001D01*
X006670Y023129D01*
X006502Y023199D01*
X006320Y023199D01*
X006152Y023129D01*
X006065Y023042D01*
X005770Y023042D01*
X005651Y023042D01*
X005541Y022996D01*
X005165Y022621D01*
X005185Y022669D01*
X005968Y023452D01*
X006479Y023452D01*
X006556Y023529D01*
X007443Y022642D01*
X007443Y022509D01*
X007507Y022356D01*
X007624Y022238D01*
X007778Y022175D01*
X007944Y022175D01*
X008134Y022275D02*
X011717Y022275D01*
X011638Y022353D02*
X008213Y022353D01*
X008246Y022432D02*
X011560Y022432D01*
X011481Y022511D02*
X008278Y022511D01*
X008278Y022589D02*
X011403Y022589D01*
X011324Y022668D02*
X008278Y022668D01*
X008249Y022746D02*
X011246Y022746D01*
X011167Y022825D02*
X008216Y022825D01*
X008140Y022903D02*
X011088Y022903D01*
X011010Y022982D02*
X008011Y022982D01*
X008114Y023060D02*
X010931Y023060D01*
X010853Y023139D02*
X008193Y023139D01*
X008240Y023217D02*
X009974Y023217D01*
X009896Y023296D02*
X008268Y023296D01*
X008274Y023453D02*
X009739Y023453D01*
X009817Y023375D02*
X007900Y023375D01*
X007900Y023453D02*
X007822Y023453D01*
X007822Y023375D02*
X007446Y023375D01*
X007448Y023453D02*
X007367Y023453D01*
X007289Y023532D02*
X007467Y023532D01*
X007503Y023610D02*
X007210Y023610D01*
X007132Y023689D02*
X007567Y023689D01*
X007678Y023767D02*
X007053Y023767D01*
X006975Y023846D02*
X009346Y023846D01*
X009267Y023924D02*
X006896Y023924D01*
X006818Y024003D02*
X009189Y024003D01*
X009110Y024081D02*
X006698Y024081D01*
X006531Y024160D02*
X009032Y024160D01*
X008953Y024239D02*
X004114Y024239D01*
X004114Y024317D02*
X008941Y024317D01*
X008941Y024396D02*
X006512Y024396D01*
X006479Y024362D02*
X006561Y024444D01*
X006561Y025040D01*
X006479Y025122D01*
X005483Y025122D01*
X005401Y025040D01*
X005401Y024444D01*
X005483Y024362D01*
X006479Y024362D01*
X006561Y024474D02*
X007658Y024474D01*
X007624Y024488D02*
X007778Y024425D01*
X007944Y024425D01*
X008097Y024488D01*
X008215Y024606D01*
X008278Y024759D01*
X008278Y024925D01*
X008215Y025079D01*
X008097Y025196D01*
X007984Y025243D01*
X008021Y025255D01*
X008080Y025285D01*
X008133Y025324D01*
X008179Y025370D01*
X008218Y025423D01*
X008248Y025482D01*
X008268Y025544D01*
X008277Y025603D01*
X007900Y025603D01*
X007900Y025681D01*
X008277Y025681D01*
X008268Y025740D01*
X008248Y025802D01*
X008218Y025861D01*
X008179Y025914D01*
X008133Y025960D01*
X008080Y025999D01*
X008021Y026029D01*
X007959Y026049D01*
X007900Y026059D01*
X007900Y025681D01*
X007822Y025681D01*
X007822Y026059D01*
X007763Y026049D01*
X007701Y026029D01*
X007642Y025999D01*
X007589Y025960D01*
X007542Y025914D01*
X007504Y025861D01*
X007474Y025802D01*
X007454Y025740D01*
X007444Y025681D01*
X007822Y025681D01*
X007822Y025603D01*
X007467Y025603D01*
X007271Y025799D01*
X007198Y025872D01*
X007102Y025912D01*
X006561Y025912D01*
X006561Y025950D01*
X006479Y026032D01*
X005483Y026032D01*
X005401Y025950D01*
X005401Y025354D01*
X005483Y025272D01*
X006479Y025272D01*
X006561Y025354D01*
X006561Y025392D01*
X006943Y025392D01*
X007443Y024892D01*
X007443Y024759D01*
X007507Y024606D01*
X007624Y024488D01*
X007560Y024553D02*
X006561Y024553D01*
X006561Y024631D02*
X007496Y024631D01*
X007464Y024710D02*
X006561Y024710D01*
X006561Y024788D02*
X007443Y024788D01*
X007443Y024867D02*
X006561Y024867D01*
X006561Y024945D02*
X007390Y024945D01*
X007311Y025024D02*
X006561Y025024D01*
X006498Y025102D02*
X007233Y025102D01*
X007154Y025181D02*
X004114Y025181D01*
X004114Y025102D02*
X005463Y025102D01*
X005401Y025024D02*
X004114Y025024D01*
X004114Y024945D02*
X005401Y024945D01*
X005401Y024867D02*
X004114Y024867D01*
X004114Y024788D02*
X005401Y024788D01*
X005401Y024710D02*
X003581Y024710D01*
X003581Y024702D02*
X003581Y024782D01*
X004114Y024782D01*
X004114Y025469D01*
X004104Y025505D01*
X004086Y025537D01*
X004060Y025563D01*
X004028Y025581D01*
X003992Y025591D01*
X003581Y025591D01*
X003581Y024782D01*
X003501Y024782D01*
X003501Y025591D01*
X003089Y025591D01*
X003054Y025581D01*
X003022Y025563D01*
X002996Y025537D01*
X002977Y025505D01*
X002968Y025469D01*
X002968Y024782D01*
X003501Y024782D01*
X003501Y024702D01*
X003581Y024702D01*
X004114Y024702D01*
X004114Y024015D01*
X004104Y023979D01*
X004086Y023947D01*
X004060Y023921D01*
X004028Y023903D01*
X003992Y023893D01*
X003581Y023893D01*
X003581Y024702D01*
X003581Y024631D02*
X003501Y024631D01*
X003501Y024702D02*
X003501Y023893D01*
X003089Y023893D01*
X003054Y023903D01*
X003022Y023921D01*
X002996Y023947D01*
X002977Y023979D01*
X002968Y024015D01*
X002968Y024702D01*
X003501Y024702D01*
X003501Y024710D02*
X002851Y024710D01*
X002851Y024788D02*
X002968Y024788D01*
X002968Y024867D02*
X002851Y024867D01*
X002851Y024945D02*
X002968Y024945D01*
X002968Y025024D02*
X002851Y025024D01*
X002851Y025102D02*
X002968Y025102D01*
X002968Y025181D02*
X002851Y025181D01*
X002851Y025260D02*
X002968Y025260D01*
X002968Y025338D02*
X002851Y025338D01*
X002851Y025417D02*
X002968Y025417D01*
X002975Y025495D02*
X002851Y025495D01*
X002851Y025574D02*
X003041Y025574D01*
X002851Y025652D02*
X005401Y025652D01*
X005401Y025574D02*
X004041Y025574D01*
X004107Y025495D02*
X005401Y025495D01*
X005401Y025417D02*
X004114Y025417D01*
X004114Y025338D02*
X005417Y025338D01*
X005401Y024631D02*
X004114Y024631D01*
X004114Y024553D02*
X005401Y024553D01*
X005401Y024474D02*
X004114Y024474D01*
X004114Y024396D02*
X005449Y024396D01*
X005431Y024160D02*
X004114Y024160D01*
X004114Y024081D02*
X005401Y024081D01*
X005401Y024003D02*
X004111Y024003D01*
X004063Y023924D02*
X005401Y023924D01*
X005401Y023846D02*
X002851Y023846D01*
X002851Y023924D02*
X003019Y023924D01*
X002971Y024003D02*
X002851Y024003D01*
X002851Y024081D02*
X002968Y024081D01*
X002968Y024160D02*
X002851Y024160D01*
X002851Y024239D02*
X002968Y024239D01*
X002968Y024317D02*
X002851Y024317D01*
X002851Y024396D02*
X002968Y024396D01*
X002968Y024474D02*
X002851Y024474D01*
X002851Y024553D02*
X002968Y024553D01*
X002968Y024631D02*
X002851Y024631D01*
X003501Y024553D02*
X003581Y024553D01*
X003581Y024474D02*
X003501Y024474D01*
X003501Y024396D02*
X003581Y024396D01*
X003581Y024317D02*
X003501Y024317D01*
X003501Y024239D02*
X003581Y024239D01*
X003581Y024160D02*
X003501Y024160D01*
X003501Y024081D02*
X003581Y024081D01*
X003581Y024003D02*
X003501Y024003D01*
X003501Y023924D02*
X003581Y023924D01*
X002851Y023767D02*
X005401Y023767D01*
X005401Y023689D02*
X002851Y023689D01*
X002851Y023610D02*
X005391Y023610D01*
X005313Y023532D02*
X002851Y023532D01*
X002851Y023453D02*
X005234Y023453D01*
X005156Y023375D02*
X002851Y023375D01*
X002851Y023296D02*
X005077Y023296D01*
X004999Y023217D02*
X002851Y023217D01*
X002851Y023139D02*
X003175Y023139D01*
X003083Y023060D02*
X002851Y023060D01*
X002851Y022982D02*
X003016Y022982D01*
X002983Y022903D02*
X002851Y022903D01*
X002851Y022825D02*
X002954Y022825D01*
X002954Y022746D02*
X002851Y022746D01*
X002851Y022668D02*
X002954Y022668D01*
X002980Y022589D02*
X002851Y022589D01*
X002851Y022511D02*
X003012Y022511D01*
X003075Y022432D02*
X002851Y022432D01*
X002851Y022353D02*
X003155Y022353D01*
X002851Y022275D02*
X004819Y022275D01*
X004750Y022196D02*
X002851Y022196D01*
X002851Y022118D02*
X004717Y022118D01*
X004711Y022039D02*
X002851Y022039D01*
X002851Y021961D02*
X004711Y021961D01*
X004711Y021882D02*
X002851Y021882D01*
X002851Y021804D02*
X004711Y021804D01*
X004711Y021725D02*
X002851Y021725D01*
X002851Y021647D02*
X004711Y021647D01*
X004711Y021568D02*
X004051Y021568D01*
X004060Y021563D02*
X004028Y021581D01*
X003992Y021591D01*
X003581Y021591D01*
X003581Y020782D01*
X004114Y020782D01*
X004114Y021469D01*
X004104Y021505D01*
X004086Y021537D01*
X004060Y021563D01*
X004108Y021489D02*
X004711Y021489D01*
X004711Y021411D02*
X004114Y021411D01*
X004114Y021332D02*
X004711Y021332D01*
X004711Y021254D02*
X004114Y021254D01*
X004114Y021175D02*
X004711Y021175D01*
X004711Y021097D02*
X004114Y021097D01*
X004114Y021018D02*
X004711Y021018D01*
X004711Y020940D02*
X004114Y020940D01*
X004114Y020861D02*
X004711Y020861D01*
X004711Y020783D02*
X004114Y020783D01*
X004114Y020702D02*
X003581Y020702D01*
X003581Y020782D01*
X003501Y020782D01*
X003501Y021591D01*
X003089Y021591D01*
X003054Y021581D01*
X003022Y021563D01*
X002996Y021537D01*
X002977Y021505D01*
X002968Y021469D01*
X002968Y020782D01*
X003501Y020782D01*
X003501Y020702D01*
X003581Y020702D01*
X003581Y019893D01*
X003992Y019893D01*
X004028Y019903D01*
X004060Y019921D01*
X004086Y019947D01*
X004104Y019979D01*
X004114Y020015D01*
X004114Y020702D01*
X004114Y020626D02*
X004711Y020626D01*
X004711Y020704D02*
X003581Y020704D01*
X003581Y020626D02*
X003501Y020626D01*
X003501Y020702D02*
X003501Y019893D01*
X003089Y019893D01*
X003054Y019903D01*
X003022Y019921D01*
X002996Y019947D01*
X002977Y019979D01*
X002968Y020015D01*
X002968Y020702D01*
X003501Y020702D01*
X003501Y020704D02*
X002851Y020704D01*
X002851Y020626D02*
X002968Y020626D01*
X002968Y020547D02*
X002851Y020547D01*
X002851Y020468D02*
X002968Y020468D01*
X002968Y020390D02*
X002851Y020390D01*
X002851Y020311D02*
X002968Y020311D01*
X002968Y020233D02*
X002851Y020233D01*
X002851Y020154D02*
X002968Y020154D01*
X002968Y020076D02*
X002851Y020076D01*
X002851Y019997D02*
X002972Y019997D01*
X003026Y019919D02*
X002851Y019919D01*
X002851Y019840D02*
X004711Y019840D01*
X004711Y019762D02*
X002851Y019762D01*
X002851Y019683D02*
X004711Y019683D01*
X004711Y019604D02*
X002851Y019604D01*
X002851Y019526D02*
X004711Y019526D01*
X004711Y019447D02*
X002851Y019447D01*
X002851Y019369D02*
X004711Y019369D01*
X004711Y019290D02*
X002851Y019290D01*
X002851Y019212D02*
X004740Y019212D01*
X004795Y019133D02*
X002851Y019133D01*
X002851Y019055D02*
X004874Y019055D01*
X004952Y018976D02*
X002851Y018976D01*
X002851Y018898D02*
X005031Y018898D01*
X005110Y018819D02*
X002851Y018819D01*
X002851Y018740D02*
X005188Y018740D01*
X004941Y018662D02*
X004861Y018662D01*
X004861Y018702D02*
X003932Y018702D01*
X003897Y018692D01*
X003865Y018674D01*
X003839Y018648D01*
X003820Y018616D01*
X003811Y018580D01*
X003811Y017652D01*
X004861Y017652D01*
X004861Y018702D01*
X004861Y018583D02*
X004941Y018583D01*
X004941Y018505D02*
X004861Y018505D01*
X004861Y018426D02*
X004941Y018426D01*
X004941Y018348D02*
X004861Y018348D01*
X004861Y018269D02*
X004941Y018269D01*
X004941Y018191D02*
X004861Y018191D01*
X004861Y018112D02*
X004941Y018112D01*
X004941Y018034D02*
X004861Y018034D01*
X004861Y017955D02*
X004941Y017955D01*
X004941Y017876D02*
X004861Y017876D01*
X004861Y017798D02*
X004941Y017798D01*
X004941Y017719D02*
X004861Y017719D01*
X004861Y017652D02*
X004941Y017652D01*
X004941Y017572D01*
X005991Y017572D01*
X005991Y016732D01*
X006041Y016732D01*
X006041Y015682D01*
X006121Y015682D01*
X007171Y015682D01*
X007171Y016094D01*
X006532Y016732D01*
X006121Y016732D01*
X006121Y015682D01*
X006121Y015602D01*
X007171Y015602D01*
X007171Y015191D01*
X006532Y014552D01*
X006121Y014552D01*
X006121Y015602D01*
X006041Y015602D01*
X006041Y014552D01*
X005629Y014552D01*
X004991Y015191D01*
X004991Y015602D01*
X006041Y015602D01*
X006041Y015682D01*
X004991Y015682D01*
X004991Y016094D01*
X005419Y016522D01*
X004941Y016522D01*
X004941Y017572D01*
X004861Y017572D01*
X004861Y016522D01*
X003932Y016522D01*
X003897Y016532D01*
X003865Y016550D01*
X003839Y016576D01*
X003820Y016608D01*
X003811Y016644D01*
X003811Y017572D01*
X004861Y017572D01*
X004861Y017652D01*
X004861Y017641D02*
X002851Y017641D01*
X002851Y017719D02*
X003811Y017719D01*
X003811Y017798D02*
X002851Y017798D01*
X002851Y017876D02*
X003811Y017876D01*
X003811Y017955D02*
X002851Y017955D01*
X002851Y018034D02*
X003811Y018034D01*
X003811Y018112D02*
X002851Y018112D01*
X002851Y018191D02*
X003811Y018191D01*
X003811Y018269D02*
X002851Y018269D01*
X002851Y018348D02*
X003811Y018348D01*
X003811Y018426D02*
X002851Y018426D01*
X002851Y018505D02*
X003811Y018505D01*
X003812Y018583D02*
X002851Y018583D01*
X002851Y018662D02*
X003853Y018662D01*
X003811Y017562D02*
X002851Y017562D01*
X002851Y017484D02*
X003811Y017484D01*
X003811Y017405D02*
X002851Y017405D01*
X002851Y017327D02*
X003811Y017327D01*
X003811Y017248D02*
X002851Y017248D01*
X002851Y017170D02*
X003811Y017170D01*
X003811Y017091D02*
X002851Y017091D01*
X002851Y017013D02*
X003811Y017013D01*
X003811Y016934D02*
X002851Y016934D01*
X002851Y016855D02*
X003811Y016855D01*
X003811Y016777D02*
X002851Y016777D01*
X002851Y016698D02*
X003811Y016698D01*
X003817Y016620D02*
X002851Y016620D01*
X002851Y016541D02*
X003880Y016541D01*
X004861Y016541D02*
X004941Y016541D01*
X004941Y016620D02*
X004861Y016620D01*
X004861Y016698D02*
X004941Y016698D01*
X004941Y016777D02*
X004861Y016777D01*
X004861Y016855D02*
X004941Y016855D01*
X004941Y016934D02*
X004861Y016934D01*
X004861Y017013D02*
X004941Y017013D01*
X004941Y017091D02*
X004861Y017091D01*
X004861Y017170D02*
X004941Y017170D01*
X004941Y017248D02*
X004861Y017248D01*
X004861Y017327D02*
X004941Y017327D01*
X004941Y017405D02*
X004861Y017405D01*
X004861Y017484D02*
X004941Y017484D01*
X004941Y017562D02*
X004861Y017562D01*
X004941Y017641D02*
X006171Y017641D01*
X006171Y017719D02*
X005991Y017719D01*
X005991Y017798D02*
X006171Y017798D01*
X006171Y017876D02*
X005991Y017876D01*
X005991Y017955D02*
X006171Y017955D01*
X006171Y018034D02*
X005991Y018034D01*
X005991Y018112D02*
X006219Y018112D01*
X006258Y018191D02*
X005991Y018191D01*
X005991Y018269D02*
X006179Y018269D01*
X006101Y018348D02*
X005991Y018348D01*
X005991Y018426D02*
X006022Y018426D01*
X006478Y018819D02*
X008116Y018819D01*
X008038Y018898D02*
X006399Y018898D01*
X006321Y018976D02*
X007959Y018976D01*
X007880Y019055D02*
X006242Y019055D01*
X006164Y019133D02*
X007802Y019133D01*
X007723Y019212D02*
X006064Y019212D01*
X006479Y019452D02*
X006561Y019534D01*
X006561Y019572D01*
X006959Y019572D01*
X007051Y019534D01*
X007170Y019534D01*
X007280Y019579D01*
X007364Y019663D01*
X007409Y019773D01*
X007409Y019891D01*
X007364Y020001D01*
X007280Y020085D01*
X007170Y020130D01*
X007051Y020130D01*
X006959Y020092D01*
X006561Y020092D01*
X006561Y020130D01*
X006479Y020212D01*
X005483Y020212D01*
X005401Y020130D01*
X005401Y019534D01*
X005483Y019452D01*
X006479Y019452D01*
X006553Y019526D02*
X007601Y019526D01*
X007601Y019604D02*
X007305Y019604D01*
X007372Y019683D02*
X007601Y019683D01*
X007601Y019762D02*
X007405Y019762D01*
X007409Y019840D02*
X007601Y019840D01*
X007601Y019919D02*
X007398Y019919D01*
X007365Y019997D02*
X007601Y019997D01*
X007601Y020012D02*
X007601Y019390D01*
X007640Y019295D01*
X007714Y019222D01*
X009414Y017522D01*
X009509Y017482D01*
X009612Y017482D01*
X010553Y017482D01*
X011890Y016145D01*
X011964Y016072D01*
X011987Y016062D01*
X011659Y016062D01*
X011659Y016101D01*
X011614Y016211D01*
X011530Y016295D01*
X011420Y016340D01*
X011301Y016340D01*
X011192Y016295D01*
X011108Y016211D01*
X011062Y016101D01*
X011062Y016055D01*
X009831Y014823D01*
X009762Y014852D01*
X009559Y014852D01*
X009372Y014774D01*
X009228Y014631D01*
X009151Y014444D01*
X009151Y014241D01*
X009228Y014053D01*
X009372Y013910D01*
X009559Y013832D01*
X009762Y013832D01*
X009950Y013910D01*
X010093Y014053D01*
X010161Y014217D01*
X010228Y014053D01*
X010372Y013910D01*
X010559Y013832D01*
X010762Y013832D01*
X010950Y013910D01*
X011093Y014053D01*
X011163Y014223D01*
X011163Y014223D01*
X011188Y014146D01*
X011225Y014075D01*
X011272Y014010D01*
X011329Y013953D01*
X011393Y013906D01*
X011465Y013869D01*
X011541Y013845D01*
X011621Y013832D01*
X011621Y014302D01*
X011701Y014302D01*
X011701Y013832D01*
X011780Y013845D01*
X011857Y013869D01*
X011928Y013906D01*
X011993Y013953D01*
X012050Y014010D01*
X012097Y014075D01*
X012133Y014146D01*
X012158Y014223D01*
X012228Y014053D01*
X012372Y013910D01*
X012559Y013832D01*
X012762Y013832D01*
X012950Y013910D01*
X013093Y014053D01*
X013161Y014216D01*
X013228Y014053D01*
X013372Y013910D01*
X013559Y013832D01*
X013762Y013832D01*
X013950Y013910D01*
X014093Y014053D01*
X014161Y014216D01*
X014228Y014053D01*
X014372Y013910D01*
X014559Y013832D01*
X014762Y013832D01*
X014950Y013910D01*
X015093Y014053D01*
X015171Y014241D01*
X015171Y014444D01*
X015156Y014479D01*
X015440Y014195D01*
X015514Y014122D01*
X015609Y014082D01*
X019609Y014082D01*
X019712Y014082D01*
X019808Y014122D01*
X020530Y014844D01*
X020559Y014832D01*
X020762Y014832D01*
X020950Y014910D01*
X021093Y015053D01*
X021171Y015241D01*
X021171Y015444D01*
X021093Y015631D01*
X021002Y015722D01*
X021970Y015722D01*
X022179Y015512D01*
X022151Y015444D01*
X022151Y015241D01*
X022228Y015053D01*
X022372Y014910D01*
X022535Y014842D01*
X022372Y014774D01*
X022228Y014631D01*
X022151Y014444D01*
X022151Y014241D01*
X022228Y014053D01*
X022372Y013910D01*
X022559Y013832D01*
X022762Y013832D01*
X022950Y013910D01*
X023093Y014053D01*
X023161Y014217D01*
X023228Y014053D01*
X023372Y013910D01*
X023559Y013832D01*
X023762Y013832D01*
X023950Y013910D01*
X024093Y014053D01*
X024171Y014241D01*
X024171Y014444D01*
X024093Y014631D01*
X023950Y014774D01*
X023786Y014842D01*
X023950Y014910D01*
X024093Y015053D01*
X024161Y015217D01*
X024228Y015053D01*
X024372Y014910D01*
X024559Y014832D01*
X024762Y014832D01*
X024950Y014910D01*
X025093Y015053D01*
X025161Y015217D01*
X025228Y015053D01*
X025372Y014910D01*
X025559Y014832D01*
X025762Y014832D01*
X025950Y014910D01*
X026093Y015053D01*
X026161Y015217D01*
X026228Y015053D01*
X026372Y014910D01*
X026559Y014832D01*
X026762Y014832D01*
X026950Y014910D01*
X027093Y015053D01*
X027161Y015217D01*
X027228Y015053D01*
X027372Y014910D01*
X027559Y014832D01*
X027762Y014832D01*
X027950Y014910D01*
X028093Y015053D01*
X028171Y015241D01*
X028171Y015444D01*
X028093Y015631D01*
X027950Y015774D01*
X027762Y015852D01*
X027559Y015852D01*
X027490Y015823D01*
X025781Y017533D01*
X025652Y017662D01*
X020430Y017662D01*
X020459Y017733D01*
X020459Y017851D01*
X020414Y017961D01*
X020358Y018017D01*
X020414Y018073D01*
X020459Y018183D01*
X020459Y018193D01*
X020500Y018173D01*
X020562Y018152D01*
X020621Y018143D01*
X020621Y018802D01*
X020701Y018802D01*
X020701Y018882D01*
X021081Y018882D01*
X021081Y019155D01*
X021070Y019220D01*
X021050Y019283D01*
X021020Y019342D01*
X020981Y019396D01*
X020934Y019442D01*
X020881Y019481D01*
X020822Y019511D01*
X020759Y019532D01*
X020701Y019541D01*
X020701Y018882D01*
X020621Y018882D01*
X020621Y019541D01*
X020562Y019532D01*
X020500Y019511D01*
X020441Y019481D01*
X020387Y019442D01*
X020340Y019396D01*
X020302Y019342D01*
X020272Y019283D01*
X020251Y019220D01*
X020241Y019155D01*
X020241Y018882D01*
X020621Y018882D01*
X020621Y018802D01*
X020241Y018802D01*
X020241Y018532D01*
X020220Y018540D01*
X020101Y018540D01*
X020081Y018532D01*
X020081Y019206D01*
X020017Y019360D01*
X019921Y019456D01*
X019921Y019994D01*
X019881Y020089D01*
X019808Y020162D01*
X019008Y020962D01*
X018912Y021002D01*
X018809Y021002D01*
X016723Y021002D01*
X016680Y021045D01*
X016570Y021090D01*
X016451Y021090D01*
X016342Y021045D01*
X016258Y020961D01*
X016212Y020851D01*
X016212Y020733D01*
X016258Y020623D01*
X016342Y020539D01*
X016451Y020494D01*
X016481Y020494D01*
X016509Y020482D01*
X017896Y020482D01*
X017862Y020401D01*
X017862Y020355D01*
X017470Y019962D01*
X015970Y019962D01*
X015841Y019833D01*
X015530Y019523D01*
X015423Y019478D01*
X015305Y019360D01*
X015241Y019206D01*
X015241Y018478D01*
X015305Y018324D01*
X015423Y018206D01*
X015530Y018162D01*
X015570Y018122D01*
X015930Y017762D01*
X014552Y017762D01*
X014003Y018311D01*
X014017Y018324D01*
X014081Y018478D01*
X014081Y019206D01*
X014017Y019360D01*
X014003Y019373D01*
X014573Y019944D01*
X014620Y019944D01*
X014730Y019989D01*
X014814Y020073D01*
X014859Y020183D01*
X014859Y020301D01*
X014814Y020411D01*
X014730Y020495D01*
X014620Y020540D01*
X014501Y020540D01*
X014392Y020495D01*
X014308Y020411D01*
X014262Y020301D01*
X014262Y020255D01*
X013570Y019562D01*
X013530Y019523D01*
X013423Y019478D01*
X013305Y019360D01*
X013241Y019206D01*
X013241Y018478D01*
X013305Y018324D01*
X013423Y018206D01*
X013530Y018162D01*
X013570Y018122D01*
X014230Y017462D01*
X013852Y017462D01*
X013003Y018311D01*
X013017Y018324D01*
X013081Y018478D01*
X013081Y019206D01*
X013017Y019360D01*
X013003Y019373D01*
X013573Y019944D01*
X013620Y019944D01*
X013730Y019989D01*
X013814Y020073D01*
X013859Y020183D01*
X013859Y020301D01*
X013814Y020411D01*
X013730Y020495D01*
X013620Y020540D01*
X013501Y020540D01*
X013392Y020495D01*
X013308Y020411D01*
X013262Y020301D01*
X013262Y020255D01*
X012570Y019562D01*
X012530Y019523D01*
X012423Y019478D01*
X012305Y019360D01*
X012241Y019206D01*
X012241Y018478D01*
X012305Y018324D01*
X012423Y018206D01*
X012530Y018162D01*
X012570Y018122D01*
X013530Y017162D01*
X013152Y017162D01*
X012003Y018311D01*
X012017Y018324D01*
X012081Y018478D01*
X012081Y019206D01*
X012017Y019360D01*
X012003Y019373D01*
X012573Y019944D01*
X012620Y019944D01*
X012730Y019989D01*
X012814Y020073D01*
X012859Y020183D01*
X012859Y020301D01*
X012814Y020411D01*
X012730Y020495D01*
X012620Y020540D01*
X012501Y020540D01*
X012392Y020495D01*
X012308Y020411D01*
X012262Y020301D01*
X012262Y020255D01*
X011570Y019562D01*
X011530Y019523D01*
X011423Y019478D01*
X011305Y019360D01*
X011241Y019206D01*
X011241Y018478D01*
X011305Y018324D01*
X011423Y018206D01*
X011530Y018162D01*
X011570Y018122D01*
X012830Y016862D01*
X012452Y016862D01*
X011003Y018311D01*
X011017Y018324D01*
X011081Y018478D01*
X011081Y019206D01*
X011017Y019360D01*
X011003Y019373D01*
X011573Y019944D01*
X011620Y019944D01*
X011730Y019989D01*
X011814Y020073D01*
X011859Y020183D01*
X011859Y020301D01*
X011814Y020411D01*
X011730Y020495D01*
X011620Y020540D01*
X011501Y020540D01*
X011392Y020495D01*
X011308Y020411D01*
X011262Y020301D01*
X011262Y020255D01*
X010570Y019562D01*
X010530Y019523D01*
X010423Y019478D01*
X010305Y019360D01*
X010241Y019206D01*
X010241Y018478D01*
X010305Y018324D01*
X010423Y018206D01*
X010530Y018162D01*
X010570Y018122D01*
X010690Y018002D01*
X010609Y018002D01*
X009668Y018002D01*
X009494Y018177D01*
X009577Y018142D01*
X009744Y018142D01*
X009899Y018206D01*
X010017Y018324D01*
X010081Y018478D01*
X010081Y019206D01*
X010017Y019360D01*
X010003Y019373D01*
X011173Y020544D01*
X011220Y020544D01*
X011330Y020589D01*
X011414Y020673D01*
X011459Y020783D01*
X011459Y020901D01*
X011414Y021011D01*
X011330Y021095D01*
X011220Y021140D01*
X011101Y021140D01*
X010992Y021095D01*
X010908Y021011D01*
X010862Y020901D01*
X010862Y020855D01*
X009570Y019562D01*
X009530Y019523D01*
X009423Y019478D01*
X009305Y019360D01*
X009241Y019206D01*
X009241Y018478D01*
X009275Y018395D01*
X008121Y019550D01*
X008121Y020012D01*
X008215Y020106D01*
X008278Y020259D01*
X008278Y020425D01*
X008215Y020579D01*
X008097Y020696D01*
X007984Y020743D01*
X008021Y020755D01*
X008080Y020785D01*
X008133Y020824D01*
X008179Y020870D01*
X008218Y020923D01*
X008248Y020982D01*
X008268Y021044D01*
X008277Y021103D01*
X007900Y021103D01*
X007900Y021181D01*
X008277Y021181D01*
X008268Y021240D01*
X008248Y021302D01*
X008218Y021361D01*
X008179Y021414D01*
X008133Y021460D01*
X008080Y021499D01*
X008021Y021529D01*
X007959Y021549D01*
X007900Y021559D01*
X007900Y021181D01*
X007822Y021181D01*
X007822Y021559D01*
X007763Y021549D01*
X007701Y021529D01*
X007642Y021499D01*
X007589Y021460D01*
X007542Y021414D01*
X007504Y021361D01*
X007474Y021302D01*
X007454Y021240D01*
X007444Y021181D01*
X007822Y021181D01*
X007822Y021103D01*
X007467Y021103D01*
X006698Y021872D01*
X006602Y021912D01*
X006561Y021912D01*
X006561Y021950D01*
X006479Y022032D01*
X005483Y022032D01*
X005401Y021950D01*
X005401Y021354D01*
X005483Y021272D01*
X006479Y021272D01*
X006521Y021314D01*
X007443Y020392D01*
X007443Y020259D01*
X007507Y020106D01*
X007601Y020012D01*
X007537Y020076D02*
X007289Y020076D01*
X007487Y020154D02*
X006537Y020154D01*
X006479Y020362D02*
X006561Y020444D01*
X006561Y021040D01*
X006479Y021122D01*
X005483Y021122D01*
X005401Y021040D01*
X005401Y020444D01*
X005483Y020362D01*
X006479Y020362D01*
X006507Y020390D02*
X007443Y020390D01*
X007443Y020311D02*
X005311Y020311D01*
X005311Y020233D02*
X007454Y020233D01*
X007367Y020468D02*
X006561Y020468D01*
X006561Y020547D02*
X007288Y020547D01*
X007210Y020626D02*
X006561Y020626D01*
X006561Y020704D02*
X007131Y020704D01*
X007053Y020783D02*
X006561Y020783D01*
X006561Y020861D02*
X006974Y020861D01*
X006895Y020940D02*
X006561Y020940D01*
X006561Y021018D02*
X006817Y021018D01*
X006738Y021097D02*
X006504Y021097D01*
X006660Y021175D02*
X005311Y021175D01*
X005311Y021097D02*
X005458Y021097D01*
X005401Y021018D02*
X005311Y021018D01*
X005311Y020940D02*
X005401Y020940D01*
X005401Y020861D02*
X005311Y020861D01*
X005311Y020783D02*
X005401Y020783D01*
X005401Y020704D02*
X005311Y020704D01*
X005311Y020626D02*
X005401Y020626D01*
X005401Y020547D02*
X005311Y020547D01*
X005311Y020468D02*
X005401Y020468D01*
X005455Y020390D02*
X005311Y020390D01*
X005311Y020154D02*
X005425Y020154D01*
X005401Y020076D02*
X005311Y020076D01*
X005311Y019997D02*
X005401Y019997D01*
X005401Y019919D02*
X005311Y019919D01*
X005311Y019840D02*
X005401Y019840D01*
X005401Y019762D02*
X005311Y019762D01*
X005311Y019683D02*
X005401Y019683D01*
X005401Y019604D02*
X005311Y019604D01*
X005311Y019526D02*
X005409Y019526D01*
X005330Y019447D02*
X007601Y019447D01*
X007610Y019369D02*
X005408Y019369D01*
X005487Y019290D02*
X007645Y019290D01*
X008145Y019526D02*
X009534Y019526D01*
X009612Y019604D02*
X008121Y019604D01*
X008121Y019683D02*
X009691Y019683D01*
X009769Y019762D02*
X008121Y019762D01*
X008121Y019840D02*
X009848Y019840D01*
X009926Y019919D02*
X008121Y019919D01*
X008121Y019997D02*
X010005Y019997D01*
X010083Y020076D02*
X008185Y020076D01*
X008235Y020154D02*
X010162Y020154D01*
X010240Y020233D02*
X008267Y020233D01*
X008278Y020311D02*
X010319Y020311D01*
X010398Y020390D02*
X008278Y020390D01*
X008260Y020468D02*
X010476Y020468D01*
X010555Y020547D02*
X008228Y020547D01*
X008168Y020626D02*
X010633Y020626D01*
X010712Y020704D02*
X008078Y020704D01*
X008075Y020783D02*
X010790Y020783D01*
X010862Y020861D02*
X008170Y020861D01*
X008226Y020940D02*
X010878Y020940D01*
X010915Y021018D02*
X008259Y021018D01*
X008276Y021097D02*
X010996Y021097D01*
X011326Y021097D02*
X025595Y021097D01*
X025673Y021018D02*
X016707Y021018D01*
X016315Y021018D02*
X011407Y021018D01*
X011443Y020940D02*
X016249Y020940D01*
X016216Y020861D02*
X011459Y020861D01*
X011459Y020783D02*
X016212Y020783D01*
X016224Y020704D02*
X011427Y020704D01*
X011366Y020626D02*
X016257Y020626D01*
X016334Y020547D02*
X011228Y020547D01*
X011098Y020468D02*
X011365Y020468D01*
X011299Y020390D02*
X011020Y020390D01*
X010941Y020311D02*
X011266Y020311D01*
X011240Y020233D02*
X010863Y020233D01*
X010784Y020154D02*
X011162Y020154D01*
X011083Y020076D02*
X010706Y020076D01*
X010627Y019997D02*
X011005Y019997D01*
X010926Y019919D02*
X010548Y019919D01*
X010470Y019840D02*
X010848Y019840D01*
X010769Y019762D02*
X010391Y019762D01*
X010313Y019683D02*
X010691Y019683D01*
X010612Y019604D02*
X010234Y019604D01*
X010156Y019526D02*
X010534Y019526D01*
X010392Y019447D02*
X010077Y019447D01*
X010008Y019369D02*
X010314Y019369D01*
X010276Y019290D02*
X010046Y019290D01*
X010078Y019212D02*
X010243Y019212D01*
X010241Y019133D02*
X010081Y019133D01*
X010081Y019055D02*
X010241Y019055D01*
X010241Y018976D02*
X010081Y018976D01*
X010081Y018898D02*
X010241Y018898D01*
X010241Y018819D02*
X010081Y018819D01*
X010081Y018740D02*
X010241Y018740D01*
X010241Y018662D02*
X010081Y018662D01*
X010081Y018583D02*
X010241Y018583D01*
X010241Y018505D02*
X010081Y018505D01*
X010059Y018426D02*
X010262Y018426D01*
X010295Y018348D02*
X010027Y018348D01*
X009962Y018269D02*
X010360Y018269D01*
X010460Y018191D02*
X009862Y018191D01*
X009637Y018034D02*
X010658Y018034D01*
X010580Y018112D02*
X009558Y018112D01*
X009262Y018426D02*
X009244Y018426D01*
X009241Y018505D02*
X009166Y018505D01*
X009241Y018583D02*
X009087Y018583D01*
X009009Y018662D02*
X009241Y018662D01*
X009241Y018740D02*
X008930Y018740D01*
X008851Y018819D02*
X009241Y018819D01*
X009241Y018898D02*
X008773Y018898D01*
X008694Y018976D02*
X009241Y018976D01*
X009241Y019055D02*
X008616Y019055D01*
X008537Y019133D02*
X009241Y019133D01*
X009243Y019212D02*
X008459Y019212D01*
X008380Y019290D02*
X009276Y019290D01*
X009314Y019369D02*
X008302Y019369D01*
X008223Y019447D02*
X009392Y019447D01*
X008430Y018505D02*
X007909Y018505D01*
X007831Y018583D02*
X008352Y018583D01*
X008273Y018662D02*
X007752Y018662D01*
X007988Y018426D02*
X008509Y018426D01*
X008587Y018348D02*
X008066Y018348D01*
X008145Y018269D02*
X008666Y018269D01*
X008744Y018191D02*
X008224Y018191D01*
X008302Y018112D02*
X008823Y018112D01*
X008902Y018034D02*
X008351Y018034D01*
X008351Y017955D02*
X008980Y017955D01*
X009059Y017876D02*
X008351Y017876D01*
X008351Y017798D02*
X009137Y017798D01*
X009216Y017719D02*
X008351Y017719D01*
X008351Y017641D02*
X009294Y017641D01*
X009373Y017562D02*
X008351Y017562D01*
X008351Y017484D02*
X009505Y017484D01*
X010630Y017405D02*
X008351Y017405D01*
X008351Y017327D02*
X010708Y017327D01*
X010787Y017248D02*
X008351Y017248D01*
X008351Y017170D02*
X010866Y017170D01*
X010944Y017091D02*
X008281Y017091D01*
X008203Y017013D02*
X011023Y017013D01*
X011101Y016934D02*
X008124Y016934D01*
X008046Y016855D02*
X011180Y016855D01*
X011258Y016777D02*
X007967Y016777D01*
X007889Y016698D02*
X011337Y016698D01*
X011415Y016620D02*
X007810Y016620D01*
X007731Y016541D02*
X011494Y016541D01*
X011572Y016463D02*
X006802Y016463D01*
X006790Y016541D02*
X006723Y016541D01*
X006712Y016620D02*
X006644Y016620D01*
X006633Y016698D02*
X006566Y016698D01*
X006554Y016777D02*
X005991Y016777D01*
X005991Y016855D02*
X006476Y016855D01*
X006397Y016934D02*
X005991Y016934D01*
X005991Y017013D02*
X006319Y017013D01*
X006240Y017091D02*
X005991Y017091D01*
X005991Y017170D02*
X006171Y017170D01*
X006171Y017248D02*
X005991Y017248D01*
X005991Y017327D02*
X006171Y017327D01*
X006171Y017405D02*
X005991Y017405D01*
X005991Y017484D02*
X006171Y017484D01*
X006171Y017562D02*
X005991Y017562D01*
X006041Y016698D02*
X006121Y016698D01*
X006121Y016620D02*
X006041Y016620D01*
X006041Y016541D02*
X006121Y016541D01*
X006121Y016463D02*
X006041Y016463D01*
X006041Y016384D02*
X006121Y016384D01*
X006121Y016306D02*
X006041Y016306D01*
X006041Y016227D02*
X006121Y016227D01*
X006121Y016149D02*
X006041Y016149D01*
X006041Y016070D02*
X006121Y016070D01*
X006121Y015991D02*
X006041Y015991D01*
X006041Y015913D02*
X006121Y015913D01*
X006121Y015834D02*
X006041Y015834D01*
X006041Y015756D02*
X006121Y015756D01*
X006121Y015677D02*
X007466Y015677D01*
X007434Y015599D02*
X007171Y015599D01*
X007171Y015520D02*
X007401Y015520D01*
X007391Y015495D02*
X007391Y015189D01*
X007508Y014906D01*
X007725Y014689D01*
X008008Y014572D01*
X008314Y014572D01*
X008597Y014689D01*
X008813Y014906D01*
X008931Y015189D01*
X008931Y015495D01*
X008813Y015778D01*
X008597Y015995D01*
X008314Y016112D01*
X008008Y016112D01*
X007725Y015995D01*
X007508Y015778D01*
X007391Y015495D01*
X007391Y015442D02*
X007171Y015442D01*
X007171Y015363D02*
X007391Y015363D01*
X007391Y015285D02*
X007171Y015285D01*
X007171Y015206D02*
X007391Y015206D01*
X007416Y015127D02*
X007108Y015127D01*
X007029Y015049D02*
X007449Y015049D01*
X007481Y014970D02*
X006951Y014970D01*
X006872Y014892D02*
X007522Y014892D01*
X007601Y014813D02*
X006794Y014813D01*
X006715Y014735D02*
X007679Y014735D01*
X007805Y014656D02*
X006636Y014656D01*
X006558Y014578D02*
X007994Y014578D01*
X008327Y014578D02*
X009206Y014578D01*
X009174Y014499D02*
X007272Y014499D01*
X007351Y014421D02*
X009151Y014421D01*
X009151Y014342D02*
X007429Y014342D01*
X007508Y014264D02*
X009151Y014264D01*
X009174Y014185D02*
X007587Y014185D01*
X007665Y014106D02*
X009206Y014106D01*
X009254Y014028D02*
X007744Y014028D01*
X007822Y013949D02*
X009332Y013949D01*
X009466Y013871D02*
X007901Y013871D01*
X007979Y013792D02*
X025342Y013792D01*
X025264Y013714D02*
X008058Y013714D01*
X008136Y013635D02*
X025185Y013635D01*
X025107Y013557D02*
X008215Y013557D01*
X008517Y014656D02*
X009254Y014656D01*
X009332Y014735D02*
X008642Y014735D01*
X008721Y014813D02*
X009466Y014813D01*
X009899Y014892D02*
X008799Y014892D01*
X008840Y014970D02*
X009978Y014970D01*
X010057Y015049D02*
X008873Y015049D01*
X008905Y015127D02*
X010135Y015127D01*
X010214Y015206D02*
X008931Y015206D01*
X008931Y015285D02*
X010292Y015285D01*
X010371Y015363D02*
X008931Y015363D01*
X008931Y015442D02*
X010449Y015442D01*
X010528Y015520D02*
X008920Y015520D01*
X008888Y015599D02*
X010606Y015599D01*
X010685Y015677D02*
X008855Y015677D01*
X008823Y015756D02*
X010763Y015756D01*
X010842Y015834D02*
X008757Y015834D01*
X008679Y015913D02*
X010921Y015913D01*
X010999Y015991D02*
X008600Y015991D01*
X008415Y016070D02*
X011062Y016070D01*
X011082Y016149D02*
X007116Y016149D01*
X007171Y016070D02*
X007906Y016070D01*
X007721Y015991D02*
X007171Y015991D01*
X007171Y015913D02*
X007643Y015913D01*
X007564Y015834D02*
X007171Y015834D01*
X007171Y015756D02*
X007499Y015756D01*
X007037Y016227D02*
X011124Y016227D01*
X011217Y016306D02*
X006959Y016306D01*
X006880Y016384D02*
X011651Y016384D01*
X011729Y016306D02*
X011504Y016306D01*
X011598Y016227D02*
X011808Y016227D01*
X011887Y016149D02*
X011640Y016149D01*
X011659Y016070D02*
X011967Y016070D01*
X011713Y015452D02*
X011620Y015490D01*
X011501Y015490D01*
X011392Y015445D01*
X011308Y015361D01*
X011262Y015251D01*
X011262Y015133D01*
X011308Y015023D01*
X011392Y014939D01*
X011501Y014894D01*
X011620Y014894D01*
X011713Y014932D01*
X014703Y014932D01*
X014798Y014837D01*
X014762Y014852D01*
X014559Y014852D01*
X014372Y014774D01*
X014228Y014631D01*
X014161Y014468D01*
X014093Y014631D01*
X013950Y014774D01*
X013762Y014852D01*
X013559Y014852D01*
X013372Y014774D01*
X013228Y014631D01*
X013161Y014468D01*
X013093Y014631D01*
X012950Y014774D01*
X012762Y014852D01*
X012559Y014852D01*
X012372Y014774D01*
X012228Y014631D01*
X012158Y014461D01*
X012158Y014461D01*
X012133Y014538D01*
X012097Y014609D01*
X012050Y014674D01*
X011993Y014731D01*
X011928Y014778D01*
X011857Y014815D01*
X011780Y014839D01*
X011701Y014852D01*
X011701Y014852D01*
X011701Y014382D01*
X011621Y014382D01*
X011621Y014852D01*
X011621Y014852D01*
X011541Y014839D01*
X011465Y014815D01*
X011393Y014778D01*
X011329Y014731D01*
X011272Y014674D01*
X011225Y014609D01*
X011188Y014538D01*
X011163Y014461D01*
X011093Y014631D01*
X010950Y014774D01*
X010762Y014852D01*
X010559Y014852D01*
X010427Y014797D01*
X011361Y015731D01*
X011470Y015622D01*
X015070Y015622D01*
X015179Y015512D01*
X015151Y015444D01*
X015151Y015241D01*
X015166Y015205D01*
X014958Y015412D01*
X014862Y015452D01*
X014759Y015452D01*
X011713Y015452D01*
X011388Y015442D02*
X011071Y015442D01*
X010993Y015363D02*
X011310Y015363D01*
X011276Y015285D02*
X010914Y015285D01*
X010836Y015206D02*
X011262Y015206D01*
X011264Y015127D02*
X010757Y015127D01*
X010679Y015049D02*
X011297Y015049D01*
X011360Y014970D02*
X010600Y014970D01*
X010522Y014892D02*
X014743Y014892D01*
X014466Y014813D02*
X013856Y014813D01*
X013989Y014735D02*
X014332Y014735D01*
X014254Y014656D02*
X014068Y014656D01*
X014115Y014578D02*
X014206Y014578D01*
X014174Y014499D02*
X014148Y014499D01*
X014148Y014185D02*
X014174Y014185D01*
X014206Y014106D02*
X014115Y014106D01*
X014068Y014028D02*
X014254Y014028D01*
X014332Y013949D02*
X013989Y013949D01*
X013856Y013871D02*
X014466Y013871D01*
X014856Y013871D02*
X022466Y013871D01*
X022332Y013949D02*
X014989Y013949D01*
X015068Y014028D02*
X022254Y014028D01*
X022206Y014106D02*
X019771Y014106D01*
X019871Y014185D02*
X022174Y014185D01*
X022151Y014264D02*
X019950Y014264D01*
X020028Y014342D02*
X022151Y014342D01*
X022151Y014421D02*
X020107Y014421D01*
X020186Y014499D02*
X022174Y014499D01*
X022206Y014578D02*
X020264Y014578D01*
X020343Y014656D02*
X022254Y014656D01*
X022332Y014735D02*
X020421Y014735D01*
X020500Y014813D02*
X022466Y014813D01*
X022415Y014892D02*
X020907Y014892D01*
X021010Y014970D02*
X022311Y014970D01*
X022233Y015049D02*
X021089Y015049D01*
X021124Y015127D02*
X022198Y015127D01*
X022165Y015206D02*
X021156Y015206D01*
X021171Y015285D02*
X022151Y015285D01*
X022151Y015363D02*
X021171Y015363D01*
X021171Y015442D02*
X022151Y015442D01*
X022171Y015520D02*
X021139Y015520D01*
X021106Y015599D02*
X022093Y015599D01*
X022014Y015677D02*
X021047Y015677D01*
X019803Y014852D02*
X019553Y014602D01*
X015768Y014602D01*
X015524Y014847D01*
X015559Y014832D01*
X015762Y014832D01*
X015950Y014910D01*
X016093Y015053D01*
X016161Y015216D01*
X016228Y015053D01*
X016372Y014910D01*
X016559Y014832D01*
X016762Y014832D01*
X016950Y014910D01*
X017093Y015053D01*
X017161Y015216D01*
X017228Y015053D01*
X017372Y014910D01*
X017559Y014832D01*
X017762Y014832D01*
X017950Y014910D01*
X018093Y015053D01*
X018163Y015223D01*
X018163Y015223D01*
X018188Y015146D01*
X018225Y015075D01*
X018272Y015010D01*
X018329Y014953D01*
X018393Y014906D01*
X018465Y014869D01*
X018541Y014845D01*
X018621Y014832D01*
X018621Y015302D01*
X018701Y015302D01*
X018701Y015382D01*
X019151Y015382D01*
X019621Y015382D01*
X019621Y015302D01*
X019701Y015302D01*
X019701Y014832D01*
X019780Y014845D01*
X019803Y014852D01*
X019764Y014813D02*
X015557Y014813D01*
X015636Y014735D02*
X019686Y014735D01*
X019701Y014832D02*
X019701Y014832D01*
X019701Y014892D02*
X019621Y014892D01*
X019621Y014832D02*
X019621Y015302D01*
X019151Y015302D01*
X018701Y015302D01*
X018701Y014832D01*
X018780Y014845D01*
X018857Y014869D01*
X018928Y014906D01*
X018993Y014953D01*
X019050Y015010D01*
X019097Y015075D01*
X019133Y015146D01*
X019158Y015223D01*
X019161Y015239D01*
X019163Y015223D01*
X019188Y015146D01*
X019225Y015075D01*
X019272Y015010D01*
X019329Y014953D01*
X019393Y014906D01*
X019465Y014869D01*
X019541Y014845D01*
X019621Y014832D01*
X019621Y014832D01*
X019621Y014970D02*
X019701Y014970D01*
X019701Y015049D02*
X019621Y015049D01*
X019621Y015127D02*
X019701Y015127D01*
X019701Y015206D02*
X019621Y015206D01*
X019621Y015285D02*
X019701Y015285D01*
X019621Y015363D02*
X018701Y015363D01*
X018701Y015285D02*
X018621Y015285D01*
X018621Y015206D02*
X018701Y015206D01*
X018701Y015127D02*
X018621Y015127D01*
X018621Y015049D02*
X018701Y015049D01*
X018701Y014970D02*
X018621Y014970D01*
X018621Y014892D02*
X018701Y014892D01*
X018701Y014832D02*
X018701Y014832D01*
X018621Y014832D02*
X018621Y014832D01*
X018421Y014892D02*
X017907Y014892D01*
X018010Y014970D02*
X018311Y014970D01*
X018243Y015049D02*
X018089Y015049D01*
X018124Y015127D02*
X018198Y015127D01*
X018169Y015206D02*
X018156Y015206D01*
X017415Y014892D02*
X016907Y014892D01*
X017010Y014970D02*
X017311Y014970D01*
X017233Y015049D02*
X017089Y015049D01*
X017124Y015127D02*
X017198Y015127D01*
X017165Y015206D02*
X017156Y015206D01*
X016415Y014892D02*
X015907Y014892D01*
X016010Y014970D02*
X016311Y014970D01*
X016233Y015049D02*
X016089Y015049D01*
X016124Y015127D02*
X016198Y015127D01*
X016165Y015206D02*
X016156Y015206D01*
X015714Y014656D02*
X019607Y014656D01*
X019421Y014892D02*
X018901Y014892D01*
X019010Y014970D02*
X019311Y014970D01*
X019243Y015049D02*
X019078Y015049D01*
X019124Y015127D02*
X019198Y015127D01*
X019169Y015206D02*
X019153Y015206D01*
X020454Y017719D02*
X027984Y017719D01*
X028008Y017778D02*
X027891Y017495D01*
X027891Y017189D01*
X028008Y016906D01*
X028225Y016689D01*
X028508Y016572D01*
X028814Y016572D01*
X029097Y016689D01*
X029313Y016906D01*
X029431Y017189D01*
X029431Y017495D01*
X029313Y017778D01*
X029097Y017995D01*
X028814Y018112D01*
X028508Y018112D01*
X028225Y017995D01*
X028008Y017778D01*
X028028Y017798D02*
X020459Y017798D01*
X020449Y017876D02*
X028106Y017876D01*
X028185Y017955D02*
X020416Y017955D01*
X020374Y018034D02*
X028318Y018034D01*
X028423Y018206D02*
X028577Y018142D01*
X028744Y018142D01*
X028899Y018206D01*
X029017Y018324D01*
X029081Y018478D01*
X029081Y019206D01*
X029017Y019360D01*
X028899Y019478D01*
X028744Y019542D01*
X028577Y019542D01*
X028423Y019478D01*
X028305Y019360D01*
X028241Y019206D01*
X028241Y018478D01*
X028305Y018324D01*
X028423Y018206D01*
X028460Y018191D02*
X027862Y018191D01*
X027899Y018206D02*
X028017Y018324D01*
X028081Y018478D01*
X028081Y019206D01*
X028017Y019360D01*
X027899Y019478D01*
X027744Y019542D01*
X027577Y019542D01*
X027423Y019478D01*
X027305Y019360D01*
X027241Y019206D01*
X027241Y018478D01*
X027305Y018324D01*
X027423Y018206D01*
X027577Y018142D01*
X027744Y018142D01*
X027899Y018206D01*
X027962Y018269D02*
X028360Y018269D01*
X028295Y018348D02*
X028027Y018348D01*
X028059Y018426D02*
X028262Y018426D01*
X028241Y018505D02*
X028081Y018505D01*
X028081Y018583D02*
X028241Y018583D01*
X028241Y018662D02*
X028081Y018662D01*
X028081Y018740D02*
X028241Y018740D01*
X028241Y018819D02*
X028081Y018819D01*
X028081Y018898D02*
X028241Y018898D01*
X028241Y018976D02*
X028081Y018976D01*
X028081Y019055D02*
X028241Y019055D01*
X028241Y019133D02*
X028081Y019133D01*
X028078Y019212D02*
X028243Y019212D01*
X028276Y019290D02*
X028046Y019290D01*
X028008Y019369D02*
X028314Y019369D01*
X028392Y019447D02*
X027929Y019447D01*
X027783Y019526D02*
X028538Y019526D01*
X028783Y019526D02*
X029471Y019526D01*
X029471Y019604D02*
X027345Y019604D01*
X027418Y019683D02*
X029471Y019683D01*
X029471Y019762D02*
X027450Y019762D01*
X027459Y019840D02*
X029471Y019840D01*
X029471Y019919D02*
X027452Y019919D01*
X027420Y019997D02*
X029471Y019997D01*
X029471Y020076D02*
X027349Y020076D01*
X027160Y020154D02*
X029471Y020154D01*
X029471Y020233D02*
X027081Y020233D01*
X027003Y020311D02*
X029471Y020311D01*
X029471Y020390D02*
X026924Y020390D01*
X026845Y020468D02*
X029471Y020468D01*
X029471Y020547D02*
X026767Y020547D01*
X026688Y020626D02*
X029471Y020626D01*
X029471Y020704D02*
X026610Y020704D01*
X026531Y020783D02*
X029471Y020783D01*
X029471Y020861D02*
X026453Y020861D01*
X026374Y020940D02*
X029471Y020940D01*
X029471Y021018D02*
X026296Y021018D01*
X026217Y021097D02*
X029471Y021097D01*
X029471Y021175D02*
X026139Y021175D01*
X026060Y021254D02*
X029471Y021254D01*
X029471Y021332D02*
X025981Y021332D01*
X025903Y021411D02*
X029471Y021411D01*
X029471Y021489D02*
X025824Y021489D01*
X025752Y020940D02*
X019031Y020940D01*
X019109Y020861D02*
X025831Y020861D01*
X025909Y020783D02*
X019188Y020783D01*
X019266Y020704D02*
X025988Y020704D01*
X026066Y020626D02*
X019345Y020626D01*
X019424Y020547D02*
X026145Y020547D01*
X026223Y020468D02*
X019502Y020468D01*
X019581Y020390D02*
X026302Y020390D01*
X026380Y020311D02*
X019659Y020311D01*
X019738Y020233D02*
X026459Y020233D01*
X026537Y020154D02*
X019816Y020154D01*
X019887Y020076D02*
X026616Y020076D01*
X026695Y019997D02*
X019919Y019997D01*
X019921Y019919D02*
X026773Y019919D01*
X026852Y019840D02*
X019921Y019840D01*
X019921Y019762D02*
X026871Y019762D01*
X026904Y019683D02*
X019921Y019683D01*
X019921Y019604D02*
X026976Y019604D01*
X026899Y019478D02*
X026744Y019542D01*
X026577Y019542D01*
X026423Y019478D01*
X026305Y019360D01*
X026241Y019206D01*
X026241Y018478D01*
X026305Y018324D01*
X026423Y018206D01*
X026577Y018142D01*
X026744Y018142D01*
X026899Y018206D01*
X027017Y018324D01*
X027081Y018478D01*
X027081Y019206D01*
X027017Y019360D01*
X026899Y019478D01*
X026929Y019447D02*
X027392Y019447D01*
X027314Y019369D02*
X027008Y019369D01*
X027046Y019290D02*
X027276Y019290D01*
X027243Y019212D02*
X027078Y019212D01*
X027081Y019133D02*
X027241Y019133D01*
X027241Y019055D02*
X027081Y019055D01*
X027081Y018976D02*
X027241Y018976D01*
X027241Y018898D02*
X027081Y018898D01*
X027081Y018819D02*
X027241Y018819D01*
X027241Y018740D02*
X027081Y018740D01*
X027081Y018662D02*
X027241Y018662D01*
X027241Y018583D02*
X027081Y018583D01*
X027081Y018505D02*
X027241Y018505D01*
X027262Y018426D02*
X027059Y018426D01*
X027027Y018348D02*
X027295Y018348D01*
X027360Y018269D02*
X026962Y018269D01*
X026862Y018191D02*
X027460Y018191D01*
X027951Y017641D02*
X025673Y017641D01*
X025752Y017562D02*
X027919Y017562D01*
X027891Y017484D02*
X025830Y017484D01*
X025909Y017405D02*
X027891Y017405D01*
X027891Y017327D02*
X025987Y017327D01*
X026066Y017248D02*
X027891Y017248D01*
X027899Y017170D02*
X026144Y017170D01*
X026223Y017091D02*
X027931Y017091D01*
X027964Y017013D02*
X026301Y017013D01*
X026380Y016934D02*
X027996Y016934D01*
X028059Y016855D02*
X026458Y016855D01*
X026537Y016777D02*
X028137Y016777D01*
X028216Y016698D02*
X026616Y016698D01*
X026694Y016620D02*
X028392Y016620D01*
X028929Y016620D02*
X029471Y016620D01*
X029471Y016698D02*
X029106Y016698D01*
X029184Y016777D02*
X029471Y016777D01*
X029471Y016855D02*
X029263Y016855D01*
X029325Y016934D02*
X029471Y016934D01*
X029471Y017013D02*
X029358Y017013D01*
X029390Y017091D02*
X029471Y017091D01*
X029471Y017170D02*
X029423Y017170D01*
X029431Y017248D02*
X029471Y017248D01*
X029471Y017327D02*
X029431Y017327D01*
X029431Y017405D02*
X029471Y017405D01*
X029471Y017484D02*
X029431Y017484D01*
X029403Y017562D02*
X029471Y017562D01*
X029471Y017641D02*
X029370Y017641D01*
X029338Y017719D02*
X029471Y017719D01*
X029471Y017798D02*
X029294Y017798D01*
X029215Y017876D02*
X029471Y017876D01*
X029471Y017955D02*
X029137Y017955D01*
X029003Y018034D02*
X029471Y018034D01*
X029471Y018112D02*
X020430Y018112D01*
X020459Y018191D02*
X020465Y018191D01*
X020621Y018191D02*
X020701Y018191D01*
X020701Y018143D02*
X020759Y018152D01*
X020822Y018173D01*
X020881Y018203D01*
X020934Y018242D01*
X020981Y018288D01*
X021020Y018342D01*
X021050Y018401D01*
X021070Y018464D01*
X021081Y018529D01*
X021081Y018802D01*
X020701Y018802D01*
X020701Y018143D01*
X020701Y018269D02*
X020621Y018269D01*
X020621Y018348D02*
X020701Y018348D01*
X020701Y018426D02*
X020621Y018426D01*
X020621Y018505D02*
X020701Y018505D01*
X020701Y018583D02*
X020621Y018583D01*
X020621Y018662D02*
X020701Y018662D01*
X020701Y018740D02*
X020621Y018740D01*
X020621Y018819D02*
X020081Y018819D01*
X020081Y018898D02*
X020241Y018898D01*
X020241Y018976D02*
X020081Y018976D01*
X020081Y019055D02*
X020241Y019055D01*
X020241Y019133D02*
X020081Y019133D01*
X020078Y019212D02*
X020250Y019212D01*
X020275Y019290D02*
X020046Y019290D01*
X020008Y019369D02*
X020321Y019369D01*
X020394Y019447D02*
X019929Y019447D01*
X019921Y019526D02*
X020545Y019526D01*
X020621Y019526D02*
X020701Y019526D01*
X020777Y019526D02*
X021538Y019526D01*
X021577Y019542D02*
X021423Y019478D01*
X021305Y019360D01*
X021241Y019206D01*
X021241Y018478D01*
X021305Y018324D01*
X021423Y018206D01*
X021577Y018142D01*
X021744Y018142D01*
X021899Y018206D01*
X022017Y018324D01*
X022081Y018478D01*
X022081Y019206D01*
X022017Y019360D01*
X021899Y019478D01*
X021744Y019542D01*
X021577Y019542D01*
X021783Y019526D02*
X022538Y019526D01*
X022577Y019542D02*
X022423Y019478D01*
X022305Y019360D01*
X022241Y019206D01*
X022241Y018478D01*
X022305Y018324D01*
X022423Y018206D01*
X022577Y018142D01*
X022744Y018142D01*
X022899Y018206D01*
X023017Y018324D01*
X023081Y018478D01*
X023081Y019206D01*
X023017Y019360D01*
X022899Y019478D01*
X022744Y019542D01*
X022577Y019542D01*
X022783Y019526D02*
X023538Y019526D01*
X023577Y019542D02*
X023423Y019478D01*
X023305Y019360D01*
X023241Y019206D01*
X023241Y018478D01*
X023305Y018324D01*
X023423Y018206D01*
X023577Y018142D01*
X023744Y018142D01*
X023899Y018206D01*
X024017Y018324D01*
X024081Y018478D01*
X024081Y019206D01*
X024017Y019360D01*
X023899Y019478D01*
X023744Y019542D01*
X023577Y019542D01*
X023783Y019526D02*
X024538Y019526D01*
X024577Y019542D02*
X024423Y019478D01*
X024305Y019360D01*
X024241Y019206D01*
X024241Y018478D01*
X024305Y018324D01*
X024423Y018206D01*
X024577Y018142D01*
X024744Y018142D01*
X024899Y018206D01*
X025017Y018324D01*
X025081Y018478D01*
X025081Y019206D01*
X025017Y019360D01*
X024899Y019478D01*
X024744Y019542D01*
X024577Y019542D01*
X024783Y019526D02*
X025538Y019526D01*
X025577Y019542D02*
X025423Y019478D01*
X025305Y019360D01*
X025241Y019206D01*
X025241Y018478D01*
X025305Y018324D01*
X025423Y018206D01*
X025577Y018142D01*
X025744Y018142D01*
X025899Y018206D01*
X026017Y018324D01*
X026081Y018478D01*
X026081Y019206D01*
X026017Y019360D01*
X025899Y019478D01*
X025744Y019542D01*
X025577Y019542D01*
X025783Y019526D02*
X026538Y019526D01*
X026392Y019447D02*
X025929Y019447D01*
X026008Y019369D02*
X026314Y019369D01*
X026276Y019290D02*
X026046Y019290D01*
X026078Y019212D02*
X026243Y019212D01*
X026241Y019133D02*
X026081Y019133D01*
X026081Y019055D02*
X026241Y019055D01*
X026241Y018976D02*
X026081Y018976D01*
X026081Y018898D02*
X026241Y018898D01*
X026241Y018819D02*
X026081Y018819D01*
X026081Y018740D02*
X026241Y018740D01*
X026241Y018662D02*
X026081Y018662D01*
X026081Y018583D02*
X026241Y018583D01*
X026241Y018505D02*
X026081Y018505D01*
X026059Y018426D02*
X026262Y018426D01*
X026295Y018348D02*
X026027Y018348D01*
X025962Y018269D02*
X026360Y018269D01*
X026460Y018191D02*
X025862Y018191D01*
X025460Y018191D02*
X024862Y018191D01*
X024962Y018269D02*
X025360Y018269D01*
X025295Y018348D02*
X025027Y018348D01*
X025059Y018426D02*
X025262Y018426D01*
X025241Y018505D02*
X025081Y018505D01*
X025081Y018583D02*
X025241Y018583D01*
X025241Y018662D02*
X025081Y018662D01*
X025081Y018740D02*
X025241Y018740D01*
X025241Y018819D02*
X025081Y018819D01*
X025081Y018898D02*
X025241Y018898D01*
X025241Y018976D02*
X025081Y018976D01*
X025081Y019055D02*
X025241Y019055D01*
X025241Y019133D02*
X025081Y019133D01*
X025078Y019212D02*
X025243Y019212D01*
X025276Y019290D02*
X025046Y019290D01*
X025008Y019369D02*
X025314Y019369D01*
X025392Y019447D02*
X024929Y019447D01*
X024392Y019447D02*
X023929Y019447D01*
X024008Y019369D02*
X024314Y019369D01*
X024276Y019290D02*
X024046Y019290D01*
X024078Y019212D02*
X024243Y019212D01*
X024241Y019133D02*
X024081Y019133D01*
X024081Y019055D02*
X024241Y019055D01*
X024241Y018976D02*
X024081Y018976D01*
X024081Y018898D02*
X024241Y018898D01*
X024241Y018819D02*
X024081Y018819D01*
X024081Y018740D02*
X024241Y018740D01*
X024241Y018662D02*
X024081Y018662D01*
X024081Y018583D02*
X024241Y018583D01*
X024241Y018505D02*
X024081Y018505D01*
X024059Y018426D02*
X024262Y018426D01*
X024295Y018348D02*
X024027Y018348D01*
X023962Y018269D02*
X024360Y018269D01*
X024460Y018191D02*
X023862Y018191D01*
X023460Y018191D02*
X022862Y018191D01*
X022962Y018269D02*
X023360Y018269D01*
X023295Y018348D02*
X023027Y018348D01*
X023059Y018426D02*
X023262Y018426D01*
X023241Y018505D02*
X023081Y018505D01*
X023081Y018583D02*
X023241Y018583D01*
X023241Y018662D02*
X023081Y018662D01*
X023081Y018740D02*
X023241Y018740D01*
X023241Y018819D02*
X023081Y018819D01*
X023081Y018898D02*
X023241Y018898D01*
X023241Y018976D02*
X023081Y018976D01*
X023081Y019055D02*
X023241Y019055D01*
X023241Y019133D02*
X023081Y019133D01*
X023078Y019212D02*
X023243Y019212D01*
X023276Y019290D02*
X023046Y019290D01*
X023008Y019369D02*
X023314Y019369D01*
X023392Y019447D02*
X022929Y019447D01*
X022392Y019447D02*
X021929Y019447D01*
X022008Y019369D02*
X022314Y019369D01*
X022276Y019290D02*
X022046Y019290D01*
X022078Y019212D02*
X022243Y019212D01*
X022241Y019133D02*
X022081Y019133D01*
X022081Y019055D02*
X022241Y019055D01*
X022241Y018976D02*
X022081Y018976D01*
X022081Y018898D02*
X022241Y018898D01*
X022241Y018819D02*
X022081Y018819D01*
X022081Y018740D02*
X022241Y018740D01*
X022241Y018662D02*
X022081Y018662D01*
X022081Y018583D02*
X022241Y018583D01*
X022241Y018505D02*
X022081Y018505D01*
X022059Y018426D02*
X022262Y018426D01*
X022295Y018348D02*
X022027Y018348D01*
X021962Y018269D02*
X022360Y018269D01*
X022460Y018191D02*
X021862Y018191D01*
X021460Y018191D02*
X020857Y018191D01*
X020962Y018269D02*
X021360Y018269D01*
X021295Y018348D02*
X021023Y018348D01*
X021058Y018426D02*
X021262Y018426D01*
X021241Y018505D02*
X021077Y018505D01*
X021081Y018583D02*
X021241Y018583D01*
X021241Y018662D02*
X021081Y018662D01*
X021081Y018740D02*
X021241Y018740D01*
X021241Y018819D02*
X020701Y018819D01*
X020701Y018898D02*
X020621Y018898D01*
X020621Y018976D02*
X020701Y018976D01*
X020701Y019055D02*
X020621Y019055D01*
X020621Y019133D02*
X020701Y019133D01*
X020701Y019212D02*
X020621Y019212D01*
X020621Y019290D02*
X020701Y019290D01*
X020701Y019369D02*
X020621Y019369D01*
X020621Y019447D02*
X020701Y019447D01*
X020928Y019447D02*
X021392Y019447D01*
X021314Y019369D02*
X021001Y019369D01*
X021046Y019290D02*
X021276Y019290D01*
X021243Y019212D02*
X021072Y019212D01*
X021081Y019133D02*
X021241Y019133D01*
X021241Y019055D02*
X021081Y019055D01*
X021081Y018976D02*
X021241Y018976D01*
X021241Y018898D02*
X021081Y018898D01*
X020241Y018740D02*
X020081Y018740D01*
X020081Y018662D02*
X020241Y018662D01*
X020241Y018583D02*
X020081Y018583D01*
X017819Y020311D02*
X015855Y020311D01*
X015859Y020301D02*
X015814Y020411D01*
X015730Y020495D01*
X015620Y020540D01*
X015501Y020540D01*
X015392Y020495D01*
X015308Y020411D01*
X015262Y020301D01*
X015262Y020255D01*
X014570Y019562D01*
X014530Y019523D01*
X014423Y019478D01*
X014305Y019360D01*
X014241Y019206D01*
X014241Y018478D01*
X014305Y018324D01*
X014423Y018206D01*
X014577Y018142D01*
X014744Y018142D01*
X014899Y018206D01*
X015017Y018324D01*
X015081Y018478D01*
X015081Y019206D01*
X015017Y019360D01*
X015003Y019373D01*
X015573Y019944D01*
X015620Y019944D01*
X015730Y019989D01*
X015814Y020073D01*
X015859Y020183D01*
X015859Y020301D01*
X015859Y020233D02*
X017740Y020233D01*
X017662Y020154D02*
X015847Y020154D01*
X015815Y020076D02*
X017583Y020076D01*
X017505Y019997D02*
X015738Y019997D01*
X015848Y019840D02*
X015470Y019840D01*
X015548Y019919D02*
X015926Y019919D01*
X015769Y019762D02*
X015391Y019762D01*
X015313Y019683D02*
X015691Y019683D01*
X015612Y019604D02*
X015234Y019604D01*
X015156Y019526D02*
X015534Y019526D01*
X015392Y019447D02*
X015077Y019447D01*
X015008Y019369D02*
X015314Y019369D01*
X015276Y019290D02*
X015046Y019290D01*
X015078Y019212D02*
X015243Y019212D01*
X015241Y019133D02*
X015081Y019133D01*
X015081Y019055D02*
X015241Y019055D01*
X015241Y018976D02*
X015081Y018976D01*
X015081Y018898D02*
X015241Y018898D01*
X015241Y018819D02*
X015081Y018819D01*
X015081Y018740D02*
X015241Y018740D01*
X015241Y018662D02*
X015081Y018662D01*
X015081Y018583D02*
X015241Y018583D01*
X015241Y018505D02*
X015081Y018505D01*
X015059Y018426D02*
X015262Y018426D01*
X015295Y018348D02*
X015027Y018348D01*
X014962Y018269D02*
X015360Y018269D01*
X015460Y018191D02*
X014862Y018191D01*
X014460Y018191D02*
X014123Y018191D01*
X014045Y018269D02*
X014360Y018269D01*
X014295Y018348D02*
X014027Y018348D01*
X014059Y018426D02*
X014262Y018426D01*
X014241Y018505D02*
X014081Y018505D01*
X014081Y018583D02*
X014241Y018583D01*
X014241Y018662D02*
X014081Y018662D01*
X014081Y018740D02*
X014241Y018740D01*
X014241Y018819D02*
X014081Y018819D01*
X014081Y018898D02*
X014241Y018898D01*
X014241Y018976D02*
X014081Y018976D01*
X014081Y019055D02*
X014241Y019055D01*
X014241Y019133D02*
X014081Y019133D01*
X014078Y019212D02*
X014243Y019212D01*
X014276Y019290D02*
X014046Y019290D01*
X014008Y019369D02*
X014314Y019369D01*
X014392Y019447D02*
X014077Y019447D01*
X014156Y019526D02*
X014534Y019526D01*
X014612Y019604D02*
X014234Y019604D01*
X014313Y019683D02*
X014691Y019683D01*
X014769Y019762D02*
X014391Y019762D01*
X014470Y019840D02*
X014848Y019840D01*
X014926Y019919D02*
X014548Y019919D01*
X014738Y019997D02*
X015005Y019997D01*
X015083Y020076D02*
X014815Y020076D01*
X014847Y020154D02*
X015162Y020154D01*
X015240Y020233D02*
X014859Y020233D01*
X014855Y020311D02*
X015266Y020311D01*
X015299Y020390D02*
X014823Y020390D01*
X014756Y020468D02*
X015365Y020468D01*
X015756Y020468D02*
X017890Y020468D01*
X017862Y020390D02*
X015823Y020390D01*
X014365Y020468D02*
X013756Y020468D01*
X013823Y020390D02*
X014299Y020390D01*
X014266Y020311D02*
X013855Y020311D01*
X013859Y020233D02*
X014240Y020233D01*
X014162Y020154D02*
X013847Y020154D01*
X013815Y020076D02*
X014083Y020076D01*
X014005Y019997D02*
X013738Y019997D01*
X013848Y019840D02*
X013470Y019840D01*
X013548Y019919D02*
X013926Y019919D01*
X013769Y019762D02*
X013391Y019762D01*
X013313Y019683D02*
X013691Y019683D01*
X013612Y019604D02*
X013234Y019604D01*
X013156Y019526D02*
X013534Y019526D01*
X013392Y019447D02*
X013077Y019447D01*
X013008Y019369D02*
X013314Y019369D01*
X013276Y019290D02*
X013046Y019290D01*
X013078Y019212D02*
X013243Y019212D01*
X013241Y019133D02*
X013081Y019133D01*
X013081Y019055D02*
X013241Y019055D01*
X013241Y018976D02*
X013081Y018976D01*
X013081Y018898D02*
X013241Y018898D01*
X013241Y018819D02*
X013081Y018819D01*
X013081Y018740D02*
X013241Y018740D01*
X013241Y018662D02*
X013081Y018662D01*
X013081Y018583D02*
X013241Y018583D01*
X013241Y018505D02*
X013081Y018505D01*
X013059Y018426D02*
X013262Y018426D01*
X013295Y018348D02*
X013027Y018348D01*
X013045Y018269D02*
X013360Y018269D01*
X013460Y018191D02*
X013123Y018191D01*
X013202Y018112D02*
X013580Y018112D01*
X013658Y018034D02*
X013280Y018034D01*
X013359Y017955D02*
X013737Y017955D01*
X013815Y017876D02*
X013437Y017876D01*
X013516Y017798D02*
X013894Y017798D01*
X013972Y017719D02*
X013594Y017719D01*
X013673Y017641D02*
X014051Y017641D01*
X014129Y017562D02*
X013752Y017562D01*
X013830Y017484D02*
X014208Y017484D01*
X014516Y017798D02*
X015894Y017798D01*
X015815Y017876D02*
X014437Y017876D01*
X014359Y017955D02*
X015737Y017955D01*
X015658Y018034D02*
X014280Y018034D01*
X014202Y018112D02*
X015580Y018112D01*
X013522Y017170D02*
X013144Y017170D01*
X013066Y017248D02*
X013444Y017248D01*
X013365Y017327D02*
X012987Y017327D01*
X012909Y017405D02*
X013286Y017405D01*
X013208Y017484D02*
X012830Y017484D01*
X012752Y017562D02*
X013129Y017562D01*
X013051Y017641D02*
X012673Y017641D01*
X012594Y017719D02*
X012972Y017719D01*
X012894Y017798D02*
X012516Y017798D01*
X012437Y017876D02*
X012815Y017876D01*
X012737Y017955D02*
X012359Y017955D01*
X012280Y018034D02*
X012658Y018034D01*
X012580Y018112D02*
X012202Y018112D01*
X012123Y018191D02*
X012460Y018191D01*
X012360Y018269D02*
X012045Y018269D01*
X012027Y018348D02*
X012295Y018348D01*
X012262Y018426D02*
X012059Y018426D01*
X012081Y018505D02*
X012241Y018505D01*
X012241Y018583D02*
X012081Y018583D01*
X012081Y018662D02*
X012241Y018662D01*
X012241Y018740D02*
X012081Y018740D01*
X012081Y018819D02*
X012241Y018819D01*
X012241Y018898D02*
X012081Y018898D01*
X012081Y018976D02*
X012241Y018976D01*
X012241Y019055D02*
X012081Y019055D01*
X012081Y019133D02*
X012241Y019133D01*
X012243Y019212D02*
X012078Y019212D01*
X012046Y019290D02*
X012276Y019290D01*
X012314Y019369D02*
X012008Y019369D01*
X012077Y019447D02*
X012392Y019447D01*
X012534Y019526D02*
X012156Y019526D01*
X012234Y019604D02*
X012612Y019604D01*
X012691Y019683D02*
X012313Y019683D01*
X012391Y019762D02*
X012769Y019762D01*
X012848Y019840D02*
X012470Y019840D01*
X012548Y019919D02*
X012926Y019919D01*
X013005Y019997D02*
X012738Y019997D01*
X012815Y020076D02*
X013083Y020076D01*
X013162Y020154D02*
X012847Y020154D01*
X012859Y020233D02*
X013240Y020233D01*
X013266Y020311D02*
X012855Y020311D01*
X012823Y020390D02*
X013299Y020390D01*
X013365Y020468D02*
X012756Y020468D01*
X012365Y020468D02*
X011756Y020468D01*
X011823Y020390D02*
X012299Y020390D01*
X012266Y020311D02*
X011855Y020311D01*
X011859Y020233D02*
X012240Y020233D01*
X012162Y020154D02*
X011847Y020154D01*
X011815Y020076D02*
X012083Y020076D01*
X012005Y019997D02*
X011738Y019997D01*
X011848Y019840D02*
X011470Y019840D01*
X011548Y019919D02*
X011926Y019919D01*
X011769Y019762D02*
X011391Y019762D01*
X011313Y019683D02*
X011691Y019683D01*
X011612Y019604D02*
X011234Y019604D01*
X011156Y019526D02*
X011534Y019526D01*
X011392Y019447D02*
X011077Y019447D01*
X011008Y019369D02*
X011314Y019369D01*
X011276Y019290D02*
X011046Y019290D01*
X011078Y019212D02*
X011243Y019212D01*
X011241Y019133D02*
X011081Y019133D01*
X011081Y019055D02*
X011241Y019055D01*
X011241Y018976D02*
X011081Y018976D01*
X011081Y018898D02*
X011241Y018898D01*
X011241Y018819D02*
X011081Y018819D01*
X011081Y018740D02*
X011241Y018740D01*
X011241Y018662D02*
X011081Y018662D01*
X011081Y018583D02*
X011241Y018583D01*
X011241Y018505D02*
X011081Y018505D01*
X011059Y018426D02*
X011262Y018426D01*
X011295Y018348D02*
X011027Y018348D01*
X011045Y018269D02*
X011360Y018269D01*
X011460Y018191D02*
X011123Y018191D01*
X011202Y018112D02*
X011580Y018112D01*
X011658Y018034D02*
X011280Y018034D01*
X011359Y017955D02*
X011737Y017955D01*
X011815Y017876D02*
X011437Y017876D01*
X011516Y017798D02*
X011894Y017798D01*
X011972Y017719D02*
X011594Y017719D01*
X011673Y017641D02*
X012051Y017641D01*
X012129Y017562D02*
X011752Y017562D01*
X011830Y017484D02*
X012208Y017484D01*
X012286Y017405D02*
X011909Y017405D01*
X011987Y017327D02*
X012365Y017327D01*
X012444Y017248D02*
X012066Y017248D01*
X012144Y017170D02*
X012522Y017170D01*
X012601Y017091D02*
X012223Y017091D01*
X012301Y017013D02*
X012679Y017013D01*
X012758Y016934D02*
X012380Y016934D01*
X012570Y018122D02*
X012570Y018122D01*
X011414Y015677D02*
X011307Y015677D01*
X011229Y015599D02*
X015093Y015599D01*
X015171Y015520D02*
X011150Y015520D01*
X010856Y014813D02*
X011462Y014813D01*
X011334Y014735D02*
X010989Y014735D01*
X011068Y014656D02*
X011259Y014656D01*
X011209Y014578D02*
X011115Y014578D01*
X011148Y014499D02*
X011176Y014499D01*
X011163Y014461D02*
X011163Y014461D01*
X011148Y014185D02*
X011176Y014185D01*
X011208Y014106D02*
X011115Y014106D01*
X011068Y014028D02*
X011259Y014028D01*
X011334Y013949D02*
X010989Y013949D01*
X010856Y013871D02*
X011462Y013871D01*
X011621Y013871D02*
X011701Y013871D01*
X011701Y013832D02*
X011701Y013832D01*
X011621Y013832D02*
X011621Y013832D01*
X011621Y013949D02*
X011701Y013949D01*
X011701Y014028D02*
X011621Y014028D01*
X011621Y014106D02*
X011701Y014106D01*
X011701Y014185D02*
X011621Y014185D01*
X011621Y014264D02*
X011701Y014264D01*
X011701Y014421D02*
X011621Y014421D01*
X011621Y014499D02*
X011701Y014499D01*
X011701Y014578D02*
X011621Y014578D01*
X011621Y014656D02*
X011701Y014656D01*
X011701Y014735D02*
X011621Y014735D01*
X011621Y014813D02*
X011701Y014813D01*
X011859Y014813D02*
X012466Y014813D01*
X012332Y014735D02*
X011988Y014735D01*
X012063Y014656D02*
X012254Y014656D01*
X012206Y014578D02*
X012113Y014578D01*
X012146Y014499D02*
X012174Y014499D01*
X012158Y014223D02*
X012158Y014223D01*
X012146Y014185D02*
X012174Y014185D01*
X012206Y014106D02*
X012113Y014106D01*
X012063Y014028D02*
X012254Y014028D01*
X012332Y013949D02*
X011988Y013949D01*
X011859Y013871D02*
X012466Y013871D01*
X012856Y013871D02*
X013466Y013871D01*
X013332Y013949D02*
X012989Y013949D01*
X013068Y014028D02*
X013254Y014028D01*
X013206Y014106D02*
X013115Y014106D01*
X013148Y014185D02*
X013174Y014185D01*
X013174Y014499D02*
X013148Y014499D01*
X013115Y014578D02*
X013206Y014578D01*
X013254Y014656D02*
X013068Y014656D01*
X012989Y014735D02*
X013332Y014735D01*
X013466Y014813D02*
X012856Y014813D01*
X014888Y015442D02*
X015151Y015442D01*
X015151Y015363D02*
X015007Y015363D01*
X015086Y015285D02*
X015151Y015285D01*
X015164Y015206D02*
X015165Y015206D01*
X015171Y014421D02*
X015215Y014421D01*
X015171Y014342D02*
X015293Y014342D01*
X015372Y014264D02*
X015171Y014264D01*
X015148Y014185D02*
X015450Y014185D01*
X015550Y014106D02*
X015115Y014106D01*
X010466Y013871D02*
X009856Y013871D01*
X009989Y013949D02*
X010332Y013949D01*
X010254Y014028D02*
X010068Y014028D01*
X010115Y014106D02*
X010206Y014106D01*
X010174Y014185D02*
X010148Y014185D01*
X010443Y014813D02*
X010466Y014813D01*
X006121Y014813D02*
X006041Y014813D01*
X006041Y014735D02*
X006121Y014735D01*
X006121Y014656D02*
X006041Y014656D01*
X006041Y014578D02*
X006121Y014578D01*
X006121Y014892D02*
X006041Y014892D01*
X006041Y014970D02*
X006121Y014970D01*
X006121Y015049D02*
X006041Y015049D01*
X006041Y015127D02*
X006121Y015127D01*
X006121Y015206D02*
X006041Y015206D01*
X006041Y015285D02*
X006121Y015285D01*
X006121Y015363D02*
X006041Y015363D01*
X006041Y015442D02*
X006121Y015442D01*
X006121Y015520D02*
X006041Y015520D01*
X006041Y015599D02*
X006121Y015599D01*
X006041Y015677D02*
X002851Y015677D01*
X002851Y015599D02*
X004991Y015599D01*
X004991Y015520D02*
X002851Y015520D01*
X002851Y015442D02*
X004991Y015442D01*
X004991Y015363D02*
X002851Y015363D01*
X002851Y015285D02*
X004991Y015285D01*
X004991Y015206D02*
X002851Y015206D01*
X002851Y015127D02*
X005054Y015127D01*
X005132Y015049D02*
X002851Y015049D01*
X002851Y014970D02*
X005211Y014970D01*
X005289Y014892D02*
X002851Y014892D01*
X002851Y014813D02*
X005368Y014813D01*
X005447Y014735D02*
X002851Y014735D01*
X002851Y014656D02*
X005525Y014656D01*
X005604Y014578D02*
X002851Y014578D01*
X002851Y015756D02*
X004991Y015756D01*
X004991Y015834D02*
X002851Y015834D01*
X002851Y015913D02*
X004991Y015913D01*
X004991Y015991D02*
X002851Y015991D01*
X002851Y016070D02*
X004991Y016070D01*
X005046Y016149D02*
X002851Y016149D01*
X002851Y016227D02*
X005124Y016227D01*
X005203Y016306D02*
X002851Y016306D01*
X002851Y016384D02*
X005281Y016384D01*
X005360Y016463D02*
X002851Y016463D01*
X006557Y018740D02*
X008195Y018740D01*
X006769Y018662D02*
X006635Y018662D01*
X004711Y019919D02*
X004055Y019919D01*
X004109Y019997D02*
X004711Y019997D01*
X004711Y020076D02*
X004114Y020076D01*
X004114Y020154D02*
X004711Y020154D01*
X004711Y020233D02*
X004114Y020233D01*
X004114Y020311D02*
X004711Y020311D01*
X004711Y020390D02*
X004114Y020390D01*
X004114Y020468D02*
X004711Y020468D01*
X004711Y020547D02*
X004114Y020547D01*
X003581Y020547D02*
X003501Y020547D01*
X003501Y020468D02*
X003581Y020468D01*
X003581Y020390D02*
X003501Y020390D01*
X003501Y020311D02*
X003581Y020311D01*
X003581Y020233D02*
X003501Y020233D01*
X003501Y020154D02*
X003581Y020154D01*
X003581Y020076D02*
X003501Y020076D01*
X003501Y019997D02*
X003581Y019997D01*
X003581Y019919D02*
X003501Y019919D01*
X003501Y020783D02*
X003581Y020783D01*
X003581Y020861D02*
X003501Y020861D01*
X003501Y020940D02*
X003581Y020940D01*
X003581Y021018D02*
X003501Y021018D01*
X003501Y021097D02*
X003581Y021097D01*
X003581Y021175D02*
X003501Y021175D01*
X003501Y021254D02*
X003581Y021254D01*
X003581Y021332D02*
X003501Y021332D01*
X003501Y021411D02*
X003581Y021411D01*
X003581Y021489D02*
X003501Y021489D01*
X003501Y021568D02*
X003581Y021568D01*
X003031Y021568D02*
X002851Y021568D01*
X002851Y021489D02*
X002973Y021489D01*
X002968Y021411D02*
X002851Y021411D01*
X002851Y021332D02*
X002968Y021332D01*
X002968Y021254D02*
X002851Y021254D01*
X002851Y021175D02*
X002968Y021175D01*
X002968Y021097D02*
X002851Y021097D01*
X002851Y021018D02*
X002968Y021018D01*
X002968Y020940D02*
X002851Y020940D01*
X002851Y020861D02*
X002968Y020861D01*
X002968Y020783D02*
X002851Y020783D01*
X003666Y022353D02*
X004898Y022353D01*
X004977Y022432D02*
X003747Y022432D01*
X003739Y023060D02*
X004841Y023060D01*
X004920Y023139D02*
X003646Y023139D01*
X005185Y022668D02*
X005212Y022668D01*
X005263Y022746D02*
X005291Y022746D01*
X005341Y022825D02*
X005369Y022825D01*
X005420Y022903D02*
X005448Y022903D01*
X005498Y022982D02*
X005526Y022982D01*
X005577Y023060D02*
X006083Y023060D01*
X006175Y023139D02*
X005655Y023139D01*
X005734Y023217D02*
X006868Y023217D01*
X006946Y023139D02*
X006646Y023139D01*
X006739Y023060D02*
X007025Y023060D01*
X007103Y022982D02*
X006806Y022982D01*
X006839Y022903D02*
X007182Y022903D01*
X007260Y022825D02*
X006868Y022825D01*
X006868Y022746D02*
X007339Y022746D01*
X007417Y022668D02*
X006868Y022668D01*
X006842Y022589D02*
X007443Y022589D01*
X007443Y022511D02*
X006809Y022511D01*
X006747Y022432D02*
X007475Y022432D01*
X007509Y022353D02*
X006666Y022353D01*
X006550Y021961D02*
X010887Y021961D01*
X010862Y021882D02*
X006674Y021882D01*
X006767Y021804D02*
X010862Y021804D01*
X010886Y021725D02*
X006845Y021725D01*
X006924Y021647D02*
X010934Y021647D01*
X011042Y021568D02*
X007002Y021568D01*
X007081Y021489D02*
X007629Y021489D01*
X007540Y021411D02*
X007160Y021411D01*
X007238Y021332D02*
X007489Y021332D01*
X007458Y021254D02*
X007317Y021254D01*
X007395Y021175D02*
X007822Y021175D01*
X007900Y021175D02*
X011516Y021175D01*
X011438Y021254D02*
X008263Y021254D01*
X008232Y021332D02*
X011359Y021332D01*
X011281Y021411D02*
X008181Y021411D01*
X008093Y021489D02*
X011202Y021489D01*
X010936Y022039D02*
X005432Y022039D01*
X005411Y021961D02*
X005354Y021961D01*
X005311Y021882D02*
X005401Y021882D01*
X005401Y021804D02*
X005311Y021804D01*
X005311Y021725D02*
X005401Y021725D01*
X005401Y021647D02*
X005311Y021647D01*
X005311Y021568D02*
X005401Y021568D01*
X005401Y021489D02*
X005311Y021489D01*
X005311Y021411D02*
X005401Y021411D01*
X005422Y021332D02*
X005311Y021332D01*
X005311Y021254D02*
X006581Y021254D01*
X006155Y022353D02*
X005746Y022353D01*
X005668Y022275D02*
X007587Y022275D01*
X007725Y022196D02*
X005589Y022196D01*
X005511Y022118D02*
X011047Y022118D01*
X009660Y023532D02*
X008254Y023532D01*
X008218Y023610D02*
X009582Y023610D01*
X009503Y023689D02*
X008154Y023689D01*
X008044Y023767D02*
X009424Y023767D01*
X008941Y024474D02*
X008063Y024474D01*
X008162Y024553D02*
X008941Y024553D01*
X008941Y024631D02*
X008225Y024631D01*
X008258Y024710D02*
X008941Y024710D01*
X008941Y024788D02*
X008278Y024788D01*
X008278Y024867D02*
X008941Y024867D01*
X008941Y024945D02*
X008270Y024945D01*
X008237Y025024D02*
X008941Y025024D01*
X008941Y025102D02*
X008191Y025102D01*
X008112Y025181D02*
X008941Y025181D01*
X008941Y025260D02*
X008030Y025260D01*
X008147Y025338D02*
X008941Y025338D01*
X008941Y025417D02*
X008213Y025417D01*
X008252Y025495D02*
X008941Y025495D01*
X008941Y025574D02*
X008273Y025574D01*
X008269Y025731D02*
X008941Y025731D01*
X008941Y025809D02*
X008244Y025809D01*
X008198Y025888D02*
X008904Y025888D01*
X008825Y025966D02*
X008124Y025966D01*
X007972Y026045D02*
X008636Y026045D01*
X008558Y026124D02*
X002851Y026124D01*
X002851Y026045D02*
X007750Y026045D01*
X007822Y026045D02*
X007900Y026045D01*
X007900Y025966D02*
X007822Y025966D01*
X007822Y025888D02*
X007900Y025888D01*
X007900Y025809D02*
X007822Y025809D01*
X007822Y025731D02*
X007900Y025731D01*
X007900Y025652D02*
X008941Y025652D01*
X007822Y025652D02*
X007418Y025652D01*
X007452Y025731D02*
X007340Y025731D01*
X007261Y025809D02*
X007478Y025809D01*
X007523Y025888D02*
X007161Y025888D01*
X007597Y025966D02*
X006544Y025966D01*
X006545Y025338D02*
X006997Y025338D01*
X007076Y025260D02*
X004114Y025260D01*
X003581Y025260D02*
X003501Y025260D01*
X003501Y025338D02*
X003581Y025338D01*
X003581Y025417D02*
X003501Y025417D01*
X003501Y025495D02*
X003581Y025495D01*
X003581Y025574D02*
X003501Y025574D01*
X003501Y025181D02*
X003581Y025181D01*
X003581Y025102D02*
X003501Y025102D01*
X003501Y025024D02*
X003581Y025024D01*
X003581Y024945D02*
X003501Y024945D01*
X003501Y024867D02*
X003581Y024867D01*
X003581Y024788D02*
X003501Y024788D01*
X002851Y025731D02*
X005401Y025731D01*
X005401Y025809D02*
X002851Y025809D01*
X002851Y025888D02*
X005401Y025888D01*
X005417Y025966D02*
X002851Y025966D01*
X004900Y026752D02*
X007611Y026752D01*
X007532Y026830D02*
X004921Y026830D01*
X006462Y028794D02*
X006598Y028794D01*
X006519Y028873D02*
X006462Y028873D01*
X008099Y028244D02*
X012498Y028244D01*
X012576Y028166D02*
X008178Y028166D01*
X008232Y028087D02*
X009665Y028087D01*
X009587Y028009D02*
X008264Y028009D01*
X008278Y027930D02*
X009537Y027930D01*
X009504Y027851D02*
X008278Y027851D01*
X008263Y027773D02*
X009493Y027773D01*
X009493Y027694D02*
X008231Y027694D01*
X008175Y027616D02*
X009417Y027616D01*
X009338Y027537D02*
X008095Y027537D01*
X008066Y027459D02*
X009260Y027459D01*
X009181Y027380D02*
X008163Y027380D01*
X010156Y028087D02*
X010665Y028087D01*
X010587Y028009D02*
X010235Y028009D01*
X011156Y028087D02*
X011666Y028087D01*
X011587Y028009D02*
X011235Y028009D01*
X012156Y028087D02*
X012655Y028087D01*
X012733Y028009D02*
X012235Y028009D01*
X012690Y027930D02*
X012812Y027930D01*
X012769Y027851D02*
X012890Y027851D01*
X012848Y027773D02*
X012969Y027773D01*
X012926Y027694D02*
X013047Y027694D01*
X013005Y027616D02*
X013126Y027616D01*
X013083Y027537D02*
X013204Y027537D01*
X013162Y027459D02*
X013283Y027459D01*
X013240Y027380D02*
X013361Y027380D01*
X013319Y027302D02*
X013440Y027302D01*
X013397Y027223D02*
X013519Y027223D01*
X013476Y027145D02*
X013597Y027145D01*
X013554Y027066D02*
X013676Y027066D01*
X013633Y026988D02*
X013754Y026988D01*
X013711Y026909D02*
X013833Y026909D01*
X013790Y026830D02*
X013911Y026830D01*
X011166Y030365D02*
X011091Y030365D01*
X011203Y030443D02*
X011244Y030443D01*
X011271Y030522D02*
X011323Y030522D01*
X011304Y030601D02*
X011402Y030601D01*
X011328Y030679D02*
X011480Y030679D01*
X011493Y030758D02*
X011328Y030758D01*
X011324Y030836D02*
X011498Y030836D01*
X011530Y030915D02*
X011291Y030915D01*
X011250Y030993D02*
X011572Y030993D01*
X010572Y030993D02*
X010250Y030993D01*
X010291Y030915D02*
X010530Y030915D01*
X010498Y030836D02*
X010324Y030836D01*
X010328Y030758D02*
X010493Y030758D01*
X010493Y030679D02*
X010328Y030679D01*
X010304Y030601D02*
X010518Y030601D01*
X010550Y030522D02*
X010271Y030522D01*
X010203Y030443D02*
X010619Y030443D01*
X010730Y030365D02*
X010091Y030365D01*
X010299Y031464D02*
X010316Y031464D01*
X011128Y031936D02*
X011162Y031936D01*
X011218Y032171D02*
X010595Y032171D01*
X010741Y032250D02*
X011304Y032250D01*
X011414Y032328D02*
X010819Y032328D01*
X010860Y032407D02*
X011412Y032407D01*
X011427Y032486D02*
X010893Y032486D01*
X010901Y032564D02*
X011267Y032564D01*
X011200Y032643D02*
X010901Y032643D01*
X010884Y032721D02*
X011167Y032721D01*
X011162Y032800D02*
X010851Y032800D01*
X010797Y032878D02*
X011174Y032878D01*
X011206Y032957D02*
X010718Y032957D01*
X012220Y033899D02*
X012341Y033899D01*
X012341Y034763D02*
X012272Y034763D01*
X011851Y034920D02*
X010705Y034920D01*
X010578Y034999D02*
X011739Y034999D01*
X011760Y035706D02*
X010836Y035706D01*
X010807Y035784D02*
X011901Y035784D01*
X010758Y035863D02*
X020371Y035863D01*
X020293Y035941D02*
X010678Y035941D01*
X013269Y034763D02*
X013341Y034763D01*
X013793Y034763D02*
X013850Y034763D01*
X013872Y034842D02*
X014341Y034842D01*
X014341Y034920D02*
X014271Y034920D01*
X014382Y034999D02*
X014407Y034999D01*
X014460Y035077D02*
X014485Y035077D01*
X014492Y035156D02*
X014564Y035156D01*
X014597Y035235D02*
X014525Y035235D01*
X014531Y035313D02*
X014591Y035313D01*
X014591Y035392D02*
X014531Y035392D01*
X014516Y035470D02*
X014605Y035470D01*
X014638Y035549D02*
X014484Y035549D01*
X014440Y035627D02*
X014681Y035627D01*
X014760Y035706D02*
X014362Y035706D01*
X014221Y035784D02*
X014901Y035784D01*
X015221Y035784D02*
X015901Y035784D01*
X015760Y035706D02*
X015362Y035706D01*
X015440Y035627D02*
X015681Y035627D01*
X015638Y035549D02*
X015484Y035549D01*
X015516Y035470D02*
X015605Y035470D01*
X015591Y035392D02*
X015531Y035392D01*
X015531Y035313D02*
X015591Y035313D01*
X015597Y035235D02*
X015525Y035235D01*
X015492Y035156D02*
X015564Y035156D01*
X015485Y035077D02*
X015460Y035077D01*
X015407Y034999D02*
X015382Y034999D01*
X015341Y034920D02*
X015271Y034920D01*
X015341Y034842D02*
X014872Y034842D01*
X014850Y034763D02*
X014793Y034763D01*
X015272Y034763D02*
X015341Y034763D01*
X015793Y034763D02*
X015850Y034763D01*
X015872Y034842D02*
X019900Y034842D01*
X019867Y034920D02*
X019271Y034920D01*
X019327Y034944D02*
X019154Y034872D01*
X018967Y034872D01*
X018795Y034944D01*
X018662Y035076D01*
X018591Y035249D01*
X018591Y035436D01*
X018662Y035608D01*
X018795Y035740D01*
X018967Y035812D01*
X019154Y035812D01*
X019327Y035740D01*
X019459Y035608D01*
X019531Y035436D01*
X019531Y035249D01*
X019459Y035076D01*
X019327Y034944D01*
X019382Y034999D02*
X019862Y034999D01*
X019873Y035077D02*
X019460Y035077D01*
X019492Y035156D02*
X019906Y035156D01*
X019981Y035235D02*
X019525Y035235D01*
X019531Y035313D02*
X020921Y035313D01*
X021000Y035235D02*
X020340Y035235D01*
X020685Y035549D02*
X019484Y035549D01*
X019516Y035470D02*
X020764Y035470D01*
X020842Y035392D02*
X019531Y035392D01*
X019440Y035627D02*
X020607Y035627D01*
X020528Y035706D02*
X019362Y035706D01*
X019221Y035784D02*
X020450Y035784D01*
X020361Y034763D02*
X020354Y034763D01*
X020282Y034685D02*
X019383Y034685D01*
X019460Y034606D02*
X020218Y034606D01*
X020186Y034528D02*
X019493Y034528D01*
X019525Y034449D02*
X020153Y034449D01*
X020151Y034371D02*
X019531Y034371D01*
X019531Y034292D02*
X020151Y034292D01*
X020162Y034214D02*
X019516Y034214D01*
X019484Y034135D02*
X020195Y034135D01*
X020227Y034056D02*
X019440Y034056D01*
X020036Y033978D02*
X020304Y033978D01*
X019967Y034763D02*
X019272Y034763D01*
X018850Y034763D02*
X018272Y034763D01*
X018383Y034685D02*
X018739Y034685D01*
X018661Y034606D02*
X018460Y034606D01*
X018493Y034528D02*
X018629Y034528D01*
X018596Y034449D02*
X018525Y034449D01*
X018531Y034371D02*
X018591Y034371D01*
X018591Y034292D02*
X018531Y034292D01*
X018516Y034214D02*
X018605Y034214D01*
X018638Y034135D02*
X018484Y034135D01*
X018440Y034056D02*
X018682Y034056D01*
X018327Y034944D02*
X018154Y034872D01*
X017967Y034872D01*
X017795Y034944D01*
X017662Y035076D01*
X017591Y035249D01*
X017591Y035436D01*
X017662Y035608D01*
X017795Y035740D01*
X017967Y035812D01*
X018154Y035812D01*
X018327Y035740D01*
X018459Y035608D01*
X018531Y035436D01*
X018531Y035249D01*
X018459Y035076D01*
X018327Y034944D01*
X018271Y034920D02*
X018851Y034920D01*
X018739Y034999D02*
X018382Y034999D01*
X018460Y035077D02*
X018662Y035077D01*
X018629Y035156D02*
X018492Y035156D01*
X018525Y035235D02*
X018597Y035235D01*
X018591Y035313D02*
X018531Y035313D01*
X018531Y035392D02*
X018591Y035392D01*
X018605Y035470D02*
X018516Y035470D01*
X018484Y035549D02*
X018638Y035549D01*
X018681Y035627D02*
X018440Y035627D01*
X018362Y035706D02*
X018760Y035706D01*
X018901Y035784D02*
X018221Y035784D01*
X017901Y035784D02*
X017221Y035784D01*
X017154Y035812D02*
X016967Y035812D01*
X016795Y035740D01*
X016662Y035608D01*
X016591Y035436D01*
X016591Y035249D01*
X016662Y035076D01*
X016795Y034944D01*
X016967Y034872D01*
X017154Y034872D01*
X017327Y034944D01*
X017459Y035076D01*
X017531Y035249D01*
X017531Y035436D01*
X017459Y035608D01*
X017327Y035740D01*
X017154Y035812D01*
X017362Y035706D02*
X017760Y035706D01*
X017681Y035627D02*
X017440Y035627D01*
X017484Y035549D02*
X017638Y035549D01*
X017605Y035470D02*
X017516Y035470D01*
X017531Y035392D02*
X017591Y035392D01*
X017591Y035313D02*
X017531Y035313D01*
X017525Y035235D02*
X017597Y035235D01*
X017629Y035156D02*
X017492Y035156D01*
X017460Y035077D02*
X017662Y035077D01*
X017739Y034999D02*
X017382Y034999D01*
X017271Y034920D02*
X017851Y034920D01*
X017850Y034763D02*
X017272Y034763D01*
X017383Y034685D02*
X017739Y034685D01*
X017661Y034606D02*
X017460Y034606D01*
X017493Y034528D02*
X017629Y034528D01*
X017596Y034449D02*
X017525Y034449D01*
X017531Y034371D02*
X017591Y034371D01*
X017591Y034292D02*
X017531Y034292D01*
X017516Y034214D02*
X017605Y034214D01*
X017638Y034135D02*
X017484Y034135D01*
X017440Y034056D02*
X017682Y034056D01*
X016949Y033742D02*
X016472Y033742D01*
X016393Y033821D02*
X016871Y033821D01*
X016841Y033899D02*
X016315Y033899D01*
X016361Y033978D02*
X016760Y033978D01*
X016682Y034056D02*
X016440Y034056D01*
X016484Y034135D02*
X016638Y034135D01*
X016605Y034214D02*
X016516Y034214D01*
X016531Y034292D02*
X016591Y034292D01*
X016591Y034371D02*
X016531Y034371D01*
X016525Y034449D02*
X016596Y034449D01*
X016629Y034528D02*
X016493Y034528D01*
X016460Y034606D02*
X016661Y034606D01*
X016739Y034685D02*
X016383Y034685D01*
X016272Y034763D02*
X016850Y034763D01*
X016851Y034920D02*
X016271Y034920D01*
X016382Y034999D02*
X016739Y034999D01*
X016662Y035077D02*
X016460Y035077D01*
X016492Y035156D02*
X016629Y035156D01*
X016597Y035235D02*
X016525Y035235D01*
X016531Y035313D02*
X016591Y035313D01*
X016591Y035392D02*
X016531Y035392D01*
X016516Y035470D02*
X016605Y035470D01*
X016638Y035549D02*
X016484Y035549D01*
X016440Y035627D02*
X016681Y035627D01*
X016760Y035706D02*
X016362Y035706D01*
X016221Y035784D02*
X016901Y035784D01*
X014341Y034763D02*
X014272Y034763D01*
X013361Y033978D02*
X013359Y033978D01*
X019087Y029605D02*
X019570Y029122D01*
X019752Y029122D01*
X023570Y029122D01*
X023818Y028873D01*
X023805Y028860D01*
X023741Y028706D01*
X023741Y027978D01*
X023805Y027824D01*
X023817Y027812D01*
X023505Y027812D01*
X023517Y027824D01*
X023581Y027978D01*
X023581Y028706D01*
X023517Y028860D01*
X023399Y028978D01*
X023244Y029042D01*
X023077Y029042D01*
X022923Y028978D01*
X022805Y028860D01*
X022741Y028706D01*
X022741Y027978D01*
X022805Y027824D01*
X022817Y027812D01*
X022505Y027812D01*
X022517Y027824D01*
X022581Y027978D01*
X022581Y028706D01*
X022517Y028860D01*
X022399Y028978D01*
X022244Y029042D01*
X022077Y029042D01*
X021923Y028978D01*
X021805Y028860D01*
X021741Y028706D01*
X021741Y027978D01*
X021805Y027824D01*
X021817Y027812D01*
X021498Y027812D01*
X021520Y027842D01*
X021550Y027901D01*
X021570Y027964D01*
X021581Y028029D01*
X021581Y028302D01*
X021201Y028302D01*
X021201Y028382D01*
X021581Y028382D01*
X021581Y028655D01*
X021570Y028720D01*
X021550Y028783D01*
X021520Y028842D01*
X021481Y028896D01*
X021434Y028942D01*
X021381Y028981D01*
X021322Y029011D01*
X021259Y029032D01*
X021201Y029041D01*
X021201Y028382D01*
X021121Y028382D01*
X021121Y029041D01*
X021062Y029032D01*
X021000Y029011D01*
X020941Y028981D01*
X020887Y028942D01*
X020840Y028896D01*
X020802Y028842D01*
X020772Y028783D01*
X020751Y028720D01*
X020741Y028655D01*
X020741Y028382D01*
X021121Y028382D01*
X021121Y028302D01*
X020741Y028302D01*
X020741Y028029D01*
X020751Y027964D01*
X020772Y027901D01*
X020802Y027842D01*
X020823Y027812D01*
X020505Y027812D01*
X020517Y027824D01*
X020581Y027978D01*
X020581Y028706D01*
X020517Y028860D01*
X020399Y028978D01*
X020244Y029042D01*
X020077Y029042D01*
X019923Y028978D01*
X019805Y028860D01*
X019741Y028706D01*
X019741Y027978D01*
X019805Y027824D01*
X019817Y027812D01*
X019505Y027812D01*
X019517Y027824D01*
X019581Y027978D01*
X019581Y028706D01*
X019517Y028860D01*
X019399Y028978D01*
X019291Y029022D01*
X019252Y029062D01*
X019027Y029287D01*
X019064Y029323D01*
X019109Y029433D01*
X019109Y029551D01*
X019087Y029605D01*
X019098Y029579D02*
X019112Y029579D01*
X019109Y029501D02*
X019191Y029501D01*
X019269Y029422D02*
X019105Y029422D01*
X019072Y029344D02*
X019348Y029344D01*
X019426Y029265D02*
X019049Y029265D01*
X019127Y029187D02*
X019505Y029187D01*
X019426Y028951D02*
X019896Y028951D01*
X019817Y028873D02*
X019504Y028873D01*
X019544Y028794D02*
X019777Y028794D01*
X019745Y028715D02*
X019577Y028715D01*
X019581Y028637D02*
X019741Y028637D01*
X019741Y028558D02*
X019581Y028558D01*
X019581Y028480D02*
X019741Y028480D01*
X019741Y028401D02*
X019581Y028401D01*
X019581Y028323D02*
X019741Y028323D01*
X019741Y028244D02*
X019581Y028244D01*
X019581Y028166D02*
X019741Y028166D01*
X019741Y028087D02*
X019581Y028087D01*
X019581Y028009D02*
X019741Y028009D01*
X019761Y027930D02*
X019561Y027930D01*
X019528Y027851D02*
X019793Y027851D01*
X020528Y027851D02*
X020797Y027851D01*
X020762Y027930D02*
X020561Y027930D01*
X020581Y028009D02*
X020744Y028009D01*
X020741Y028087D02*
X020581Y028087D01*
X020581Y028166D02*
X020741Y028166D01*
X020741Y028244D02*
X020581Y028244D01*
X020581Y028323D02*
X021121Y028323D01*
X021121Y028401D02*
X021201Y028401D01*
X021201Y028323D02*
X021741Y028323D01*
X021741Y028401D02*
X021581Y028401D01*
X021581Y028480D02*
X021741Y028480D01*
X021741Y028558D02*
X021581Y028558D01*
X021581Y028637D02*
X021741Y028637D01*
X021745Y028715D02*
X021571Y028715D01*
X021544Y028794D02*
X021777Y028794D01*
X021817Y028873D02*
X021498Y028873D01*
X021422Y028951D02*
X021896Y028951D01*
X022047Y029030D02*
X021265Y029030D01*
X021201Y029030D02*
X021121Y029030D01*
X021056Y029030D02*
X020274Y029030D01*
X020426Y028951D02*
X020899Y028951D01*
X020824Y028873D02*
X020504Y028873D01*
X020544Y028794D02*
X020777Y028794D01*
X020750Y028715D02*
X020577Y028715D01*
X020581Y028637D02*
X020741Y028637D01*
X020741Y028558D02*
X020581Y028558D01*
X020581Y028480D02*
X020741Y028480D01*
X020741Y028401D02*
X020581Y028401D01*
X021121Y028480D02*
X021201Y028480D01*
X021201Y028558D02*
X021121Y028558D01*
X021121Y028637D02*
X021201Y028637D01*
X021201Y028715D02*
X021121Y028715D01*
X021121Y028794D02*
X021201Y028794D01*
X021201Y028873D02*
X021121Y028873D01*
X021121Y028951D02*
X021201Y028951D01*
X021581Y028244D02*
X021741Y028244D01*
X021741Y028166D02*
X021581Y028166D01*
X021581Y028087D02*
X021741Y028087D01*
X021741Y028009D02*
X021577Y028009D01*
X021559Y027930D02*
X021761Y027930D01*
X021793Y027851D02*
X021525Y027851D01*
X021614Y027066D02*
X021214Y027066D01*
X021258Y026988D02*
X021567Y026988D01*
X021541Y026909D02*
X021290Y026909D01*
X021291Y026830D02*
X021533Y026830D01*
X021533Y026752D02*
X021291Y026752D01*
X021291Y026673D02*
X021533Y026673D01*
X021533Y026516D02*
X021291Y026516D01*
X021291Y026438D02*
X021533Y026438D01*
X021533Y026359D02*
X021291Y026359D01*
X021291Y026281D02*
X021540Y026281D01*
X021564Y026202D02*
X021260Y026202D01*
X021220Y026124D02*
X021610Y026124D01*
X021693Y026045D02*
X021141Y026045D01*
X020680Y026045D02*
X020675Y026045D01*
X020596Y025966D02*
X025013Y025966D01*
X024996Y026045D02*
X023141Y026045D01*
X022680Y026045D02*
X022129Y026045D01*
X022152Y026060D02*
X022204Y026113D01*
X022246Y026175D01*
X022274Y026244D01*
X022289Y026317D01*
X022289Y026573D01*
X021930Y026573D01*
X021930Y025976D01*
X021948Y025976D01*
X022021Y025990D01*
X022090Y026019D01*
X022152Y026060D01*
X022212Y026124D02*
X022602Y026124D01*
X022562Y026202D02*
X022257Y026202D01*
X022282Y026281D02*
X022531Y026281D01*
X022531Y026359D02*
X022289Y026359D01*
X022289Y026438D02*
X022531Y026438D01*
X022531Y026516D02*
X022289Y026516D01*
X022289Y026673D02*
X022518Y026673D01*
X022531Y026595D02*
X021930Y026595D01*
X021891Y026595D02*
X021291Y026595D01*
X021892Y026516D02*
X021930Y026516D01*
X021930Y026438D02*
X021892Y026438D01*
X021892Y026359D02*
X021930Y026359D01*
X021930Y026281D02*
X021892Y026281D01*
X021892Y026202D02*
X021930Y026202D01*
X021930Y026124D02*
X021892Y026124D01*
X021892Y026045D02*
X021930Y026045D01*
X022289Y026752D02*
X022440Y026752D01*
X022361Y026830D02*
X022289Y026830D01*
X022281Y026909D02*
X022283Y026909D01*
X022591Y027223D02*
X025014Y027223D01*
X024996Y027145D02*
X023136Y027145D01*
X023214Y027066D02*
X025372Y027066D01*
X025372Y027053D02*
X024994Y027053D01*
X025004Y026994D01*
X025024Y026932D01*
X025054Y026873D01*
X025092Y026820D01*
X025139Y026774D01*
X025192Y026735D01*
X025251Y026705D01*
X025313Y026685D01*
X025372Y026675D01*
X025372Y027053D01*
X025372Y026988D02*
X025450Y026988D01*
X025450Y027053D02*
X025450Y026675D01*
X025509Y026685D01*
X025571Y026705D01*
X025630Y026735D01*
X025683Y026774D01*
X025729Y026820D01*
X025768Y026873D01*
X025798Y026932D01*
X025818Y026994D01*
X025827Y027053D01*
X025450Y027053D01*
X025450Y027066D02*
X026993Y027066D01*
X026993Y027145D02*
X025825Y027145D01*
X025807Y027223D02*
X027013Y027223D01*
X027046Y027302D02*
X026740Y027302D01*
X026871Y027380D02*
X027109Y027380D01*
X027205Y027459D02*
X026929Y027459D01*
X026959Y027537D02*
X027441Y027537D01*
X027441Y027616D02*
X026959Y027616D01*
X026951Y027694D02*
X026941Y027694D01*
X027371Y027694D02*
X027441Y027694D01*
X027881Y027694D02*
X028220Y027694D01*
X028225Y027689D02*
X028508Y027572D01*
X028814Y027572D01*
X029097Y027689D01*
X029313Y027906D01*
X029431Y028189D01*
X029431Y028495D01*
X029313Y028778D01*
X029097Y028995D01*
X028814Y029112D01*
X028508Y029112D01*
X028225Y028995D01*
X028008Y028778D01*
X027891Y028495D01*
X027891Y028189D01*
X028008Y027906D01*
X028225Y027689D01*
X028141Y027773D02*
X027881Y027773D01*
X027881Y027851D02*
X028062Y027851D01*
X027998Y027930D02*
X027881Y027930D01*
X027881Y028009D02*
X027966Y028009D01*
X027933Y028087D02*
X027881Y028087D01*
X027881Y028166D02*
X027900Y028166D01*
X027891Y028244D02*
X027881Y028244D01*
X027881Y028323D02*
X027891Y028323D01*
X027881Y028401D02*
X027891Y028401D01*
X027881Y028480D02*
X027891Y028480D01*
X027881Y028558D02*
X027917Y028558D01*
X027950Y028637D02*
X027881Y028637D01*
X027881Y028715D02*
X027982Y028715D01*
X028024Y028794D02*
X027881Y028794D01*
X027881Y028873D02*
X028102Y028873D01*
X028181Y028951D02*
X027881Y028951D01*
X027881Y029030D02*
X028309Y029030D01*
X028499Y029108D02*
X027881Y029108D01*
X027881Y029187D02*
X029447Y029187D01*
X029471Y029108D02*
X028823Y029108D01*
X029013Y029030D02*
X029471Y029030D01*
X029471Y028951D02*
X029141Y028951D01*
X029219Y028873D02*
X029471Y028873D01*
X029471Y028794D02*
X029298Y028794D01*
X029339Y028715D02*
X029471Y028715D01*
X029471Y028637D02*
X029372Y028637D01*
X029405Y028558D02*
X029471Y028558D01*
X029471Y028480D02*
X029431Y028480D01*
X029431Y028401D02*
X029471Y028401D01*
X029471Y028323D02*
X029431Y028323D01*
X029431Y028244D02*
X029471Y028244D01*
X029471Y028166D02*
X029421Y028166D01*
X029389Y028087D02*
X029471Y028087D01*
X029471Y028009D02*
X029356Y028009D01*
X029323Y027930D02*
X029471Y027930D01*
X029471Y027851D02*
X029259Y027851D01*
X029181Y027773D02*
X029471Y027773D01*
X029471Y027694D02*
X029102Y027694D01*
X028920Y027616D02*
X029471Y027616D01*
X029471Y027537D02*
X027881Y027537D01*
X027881Y027459D02*
X029471Y027459D01*
X029471Y027380D02*
X027881Y027380D01*
X027881Y027302D02*
X029471Y027302D01*
X029471Y027223D02*
X027853Y027223D01*
X027828Y027145D02*
X029471Y027145D01*
X029471Y027066D02*
X027828Y027066D01*
X027819Y026988D02*
X029471Y026988D01*
X029471Y026909D02*
X027787Y026909D01*
X027740Y026830D02*
X029471Y026830D01*
X029471Y026752D02*
X027661Y026752D01*
X027161Y026752D02*
X025653Y026752D01*
X025737Y026830D02*
X027082Y026830D01*
X027035Y026909D02*
X025786Y026909D01*
X025816Y026988D02*
X027002Y026988D01*
X026582Y027302D02*
X025772Y027302D01*
X025450Y026909D02*
X025372Y026909D01*
X025372Y026830D02*
X025450Y026830D01*
X025450Y026752D02*
X025372Y026752D01*
X025169Y026752D02*
X023291Y026752D01*
X023291Y026830D02*
X025085Y026830D01*
X025036Y026909D02*
X023290Y026909D01*
X023258Y026988D02*
X025006Y026988D01*
X025049Y027302D02*
X022512Y027302D01*
X022669Y027145D02*
X022686Y027145D01*
X023291Y026673D02*
X029471Y026673D01*
X029471Y026595D02*
X023291Y026595D01*
X023528Y027851D02*
X023793Y027851D01*
X023761Y027930D02*
X023561Y027930D01*
X023581Y028009D02*
X023741Y028009D01*
X023741Y028087D02*
X023581Y028087D01*
X023581Y028166D02*
X023741Y028166D01*
X023741Y028244D02*
X023581Y028244D01*
X023581Y028323D02*
X023741Y028323D01*
X023741Y028401D02*
X023581Y028401D01*
X023581Y028480D02*
X023741Y028480D01*
X023741Y028558D02*
X023581Y028558D01*
X023581Y028637D02*
X023741Y028637D01*
X023745Y028715D02*
X023577Y028715D01*
X023544Y028794D02*
X023777Y028794D01*
X023817Y028873D02*
X023504Y028873D01*
X023426Y028951D02*
X023741Y028951D01*
X023662Y029030D02*
X023274Y029030D01*
X023047Y029030D02*
X022274Y029030D01*
X022426Y028951D02*
X022896Y028951D01*
X022817Y028873D02*
X022504Y028873D01*
X022544Y028794D02*
X022777Y028794D01*
X022745Y028715D02*
X022577Y028715D01*
X022581Y028637D02*
X022741Y028637D01*
X022741Y028558D02*
X022581Y028558D01*
X022581Y028480D02*
X022741Y028480D01*
X022741Y028401D02*
X022581Y028401D01*
X022581Y028323D02*
X022741Y028323D01*
X022741Y028244D02*
X022581Y028244D01*
X022581Y028166D02*
X022741Y028166D01*
X022741Y028087D02*
X022581Y028087D01*
X022581Y028009D02*
X022741Y028009D01*
X022761Y027930D02*
X022561Y027930D01*
X022528Y027851D02*
X022793Y027851D01*
X023584Y029108D02*
X019206Y029108D01*
X019284Y029030D02*
X020047Y029030D01*
X022556Y030758D02*
X022871Y030758D01*
X022887Y030742D02*
X022941Y030703D01*
X023000Y030673D01*
X023062Y030652D01*
X023121Y030643D01*
X023121Y031302D01*
X022741Y031302D01*
X022741Y031029D01*
X022751Y030964D01*
X022772Y030901D01*
X022802Y030842D01*
X022840Y030788D01*
X022887Y030742D01*
X022987Y030679D02*
X022635Y030679D01*
X022713Y030601D02*
X028471Y030601D01*
X028471Y030679D02*
X027334Y030679D01*
X027450Y030758D02*
X028471Y030758D01*
X028471Y030836D02*
X027522Y030836D01*
X027554Y030915D02*
X028471Y030915D01*
X028471Y030993D02*
X027581Y030993D01*
X027581Y031072D02*
X028471Y031072D01*
X028471Y031150D02*
X027581Y031150D01*
X027581Y031229D02*
X028471Y031229D01*
X028471Y031307D02*
X027581Y031307D01*
X027581Y031386D02*
X028471Y031386D01*
X028471Y031464D02*
X027581Y031464D01*
X027581Y031543D02*
X028471Y031543D01*
X028471Y031622D02*
X027581Y031622D01*
X027581Y031700D02*
X028471Y031700D01*
X028471Y031779D02*
X027551Y031779D01*
X027518Y031857D02*
X028471Y031857D01*
X028471Y031936D02*
X027722Y031936D01*
X027805Y032014D02*
X028471Y032014D01*
X028471Y032093D02*
X027843Y032093D01*
X027859Y032171D02*
X028471Y032171D01*
X028471Y032250D02*
X027859Y032250D01*
X027827Y032328D02*
X028471Y032328D01*
X028471Y032407D02*
X027768Y032407D01*
X027632Y032486D02*
X028471Y032486D01*
X028471Y032564D02*
X026933Y032564D01*
X026959Y032486D02*
X027490Y032486D01*
X027354Y032407D02*
X026959Y032407D01*
X026937Y032328D02*
X027294Y032328D01*
X027287Y032721D02*
X028471Y032721D01*
X028471Y032643D02*
X026882Y032643D01*
X026767Y032721D02*
X027035Y032721D01*
X026931Y032800D02*
X026114Y032800D01*
X026036Y032878D02*
X026885Y032878D01*
X026555Y032721D02*
X026193Y032721D01*
X026135Y032957D02*
X025957Y032957D01*
X026056Y033035D02*
X025339Y033035D01*
X024982Y033035D02*
X024959Y033035D01*
X024959Y033114D02*
X025978Y033114D01*
X025899Y033192D02*
X024942Y033192D01*
X026286Y033428D02*
X028471Y033428D01*
X028471Y033350D02*
X027114Y033350D01*
X027267Y033271D02*
X028471Y033271D01*
X028471Y033192D02*
X027382Y033192D01*
X027433Y033114D02*
X028471Y033114D01*
X028471Y033035D02*
X027459Y033035D01*
X027459Y032957D02*
X028471Y032957D01*
X028471Y032878D02*
X027437Y032878D01*
X027390Y032800D02*
X028471Y032800D01*
X028471Y033507D02*
X026350Y033507D01*
X026420Y033585D02*
X028001Y033585D01*
X027917Y033664D02*
X026453Y033664D01*
X026461Y033742D02*
X027879Y033742D01*
X027862Y033821D02*
X026453Y033821D01*
X026925Y033899D02*
X027397Y033899D01*
X027304Y033978D02*
X027018Y033978D01*
X027094Y034056D02*
X027227Y034056D01*
X027195Y034135D02*
X027127Y034135D01*
X027159Y034214D02*
X027162Y034214D01*
X028320Y033585D02*
X028471Y033585D01*
X028471Y033664D02*
X028404Y033664D01*
X028442Y033742D02*
X028471Y033742D01*
X028459Y033821D02*
X028471Y033821D01*
X026804Y031857D02*
X026518Y031857D01*
X026551Y031779D02*
X026771Y031779D01*
X026741Y031700D02*
X026581Y031700D01*
X026581Y031622D02*
X026741Y031622D01*
X026741Y031543D02*
X026581Y031543D01*
X026581Y031464D02*
X026741Y031464D01*
X026741Y031386D02*
X026581Y031386D01*
X026581Y031307D02*
X026741Y031307D01*
X026741Y031229D02*
X026581Y031229D01*
X026581Y031150D02*
X026741Y031150D01*
X026741Y031072D02*
X026581Y031072D01*
X026581Y030993D02*
X026741Y030993D01*
X026767Y030915D02*
X026554Y030915D01*
X026522Y030836D02*
X026800Y030836D01*
X026871Y030758D02*
X026450Y030758D01*
X026334Y030679D02*
X026988Y030679D01*
X026792Y030522D02*
X028471Y030522D01*
X028471Y030443D02*
X026870Y030443D01*
X026949Y030365D02*
X028471Y030365D01*
X028471Y030286D02*
X027028Y030286D01*
X027106Y030208D02*
X028471Y030208D01*
X028505Y030129D02*
X027185Y030129D01*
X027263Y030051D02*
X028583Y030051D01*
X028662Y029972D02*
X027342Y029972D01*
X027420Y029894D02*
X028740Y029894D01*
X028819Y029815D02*
X027499Y029815D01*
X027577Y029737D02*
X028898Y029737D01*
X028976Y029658D02*
X027656Y029658D01*
X027734Y029579D02*
X029055Y029579D01*
X029133Y029501D02*
X027813Y029501D01*
X027881Y029422D02*
X029212Y029422D01*
X029290Y029344D02*
X027881Y029344D01*
X027881Y029265D02*
X029369Y029265D01*
X028402Y027616D02*
X027881Y027616D01*
X027166Y026438D02*
X025645Y026438D01*
X025733Y026359D02*
X027088Y026359D01*
X027037Y026281D02*
X025783Y026281D01*
X025814Y026202D02*
X027005Y026202D01*
X026993Y026124D02*
X025450Y026124D01*
X025450Y026202D02*
X025372Y026202D01*
X025372Y026281D02*
X025450Y026281D01*
X025450Y026359D02*
X025372Y026359D01*
X025372Y026438D02*
X025450Y026438D01*
X025826Y026045D02*
X026993Y026045D01*
X027011Y025966D02*
X025809Y025966D01*
X025775Y025888D02*
X027043Y025888D01*
X027103Y025809D02*
X025719Y025809D01*
X025621Y025731D02*
X027192Y025731D01*
X027361Y025417D02*
X026960Y025417D01*
X027017Y025360D02*
X026899Y025478D01*
X026744Y025542D01*
X026577Y025542D01*
X026423Y025478D01*
X026305Y025360D01*
X026241Y025206D01*
X026241Y024478D01*
X026305Y024324D01*
X026423Y024206D01*
X026577Y024142D01*
X026744Y024142D01*
X026899Y024206D01*
X027017Y024324D01*
X027081Y024478D01*
X027081Y025206D01*
X027017Y025360D01*
X027026Y025338D02*
X027296Y025338D01*
X027263Y025260D02*
X027058Y025260D01*
X027081Y025181D02*
X027241Y025181D01*
X027241Y025102D02*
X027081Y025102D01*
X027081Y025024D02*
X027241Y025024D01*
X027241Y024945D02*
X027081Y024945D01*
X027081Y024867D02*
X027241Y024867D01*
X027241Y024788D02*
X027081Y024788D01*
X027081Y024710D02*
X027241Y024710D01*
X027241Y024631D02*
X027081Y024631D01*
X027081Y024553D02*
X027241Y024553D01*
X027243Y024474D02*
X027079Y024474D01*
X027046Y024396D02*
X027275Y024396D01*
X027312Y024317D02*
X027010Y024317D01*
X026931Y024239D02*
X027246Y024239D01*
X027168Y024160D02*
X026788Y024160D01*
X026534Y024160D02*
X025788Y024160D01*
X025931Y024239D02*
X026390Y024239D01*
X026312Y024317D02*
X026010Y024317D01*
X026046Y024396D02*
X026275Y024396D01*
X026243Y024474D02*
X026079Y024474D01*
X026081Y024553D02*
X026241Y024553D01*
X026241Y024631D02*
X026081Y024631D01*
X026081Y024710D02*
X026241Y024710D01*
X026241Y024788D02*
X026081Y024788D01*
X026081Y024867D02*
X026241Y024867D01*
X026241Y024945D02*
X026081Y024945D01*
X026081Y025024D02*
X026241Y025024D01*
X026241Y025102D02*
X026081Y025102D01*
X026081Y025181D02*
X026241Y025181D01*
X026263Y025260D02*
X026058Y025260D01*
X026026Y025338D02*
X026296Y025338D01*
X026361Y025417D02*
X025960Y025417D01*
X025857Y025495D02*
X026464Y025495D01*
X026857Y025495D02*
X027464Y025495D01*
X027857Y025495D02*
X028464Y025495D01*
X028361Y025417D02*
X027960Y025417D01*
X028026Y025338D02*
X028296Y025338D01*
X028263Y025260D02*
X028058Y025260D01*
X028081Y025181D02*
X028241Y025181D01*
X028241Y025102D02*
X028081Y025102D01*
X028081Y025024D02*
X028241Y025024D01*
X028241Y024945D02*
X028081Y024945D01*
X028081Y024867D02*
X028241Y024867D01*
X028241Y024788D02*
X028081Y024788D01*
X028081Y024710D02*
X028241Y024710D01*
X028241Y024631D02*
X028081Y024631D01*
X028081Y024553D02*
X028241Y024553D01*
X028243Y024474D02*
X028079Y024474D01*
X028046Y024396D02*
X028275Y024396D01*
X028312Y024317D02*
X028010Y024317D01*
X027931Y024239D02*
X028246Y024239D01*
X028168Y024160D02*
X027790Y024160D01*
X027711Y024081D02*
X028089Y024081D01*
X028011Y024003D02*
X027633Y024003D01*
X027554Y023924D02*
X027932Y023924D01*
X027853Y023846D02*
X027476Y023846D01*
X027397Y023767D02*
X027775Y023767D01*
X027696Y023689D02*
X027319Y023689D01*
X027240Y023610D02*
X027618Y023610D01*
X027539Y023532D02*
X027161Y023532D01*
X027083Y023453D02*
X027461Y023453D01*
X027382Y023375D02*
X027004Y023375D01*
X026926Y023296D02*
X027304Y023296D01*
X027225Y023217D02*
X026847Y023217D01*
X026769Y023139D02*
X027147Y023139D01*
X027068Y023060D02*
X026690Y023060D01*
X026612Y022982D02*
X026989Y022982D01*
X026911Y022903D02*
X026533Y022903D01*
X026455Y022825D02*
X026832Y022825D01*
X026754Y022746D02*
X026376Y022746D01*
X026297Y022668D02*
X026675Y022668D01*
X026597Y022589D02*
X026219Y022589D01*
X026140Y022511D02*
X026518Y022511D01*
X026440Y022432D02*
X026062Y022432D01*
X025983Y022353D02*
X026361Y022353D01*
X026283Y022275D02*
X025905Y022275D01*
X025597Y022589D02*
X021969Y022589D01*
X022047Y022668D02*
X025675Y022668D01*
X025754Y022746D02*
X022126Y022746D01*
X022295Y022825D02*
X025832Y022825D01*
X025911Y022903D02*
X022394Y022903D01*
X022438Y022982D02*
X025989Y022982D01*
X026068Y023060D02*
X022459Y023060D01*
X022459Y023139D02*
X026147Y023139D01*
X026225Y023217D02*
X022432Y023217D01*
X022379Y023296D02*
X026304Y023296D01*
X026382Y023375D02*
X022259Y023375D01*
X022161Y023532D02*
X026539Y023532D01*
X026618Y023610D02*
X022240Y023610D01*
X022319Y023689D02*
X026696Y023689D01*
X026775Y023767D02*
X022397Y023767D01*
X022476Y023846D02*
X026853Y023846D01*
X026932Y023924D02*
X022554Y023924D01*
X022633Y024003D02*
X027011Y024003D01*
X027089Y024081D02*
X022711Y024081D01*
X022790Y024160D02*
X023534Y024160D01*
X023390Y024239D02*
X022931Y024239D01*
X023010Y024317D02*
X023312Y024317D01*
X023275Y024396D02*
X023046Y024396D01*
X023079Y024474D02*
X023243Y024474D01*
X023241Y024553D02*
X023081Y024553D01*
X023081Y024631D02*
X023241Y024631D01*
X023241Y024710D02*
X023081Y024710D01*
X023081Y024788D02*
X023241Y024788D01*
X023241Y024867D02*
X023081Y024867D01*
X023081Y024945D02*
X023241Y024945D01*
X023241Y025024D02*
X023081Y025024D01*
X023081Y025102D02*
X023241Y025102D01*
X023241Y025181D02*
X023081Y025181D01*
X023058Y025260D02*
X023263Y025260D01*
X023296Y025338D02*
X023026Y025338D01*
X024026Y025338D02*
X024296Y025338D01*
X024263Y025260D02*
X024058Y025260D01*
X024081Y025181D02*
X024241Y025181D01*
X024241Y025102D02*
X024081Y025102D01*
X024081Y025024D02*
X024241Y025024D01*
X024241Y024945D02*
X024081Y024945D01*
X024081Y024867D02*
X024241Y024867D01*
X024241Y024788D02*
X024081Y024788D01*
X024081Y024710D02*
X024241Y024710D01*
X024241Y024631D02*
X024081Y024631D01*
X024081Y024553D02*
X024241Y024553D01*
X024243Y024474D02*
X024079Y024474D01*
X024046Y024396D02*
X024275Y024396D01*
X024312Y024317D02*
X024010Y024317D01*
X023931Y024239D02*
X024390Y024239D01*
X024534Y024160D02*
X023788Y024160D01*
X024788Y024160D02*
X025534Y024160D01*
X025390Y024239D02*
X024931Y024239D01*
X025010Y024317D02*
X025312Y024317D01*
X025275Y024396D02*
X025046Y024396D01*
X025079Y024474D02*
X025243Y024474D01*
X025241Y024553D02*
X025081Y024553D01*
X025081Y024631D02*
X025241Y024631D01*
X025241Y024710D02*
X025081Y024710D01*
X025081Y024788D02*
X025241Y024788D01*
X025241Y024867D02*
X025081Y024867D01*
X025081Y024945D02*
X025241Y024945D01*
X025168Y025024D02*
X025081Y025024D01*
X025081Y025102D02*
X025089Y025102D01*
X026461Y023453D02*
X022083Y023453D01*
X022063Y023375D02*
X022004Y023375D01*
X021943Y023296D02*
X021926Y023296D01*
X021890Y023217D02*
X021847Y023217D01*
X021862Y023139D02*
X021769Y023139D01*
X021818Y023060D02*
X021690Y023060D01*
X021739Y022982D02*
X021612Y022982D01*
X021661Y022903D02*
X021533Y022903D01*
X021582Y022825D02*
X021455Y022825D01*
X026783Y019526D02*
X027538Y019526D01*
X028929Y019447D02*
X029471Y019447D01*
X029471Y019369D02*
X029008Y019369D01*
X029046Y019290D02*
X029471Y019290D01*
X029471Y019212D02*
X029078Y019212D01*
X029081Y019133D02*
X029471Y019133D01*
X029471Y019055D02*
X029081Y019055D01*
X029081Y018976D02*
X029471Y018976D01*
X029471Y018898D02*
X029081Y018898D01*
X029081Y018819D02*
X029471Y018819D01*
X029471Y018740D02*
X029081Y018740D01*
X029081Y018662D02*
X029471Y018662D01*
X029471Y018583D02*
X029081Y018583D01*
X029081Y018505D02*
X029471Y018505D01*
X029471Y018426D02*
X029059Y018426D01*
X029027Y018348D02*
X029471Y018348D01*
X029471Y018269D02*
X028962Y018269D01*
X028862Y018191D02*
X029471Y018191D01*
X029471Y016541D02*
X026773Y016541D01*
X026851Y016463D02*
X029471Y016463D01*
X029434Y016384D02*
X026930Y016384D01*
X027008Y016306D02*
X029356Y016306D01*
X029277Y016227D02*
X027087Y016227D01*
X027165Y016149D02*
X029199Y016149D01*
X029120Y016070D02*
X027244Y016070D01*
X027322Y015991D02*
X029041Y015991D01*
X028963Y015913D02*
X027401Y015913D01*
X027480Y015834D02*
X027517Y015834D01*
X027805Y015834D02*
X028884Y015834D01*
X028806Y015756D02*
X027968Y015756D01*
X028047Y015677D02*
X028727Y015677D01*
X028649Y015599D02*
X028106Y015599D01*
X028139Y015520D02*
X028570Y015520D01*
X028492Y015442D02*
X028171Y015442D01*
X028171Y015363D02*
X028471Y015363D01*
X028471Y015285D02*
X028171Y015285D01*
X028156Y015206D02*
X028471Y015206D01*
X028471Y015127D02*
X028124Y015127D01*
X028089Y015049D02*
X028471Y015049D01*
X028471Y014970D02*
X028010Y014970D01*
X027907Y014892D02*
X028471Y014892D01*
X028471Y014813D02*
X023856Y014813D01*
X023907Y014892D02*
X024415Y014892D01*
X024311Y014970D02*
X024010Y014970D01*
X024089Y015049D02*
X024233Y015049D01*
X024198Y015127D02*
X024124Y015127D01*
X024156Y015206D02*
X024165Y015206D01*
X023989Y014735D02*
X028471Y014735D01*
X028471Y014656D02*
X024068Y014656D01*
X024115Y014578D02*
X028471Y014578D01*
X027415Y014892D02*
X026907Y014892D01*
X027010Y014970D02*
X027311Y014970D01*
X027233Y015049D02*
X027089Y015049D01*
X027124Y015127D02*
X027198Y015127D01*
X027165Y015206D02*
X027156Y015206D01*
X026415Y014892D02*
X025907Y014892D01*
X026010Y014970D02*
X026311Y014970D01*
X026233Y015049D02*
X026089Y015049D01*
X026124Y015127D02*
X026198Y015127D01*
X026165Y015206D02*
X026156Y015206D01*
X026049Y014499D02*
X024148Y014499D01*
X024171Y014421D02*
X025971Y014421D01*
X025892Y014342D02*
X024171Y014342D01*
X024171Y014264D02*
X025814Y014264D01*
X025735Y014185D02*
X024148Y014185D01*
X024115Y014106D02*
X025656Y014106D01*
X025578Y014028D02*
X024068Y014028D01*
X023989Y013949D02*
X025499Y013949D01*
X025421Y013871D02*
X023856Y013871D01*
X023466Y013871D02*
X022856Y013871D01*
X022989Y013949D02*
X023332Y013949D01*
X023254Y014028D02*
X023068Y014028D01*
X023115Y014106D02*
X023206Y014106D01*
X023174Y014185D02*
X023148Y014185D01*
X024907Y014892D02*
X025415Y014892D01*
X025311Y014970D02*
X025010Y014970D01*
X025089Y015049D02*
X025233Y015049D01*
X025198Y015127D02*
X025124Y015127D01*
X025156Y015206D02*
X025165Y015206D01*
X007900Y021254D02*
X007822Y021254D01*
X007822Y021332D02*
X007900Y021332D01*
X007900Y021411D02*
X007822Y021411D01*
X007822Y021489D02*
X007900Y021489D01*
X006075Y022432D02*
X005825Y022432D01*
X005812Y023296D02*
X006789Y023296D01*
X006711Y023375D02*
X005891Y023375D01*
X006480Y023453D02*
X006632Y023453D01*
X007822Y023532D02*
X007900Y023532D01*
X007900Y023610D02*
X007822Y023610D01*
X007822Y023689D02*
X007900Y023689D01*
X007900Y023767D02*
X007822Y023767D01*
X004201Y030993D02*
X004121Y030993D01*
X004121Y031072D02*
X004201Y031072D01*
X004201Y031150D02*
X004121Y031150D01*
X004121Y031229D02*
X004201Y031229D01*
X004201Y031307D02*
X004121Y031307D01*
X004121Y031386D02*
X004201Y031386D01*
X004201Y031464D02*
X004121Y031464D01*
X004121Y031543D02*
X004201Y031543D01*
X004201Y031622D02*
X004121Y031622D01*
X004121Y031700D02*
X003221Y031700D01*
X003400Y034214D02*
X003497Y034214D01*
X003864Y034214D02*
X006056Y034214D01*
X005935Y034292D02*
X003987Y034292D01*
X004065Y034371D02*
X005866Y034371D01*
X005821Y034449D02*
X004099Y034449D01*
X003562Y035077D02*
X002851Y035077D01*
X002851Y034999D02*
X003402Y034999D01*
X003323Y034920D02*
X002851Y034920D01*
X002851Y034842D02*
X003273Y034842D01*
X003230Y034779D02*
X003230Y034779D01*
X003214Y034763D02*
X002851Y034763D01*
X002851Y034685D02*
X003136Y034685D01*
X003057Y034606D02*
X002851Y034606D01*
X002851Y034528D02*
X002979Y034528D01*
X002900Y034449D02*
X002851Y034449D01*
X022518Y031857D02*
X022813Y031857D01*
X022770Y031779D02*
X022551Y031779D01*
X022581Y031700D02*
X022748Y031700D01*
X022741Y031622D02*
X022581Y031622D01*
X022581Y031543D02*
X022741Y031543D01*
X022741Y031464D02*
X022581Y031464D01*
X022581Y031386D02*
X022741Y031386D01*
X022741Y031229D02*
X022581Y031229D01*
X022581Y031307D02*
X023121Y031307D01*
X023121Y031229D02*
X023201Y031229D01*
X023201Y031302D02*
X023201Y030643D01*
X023259Y030652D01*
X023322Y030673D01*
X023381Y030703D01*
X023434Y030742D01*
X023481Y030788D01*
X023520Y030842D01*
X023550Y030901D01*
X023570Y030964D01*
X023581Y031029D01*
X023581Y031302D01*
X023201Y031302D01*
X023201Y031307D02*
X023741Y031307D01*
X023741Y031229D02*
X023581Y031229D01*
X023581Y031150D02*
X023741Y031150D01*
X023741Y031072D02*
X023581Y031072D01*
X023575Y030993D02*
X023741Y030993D01*
X023767Y030915D02*
X023554Y030915D01*
X023516Y030836D02*
X023800Y030836D01*
X023871Y030758D02*
X023450Y030758D01*
X023334Y030679D02*
X023988Y030679D01*
X024334Y030679D02*
X024988Y030679D01*
X024871Y030758D02*
X024450Y030758D01*
X024522Y030836D02*
X024800Y030836D01*
X024767Y030915D02*
X024554Y030915D01*
X024581Y030993D02*
X024741Y030993D01*
X024741Y031072D02*
X024581Y031072D01*
X024581Y031150D02*
X024741Y031150D01*
X024741Y031229D02*
X024581Y031229D01*
X024581Y031307D02*
X024741Y031307D01*
X024741Y031386D02*
X024581Y031386D01*
X024581Y031464D02*
X024741Y031464D01*
X024741Y031543D02*
X024581Y031543D01*
X024581Y031622D02*
X024741Y031622D01*
X024741Y031700D02*
X024581Y031700D01*
X024551Y031779D02*
X024771Y031779D01*
X024804Y031857D02*
X024518Y031857D01*
X023804Y031857D02*
X023509Y031857D01*
X023551Y031779D02*
X023771Y031779D01*
X023741Y031700D02*
X023574Y031700D01*
X023581Y031622D02*
X023741Y031622D01*
X023741Y031543D02*
X023581Y031543D01*
X023581Y031464D02*
X023741Y031464D01*
X023741Y031386D02*
X023581Y031386D01*
X023201Y031150D02*
X023121Y031150D01*
X023121Y031072D02*
X023201Y031072D01*
X023201Y030993D02*
X023121Y030993D01*
X023121Y030915D02*
X023201Y030915D01*
X023201Y030836D02*
X023121Y030836D01*
X023121Y030758D02*
X023201Y030758D01*
X023201Y030679D02*
X023121Y030679D01*
X022806Y030836D02*
X022522Y030836D01*
X022554Y030915D02*
X022767Y030915D01*
X022746Y030993D02*
X022581Y030993D01*
X022581Y031072D02*
X022741Y031072D01*
X022741Y031150D02*
X022581Y031150D01*
X025334Y030679D02*
X025988Y030679D01*
X025871Y030758D02*
X025450Y030758D01*
X025522Y030836D02*
X025800Y030836D01*
X025767Y030915D02*
X025554Y030915D01*
X025581Y030993D02*
X025741Y030993D01*
X025741Y031072D02*
X025581Y031072D01*
X025581Y031150D02*
X025741Y031150D01*
X025741Y031229D02*
X025581Y031229D01*
X025581Y031307D02*
X025741Y031307D01*
X025741Y031386D02*
X025581Y031386D01*
X025581Y031464D02*
X025741Y031464D01*
X025741Y031543D02*
X025581Y031543D01*
X025581Y031622D02*
X025741Y031622D01*
X025741Y031700D02*
X025581Y031700D01*
X025551Y031779D02*
X025771Y031779D01*
X025804Y031857D02*
X025518Y031857D01*
D28*
X025661Y032442D02*
X024211Y032442D01*
X023911Y032142D01*
X021461Y032142D01*
X021161Y031842D01*
X021161Y031342D01*
X022161Y031342D02*
X022161Y030842D01*
X022661Y030342D01*
X026661Y030342D01*
X027661Y029342D01*
X027661Y027342D01*
X027411Y027092D01*
X026661Y027592D02*
X013911Y027592D01*
X012211Y029292D01*
X006861Y029292D01*
X006319Y029834D01*
X006015Y029834D01*
X006361Y029342D02*
X005661Y029342D01*
X005228Y029775D01*
X005228Y029834D01*
X005811Y030892D02*
X005811Y031692D01*
X004661Y032842D01*
X003691Y032842D01*
X005811Y030892D02*
X007111Y029592D01*
X012911Y029592D01*
X014161Y028342D01*
X014761Y029142D02*
X018861Y029142D01*
X019161Y028842D01*
X019161Y028342D01*
X019661Y029342D02*
X019161Y029842D01*
X017511Y029842D01*
X016661Y030692D01*
X017161Y031342D02*
X017161Y031942D01*
X017311Y032092D01*
X018061Y032092D01*
X018711Y032742D01*
X019211Y032742D01*
X019611Y033142D01*
X019861Y033442D02*
X019811Y033492D01*
X016411Y033492D01*
X016061Y033842D01*
X016061Y034342D01*
X015561Y034042D02*
X015311Y033792D01*
X014961Y033792D01*
X014511Y033342D01*
X014161Y033342D01*
X012711Y031892D01*
X012111Y031892D01*
X012011Y031992D01*
X011461Y031992D01*
X011711Y032392D02*
X012111Y032392D01*
X012261Y032242D01*
X012611Y032242D01*
X014011Y033642D01*
X014361Y033642D01*
X014511Y033792D01*
X014561Y033842D01*
X015161Y033492D02*
X015611Y033492D01*
X015761Y033642D01*
X015961Y033242D02*
X015911Y033192D01*
X015361Y033192D01*
X014911Y032742D01*
X014461Y032742D01*
X012961Y031242D01*
X010211Y031242D01*
X010161Y031292D01*
X009611Y031292D01*
X009511Y031192D01*
X010511Y031692D02*
X010561Y031742D01*
X011011Y031742D01*
X011161Y031592D01*
X012861Y031592D01*
X014311Y033042D01*
X014711Y033042D01*
X015161Y033492D01*
X015561Y032892D02*
X016211Y032892D01*
X016461Y033142D01*
X017111Y033142D01*
X016611Y032792D02*
X017661Y032792D01*
X018011Y033142D01*
X018561Y033142D02*
X019011Y033142D01*
X018561Y033142D02*
X017861Y032442D01*
X016811Y032442D01*
X016211Y031842D01*
X016161Y031842D01*
X016161Y031342D01*
X015161Y031342D02*
X015161Y031992D01*
X015761Y032592D01*
X016411Y032592D01*
X016611Y032792D01*
X017211Y033792D02*
X019911Y033792D01*
X019961Y033742D01*
X026161Y033742D01*
X025961Y033442D02*
X026261Y033142D01*
X027011Y033142D01*
X027161Y032992D01*
X026661Y032442D02*
X026311Y032442D01*
X026161Y032442D01*
X025811Y032792D01*
X025161Y032792D01*
X024661Y033092D02*
X024361Y032792D01*
X024011Y032792D01*
X023661Y032442D01*
X020861Y032442D01*
X020161Y031742D01*
X020161Y031342D01*
X020161Y030842D01*
X021161Y029842D01*
X022161Y029842D01*
X023661Y029342D02*
X019661Y029342D01*
X018811Y029492D02*
X015661Y029492D01*
X014661Y030492D01*
X014661Y030692D01*
X014161Y030842D02*
X014161Y031342D01*
X014161Y031992D01*
X014611Y032442D01*
X015111Y032442D01*
X015561Y032892D01*
X017061Y033942D02*
X017061Y034342D01*
X017061Y033942D02*
X017211Y033792D01*
X016061Y035342D02*
X015561Y034842D01*
X015061Y035342D02*
X014561Y034842D01*
X014061Y035342D02*
X013561Y034842D01*
X013061Y035342D02*
X012561Y034842D01*
X012561Y033892D02*
X012561Y033592D01*
X012161Y033192D01*
X011711Y033192D01*
X011461Y032792D02*
X012711Y032792D01*
X013561Y033642D01*
X013561Y033842D01*
X013461Y030942D02*
X013461Y030442D01*
X014761Y029142D01*
X012061Y028992D02*
X015111Y025942D01*
X016061Y025942D01*
X016411Y025592D01*
X024911Y025592D01*
X025661Y024842D01*
X027661Y024842D02*
X027661Y024342D01*
X025611Y022292D01*
X012661Y022292D01*
X011061Y023892D01*
X010611Y023892D01*
X010161Y024342D01*
X010161Y025442D01*
X009311Y026292D01*
X009161Y025942D02*
X009161Y024342D01*
X010111Y023392D01*
X010911Y023392D01*
X012311Y021992D01*
X026311Y021992D01*
X028661Y024342D01*
X028661Y024842D01*
X025661Y021342D02*
X011661Y021342D01*
X011161Y021842D01*
X011161Y020842D02*
X009661Y019342D01*
X009661Y018842D01*
X010661Y018842D02*
X010661Y018342D01*
X012361Y016642D01*
X015961Y016642D01*
X016661Y015942D01*
X022061Y015942D01*
X022661Y015342D01*
X022761Y016242D02*
X023661Y015342D01*
X024661Y015342D02*
X023461Y016542D01*
X017161Y016542D01*
X016461Y017242D01*
X013761Y017242D01*
X012661Y018342D01*
X012661Y018842D01*
X012661Y019342D01*
X013561Y020242D01*
X013661Y019342D02*
X014561Y020242D01*
X014661Y019342D02*
X015561Y020242D01*
X016061Y019742D02*
X017561Y019742D01*
X018161Y020342D01*
X018661Y018842D02*
X018661Y018342D01*
X018911Y018092D01*
X019911Y018092D01*
X020061Y018242D01*
X020161Y018242D01*
X020161Y017792D02*
X019261Y017792D01*
X018211Y017792D01*
X017661Y018342D01*
X017661Y018842D01*
X017211Y018142D02*
X016861Y018142D01*
X016661Y018342D01*
X016661Y018842D01*
X017211Y018142D02*
X017911Y017442D01*
X025561Y017442D01*
X027661Y015342D01*
X026661Y015342D02*
X024861Y017142D01*
X017661Y017142D01*
X016961Y017842D01*
X016161Y017842D01*
X015661Y018342D01*
X015661Y018842D01*
X015661Y019342D01*
X016061Y019742D01*
X014661Y019342D02*
X014661Y018842D01*
X013661Y018842D02*
X013661Y018342D01*
X014461Y017542D01*
X016711Y017542D01*
X017411Y016842D01*
X024161Y016842D01*
X025661Y015342D01*
X022761Y016242D02*
X016911Y016242D01*
X016211Y016942D01*
X013061Y016942D01*
X011661Y018342D01*
X011661Y018842D01*
X011661Y019342D01*
X012561Y020242D01*
X011561Y020242D02*
X010661Y019342D01*
X010661Y018842D01*
X013661Y018842D02*
X013661Y019342D01*
X015261Y022592D02*
X015161Y022692D01*
X015261Y022592D02*
X021661Y022592D01*
X022161Y023092D01*
X021211Y022892D02*
X015511Y022892D01*
X015311Y023092D01*
X012411Y023092D01*
X011161Y024342D01*
X011161Y025342D01*
X010811Y025692D01*
X010411Y025692D01*
X009811Y026292D01*
X009161Y025942D02*
X008811Y026292D01*
X010311Y026292D02*
X010611Y025992D01*
X011511Y025992D01*
X012161Y025342D01*
X012161Y024342D01*
X013111Y023392D01*
X015511Y023392D01*
X015711Y023192D01*
X020511Y023192D01*
X021661Y024342D01*
X021661Y024842D01*
X022661Y024842D02*
X022661Y024342D01*
X021211Y022892D01*
X020011Y023692D02*
X019811Y023492D01*
X015911Y023492D01*
X015711Y023692D01*
X013811Y023692D01*
X013161Y024342D01*
X013161Y025342D01*
X011861Y026642D01*
X011111Y026642D01*
X010811Y026642D01*
X011411Y027342D02*
X011611Y027142D01*
X012411Y027142D01*
X014161Y025392D01*
X014161Y024342D01*
X014511Y023992D01*
X015911Y023992D01*
X016111Y023792D01*
X019111Y023792D01*
X019311Y023992D01*
X019661Y024342D01*
X019661Y024842D01*
X020661Y024842D02*
X020661Y024342D01*
X020011Y023692D01*
X017661Y024392D02*
X017361Y024092D01*
X016361Y024092D01*
X016161Y024292D01*
X016161Y025342D01*
X015911Y025592D01*
X014661Y025592D01*
X014511Y025742D01*
X012061Y028992D02*
X006711Y028992D01*
X006361Y029342D01*
X018161Y031342D02*
X018161Y031592D01*
X018911Y032342D01*
X019461Y032342D01*
X020211Y033092D01*
X022661Y033092D01*
X023311Y032742D02*
X023661Y033092D01*
X023311Y032742D02*
X020561Y032742D01*
X019161Y031342D01*
X019861Y033442D02*
X025961Y033442D01*
X027461Y032092D02*
X024411Y032092D01*
X024161Y031842D01*
X024161Y031342D01*
X023661Y029342D02*
X024161Y028842D01*
X024161Y028342D01*
X022911Y026592D02*
X022211Y027292D01*
X022111Y027292D01*
X018811Y027292D01*
X018611Y027092D01*
X018611Y026092D02*
X020411Y026092D01*
X020911Y026592D01*
X025661Y021342D02*
X027161Y019842D01*
X015661Y015342D02*
X015161Y015842D01*
X011561Y015842D01*
X011361Y016042D01*
X009661Y014342D01*
X027461Y032092D02*
X027561Y032192D01*
X028161Y033842D02*
X028261Y033942D01*
X028261Y034592D01*
X027861Y034992D01*
X020161Y034992D01*
D29*
X011911Y030742D02*
X011111Y029942D01*
X007311Y029942D01*
X006241Y031012D01*
X006241Y032852D01*
X003691Y032842D02*
X003681Y032852D01*
X002961Y034142D02*
X002961Y029842D01*
X004911Y027892D01*
X007861Y027892D01*
X007861Y027092D02*
X009261Y027092D01*
X009911Y027742D01*
X010911Y027742D01*
X011911Y027742D01*
X012511Y027742D01*
X014511Y025742D01*
X017661Y024842D02*
X017661Y024392D01*
X016511Y020792D02*
X016561Y020742D01*
X018861Y020742D01*
X019661Y019942D01*
X019661Y018842D01*
X016661Y015342D02*
X015711Y016292D01*
X012111Y016292D01*
X010661Y017742D01*
X009561Y017742D01*
X007861Y019442D01*
X007861Y020342D01*
X006551Y021652D01*
X005981Y021652D01*
X004891Y022742D02*
X005981Y023832D01*
X006621Y023832D01*
X007861Y022592D01*
X007861Y024842D02*
X007051Y025652D01*
X005981Y025652D01*
X005981Y019832D02*
X007111Y019832D01*
X011561Y015192D02*
X014811Y015192D01*
X015661Y014342D01*
X019661Y014342D01*
X020661Y015342D01*
X002961Y034142D02*
X003451Y034632D01*
X003681Y034632D01*
D30*
X009511Y031192D03*
X010511Y031692D03*
X011461Y031992D03*
X011711Y032392D03*
X011461Y032792D03*
X011711Y033192D03*
X013461Y030942D03*
X014661Y030692D03*
X016661Y030692D03*
X018811Y029492D03*
X022161Y029842D03*
X025161Y032792D03*
X024661Y033092D03*
X025661Y032442D03*
X026661Y032442D03*
X027161Y032992D03*
X027561Y032192D03*
X028161Y033842D03*
X023661Y033092D03*
X022661Y033092D03*
X020161Y034992D03*
X019611Y033142D03*
X019011Y033142D03*
X018011Y033142D03*
X017111Y033142D03*
X015961Y033242D03*
X015761Y033642D03*
X011411Y027342D03*
X010811Y026642D03*
X010311Y026292D03*
X009811Y026292D03*
X009311Y026292D03*
X008811Y026292D03*
X011161Y021842D03*
X011161Y020842D03*
X011561Y020242D03*
X012561Y020242D03*
X013561Y020242D03*
X014561Y020242D03*
X015561Y020242D03*
X016511Y020792D03*
X018161Y020342D03*
X020161Y018242D03*
X020161Y017792D03*
X015161Y022692D03*
X022161Y023092D03*
X027161Y019842D03*
X026661Y027592D03*
X011361Y016042D03*
X011561Y015192D03*
X007111Y019832D03*
D31*
X012561Y033892D02*
X012561Y034842D01*
X013561Y034842D02*
X013561Y033842D01*
X014561Y033842D02*
X014561Y034842D01*
X015561Y034842D02*
X015561Y034042D01*
D32*
X026161Y033742D03*
D33*
X006411Y022742D02*
X005711Y022742D01*
X005011Y022042D01*
X005011Y019342D01*
X005411Y018942D01*
X005931Y018942D01*
X007261Y017612D01*
X004891Y022742D02*
X003411Y022742D01*
M02*
