%
M48
M72
T01C0.0197
T02C0.0200
T03C0.0236
T04C0.0240
T05C0.0315
T06C0.0320
T07C0.0360
T08C0.0374
T09C0.0394
T10C0.0400
T11C0.0866
T12C0.1260
T13C0.1300
%
T01
X11561Y15192
X11361Y16042
X7111Y19832
X11161Y20842
X11561Y20242
X12561Y20242
X13561Y20242
X14561Y20242
X15561Y20242
X16511Y20792
X18161Y20342
X20161Y18242
X20161Y17792
X15161Y22692
X11161Y21842
X10311Y26292
X10811Y26642
X11411Y27342
X9811Y26292
X9311Y26292
X8811Y26292
X9511Y31192
X10511Y31692
X11461Y31992
X11711Y32392
X11461Y32792
X11711Y33192
X13461Y30942
X14661Y30692
X16661Y30692
X18811Y29492
X22161Y29842
X25161Y32792
X24661Y33092
X25661Y32442
X26661Y32442
X27161Y32992
X27561Y32192
X28161Y33842
X23661Y33092
X22661Y33092
X20161Y34992
X19611Y33142
X19011Y33142
X18011Y33142
X17111Y33142
X15961Y33242
X15761Y33642
X26661Y27592
X22161Y23092
X27161Y19842
T02
X26161Y33742
T03
X21911Y26592
T04
X20911Y26592
X22911Y26592
T05
X25411Y26092
X25411Y27092
X27411Y27092
X27411Y26092
X18611Y26092
X18611Y27092
X16611Y27092
X16611Y26092
X11911Y27742
X10911Y27742
X9911Y27742
X7861Y27892
X7861Y27092
X7861Y25642
X7861Y24842
X7861Y23392
X7861Y22592
X7861Y21142
X7861Y20342
X9911Y30742
X10911Y30742
X11911Y30742
X10461Y32592
X10461Y33592
X10411Y34592
X10411Y35592
T06
X14161Y31342
X15161Y31342
X16161Y31342
X17161Y31342
X18161Y31342
X19161Y31342
X20161Y31342
X21161Y31342
X22161Y31342
X23161Y31342
X24161Y31342
X25161Y31342
X26161Y31342
X27161Y31342
X27161Y28342
X26161Y28342
X25161Y28342
X24161Y28342
X23161Y28342
X22161Y28342
X21161Y28342
X20161Y28342
X19161Y28342
X18161Y28342
X17161Y28342
X16161Y28342
X15161Y28342
X14161Y28342
X14661Y24842
X15661Y24842
X16661Y24842
X17661Y24842
X18661Y24842
X19661Y24842
X20661Y24842
X21661Y24842
X22661Y24842
X23661Y24842
X24661Y24842
X25661Y24842
X26661Y24842
X27661Y24842
X28661Y24842
X28661Y18842
X27661Y18842
X26661Y18842
X25661Y18842
X24661Y18842
X23661Y18842
X22661Y18842
X21661Y18842
X20661Y18842
X19661Y18842
X18661Y18842
X17661Y18842
X16661Y18842
X15661Y18842
X14661Y18842
X13661Y18842
X12661Y18842
X11661Y18842
X10661Y18842
X9661Y18842
X9661Y24842
X10661Y24842
X11661Y24842
X12661Y24842
X13661Y24842
T07
X7911Y30592
X7911Y31592
X7911Y32592
T08
X6015Y29834
X5228Y29834
X5228Y28850
X6015Y28850
T09
X6241Y32852
X6241Y34632
X3681Y34632
X3681Y32852
X3411Y22742
X6411Y22742
T10
X9661Y14342
X10661Y14342
X11661Y14342
X12661Y14342
X13661Y14342
X14661Y14342
X15661Y15342
X16661Y15342
X17661Y15342
X18661Y15342
X19661Y15342
X20661Y15342
X22661Y15342
X23661Y15342
X23661Y14342
X22661Y14342
X24661Y15342
X25661Y15342
X26661Y15342
X27661Y15342
X27661Y34342
X26661Y34342
X25661Y34342
X24661Y34342
X23661Y34342
X22661Y34342
X21661Y34342
X20661Y34342
X19061Y34342
X18061Y34342
X17061Y34342
X17061Y35342
X18061Y35342
X19061Y35342
X16061Y35342
X15061Y35342
X14061Y35342
X13061Y35342
X13061Y34342
X14061Y34342
X15061Y34342
X16061Y34342
X12061Y34342
X12061Y35342
T11
X4161Y31704
X4161Y26980
T12
X8661Y34342
X28661Y28342
X28661Y17342
X8161Y15342
T13
X6081Y15642
X7261Y17612
X4901Y17612
M30
