G75*
%MOIN*%
%OFA0B0*%
%FSLAX25Y25*%
%IPPOS*%
%LPD*%
%AMOC8*
5,1,8,0,0,1.08239X$1,22.5*
%
%ADD10C,0.00600*%
%ADD11C,0.01000*%
%ADD12C,0.01400*%
%ADD13C,0.00400*%
%ADD14C,0.00300*%
%ADD15C,0.00500*%
%ADD16C,0.00700*%
%ADD17C,0.01200*%
%ADD18C,0.00800*%
%ADD19C,0.00200*%
%ADD20R,0.02000X0.10000*%
%ADD21R,0.02500X0.03000*%
D10*
X0091461Y0138333D02*
X0101461Y0138333D01*
X0101461Y0165833D01*
X0111461Y0165833D01*
X0111461Y0138333D01*
X0101461Y0138333D01*
X0111461Y0138333D02*
X0121461Y0138333D01*
X0121461Y0165833D01*
X0131461Y0165833D01*
X0131461Y0138333D01*
X0121461Y0138333D01*
X0131461Y0138333D02*
X0141461Y0138333D01*
X0141461Y0165833D01*
X0151461Y0165833D02*
X0151461Y0158333D01*
X0211461Y0158333D01*
X0211461Y0148333D01*
X0201461Y0148333D01*
X0201461Y0175833D01*
X0191461Y0175833D02*
X0211461Y0175833D01*
X0211461Y0158333D01*
X0221461Y0158333D02*
X0281461Y0158333D01*
X0281461Y0148333D01*
X0271461Y0148333D01*
X0271461Y0180833D01*
X0281461Y0180833D01*
X0281461Y0158333D01*
X0279511Y0166633D02*
X0279511Y0172533D01*
X0271461Y0180833D02*
X0261461Y0180833D01*
X0261461Y0148333D01*
X0271461Y0148333D01*
X0261461Y0148333D02*
X0251461Y0148333D01*
X0251461Y0180833D01*
X0261461Y0180833D01*
X0251461Y0180833D02*
X0241461Y0180833D01*
X0241461Y0148333D01*
X0251461Y0148333D01*
X0241461Y0148333D02*
X0231461Y0148333D01*
X0231461Y0180833D01*
X0241461Y0180833D01*
X0232561Y0178708D02*
X0232561Y0172808D01*
X0231461Y0180833D02*
X0221461Y0180833D01*
X0221461Y0158333D01*
X0221461Y0148333D01*
X0231461Y0148333D01*
X0223211Y0173883D02*
X0223211Y0179783D01*
X0191461Y0175833D02*
X0191461Y0148333D01*
X0181461Y0148333D01*
X0181461Y0175833D01*
X0191461Y0175833D01*
X0181461Y0175833D02*
X0171461Y0175833D01*
X0171461Y0148333D01*
X0161461Y0148333D01*
X0161461Y0175833D01*
X0171461Y0175833D01*
X0161461Y0175833D02*
X0151461Y0175833D01*
X0151461Y0165833D01*
X0131461Y0165833D01*
X0121461Y0165833D02*
X0111461Y0165833D01*
X0101461Y0165833D02*
X0091461Y0165833D01*
X0091461Y0148333D01*
X0151461Y0148333D01*
X0151461Y0138333D01*
X0141461Y0138333D01*
X0151461Y0148333D02*
X0161461Y0148333D01*
X0171461Y0148333D02*
X0181461Y0148333D01*
X0191461Y0148333D02*
X0201461Y0148333D01*
X0151461Y0148333D02*
X0151461Y0158333D01*
X0091461Y0148333D02*
X0091461Y0138333D01*
X0091461Y0193833D02*
X0291461Y0193833D01*
X0291461Y0242833D01*
X0091461Y0242833D01*
X0091461Y0223333D01*
X0091601Y0223331D01*
X0091741Y0223325D01*
X0091881Y0223315D01*
X0092021Y0223302D01*
X0092160Y0223284D01*
X0092299Y0223262D01*
X0092436Y0223237D01*
X0092574Y0223208D01*
X0092710Y0223175D01*
X0092845Y0223138D01*
X0092979Y0223097D01*
X0093112Y0223052D01*
X0093244Y0223004D01*
X0093374Y0222952D01*
X0093503Y0222897D01*
X0093630Y0222838D01*
X0093756Y0222775D01*
X0093880Y0222709D01*
X0094001Y0222640D01*
X0094121Y0222567D01*
X0094239Y0222490D01*
X0094354Y0222411D01*
X0094468Y0222328D01*
X0094578Y0222242D01*
X0094687Y0222153D01*
X0094793Y0222061D01*
X0094896Y0221966D01*
X0094997Y0221869D01*
X0095094Y0221768D01*
X0095189Y0221665D01*
X0095281Y0221559D01*
X0095370Y0221450D01*
X0095456Y0221340D01*
X0095539Y0221226D01*
X0095618Y0221111D01*
X0095695Y0220993D01*
X0095768Y0220873D01*
X0095837Y0220752D01*
X0095903Y0220628D01*
X0095966Y0220502D01*
X0096025Y0220375D01*
X0096080Y0220246D01*
X0096132Y0220116D01*
X0096180Y0219984D01*
X0096225Y0219851D01*
X0096266Y0219717D01*
X0096303Y0219582D01*
X0096336Y0219446D01*
X0096365Y0219308D01*
X0096390Y0219171D01*
X0096412Y0219032D01*
X0096430Y0218893D01*
X0096443Y0218753D01*
X0096453Y0218613D01*
X0096459Y0218473D01*
X0096461Y0218333D01*
X0096459Y0218193D01*
X0096453Y0218053D01*
X0096443Y0217913D01*
X0096430Y0217773D01*
X0096412Y0217634D01*
X0096390Y0217495D01*
X0096365Y0217358D01*
X0096336Y0217220D01*
X0096303Y0217084D01*
X0096266Y0216949D01*
X0096225Y0216815D01*
X0096180Y0216682D01*
X0096132Y0216550D01*
X0096080Y0216420D01*
X0096025Y0216291D01*
X0095966Y0216164D01*
X0095903Y0216038D01*
X0095837Y0215914D01*
X0095768Y0215793D01*
X0095695Y0215673D01*
X0095618Y0215555D01*
X0095539Y0215440D01*
X0095456Y0215326D01*
X0095370Y0215216D01*
X0095281Y0215107D01*
X0095189Y0215001D01*
X0095094Y0214898D01*
X0094997Y0214797D01*
X0094896Y0214700D01*
X0094793Y0214605D01*
X0094687Y0214513D01*
X0094578Y0214424D01*
X0094468Y0214338D01*
X0094354Y0214255D01*
X0094239Y0214176D01*
X0094121Y0214099D01*
X0094001Y0214026D01*
X0093880Y0213957D01*
X0093756Y0213891D01*
X0093630Y0213828D01*
X0093503Y0213769D01*
X0093374Y0213714D01*
X0093244Y0213662D01*
X0093112Y0213614D01*
X0092979Y0213569D01*
X0092845Y0213528D01*
X0092710Y0213491D01*
X0092574Y0213458D01*
X0092436Y0213429D01*
X0092299Y0213404D01*
X0092160Y0213382D01*
X0092021Y0213364D01*
X0091881Y0213351D01*
X0091741Y0213341D01*
X0091601Y0213335D01*
X0091461Y0213333D01*
X0091461Y0193833D01*
X0068461Y0207333D02*
X0068464Y0207578D01*
X0068473Y0207824D01*
X0068488Y0208069D01*
X0068509Y0208313D01*
X0068536Y0208557D01*
X0068569Y0208800D01*
X0068608Y0209043D01*
X0068653Y0209284D01*
X0068704Y0209524D01*
X0068761Y0209763D01*
X0068823Y0210000D01*
X0068892Y0210236D01*
X0068966Y0210470D01*
X0069046Y0210702D01*
X0069131Y0210932D01*
X0069222Y0211160D01*
X0069319Y0211385D01*
X0069421Y0211609D01*
X0069529Y0211829D01*
X0069642Y0212047D01*
X0069760Y0212262D01*
X0069884Y0212474D01*
X0070012Y0212683D01*
X0070146Y0212889D01*
X0070285Y0213091D01*
X0070429Y0213290D01*
X0070578Y0213485D01*
X0070731Y0213677D01*
X0070889Y0213865D01*
X0071051Y0214049D01*
X0071219Y0214228D01*
X0071390Y0214404D01*
X0071566Y0214575D01*
X0071745Y0214743D01*
X0071929Y0214905D01*
X0072117Y0215063D01*
X0072309Y0215216D01*
X0072504Y0215365D01*
X0072703Y0215509D01*
X0072905Y0215648D01*
X0073111Y0215782D01*
X0073320Y0215910D01*
X0073532Y0216034D01*
X0073747Y0216152D01*
X0073965Y0216265D01*
X0074185Y0216373D01*
X0074409Y0216475D01*
X0074634Y0216572D01*
X0074862Y0216663D01*
X0075092Y0216748D01*
X0075324Y0216828D01*
X0075558Y0216902D01*
X0075794Y0216971D01*
X0076031Y0217033D01*
X0076270Y0217090D01*
X0076510Y0217141D01*
X0076751Y0217186D01*
X0076994Y0217225D01*
X0077237Y0217258D01*
X0077481Y0217285D01*
X0077725Y0217306D01*
X0077970Y0217321D01*
X0078216Y0217330D01*
X0078461Y0217333D01*
X0078706Y0217330D01*
X0078952Y0217321D01*
X0079197Y0217306D01*
X0079441Y0217285D01*
X0079685Y0217258D01*
X0079928Y0217225D01*
X0080171Y0217186D01*
X0080412Y0217141D01*
X0080652Y0217090D01*
X0080891Y0217033D01*
X0081128Y0216971D01*
X0081364Y0216902D01*
X0081598Y0216828D01*
X0081830Y0216748D01*
X0082060Y0216663D01*
X0082288Y0216572D01*
X0082513Y0216475D01*
X0082737Y0216373D01*
X0082957Y0216265D01*
X0083175Y0216152D01*
X0083390Y0216034D01*
X0083602Y0215910D01*
X0083811Y0215782D01*
X0084017Y0215648D01*
X0084219Y0215509D01*
X0084418Y0215365D01*
X0084613Y0215216D01*
X0084805Y0215063D01*
X0084993Y0214905D01*
X0085177Y0214743D01*
X0085356Y0214575D01*
X0085532Y0214404D01*
X0085703Y0214228D01*
X0085871Y0214049D01*
X0086033Y0213865D01*
X0086191Y0213677D01*
X0086344Y0213485D01*
X0086493Y0213290D01*
X0086637Y0213091D01*
X0086776Y0212889D01*
X0086910Y0212683D01*
X0087038Y0212474D01*
X0087162Y0212262D01*
X0087280Y0212047D01*
X0087393Y0211829D01*
X0087501Y0211609D01*
X0087603Y0211385D01*
X0087700Y0211160D01*
X0087791Y0210932D01*
X0087876Y0210702D01*
X0087956Y0210470D01*
X0088030Y0210236D01*
X0088099Y0210000D01*
X0088161Y0209763D01*
X0088218Y0209524D01*
X0088269Y0209284D01*
X0088314Y0209043D01*
X0088353Y0208800D01*
X0088386Y0208557D01*
X0088413Y0208313D01*
X0088434Y0208069D01*
X0088449Y0207824D01*
X0088458Y0207578D01*
X0088461Y0207333D01*
X0088458Y0207088D01*
X0088449Y0206842D01*
X0088434Y0206597D01*
X0088413Y0206353D01*
X0088386Y0206109D01*
X0088353Y0205866D01*
X0088314Y0205623D01*
X0088269Y0205382D01*
X0088218Y0205142D01*
X0088161Y0204903D01*
X0088099Y0204666D01*
X0088030Y0204430D01*
X0087956Y0204196D01*
X0087876Y0203964D01*
X0087791Y0203734D01*
X0087700Y0203506D01*
X0087603Y0203281D01*
X0087501Y0203057D01*
X0087393Y0202837D01*
X0087280Y0202619D01*
X0087162Y0202404D01*
X0087038Y0202192D01*
X0086910Y0201983D01*
X0086776Y0201777D01*
X0086637Y0201575D01*
X0086493Y0201376D01*
X0086344Y0201181D01*
X0086191Y0200989D01*
X0086033Y0200801D01*
X0085871Y0200617D01*
X0085703Y0200438D01*
X0085532Y0200262D01*
X0085356Y0200091D01*
X0085177Y0199923D01*
X0084993Y0199761D01*
X0084805Y0199603D01*
X0084613Y0199450D01*
X0084418Y0199301D01*
X0084219Y0199157D01*
X0084017Y0199018D01*
X0083811Y0198884D01*
X0083602Y0198756D01*
X0083390Y0198632D01*
X0083175Y0198514D01*
X0082957Y0198401D01*
X0082737Y0198293D01*
X0082513Y0198191D01*
X0082288Y0198094D01*
X0082060Y0198003D01*
X0081830Y0197918D01*
X0081598Y0197838D01*
X0081364Y0197764D01*
X0081128Y0197695D01*
X0080891Y0197633D01*
X0080652Y0197576D01*
X0080412Y0197525D01*
X0080171Y0197480D01*
X0079928Y0197441D01*
X0079685Y0197408D01*
X0079441Y0197381D01*
X0079197Y0197360D01*
X0078952Y0197345D01*
X0078706Y0197336D01*
X0078461Y0197333D01*
X0078216Y0197336D01*
X0077970Y0197345D01*
X0077725Y0197360D01*
X0077481Y0197381D01*
X0077237Y0197408D01*
X0076994Y0197441D01*
X0076751Y0197480D01*
X0076510Y0197525D01*
X0076270Y0197576D01*
X0076031Y0197633D01*
X0075794Y0197695D01*
X0075558Y0197764D01*
X0075324Y0197838D01*
X0075092Y0197918D01*
X0074862Y0198003D01*
X0074634Y0198094D01*
X0074409Y0198191D01*
X0074185Y0198293D01*
X0073965Y0198401D01*
X0073747Y0198514D01*
X0073532Y0198632D01*
X0073320Y0198756D01*
X0073111Y0198884D01*
X0072905Y0199018D01*
X0072703Y0199157D01*
X0072504Y0199301D01*
X0072309Y0199450D01*
X0072117Y0199603D01*
X0071929Y0199761D01*
X0071745Y0199923D01*
X0071566Y0200091D01*
X0071390Y0200262D01*
X0071219Y0200438D01*
X0071051Y0200617D01*
X0070889Y0200801D01*
X0070731Y0200989D01*
X0070578Y0201181D01*
X0070429Y0201376D01*
X0070285Y0201575D01*
X0070146Y0201777D01*
X0070012Y0201983D01*
X0069884Y0202192D01*
X0069760Y0202404D01*
X0069642Y0202619D01*
X0069529Y0202837D01*
X0069421Y0203057D01*
X0069319Y0203281D01*
X0069222Y0203506D01*
X0069131Y0203734D01*
X0069046Y0203964D01*
X0068966Y0204196D01*
X0068892Y0204430D01*
X0068823Y0204666D01*
X0068761Y0204903D01*
X0068704Y0205142D01*
X0068653Y0205382D01*
X0068608Y0205623D01*
X0068569Y0205866D01*
X0068536Y0206109D01*
X0068509Y0206353D01*
X0068488Y0206597D01*
X0068473Y0206842D01*
X0068464Y0207088D01*
X0068461Y0207333D01*
X0071711Y0203333D02*
X0073711Y0203333D01*
X0072711Y0202333D02*
X0072711Y0204333D01*
X0056961Y0222333D02*
X0056961Y0232333D01*
X0040961Y0232333D01*
X0040961Y0222333D01*
X0056961Y0222333D01*
X0052961Y0224833D02*
X0048961Y0227333D01*
X0048961Y0224833D01*
X0048961Y0227333D02*
X0048961Y0229833D01*
X0048961Y0227333D02*
X0052961Y0229833D01*
X0052961Y0224833D01*
X0054961Y0227333D02*
X0048961Y0227333D01*
X0046461Y0227333D01*
X0071711Y0225833D02*
X0073711Y0225833D01*
X0072711Y0224833D02*
X0072711Y0226833D01*
X0068461Y0229833D02*
X0068464Y0230078D01*
X0068473Y0230324D01*
X0068488Y0230569D01*
X0068509Y0230813D01*
X0068536Y0231057D01*
X0068569Y0231300D01*
X0068608Y0231543D01*
X0068653Y0231784D01*
X0068704Y0232024D01*
X0068761Y0232263D01*
X0068823Y0232500D01*
X0068892Y0232736D01*
X0068966Y0232970D01*
X0069046Y0233202D01*
X0069131Y0233432D01*
X0069222Y0233660D01*
X0069319Y0233885D01*
X0069421Y0234109D01*
X0069529Y0234329D01*
X0069642Y0234547D01*
X0069760Y0234762D01*
X0069884Y0234974D01*
X0070012Y0235183D01*
X0070146Y0235389D01*
X0070285Y0235591D01*
X0070429Y0235790D01*
X0070578Y0235985D01*
X0070731Y0236177D01*
X0070889Y0236365D01*
X0071051Y0236549D01*
X0071219Y0236728D01*
X0071390Y0236904D01*
X0071566Y0237075D01*
X0071745Y0237243D01*
X0071929Y0237405D01*
X0072117Y0237563D01*
X0072309Y0237716D01*
X0072504Y0237865D01*
X0072703Y0238009D01*
X0072905Y0238148D01*
X0073111Y0238282D01*
X0073320Y0238410D01*
X0073532Y0238534D01*
X0073747Y0238652D01*
X0073965Y0238765D01*
X0074185Y0238873D01*
X0074409Y0238975D01*
X0074634Y0239072D01*
X0074862Y0239163D01*
X0075092Y0239248D01*
X0075324Y0239328D01*
X0075558Y0239402D01*
X0075794Y0239471D01*
X0076031Y0239533D01*
X0076270Y0239590D01*
X0076510Y0239641D01*
X0076751Y0239686D01*
X0076994Y0239725D01*
X0077237Y0239758D01*
X0077481Y0239785D01*
X0077725Y0239806D01*
X0077970Y0239821D01*
X0078216Y0239830D01*
X0078461Y0239833D01*
X0078706Y0239830D01*
X0078952Y0239821D01*
X0079197Y0239806D01*
X0079441Y0239785D01*
X0079685Y0239758D01*
X0079928Y0239725D01*
X0080171Y0239686D01*
X0080412Y0239641D01*
X0080652Y0239590D01*
X0080891Y0239533D01*
X0081128Y0239471D01*
X0081364Y0239402D01*
X0081598Y0239328D01*
X0081830Y0239248D01*
X0082060Y0239163D01*
X0082288Y0239072D01*
X0082513Y0238975D01*
X0082737Y0238873D01*
X0082957Y0238765D01*
X0083175Y0238652D01*
X0083390Y0238534D01*
X0083602Y0238410D01*
X0083811Y0238282D01*
X0084017Y0238148D01*
X0084219Y0238009D01*
X0084418Y0237865D01*
X0084613Y0237716D01*
X0084805Y0237563D01*
X0084993Y0237405D01*
X0085177Y0237243D01*
X0085356Y0237075D01*
X0085532Y0236904D01*
X0085703Y0236728D01*
X0085871Y0236549D01*
X0086033Y0236365D01*
X0086191Y0236177D01*
X0086344Y0235985D01*
X0086493Y0235790D01*
X0086637Y0235591D01*
X0086776Y0235389D01*
X0086910Y0235183D01*
X0087038Y0234974D01*
X0087162Y0234762D01*
X0087280Y0234547D01*
X0087393Y0234329D01*
X0087501Y0234109D01*
X0087603Y0233885D01*
X0087700Y0233660D01*
X0087791Y0233432D01*
X0087876Y0233202D01*
X0087956Y0232970D01*
X0088030Y0232736D01*
X0088099Y0232500D01*
X0088161Y0232263D01*
X0088218Y0232024D01*
X0088269Y0231784D01*
X0088314Y0231543D01*
X0088353Y0231300D01*
X0088386Y0231057D01*
X0088413Y0230813D01*
X0088434Y0230569D01*
X0088449Y0230324D01*
X0088458Y0230078D01*
X0088461Y0229833D01*
X0088458Y0229588D01*
X0088449Y0229342D01*
X0088434Y0229097D01*
X0088413Y0228853D01*
X0088386Y0228609D01*
X0088353Y0228366D01*
X0088314Y0228123D01*
X0088269Y0227882D01*
X0088218Y0227642D01*
X0088161Y0227403D01*
X0088099Y0227166D01*
X0088030Y0226930D01*
X0087956Y0226696D01*
X0087876Y0226464D01*
X0087791Y0226234D01*
X0087700Y0226006D01*
X0087603Y0225781D01*
X0087501Y0225557D01*
X0087393Y0225337D01*
X0087280Y0225119D01*
X0087162Y0224904D01*
X0087038Y0224692D01*
X0086910Y0224483D01*
X0086776Y0224277D01*
X0086637Y0224075D01*
X0086493Y0223876D01*
X0086344Y0223681D01*
X0086191Y0223489D01*
X0086033Y0223301D01*
X0085871Y0223117D01*
X0085703Y0222938D01*
X0085532Y0222762D01*
X0085356Y0222591D01*
X0085177Y0222423D01*
X0084993Y0222261D01*
X0084805Y0222103D01*
X0084613Y0221950D01*
X0084418Y0221801D01*
X0084219Y0221657D01*
X0084017Y0221518D01*
X0083811Y0221384D01*
X0083602Y0221256D01*
X0083390Y0221132D01*
X0083175Y0221014D01*
X0082957Y0220901D01*
X0082737Y0220793D01*
X0082513Y0220691D01*
X0082288Y0220594D01*
X0082060Y0220503D01*
X0081830Y0220418D01*
X0081598Y0220338D01*
X0081364Y0220264D01*
X0081128Y0220195D01*
X0080891Y0220133D01*
X0080652Y0220076D01*
X0080412Y0220025D01*
X0080171Y0219980D01*
X0079928Y0219941D01*
X0079685Y0219908D01*
X0079441Y0219881D01*
X0079197Y0219860D01*
X0078952Y0219845D01*
X0078706Y0219836D01*
X0078461Y0219833D01*
X0078216Y0219836D01*
X0077970Y0219845D01*
X0077725Y0219860D01*
X0077481Y0219881D01*
X0077237Y0219908D01*
X0076994Y0219941D01*
X0076751Y0219980D01*
X0076510Y0220025D01*
X0076270Y0220076D01*
X0076031Y0220133D01*
X0075794Y0220195D01*
X0075558Y0220264D01*
X0075324Y0220338D01*
X0075092Y0220418D01*
X0074862Y0220503D01*
X0074634Y0220594D01*
X0074409Y0220691D01*
X0074185Y0220793D01*
X0073965Y0220901D01*
X0073747Y0221014D01*
X0073532Y0221132D01*
X0073320Y0221256D01*
X0073111Y0221384D01*
X0072905Y0221518D01*
X0072703Y0221657D01*
X0072504Y0221801D01*
X0072309Y0221950D01*
X0072117Y0222103D01*
X0071929Y0222261D01*
X0071745Y0222423D01*
X0071566Y0222591D01*
X0071390Y0222762D01*
X0071219Y0222938D01*
X0071051Y0223117D01*
X0070889Y0223301D01*
X0070731Y0223489D01*
X0070578Y0223681D01*
X0070429Y0223876D01*
X0070285Y0224075D01*
X0070146Y0224277D01*
X0070012Y0224483D01*
X0069884Y0224692D01*
X0069760Y0224904D01*
X0069642Y0225119D01*
X0069529Y0225337D01*
X0069421Y0225557D01*
X0069319Y0225781D01*
X0069222Y0226006D01*
X0069131Y0226234D01*
X0069046Y0226464D01*
X0068966Y0226696D01*
X0068892Y0226930D01*
X0068823Y0227166D01*
X0068761Y0227403D01*
X0068704Y0227642D01*
X0068653Y0227882D01*
X0068608Y0228123D01*
X0068569Y0228366D01*
X0068536Y0228609D01*
X0068509Y0228853D01*
X0068488Y0229097D01*
X0068473Y0229342D01*
X0068464Y0229588D01*
X0068461Y0229833D01*
X0072711Y0247333D02*
X0072711Y0249333D01*
X0073711Y0248333D02*
X0071711Y0248333D01*
X0068461Y0252333D02*
X0068464Y0252578D01*
X0068473Y0252824D01*
X0068488Y0253069D01*
X0068509Y0253313D01*
X0068536Y0253557D01*
X0068569Y0253800D01*
X0068608Y0254043D01*
X0068653Y0254284D01*
X0068704Y0254524D01*
X0068761Y0254763D01*
X0068823Y0255000D01*
X0068892Y0255236D01*
X0068966Y0255470D01*
X0069046Y0255702D01*
X0069131Y0255932D01*
X0069222Y0256160D01*
X0069319Y0256385D01*
X0069421Y0256609D01*
X0069529Y0256829D01*
X0069642Y0257047D01*
X0069760Y0257262D01*
X0069884Y0257474D01*
X0070012Y0257683D01*
X0070146Y0257889D01*
X0070285Y0258091D01*
X0070429Y0258290D01*
X0070578Y0258485D01*
X0070731Y0258677D01*
X0070889Y0258865D01*
X0071051Y0259049D01*
X0071219Y0259228D01*
X0071390Y0259404D01*
X0071566Y0259575D01*
X0071745Y0259743D01*
X0071929Y0259905D01*
X0072117Y0260063D01*
X0072309Y0260216D01*
X0072504Y0260365D01*
X0072703Y0260509D01*
X0072905Y0260648D01*
X0073111Y0260782D01*
X0073320Y0260910D01*
X0073532Y0261034D01*
X0073747Y0261152D01*
X0073965Y0261265D01*
X0074185Y0261373D01*
X0074409Y0261475D01*
X0074634Y0261572D01*
X0074862Y0261663D01*
X0075092Y0261748D01*
X0075324Y0261828D01*
X0075558Y0261902D01*
X0075794Y0261971D01*
X0076031Y0262033D01*
X0076270Y0262090D01*
X0076510Y0262141D01*
X0076751Y0262186D01*
X0076994Y0262225D01*
X0077237Y0262258D01*
X0077481Y0262285D01*
X0077725Y0262306D01*
X0077970Y0262321D01*
X0078216Y0262330D01*
X0078461Y0262333D01*
X0078706Y0262330D01*
X0078952Y0262321D01*
X0079197Y0262306D01*
X0079441Y0262285D01*
X0079685Y0262258D01*
X0079928Y0262225D01*
X0080171Y0262186D01*
X0080412Y0262141D01*
X0080652Y0262090D01*
X0080891Y0262033D01*
X0081128Y0261971D01*
X0081364Y0261902D01*
X0081598Y0261828D01*
X0081830Y0261748D01*
X0082060Y0261663D01*
X0082288Y0261572D01*
X0082513Y0261475D01*
X0082737Y0261373D01*
X0082957Y0261265D01*
X0083175Y0261152D01*
X0083390Y0261034D01*
X0083602Y0260910D01*
X0083811Y0260782D01*
X0084017Y0260648D01*
X0084219Y0260509D01*
X0084418Y0260365D01*
X0084613Y0260216D01*
X0084805Y0260063D01*
X0084993Y0259905D01*
X0085177Y0259743D01*
X0085356Y0259575D01*
X0085532Y0259404D01*
X0085703Y0259228D01*
X0085871Y0259049D01*
X0086033Y0258865D01*
X0086191Y0258677D01*
X0086344Y0258485D01*
X0086493Y0258290D01*
X0086637Y0258091D01*
X0086776Y0257889D01*
X0086910Y0257683D01*
X0087038Y0257474D01*
X0087162Y0257262D01*
X0087280Y0257047D01*
X0087393Y0256829D01*
X0087501Y0256609D01*
X0087603Y0256385D01*
X0087700Y0256160D01*
X0087791Y0255932D01*
X0087876Y0255702D01*
X0087956Y0255470D01*
X0088030Y0255236D01*
X0088099Y0255000D01*
X0088161Y0254763D01*
X0088218Y0254524D01*
X0088269Y0254284D01*
X0088314Y0254043D01*
X0088353Y0253800D01*
X0088386Y0253557D01*
X0088413Y0253313D01*
X0088434Y0253069D01*
X0088449Y0252824D01*
X0088458Y0252578D01*
X0088461Y0252333D01*
X0088458Y0252088D01*
X0088449Y0251842D01*
X0088434Y0251597D01*
X0088413Y0251353D01*
X0088386Y0251109D01*
X0088353Y0250866D01*
X0088314Y0250623D01*
X0088269Y0250382D01*
X0088218Y0250142D01*
X0088161Y0249903D01*
X0088099Y0249666D01*
X0088030Y0249430D01*
X0087956Y0249196D01*
X0087876Y0248964D01*
X0087791Y0248734D01*
X0087700Y0248506D01*
X0087603Y0248281D01*
X0087501Y0248057D01*
X0087393Y0247837D01*
X0087280Y0247619D01*
X0087162Y0247404D01*
X0087038Y0247192D01*
X0086910Y0246983D01*
X0086776Y0246777D01*
X0086637Y0246575D01*
X0086493Y0246376D01*
X0086344Y0246181D01*
X0086191Y0245989D01*
X0086033Y0245801D01*
X0085871Y0245617D01*
X0085703Y0245438D01*
X0085532Y0245262D01*
X0085356Y0245091D01*
X0085177Y0244923D01*
X0084993Y0244761D01*
X0084805Y0244603D01*
X0084613Y0244450D01*
X0084418Y0244301D01*
X0084219Y0244157D01*
X0084017Y0244018D01*
X0083811Y0243884D01*
X0083602Y0243756D01*
X0083390Y0243632D01*
X0083175Y0243514D01*
X0082957Y0243401D01*
X0082737Y0243293D01*
X0082513Y0243191D01*
X0082288Y0243094D01*
X0082060Y0243003D01*
X0081830Y0242918D01*
X0081598Y0242838D01*
X0081364Y0242764D01*
X0081128Y0242695D01*
X0080891Y0242633D01*
X0080652Y0242576D01*
X0080412Y0242525D01*
X0080171Y0242480D01*
X0079928Y0242441D01*
X0079685Y0242408D01*
X0079441Y0242381D01*
X0079197Y0242360D01*
X0078952Y0242345D01*
X0078706Y0242336D01*
X0078461Y0242333D01*
X0078216Y0242336D01*
X0077970Y0242345D01*
X0077725Y0242360D01*
X0077481Y0242381D01*
X0077237Y0242408D01*
X0076994Y0242441D01*
X0076751Y0242480D01*
X0076510Y0242525D01*
X0076270Y0242576D01*
X0076031Y0242633D01*
X0075794Y0242695D01*
X0075558Y0242764D01*
X0075324Y0242838D01*
X0075092Y0242918D01*
X0074862Y0243003D01*
X0074634Y0243094D01*
X0074409Y0243191D01*
X0074185Y0243293D01*
X0073965Y0243401D01*
X0073747Y0243514D01*
X0073532Y0243632D01*
X0073320Y0243756D01*
X0073111Y0243884D01*
X0072905Y0244018D01*
X0072703Y0244157D01*
X0072504Y0244301D01*
X0072309Y0244450D01*
X0072117Y0244603D01*
X0071929Y0244761D01*
X0071745Y0244923D01*
X0071566Y0245091D01*
X0071390Y0245262D01*
X0071219Y0245438D01*
X0071051Y0245617D01*
X0070889Y0245801D01*
X0070731Y0245989D01*
X0070578Y0246181D01*
X0070429Y0246376D01*
X0070285Y0246575D01*
X0070146Y0246777D01*
X0070012Y0246983D01*
X0069884Y0247192D01*
X0069760Y0247404D01*
X0069642Y0247619D01*
X0069529Y0247837D01*
X0069421Y0248057D01*
X0069319Y0248281D01*
X0069222Y0248506D01*
X0069131Y0248734D01*
X0069046Y0248964D01*
X0068966Y0249196D01*
X0068892Y0249430D01*
X0068823Y0249666D01*
X0068761Y0249903D01*
X0068704Y0250142D01*
X0068653Y0250382D01*
X0068608Y0250623D01*
X0068569Y0250866D01*
X0068536Y0251109D01*
X0068509Y0251353D01*
X0068488Y0251597D01*
X0068473Y0251842D01*
X0068464Y0252088D01*
X0068461Y0252333D01*
X0072711Y0269833D02*
X0072711Y0271833D01*
X0073711Y0270833D02*
X0071711Y0270833D01*
X0068461Y0274833D02*
X0068464Y0275078D01*
X0068473Y0275324D01*
X0068488Y0275569D01*
X0068509Y0275813D01*
X0068536Y0276057D01*
X0068569Y0276300D01*
X0068608Y0276543D01*
X0068653Y0276784D01*
X0068704Y0277024D01*
X0068761Y0277263D01*
X0068823Y0277500D01*
X0068892Y0277736D01*
X0068966Y0277970D01*
X0069046Y0278202D01*
X0069131Y0278432D01*
X0069222Y0278660D01*
X0069319Y0278885D01*
X0069421Y0279109D01*
X0069529Y0279329D01*
X0069642Y0279547D01*
X0069760Y0279762D01*
X0069884Y0279974D01*
X0070012Y0280183D01*
X0070146Y0280389D01*
X0070285Y0280591D01*
X0070429Y0280790D01*
X0070578Y0280985D01*
X0070731Y0281177D01*
X0070889Y0281365D01*
X0071051Y0281549D01*
X0071219Y0281728D01*
X0071390Y0281904D01*
X0071566Y0282075D01*
X0071745Y0282243D01*
X0071929Y0282405D01*
X0072117Y0282563D01*
X0072309Y0282716D01*
X0072504Y0282865D01*
X0072703Y0283009D01*
X0072905Y0283148D01*
X0073111Y0283282D01*
X0073320Y0283410D01*
X0073532Y0283534D01*
X0073747Y0283652D01*
X0073965Y0283765D01*
X0074185Y0283873D01*
X0074409Y0283975D01*
X0074634Y0284072D01*
X0074862Y0284163D01*
X0075092Y0284248D01*
X0075324Y0284328D01*
X0075558Y0284402D01*
X0075794Y0284471D01*
X0076031Y0284533D01*
X0076270Y0284590D01*
X0076510Y0284641D01*
X0076751Y0284686D01*
X0076994Y0284725D01*
X0077237Y0284758D01*
X0077481Y0284785D01*
X0077725Y0284806D01*
X0077970Y0284821D01*
X0078216Y0284830D01*
X0078461Y0284833D01*
X0078706Y0284830D01*
X0078952Y0284821D01*
X0079197Y0284806D01*
X0079441Y0284785D01*
X0079685Y0284758D01*
X0079928Y0284725D01*
X0080171Y0284686D01*
X0080412Y0284641D01*
X0080652Y0284590D01*
X0080891Y0284533D01*
X0081128Y0284471D01*
X0081364Y0284402D01*
X0081598Y0284328D01*
X0081830Y0284248D01*
X0082060Y0284163D01*
X0082288Y0284072D01*
X0082513Y0283975D01*
X0082737Y0283873D01*
X0082957Y0283765D01*
X0083175Y0283652D01*
X0083390Y0283534D01*
X0083602Y0283410D01*
X0083811Y0283282D01*
X0084017Y0283148D01*
X0084219Y0283009D01*
X0084418Y0282865D01*
X0084613Y0282716D01*
X0084805Y0282563D01*
X0084993Y0282405D01*
X0085177Y0282243D01*
X0085356Y0282075D01*
X0085532Y0281904D01*
X0085703Y0281728D01*
X0085871Y0281549D01*
X0086033Y0281365D01*
X0086191Y0281177D01*
X0086344Y0280985D01*
X0086493Y0280790D01*
X0086637Y0280591D01*
X0086776Y0280389D01*
X0086910Y0280183D01*
X0087038Y0279974D01*
X0087162Y0279762D01*
X0087280Y0279547D01*
X0087393Y0279329D01*
X0087501Y0279109D01*
X0087603Y0278885D01*
X0087700Y0278660D01*
X0087791Y0278432D01*
X0087876Y0278202D01*
X0087956Y0277970D01*
X0088030Y0277736D01*
X0088099Y0277500D01*
X0088161Y0277263D01*
X0088218Y0277024D01*
X0088269Y0276784D01*
X0088314Y0276543D01*
X0088353Y0276300D01*
X0088386Y0276057D01*
X0088413Y0275813D01*
X0088434Y0275569D01*
X0088449Y0275324D01*
X0088458Y0275078D01*
X0088461Y0274833D01*
X0088458Y0274588D01*
X0088449Y0274342D01*
X0088434Y0274097D01*
X0088413Y0273853D01*
X0088386Y0273609D01*
X0088353Y0273366D01*
X0088314Y0273123D01*
X0088269Y0272882D01*
X0088218Y0272642D01*
X0088161Y0272403D01*
X0088099Y0272166D01*
X0088030Y0271930D01*
X0087956Y0271696D01*
X0087876Y0271464D01*
X0087791Y0271234D01*
X0087700Y0271006D01*
X0087603Y0270781D01*
X0087501Y0270557D01*
X0087393Y0270337D01*
X0087280Y0270119D01*
X0087162Y0269904D01*
X0087038Y0269692D01*
X0086910Y0269483D01*
X0086776Y0269277D01*
X0086637Y0269075D01*
X0086493Y0268876D01*
X0086344Y0268681D01*
X0086191Y0268489D01*
X0086033Y0268301D01*
X0085871Y0268117D01*
X0085703Y0267938D01*
X0085532Y0267762D01*
X0085356Y0267591D01*
X0085177Y0267423D01*
X0084993Y0267261D01*
X0084805Y0267103D01*
X0084613Y0266950D01*
X0084418Y0266801D01*
X0084219Y0266657D01*
X0084017Y0266518D01*
X0083811Y0266384D01*
X0083602Y0266256D01*
X0083390Y0266132D01*
X0083175Y0266014D01*
X0082957Y0265901D01*
X0082737Y0265793D01*
X0082513Y0265691D01*
X0082288Y0265594D01*
X0082060Y0265503D01*
X0081830Y0265418D01*
X0081598Y0265338D01*
X0081364Y0265264D01*
X0081128Y0265195D01*
X0080891Y0265133D01*
X0080652Y0265076D01*
X0080412Y0265025D01*
X0080171Y0264980D01*
X0079928Y0264941D01*
X0079685Y0264908D01*
X0079441Y0264881D01*
X0079197Y0264860D01*
X0078952Y0264845D01*
X0078706Y0264836D01*
X0078461Y0264833D01*
X0078216Y0264836D01*
X0077970Y0264845D01*
X0077725Y0264860D01*
X0077481Y0264881D01*
X0077237Y0264908D01*
X0076994Y0264941D01*
X0076751Y0264980D01*
X0076510Y0265025D01*
X0076270Y0265076D01*
X0076031Y0265133D01*
X0075794Y0265195D01*
X0075558Y0265264D01*
X0075324Y0265338D01*
X0075092Y0265418D01*
X0074862Y0265503D01*
X0074634Y0265594D01*
X0074409Y0265691D01*
X0074185Y0265793D01*
X0073965Y0265901D01*
X0073747Y0266014D01*
X0073532Y0266132D01*
X0073320Y0266256D01*
X0073111Y0266384D01*
X0072905Y0266518D01*
X0072703Y0266657D01*
X0072504Y0266801D01*
X0072309Y0266950D01*
X0072117Y0267103D01*
X0071929Y0267261D01*
X0071745Y0267423D01*
X0071566Y0267591D01*
X0071390Y0267762D01*
X0071219Y0267938D01*
X0071051Y0268117D01*
X0070889Y0268301D01*
X0070731Y0268489D01*
X0070578Y0268681D01*
X0070429Y0268876D01*
X0070285Y0269075D01*
X0070146Y0269277D01*
X0070012Y0269483D01*
X0069884Y0269692D01*
X0069760Y0269904D01*
X0069642Y0270119D01*
X0069529Y0270337D01*
X0069421Y0270557D01*
X0069319Y0270781D01*
X0069222Y0271006D01*
X0069131Y0271234D01*
X0069046Y0271464D01*
X0068966Y0271696D01*
X0068892Y0271930D01*
X0068823Y0272166D01*
X0068761Y0272403D01*
X0068704Y0272642D01*
X0068653Y0272882D01*
X0068608Y0273123D01*
X0068569Y0273366D01*
X0068536Y0273609D01*
X0068509Y0273853D01*
X0068488Y0274097D01*
X0068473Y0274342D01*
X0068464Y0274588D01*
X0068461Y0274833D01*
X0094461Y0280833D02*
X0094461Y0282333D01*
X0094461Y0303833D01*
X0094463Y0303893D01*
X0094468Y0303954D01*
X0094477Y0304013D01*
X0094490Y0304072D01*
X0094506Y0304131D01*
X0094526Y0304188D01*
X0094549Y0304243D01*
X0094576Y0304298D01*
X0094605Y0304350D01*
X0094638Y0304401D01*
X0094674Y0304450D01*
X0094712Y0304496D01*
X0094754Y0304540D01*
X0094798Y0304582D01*
X0094844Y0304620D01*
X0094893Y0304656D01*
X0094944Y0304689D01*
X0094996Y0304718D01*
X0095051Y0304745D01*
X0095106Y0304768D01*
X0095163Y0304788D01*
X0095222Y0304804D01*
X0095281Y0304817D01*
X0095340Y0304826D01*
X0095401Y0304831D01*
X0095461Y0304833D01*
X0102461Y0304833D02*
X0102521Y0304831D01*
X0102582Y0304826D01*
X0102641Y0304817D01*
X0102700Y0304804D01*
X0102759Y0304788D01*
X0102816Y0304768D01*
X0102871Y0304745D01*
X0102926Y0304718D01*
X0102978Y0304689D01*
X0103029Y0304656D01*
X0103078Y0304620D01*
X0103124Y0304582D01*
X0103168Y0304540D01*
X0103210Y0304496D01*
X0103248Y0304450D01*
X0103284Y0304401D01*
X0103317Y0304350D01*
X0103346Y0304298D01*
X0103373Y0304243D01*
X0103396Y0304188D01*
X0103416Y0304131D01*
X0103432Y0304072D01*
X0103445Y0304013D01*
X0103454Y0303954D01*
X0103459Y0303893D01*
X0103461Y0303833D01*
X0103461Y0282333D01*
X0103461Y0280833D01*
X0104461Y0280833D02*
X0104461Y0282333D01*
X0104461Y0303833D01*
X0104463Y0303893D01*
X0104468Y0303954D01*
X0104477Y0304013D01*
X0104490Y0304072D01*
X0104506Y0304131D01*
X0104526Y0304188D01*
X0104549Y0304243D01*
X0104576Y0304298D01*
X0104605Y0304350D01*
X0104638Y0304401D01*
X0104674Y0304450D01*
X0104712Y0304496D01*
X0104754Y0304540D01*
X0104798Y0304582D01*
X0104844Y0304620D01*
X0104893Y0304656D01*
X0104944Y0304689D01*
X0104996Y0304718D01*
X0105051Y0304745D01*
X0105106Y0304768D01*
X0105163Y0304788D01*
X0105222Y0304804D01*
X0105281Y0304817D01*
X0105340Y0304826D01*
X0105401Y0304831D01*
X0105461Y0304833D01*
X0112461Y0304833D02*
X0112521Y0304831D01*
X0112582Y0304826D01*
X0112641Y0304817D01*
X0112700Y0304804D01*
X0112759Y0304788D01*
X0112816Y0304768D01*
X0112871Y0304745D01*
X0112926Y0304718D01*
X0112978Y0304689D01*
X0113029Y0304656D01*
X0113078Y0304620D01*
X0113124Y0304582D01*
X0113168Y0304540D01*
X0113210Y0304496D01*
X0113248Y0304450D01*
X0113284Y0304401D01*
X0113317Y0304350D01*
X0113346Y0304298D01*
X0113373Y0304243D01*
X0113396Y0304188D01*
X0113416Y0304131D01*
X0113432Y0304072D01*
X0113445Y0304013D01*
X0113454Y0303954D01*
X0113459Y0303893D01*
X0113461Y0303833D01*
X0113461Y0282333D01*
X0113461Y0280833D01*
X0114461Y0280833D02*
X0114461Y0282333D01*
X0114461Y0303833D01*
X0114463Y0303893D01*
X0114468Y0303954D01*
X0114477Y0304013D01*
X0114490Y0304072D01*
X0114506Y0304131D01*
X0114526Y0304188D01*
X0114549Y0304243D01*
X0114576Y0304298D01*
X0114605Y0304350D01*
X0114638Y0304401D01*
X0114674Y0304450D01*
X0114712Y0304496D01*
X0114754Y0304540D01*
X0114798Y0304582D01*
X0114844Y0304620D01*
X0114893Y0304656D01*
X0114944Y0304689D01*
X0114996Y0304718D01*
X0115051Y0304745D01*
X0115106Y0304768D01*
X0115163Y0304788D01*
X0115222Y0304804D01*
X0115281Y0304817D01*
X0115340Y0304826D01*
X0115401Y0304831D01*
X0115461Y0304833D01*
X0122461Y0304833D02*
X0122521Y0304831D01*
X0122582Y0304826D01*
X0122641Y0304817D01*
X0122700Y0304804D01*
X0122759Y0304788D01*
X0122816Y0304768D01*
X0122871Y0304745D01*
X0122926Y0304718D01*
X0122978Y0304689D01*
X0123029Y0304656D01*
X0123078Y0304620D01*
X0123124Y0304582D01*
X0123168Y0304540D01*
X0123210Y0304496D01*
X0123248Y0304450D01*
X0123284Y0304401D01*
X0123317Y0304350D01*
X0123346Y0304298D01*
X0123373Y0304243D01*
X0123396Y0304188D01*
X0123416Y0304131D01*
X0123432Y0304072D01*
X0123445Y0304013D01*
X0123454Y0303954D01*
X0123459Y0303893D01*
X0123461Y0303833D01*
X0123461Y0282333D01*
X0123461Y0280833D01*
X0123459Y0280773D01*
X0123454Y0280712D01*
X0123445Y0280653D01*
X0123432Y0280594D01*
X0123416Y0280535D01*
X0123396Y0280478D01*
X0123373Y0280423D01*
X0123346Y0280368D01*
X0123317Y0280316D01*
X0123284Y0280265D01*
X0123248Y0280216D01*
X0123210Y0280170D01*
X0123168Y0280126D01*
X0123124Y0280084D01*
X0123078Y0280046D01*
X0123029Y0280010D01*
X0122978Y0279977D01*
X0122926Y0279948D01*
X0122871Y0279921D01*
X0122816Y0279898D01*
X0122759Y0279878D01*
X0122700Y0279862D01*
X0122641Y0279849D01*
X0122582Y0279840D01*
X0122521Y0279835D01*
X0122461Y0279833D01*
X0115461Y0279833D02*
X0115401Y0279835D01*
X0115340Y0279840D01*
X0115281Y0279849D01*
X0115222Y0279862D01*
X0115163Y0279878D01*
X0115106Y0279898D01*
X0115051Y0279921D01*
X0114996Y0279948D01*
X0114944Y0279977D01*
X0114893Y0280010D01*
X0114844Y0280046D01*
X0114798Y0280084D01*
X0114754Y0280126D01*
X0114712Y0280170D01*
X0114674Y0280216D01*
X0114638Y0280265D01*
X0114605Y0280316D01*
X0114576Y0280368D01*
X0114549Y0280423D01*
X0114526Y0280478D01*
X0114506Y0280535D01*
X0114490Y0280594D01*
X0114477Y0280653D01*
X0114468Y0280712D01*
X0114463Y0280773D01*
X0114461Y0280833D01*
X0113461Y0280833D02*
X0113459Y0280773D01*
X0113454Y0280712D01*
X0113445Y0280653D01*
X0113432Y0280594D01*
X0113416Y0280535D01*
X0113396Y0280478D01*
X0113373Y0280423D01*
X0113346Y0280368D01*
X0113317Y0280316D01*
X0113284Y0280265D01*
X0113248Y0280216D01*
X0113210Y0280170D01*
X0113168Y0280126D01*
X0113124Y0280084D01*
X0113078Y0280046D01*
X0113029Y0280010D01*
X0112978Y0279977D01*
X0112926Y0279948D01*
X0112871Y0279921D01*
X0112816Y0279898D01*
X0112759Y0279878D01*
X0112700Y0279862D01*
X0112641Y0279849D01*
X0112582Y0279840D01*
X0112521Y0279835D01*
X0112461Y0279833D01*
X0105461Y0279833D02*
X0105401Y0279835D01*
X0105340Y0279840D01*
X0105281Y0279849D01*
X0105222Y0279862D01*
X0105163Y0279878D01*
X0105106Y0279898D01*
X0105051Y0279921D01*
X0104996Y0279948D01*
X0104944Y0279977D01*
X0104893Y0280010D01*
X0104844Y0280046D01*
X0104798Y0280084D01*
X0104754Y0280126D01*
X0104712Y0280170D01*
X0104674Y0280216D01*
X0104638Y0280265D01*
X0104605Y0280316D01*
X0104576Y0280368D01*
X0104549Y0280423D01*
X0104526Y0280478D01*
X0104506Y0280535D01*
X0104490Y0280594D01*
X0104477Y0280653D01*
X0104468Y0280712D01*
X0104463Y0280773D01*
X0104461Y0280833D01*
X0103461Y0280833D02*
X0103459Y0280773D01*
X0103454Y0280712D01*
X0103445Y0280653D01*
X0103432Y0280594D01*
X0103416Y0280535D01*
X0103396Y0280478D01*
X0103373Y0280423D01*
X0103346Y0280368D01*
X0103317Y0280316D01*
X0103284Y0280265D01*
X0103248Y0280216D01*
X0103210Y0280170D01*
X0103168Y0280126D01*
X0103124Y0280084D01*
X0103078Y0280046D01*
X0103029Y0280010D01*
X0102978Y0279977D01*
X0102926Y0279948D01*
X0102871Y0279921D01*
X0102816Y0279898D01*
X0102759Y0279878D01*
X0102700Y0279862D01*
X0102641Y0279849D01*
X0102582Y0279840D01*
X0102521Y0279835D01*
X0102461Y0279833D01*
X0095461Y0279833D02*
X0095401Y0279835D01*
X0095340Y0279840D01*
X0095281Y0279849D01*
X0095222Y0279862D01*
X0095163Y0279878D01*
X0095106Y0279898D01*
X0095051Y0279921D01*
X0094996Y0279948D01*
X0094944Y0279977D01*
X0094893Y0280010D01*
X0094844Y0280046D01*
X0094798Y0280084D01*
X0094754Y0280126D01*
X0094712Y0280170D01*
X0094674Y0280216D01*
X0094638Y0280265D01*
X0094605Y0280316D01*
X0094576Y0280368D01*
X0094549Y0280423D01*
X0094526Y0280478D01*
X0094506Y0280535D01*
X0094490Y0280594D01*
X0094477Y0280653D01*
X0094468Y0280712D01*
X0094463Y0280773D01*
X0094461Y0280833D01*
X0082961Y0300833D02*
X0074961Y0300833D01*
X0073961Y0301833D01*
X0073961Y0309833D01*
X0074961Y0310833D01*
X0073961Y0311833D01*
X0073961Y0319833D01*
X0074961Y0320833D01*
X0073961Y0321833D01*
X0073961Y0329833D01*
X0074961Y0330833D01*
X0082961Y0330833D01*
X0083961Y0329833D01*
X0083961Y0321833D01*
X0082961Y0320833D01*
X0083961Y0319833D01*
X0083961Y0311833D01*
X0082961Y0310833D01*
X0083961Y0309833D01*
X0083961Y0301833D01*
X0082961Y0300833D01*
X0057961Y0325333D02*
X0053961Y0325333D01*
X0044461Y0325333D01*
X0040961Y0325333D01*
X0037461Y0333333D02*
X0037461Y0334333D01*
X0036461Y0334333D01*
X0036461Y0340333D01*
X0037461Y0340333D01*
X0037461Y0341333D01*
X0040961Y0349333D02*
X0044461Y0349333D01*
X0054461Y0349333D01*
X0057961Y0349333D01*
X0061461Y0341333D02*
X0061461Y0340333D01*
X0062461Y0340333D01*
X0062461Y0334333D01*
X0061461Y0334333D01*
X0061461Y0333333D01*
X0048461Y0337333D02*
X0048463Y0337396D01*
X0048469Y0337458D01*
X0048479Y0337520D01*
X0048492Y0337582D01*
X0048510Y0337642D01*
X0048531Y0337701D01*
X0048556Y0337759D01*
X0048585Y0337815D01*
X0048617Y0337869D01*
X0048652Y0337921D01*
X0048690Y0337970D01*
X0048732Y0338018D01*
X0048776Y0338062D01*
X0048824Y0338104D01*
X0048873Y0338142D01*
X0048925Y0338177D01*
X0048979Y0338209D01*
X0049035Y0338238D01*
X0049093Y0338263D01*
X0049152Y0338284D01*
X0049212Y0338302D01*
X0049274Y0338315D01*
X0049336Y0338325D01*
X0049398Y0338331D01*
X0049461Y0338333D01*
X0049524Y0338331D01*
X0049586Y0338325D01*
X0049648Y0338315D01*
X0049710Y0338302D01*
X0049770Y0338284D01*
X0049829Y0338263D01*
X0049887Y0338238D01*
X0049943Y0338209D01*
X0049997Y0338177D01*
X0050049Y0338142D01*
X0050098Y0338104D01*
X0050146Y0338062D01*
X0050190Y0338018D01*
X0050232Y0337970D01*
X0050270Y0337921D01*
X0050305Y0337869D01*
X0050337Y0337815D01*
X0050366Y0337759D01*
X0050391Y0337701D01*
X0050412Y0337642D01*
X0050430Y0337582D01*
X0050443Y0337520D01*
X0050453Y0337458D01*
X0050459Y0337396D01*
X0050461Y0337333D01*
X0050459Y0337270D01*
X0050453Y0337208D01*
X0050443Y0337146D01*
X0050430Y0337084D01*
X0050412Y0337024D01*
X0050391Y0336965D01*
X0050366Y0336907D01*
X0050337Y0336851D01*
X0050305Y0336797D01*
X0050270Y0336745D01*
X0050232Y0336696D01*
X0050190Y0336648D01*
X0050146Y0336604D01*
X0050098Y0336562D01*
X0050049Y0336524D01*
X0049997Y0336489D01*
X0049943Y0336457D01*
X0049887Y0336428D01*
X0049829Y0336403D01*
X0049770Y0336382D01*
X0049710Y0336364D01*
X0049648Y0336351D01*
X0049586Y0336341D01*
X0049524Y0336335D01*
X0049461Y0336333D01*
X0049398Y0336335D01*
X0049336Y0336341D01*
X0049274Y0336351D01*
X0049212Y0336364D01*
X0049152Y0336382D01*
X0049093Y0336403D01*
X0049035Y0336428D01*
X0048979Y0336457D01*
X0048925Y0336489D01*
X0048873Y0336524D01*
X0048824Y0336562D01*
X0048776Y0336604D01*
X0048732Y0336648D01*
X0048690Y0336696D01*
X0048652Y0336745D01*
X0048617Y0336797D01*
X0048585Y0336851D01*
X0048556Y0336907D01*
X0048531Y0336965D01*
X0048510Y0337024D01*
X0048492Y0337084D01*
X0048479Y0337146D01*
X0048469Y0337208D01*
X0048463Y0337270D01*
X0048461Y0337333D01*
X0042461Y0337333D02*
X0042463Y0337505D01*
X0042469Y0337676D01*
X0042480Y0337848D01*
X0042495Y0338019D01*
X0042514Y0338190D01*
X0042537Y0338360D01*
X0042564Y0338530D01*
X0042596Y0338699D01*
X0042631Y0338867D01*
X0042671Y0339034D01*
X0042715Y0339200D01*
X0042762Y0339365D01*
X0042814Y0339529D01*
X0042870Y0339691D01*
X0042930Y0339852D01*
X0042994Y0340012D01*
X0043062Y0340170D01*
X0043133Y0340326D01*
X0043208Y0340480D01*
X0043288Y0340633D01*
X0043370Y0340783D01*
X0043457Y0340932D01*
X0043547Y0341078D01*
X0043641Y0341222D01*
X0043738Y0341364D01*
X0043839Y0341503D01*
X0043943Y0341640D01*
X0044050Y0341774D01*
X0044161Y0341905D01*
X0044274Y0342034D01*
X0044391Y0342160D01*
X0044511Y0342283D01*
X0044634Y0342403D01*
X0044760Y0342520D01*
X0044889Y0342633D01*
X0045020Y0342744D01*
X0045154Y0342851D01*
X0045291Y0342955D01*
X0045430Y0343056D01*
X0045572Y0343153D01*
X0045716Y0343247D01*
X0045862Y0343337D01*
X0046011Y0343424D01*
X0046161Y0343506D01*
X0046314Y0343586D01*
X0046468Y0343661D01*
X0046624Y0343732D01*
X0046782Y0343800D01*
X0046942Y0343864D01*
X0047103Y0343924D01*
X0047265Y0343980D01*
X0047429Y0344032D01*
X0047594Y0344079D01*
X0047760Y0344123D01*
X0047927Y0344163D01*
X0048095Y0344198D01*
X0048264Y0344230D01*
X0048434Y0344257D01*
X0048604Y0344280D01*
X0048775Y0344299D01*
X0048946Y0344314D01*
X0049118Y0344325D01*
X0049289Y0344331D01*
X0049461Y0344333D01*
X0049633Y0344331D01*
X0049804Y0344325D01*
X0049976Y0344314D01*
X0050147Y0344299D01*
X0050318Y0344280D01*
X0050488Y0344257D01*
X0050658Y0344230D01*
X0050827Y0344198D01*
X0050995Y0344163D01*
X0051162Y0344123D01*
X0051328Y0344079D01*
X0051493Y0344032D01*
X0051657Y0343980D01*
X0051819Y0343924D01*
X0051980Y0343864D01*
X0052140Y0343800D01*
X0052298Y0343732D01*
X0052454Y0343661D01*
X0052608Y0343586D01*
X0052761Y0343506D01*
X0052911Y0343424D01*
X0053060Y0343337D01*
X0053206Y0343247D01*
X0053350Y0343153D01*
X0053492Y0343056D01*
X0053631Y0342955D01*
X0053768Y0342851D01*
X0053902Y0342744D01*
X0054033Y0342633D01*
X0054162Y0342520D01*
X0054288Y0342403D01*
X0054411Y0342283D01*
X0054531Y0342160D01*
X0054648Y0342034D01*
X0054761Y0341905D01*
X0054872Y0341774D01*
X0054979Y0341640D01*
X0055083Y0341503D01*
X0055184Y0341364D01*
X0055281Y0341222D01*
X0055375Y0341078D01*
X0055465Y0340932D01*
X0055552Y0340783D01*
X0055634Y0340633D01*
X0055714Y0340480D01*
X0055789Y0340326D01*
X0055860Y0340170D01*
X0055928Y0340012D01*
X0055992Y0339852D01*
X0056052Y0339691D01*
X0056108Y0339529D01*
X0056160Y0339365D01*
X0056207Y0339200D01*
X0056251Y0339034D01*
X0056291Y0338867D01*
X0056326Y0338699D01*
X0056358Y0338530D01*
X0056385Y0338360D01*
X0056408Y0338190D01*
X0056427Y0338019D01*
X0056442Y0337848D01*
X0056453Y0337676D01*
X0056459Y0337505D01*
X0056461Y0337333D01*
X0056459Y0337161D01*
X0056453Y0336990D01*
X0056442Y0336818D01*
X0056427Y0336647D01*
X0056408Y0336476D01*
X0056385Y0336306D01*
X0056358Y0336136D01*
X0056326Y0335967D01*
X0056291Y0335799D01*
X0056251Y0335632D01*
X0056207Y0335466D01*
X0056160Y0335301D01*
X0056108Y0335137D01*
X0056052Y0334975D01*
X0055992Y0334814D01*
X0055928Y0334654D01*
X0055860Y0334496D01*
X0055789Y0334340D01*
X0055714Y0334186D01*
X0055634Y0334033D01*
X0055552Y0333883D01*
X0055465Y0333734D01*
X0055375Y0333588D01*
X0055281Y0333444D01*
X0055184Y0333302D01*
X0055083Y0333163D01*
X0054979Y0333026D01*
X0054872Y0332892D01*
X0054761Y0332761D01*
X0054648Y0332632D01*
X0054531Y0332506D01*
X0054411Y0332383D01*
X0054288Y0332263D01*
X0054162Y0332146D01*
X0054033Y0332033D01*
X0053902Y0331922D01*
X0053768Y0331815D01*
X0053631Y0331711D01*
X0053492Y0331610D01*
X0053350Y0331513D01*
X0053206Y0331419D01*
X0053060Y0331329D01*
X0052911Y0331242D01*
X0052761Y0331160D01*
X0052608Y0331080D01*
X0052454Y0331005D01*
X0052298Y0330934D01*
X0052140Y0330866D01*
X0051980Y0330802D01*
X0051819Y0330742D01*
X0051657Y0330686D01*
X0051493Y0330634D01*
X0051328Y0330587D01*
X0051162Y0330543D01*
X0050995Y0330503D01*
X0050827Y0330468D01*
X0050658Y0330436D01*
X0050488Y0330409D01*
X0050318Y0330386D01*
X0050147Y0330367D01*
X0049976Y0330352D01*
X0049804Y0330341D01*
X0049633Y0330335D01*
X0049461Y0330333D01*
X0049289Y0330335D01*
X0049118Y0330341D01*
X0048946Y0330352D01*
X0048775Y0330367D01*
X0048604Y0330386D01*
X0048434Y0330409D01*
X0048264Y0330436D01*
X0048095Y0330468D01*
X0047927Y0330503D01*
X0047760Y0330543D01*
X0047594Y0330587D01*
X0047429Y0330634D01*
X0047265Y0330686D01*
X0047103Y0330742D01*
X0046942Y0330802D01*
X0046782Y0330866D01*
X0046624Y0330934D01*
X0046468Y0331005D01*
X0046314Y0331080D01*
X0046161Y0331160D01*
X0046011Y0331242D01*
X0045862Y0331329D01*
X0045716Y0331419D01*
X0045572Y0331513D01*
X0045430Y0331610D01*
X0045291Y0331711D01*
X0045154Y0331815D01*
X0045020Y0331922D01*
X0044889Y0332033D01*
X0044760Y0332146D01*
X0044634Y0332263D01*
X0044511Y0332383D01*
X0044391Y0332506D01*
X0044274Y0332632D01*
X0044161Y0332761D01*
X0044050Y0332892D01*
X0043943Y0333026D01*
X0043839Y0333163D01*
X0043738Y0333302D01*
X0043641Y0333444D01*
X0043547Y0333588D01*
X0043457Y0333734D01*
X0043370Y0333883D01*
X0043288Y0334033D01*
X0043208Y0334186D01*
X0043133Y0334340D01*
X0043062Y0334496D01*
X0042994Y0334654D01*
X0042930Y0334814D01*
X0042870Y0334975D01*
X0042814Y0335137D01*
X0042762Y0335301D01*
X0042715Y0335466D01*
X0042671Y0335632D01*
X0042631Y0335799D01*
X0042596Y0335967D01*
X0042564Y0336136D01*
X0042537Y0336306D01*
X0042514Y0336476D01*
X0042495Y0336647D01*
X0042480Y0336818D01*
X0042469Y0336990D01*
X0042463Y0337161D01*
X0042461Y0337333D01*
X0115461Y0338333D02*
X0115461Y0320833D01*
X0185461Y0320833D01*
X0185461Y0348333D01*
X0115461Y0348333D01*
X0115461Y0338333D01*
X0195461Y0338333D01*
X0195461Y0348333D01*
X0185461Y0348333D01*
X0185461Y0358333D01*
X0115461Y0358333D01*
X0115461Y0348333D01*
X0125461Y0358333D02*
X0125461Y0320833D01*
X0135461Y0320833D02*
X0135461Y0358333D01*
X0145461Y0358333D02*
X0145461Y0320833D01*
X0137461Y0322133D02*
X0137461Y0328033D01*
X0137461Y0331133D02*
X0137461Y0337033D01*
X0147461Y0337033D02*
X0147461Y0331133D01*
X0157461Y0331133D02*
X0157461Y0337033D01*
X0167461Y0337033D02*
X0167461Y0331133D01*
X0163461Y0328033D02*
X0163461Y0322133D01*
X0165461Y0320833D02*
X0165461Y0358333D01*
X0155461Y0358333D02*
X0155461Y0320833D01*
X0173461Y0322133D02*
X0173461Y0328033D01*
X0177461Y0328133D02*
X0177461Y0334033D01*
X0187461Y0334033D02*
X0187461Y0328133D01*
X0185461Y0320833D02*
X0195461Y0320833D01*
X0195461Y0338333D01*
X0201461Y0338333D02*
X0281461Y0338333D01*
X0281461Y0320833D01*
X0261461Y0320833D01*
X0261461Y0348333D01*
X0271461Y0348333D01*
X0271461Y0320833D01*
X0261461Y0320833D02*
X0251461Y0320833D01*
X0251461Y0348333D01*
X0261461Y0348333D01*
X0271461Y0348333D02*
X0281461Y0348333D01*
X0281461Y0338333D01*
X0279961Y0337333D02*
X0276461Y0333833D01*
X0272961Y0337333D01*
X0279961Y0337333D01*
X0269961Y0333833D02*
X0266461Y0337333D01*
X0262961Y0333833D01*
X0269961Y0333833D01*
X0251461Y0320833D02*
X0241461Y0320833D01*
X0241461Y0348333D01*
X0251461Y0348333D01*
X0241461Y0348333D02*
X0231461Y0348333D01*
X0231461Y0320833D01*
X0221461Y0320833D01*
X0221461Y0348333D01*
X0231461Y0348333D01*
X0221461Y0348333D02*
X0211461Y0348333D01*
X0211461Y0320833D01*
X0201461Y0320833D01*
X0201461Y0338333D01*
X0201461Y0348333D01*
X0211461Y0348333D01*
X0195461Y0348333D02*
X0195461Y0358333D01*
X0185461Y0358333D01*
X0175461Y0358333D02*
X0175461Y0320833D01*
X0211461Y0320833D02*
X0221461Y0320833D01*
X0231461Y0320833D02*
X0241461Y0320833D01*
X0276461Y0308333D02*
X0136461Y0308333D01*
X0136461Y0303333D01*
X0136601Y0303331D01*
X0136741Y0303325D01*
X0136881Y0303315D01*
X0137021Y0303302D01*
X0137160Y0303284D01*
X0137299Y0303262D01*
X0137436Y0303237D01*
X0137574Y0303208D01*
X0137710Y0303175D01*
X0137845Y0303138D01*
X0137979Y0303097D01*
X0138112Y0303052D01*
X0138244Y0303004D01*
X0138374Y0302952D01*
X0138503Y0302897D01*
X0138630Y0302838D01*
X0138756Y0302775D01*
X0138880Y0302709D01*
X0139001Y0302640D01*
X0139121Y0302567D01*
X0139239Y0302490D01*
X0139354Y0302411D01*
X0139468Y0302328D01*
X0139578Y0302242D01*
X0139687Y0302153D01*
X0139793Y0302061D01*
X0139896Y0301966D01*
X0139997Y0301869D01*
X0140094Y0301768D01*
X0140189Y0301665D01*
X0140281Y0301559D01*
X0140370Y0301450D01*
X0140456Y0301340D01*
X0140539Y0301226D01*
X0140618Y0301111D01*
X0140695Y0300993D01*
X0140768Y0300873D01*
X0140837Y0300752D01*
X0140903Y0300628D01*
X0140966Y0300502D01*
X0141025Y0300375D01*
X0141080Y0300246D01*
X0141132Y0300116D01*
X0141180Y0299984D01*
X0141225Y0299851D01*
X0141266Y0299717D01*
X0141303Y0299582D01*
X0141336Y0299446D01*
X0141365Y0299308D01*
X0141390Y0299171D01*
X0141412Y0299032D01*
X0141430Y0298893D01*
X0141443Y0298753D01*
X0141453Y0298613D01*
X0141459Y0298473D01*
X0141461Y0298333D01*
X0141459Y0298193D01*
X0141453Y0298053D01*
X0141443Y0297913D01*
X0141430Y0297773D01*
X0141412Y0297634D01*
X0141390Y0297495D01*
X0141365Y0297358D01*
X0141336Y0297220D01*
X0141303Y0297084D01*
X0141266Y0296949D01*
X0141225Y0296815D01*
X0141180Y0296682D01*
X0141132Y0296550D01*
X0141080Y0296420D01*
X0141025Y0296291D01*
X0140966Y0296164D01*
X0140903Y0296038D01*
X0140837Y0295914D01*
X0140768Y0295793D01*
X0140695Y0295673D01*
X0140618Y0295555D01*
X0140539Y0295440D01*
X0140456Y0295326D01*
X0140370Y0295216D01*
X0140281Y0295107D01*
X0140189Y0295001D01*
X0140094Y0294898D01*
X0139997Y0294797D01*
X0139896Y0294700D01*
X0139793Y0294605D01*
X0139687Y0294513D01*
X0139578Y0294424D01*
X0139468Y0294338D01*
X0139354Y0294255D01*
X0139239Y0294176D01*
X0139121Y0294099D01*
X0139001Y0294026D01*
X0138880Y0293957D01*
X0138756Y0293891D01*
X0138630Y0293828D01*
X0138503Y0293769D01*
X0138374Y0293714D01*
X0138244Y0293662D01*
X0138112Y0293614D01*
X0137979Y0293569D01*
X0137845Y0293528D01*
X0137710Y0293491D01*
X0137574Y0293458D01*
X0137436Y0293429D01*
X0137299Y0293404D01*
X0137160Y0293382D01*
X0137021Y0293364D01*
X0136881Y0293351D01*
X0136741Y0293341D01*
X0136601Y0293335D01*
X0136461Y0293333D01*
X0136461Y0288333D01*
X0136961Y0288333D02*
X0276461Y0288333D01*
X0276461Y0308333D01*
X0277461Y0275833D02*
X0250461Y0275833D01*
X0250401Y0275831D01*
X0250340Y0275826D01*
X0250281Y0275817D01*
X0250222Y0275804D01*
X0250163Y0275788D01*
X0250106Y0275768D01*
X0250051Y0275745D01*
X0249996Y0275718D01*
X0249944Y0275689D01*
X0249893Y0275656D01*
X0249844Y0275620D01*
X0249798Y0275582D01*
X0249754Y0275540D01*
X0249712Y0275496D01*
X0249674Y0275450D01*
X0249638Y0275401D01*
X0249605Y0275350D01*
X0249576Y0275298D01*
X0249549Y0275243D01*
X0249526Y0275188D01*
X0249506Y0275131D01*
X0249490Y0275072D01*
X0249477Y0275013D01*
X0249468Y0274954D01*
X0249463Y0274893D01*
X0249461Y0274833D01*
X0249461Y0266833D01*
X0249463Y0266773D01*
X0249468Y0266712D01*
X0249477Y0266653D01*
X0249490Y0266594D01*
X0249506Y0266535D01*
X0249526Y0266478D01*
X0249549Y0266423D01*
X0249576Y0266368D01*
X0249605Y0266316D01*
X0249638Y0266265D01*
X0249674Y0266216D01*
X0249712Y0266170D01*
X0249754Y0266126D01*
X0249798Y0266084D01*
X0249844Y0266046D01*
X0249893Y0266010D01*
X0249944Y0265977D01*
X0249996Y0265948D01*
X0250051Y0265921D01*
X0250106Y0265898D01*
X0250163Y0265878D01*
X0250222Y0265862D01*
X0250281Y0265849D01*
X0250340Y0265840D01*
X0250401Y0265835D01*
X0250461Y0265833D01*
X0277461Y0265833D01*
X0250461Y0265833D01*
X0250401Y0265831D01*
X0250340Y0265826D01*
X0250281Y0265817D01*
X0250222Y0265804D01*
X0250163Y0265788D01*
X0250106Y0265768D01*
X0250051Y0265745D01*
X0249996Y0265718D01*
X0249944Y0265689D01*
X0249893Y0265656D01*
X0249844Y0265620D01*
X0249798Y0265582D01*
X0249754Y0265540D01*
X0249712Y0265496D01*
X0249674Y0265450D01*
X0249638Y0265401D01*
X0249605Y0265350D01*
X0249576Y0265298D01*
X0249549Y0265243D01*
X0249526Y0265188D01*
X0249506Y0265131D01*
X0249490Y0265072D01*
X0249477Y0265013D01*
X0249468Y0264954D01*
X0249463Y0264893D01*
X0249461Y0264833D01*
X0249461Y0256833D01*
X0249463Y0256773D01*
X0249468Y0256712D01*
X0249477Y0256653D01*
X0249490Y0256594D01*
X0249506Y0256535D01*
X0249526Y0256478D01*
X0249549Y0256423D01*
X0249576Y0256368D01*
X0249605Y0256316D01*
X0249638Y0256265D01*
X0249674Y0256216D01*
X0249712Y0256170D01*
X0249754Y0256126D01*
X0249798Y0256084D01*
X0249844Y0256046D01*
X0249893Y0256010D01*
X0249944Y0255977D01*
X0249996Y0255948D01*
X0250051Y0255921D01*
X0250106Y0255898D01*
X0250163Y0255878D01*
X0250222Y0255862D01*
X0250281Y0255849D01*
X0250340Y0255840D01*
X0250401Y0255835D01*
X0250461Y0255833D01*
X0277461Y0255833D01*
X0277521Y0255835D01*
X0277582Y0255840D01*
X0277641Y0255849D01*
X0277700Y0255862D01*
X0277759Y0255878D01*
X0277816Y0255898D01*
X0277871Y0255921D01*
X0277926Y0255948D01*
X0277978Y0255977D01*
X0278029Y0256010D01*
X0278078Y0256046D01*
X0278124Y0256084D01*
X0278168Y0256126D01*
X0278210Y0256170D01*
X0278248Y0256216D01*
X0278284Y0256265D01*
X0278317Y0256316D01*
X0278346Y0256368D01*
X0278373Y0256423D01*
X0278396Y0256478D01*
X0278416Y0256535D01*
X0278432Y0256594D01*
X0278445Y0256653D01*
X0278454Y0256712D01*
X0278459Y0256773D01*
X0278461Y0256833D01*
X0278461Y0264833D01*
X0278459Y0264893D01*
X0278454Y0264954D01*
X0278445Y0265013D01*
X0278432Y0265072D01*
X0278416Y0265131D01*
X0278396Y0265188D01*
X0278373Y0265243D01*
X0278346Y0265298D01*
X0278317Y0265350D01*
X0278284Y0265401D01*
X0278248Y0265450D01*
X0278210Y0265496D01*
X0278168Y0265540D01*
X0278124Y0265582D01*
X0278078Y0265620D01*
X0278029Y0265656D01*
X0277978Y0265689D01*
X0277926Y0265718D01*
X0277871Y0265745D01*
X0277816Y0265768D01*
X0277759Y0265788D01*
X0277700Y0265804D01*
X0277641Y0265817D01*
X0277582Y0265826D01*
X0277521Y0265831D01*
X0277461Y0265833D01*
X0277521Y0265835D01*
X0277582Y0265840D01*
X0277641Y0265849D01*
X0277700Y0265862D01*
X0277759Y0265878D01*
X0277816Y0265898D01*
X0277871Y0265921D01*
X0277926Y0265948D01*
X0277978Y0265977D01*
X0278029Y0266010D01*
X0278078Y0266046D01*
X0278124Y0266084D01*
X0278168Y0266126D01*
X0278210Y0266170D01*
X0278248Y0266216D01*
X0278284Y0266265D01*
X0278317Y0266316D01*
X0278346Y0266368D01*
X0278373Y0266423D01*
X0278396Y0266478D01*
X0278416Y0266535D01*
X0278432Y0266594D01*
X0278445Y0266653D01*
X0278454Y0266712D01*
X0278459Y0266773D01*
X0278461Y0266833D01*
X0278461Y0274833D01*
X0278459Y0274893D01*
X0278454Y0274954D01*
X0278445Y0275013D01*
X0278432Y0275072D01*
X0278416Y0275131D01*
X0278396Y0275188D01*
X0278373Y0275243D01*
X0278346Y0275298D01*
X0278317Y0275350D01*
X0278284Y0275401D01*
X0278248Y0275450D01*
X0278210Y0275496D01*
X0278168Y0275540D01*
X0278124Y0275582D01*
X0278078Y0275620D01*
X0278029Y0275656D01*
X0277978Y0275689D01*
X0277926Y0275718D01*
X0277871Y0275745D01*
X0277816Y0275768D01*
X0277759Y0275788D01*
X0277700Y0275804D01*
X0277641Y0275817D01*
X0277582Y0275826D01*
X0277521Y0275831D01*
X0277461Y0275833D01*
X0232461Y0274833D02*
X0205461Y0274833D01*
X0205242Y0274830D01*
X0205023Y0274822D01*
X0204804Y0274809D01*
X0204586Y0274790D01*
X0204368Y0274766D01*
X0204151Y0274737D01*
X0203934Y0274703D01*
X0203719Y0274663D01*
X0203504Y0274618D01*
X0203291Y0274567D01*
X0203079Y0274512D01*
X0202868Y0274451D01*
X0202659Y0274386D01*
X0202452Y0274315D01*
X0202246Y0274239D01*
X0202042Y0274158D01*
X0201840Y0274073D01*
X0201641Y0273982D01*
X0201444Y0273887D01*
X0201249Y0273786D01*
X0201056Y0273681D01*
X0200866Y0273572D01*
X0200679Y0273458D01*
X0200495Y0273339D01*
X0200314Y0273216D01*
X0200136Y0273088D01*
X0199960Y0272956D01*
X0199789Y0272820D01*
X0199620Y0272680D01*
X0199455Y0272536D01*
X0199294Y0272388D01*
X0199136Y0272236D01*
X0198982Y0272080D01*
X0198832Y0271920D01*
X0198685Y0271757D01*
X0198543Y0271590D01*
X0198405Y0271420D01*
X0198271Y0271246D01*
X0198141Y0271070D01*
X0198016Y0270890D01*
X0197895Y0270707D01*
X0197779Y0270521D01*
X0197667Y0270333D01*
X0197560Y0270142D01*
X0197457Y0269948D01*
X0197359Y0269752D01*
X0197266Y0269554D01*
X0197178Y0269353D01*
X0197095Y0269150D01*
X0197016Y0268945D01*
X0196943Y0268739D01*
X0196875Y0268531D01*
X0196812Y0268321D01*
X0196754Y0268109D01*
X0196701Y0267897D01*
X0196653Y0267683D01*
X0196611Y0267468D01*
X0196574Y0267252D01*
X0196542Y0267035D01*
X0196515Y0266817D01*
X0196494Y0266599D01*
X0196478Y0266381D01*
X0196467Y0266162D01*
X0196462Y0265943D01*
X0196462Y0265723D01*
X0196467Y0265504D01*
X0196478Y0265285D01*
X0196494Y0265067D01*
X0196515Y0264849D01*
X0196542Y0264631D01*
X0196574Y0264414D01*
X0196611Y0264198D01*
X0196653Y0263983D01*
X0196701Y0263769D01*
X0196754Y0263557D01*
X0196812Y0263345D01*
X0196875Y0263135D01*
X0196943Y0262927D01*
X0197016Y0262721D01*
X0197095Y0262516D01*
X0197178Y0262313D01*
X0197266Y0262112D01*
X0197359Y0261914D01*
X0197457Y0261718D01*
X0197560Y0261524D01*
X0197667Y0261333D01*
X0197779Y0261145D01*
X0197895Y0260959D01*
X0198016Y0260776D01*
X0198141Y0260596D01*
X0198271Y0260420D01*
X0198405Y0260246D01*
X0198543Y0260076D01*
X0198685Y0259909D01*
X0198832Y0259746D01*
X0198982Y0259586D01*
X0199136Y0259430D01*
X0199294Y0259278D01*
X0199455Y0259130D01*
X0199620Y0258986D01*
X0199789Y0258846D01*
X0199960Y0258710D01*
X0200136Y0258578D01*
X0200314Y0258450D01*
X0200495Y0258327D01*
X0200679Y0258208D01*
X0200866Y0258094D01*
X0201056Y0257985D01*
X0201249Y0257880D01*
X0201444Y0257779D01*
X0201641Y0257684D01*
X0201840Y0257593D01*
X0202042Y0257508D01*
X0202246Y0257427D01*
X0202452Y0257351D01*
X0202659Y0257280D01*
X0202868Y0257215D01*
X0203079Y0257154D01*
X0203291Y0257099D01*
X0203504Y0257048D01*
X0203719Y0257003D01*
X0203934Y0256963D01*
X0204151Y0256929D01*
X0204368Y0256900D01*
X0204586Y0256876D01*
X0204804Y0256857D01*
X0205023Y0256844D01*
X0205242Y0256836D01*
X0205461Y0256833D01*
X0232461Y0256833D01*
X0232680Y0256836D01*
X0232899Y0256844D01*
X0233118Y0256857D01*
X0233336Y0256876D01*
X0233554Y0256900D01*
X0233771Y0256929D01*
X0233988Y0256963D01*
X0234203Y0257003D01*
X0234418Y0257048D01*
X0234631Y0257099D01*
X0234843Y0257154D01*
X0235054Y0257215D01*
X0235263Y0257280D01*
X0235470Y0257351D01*
X0235676Y0257427D01*
X0235880Y0257508D01*
X0236082Y0257593D01*
X0236281Y0257684D01*
X0236478Y0257779D01*
X0236673Y0257880D01*
X0236866Y0257985D01*
X0237056Y0258094D01*
X0237243Y0258208D01*
X0237427Y0258327D01*
X0237608Y0258450D01*
X0237786Y0258578D01*
X0237962Y0258710D01*
X0238133Y0258846D01*
X0238302Y0258986D01*
X0238467Y0259130D01*
X0238628Y0259278D01*
X0238786Y0259430D01*
X0238940Y0259586D01*
X0239090Y0259746D01*
X0239237Y0259909D01*
X0239379Y0260076D01*
X0239517Y0260246D01*
X0239651Y0260420D01*
X0239781Y0260596D01*
X0239906Y0260776D01*
X0240027Y0260959D01*
X0240143Y0261145D01*
X0240255Y0261333D01*
X0240362Y0261524D01*
X0240465Y0261718D01*
X0240563Y0261914D01*
X0240656Y0262112D01*
X0240744Y0262313D01*
X0240827Y0262516D01*
X0240906Y0262721D01*
X0240979Y0262927D01*
X0241047Y0263135D01*
X0241110Y0263345D01*
X0241168Y0263557D01*
X0241221Y0263769D01*
X0241269Y0263983D01*
X0241311Y0264198D01*
X0241348Y0264414D01*
X0241380Y0264631D01*
X0241407Y0264849D01*
X0241428Y0265067D01*
X0241444Y0265285D01*
X0241455Y0265504D01*
X0241460Y0265723D01*
X0241460Y0265943D01*
X0241455Y0266162D01*
X0241444Y0266381D01*
X0241428Y0266599D01*
X0241407Y0266817D01*
X0241380Y0267035D01*
X0241348Y0267252D01*
X0241311Y0267468D01*
X0241269Y0267683D01*
X0241221Y0267897D01*
X0241168Y0268109D01*
X0241110Y0268321D01*
X0241047Y0268531D01*
X0240979Y0268739D01*
X0240906Y0268945D01*
X0240827Y0269150D01*
X0240744Y0269353D01*
X0240656Y0269554D01*
X0240563Y0269752D01*
X0240465Y0269948D01*
X0240362Y0270142D01*
X0240255Y0270333D01*
X0240143Y0270521D01*
X0240027Y0270707D01*
X0239906Y0270890D01*
X0239781Y0271070D01*
X0239651Y0271246D01*
X0239517Y0271420D01*
X0239379Y0271590D01*
X0239237Y0271757D01*
X0239090Y0271920D01*
X0238940Y0272080D01*
X0238786Y0272236D01*
X0238628Y0272388D01*
X0238467Y0272536D01*
X0238302Y0272680D01*
X0238133Y0272820D01*
X0237962Y0272956D01*
X0237786Y0273088D01*
X0237608Y0273216D01*
X0237427Y0273339D01*
X0237243Y0273458D01*
X0237056Y0273572D01*
X0236866Y0273681D01*
X0236673Y0273786D01*
X0236478Y0273887D01*
X0236281Y0273982D01*
X0236082Y0274073D01*
X0235880Y0274158D01*
X0235676Y0274239D01*
X0235470Y0274315D01*
X0235263Y0274386D01*
X0235054Y0274451D01*
X0234843Y0274512D01*
X0234631Y0274567D01*
X0234418Y0274618D01*
X0234203Y0274663D01*
X0233988Y0274703D01*
X0233771Y0274737D01*
X0233554Y0274766D01*
X0233336Y0274790D01*
X0233118Y0274809D01*
X0232899Y0274822D01*
X0232680Y0274830D01*
X0232461Y0274833D01*
X0190461Y0274833D02*
X0190461Y0266833D01*
X0190459Y0266773D01*
X0190454Y0266712D01*
X0190445Y0266653D01*
X0190432Y0266594D01*
X0190416Y0266535D01*
X0190396Y0266478D01*
X0190373Y0266423D01*
X0190346Y0266368D01*
X0190317Y0266316D01*
X0190284Y0266265D01*
X0190248Y0266216D01*
X0190210Y0266170D01*
X0190168Y0266126D01*
X0190124Y0266084D01*
X0190078Y0266046D01*
X0190029Y0266010D01*
X0189978Y0265977D01*
X0189926Y0265948D01*
X0189871Y0265921D01*
X0189816Y0265898D01*
X0189759Y0265878D01*
X0189700Y0265862D01*
X0189641Y0265849D01*
X0189582Y0265840D01*
X0189521Y0265835D01*
X0189461Y0265833D01*
X0162461Y0265833D01*
X0189461Y0265833D01*
X0189521Y0265831D01*
X0189582Y0265826D01*
X0189641Y0265817D01*
X0189700Y0265804D01*
X0189759Y0265788D01*
X0189816Y0265768D01*
X0189871Y0265745D01*
X0189926Y0265718D01*
X0189978Y0265689D01*
X0190029Y0265656D01*
X0190078Y0265620D01*
X0190124Y0265582D01*
X0190168Y0265540D01*
X0190210Y0265496D01*
X0190248Y0265450D01*
X0190284Y0265401D01*
X0190317Y0265350D01*
X0190346Y0265298D01*
X0190373Y0265243D01*
X0190396Y0265188D01*
X0190416Y0265131D01*
X0190432Y0265072D01*
X0190445Y0265013D01*
X0190454Y0264954D01*
X0190459Y0264893D01*
X0190461Y0264833D01*
X0190461Y0256833D01*
X0190459Y0256773D01*
X0190454Y0256712D01*
X0190445Y0256653D01*
X0190432Y0256594D01*
X0190416Y0256535D01*
X0190396Y0256478D01*
X0190373Y0256423D01*
X0190346Y0256368D01*
X0190317Y0256316D01*
X0190284Y0256265D01*
X0190248Y0256216D01*
X0190210Y0256170D01*
X0190168Y0256126D01*
X0190124Y0256084D01*
X0190078Y0256046D01*
X0190029Y0256010D01*
X0189978Y0255977D01*
X0189926Y0255948D01*
X0189871Y0255921D01*
X0189816Y0255898D01*
X0189759Y0255878D01*
X0189700Y0255862D01*
X0189641Y0255849D01*
X0189582Y0255840D01*
X0189521Y0255835D01*
X0189461Y0255833D01*
X0162461Y0255833D01*
X0162401Y0255835D01*
X0162340Y0255840D01*
X0162281Y0255849D01*
X0162222Y0255862D01*
X0162163Y0255878D01*
X0162106Y0255898D01*
X0162051Y0255921D01*
X0161996Y0255948D01*
X0161944Y0255977D01*
X0161893Y0256010D01*
X0161844Y0256046D01*
X0161798Y0256084D01*
X0161754Y0256126D01*
X0161712Y0256170D01*
X0161674Y0256216D01*
X0161638Y0256265D01*
X0161605Y0256316D01*
X0161576Y0256368D01*
X0161549Y0256423D01*
X0161526Y0256478D01*
X0161506Y0256535D01*
X0161490Y0256594D01*
X0161477Y0256653D01*
X0161468Y0256712D01*
X0161463Y0256773D01*
X0161461Y0256833D01*
X0161461Y0264833D01*
X0161463Y0264893D01*
X0161468Y0264954D01*
X0161477Y0265013D01*
X0161490Y0265072D01*
X0161506Y0265131D01*
X0161526Y0265188D01*
X0161549Y0265243D01*
X0161576Y0265298D01*
X0161605Y0265350D01*
X0161638Y0265401D01*
X0161674Y0265450D01*
X0161712Y0265496D01*
X0161754Y0265540D01*
X0161798Y0265582D01*
X0161844Y0265620D01*
X0161893Y0265656D01*
X0161944Y0265689D01*
X0161996Y0265718D01*
X0162051Y0265745D01*
X0162106Y0265768D01*
X0162163Y0265788D01*
X0162222Y0265804D01*
X0162281Y0265817D01*
X0162340Y0265826D01*
X0162401Y0265831D01*
X0162461Y0265833D01*
X0162401Y0265835D01*
X0162340Y0265840D01*
X0162281Y0265849D01*
X0162222Y0265862D01*
X0162163Y0265878D01*
X0162106Y0265898D01*
X0162051Y0265921D01*
X0161996Y0265948D01*
X0161944Y0265977D01*
X0161893Y0266010D01*
X0161844Y0266046D01*
X0161798Y0266084D01*
X0161754Y0266126D01*
X0161712Y0266170D01*
X0161674Y0266216D01*
X0161638Y0266265D01*
X0161605Y0266316D01*
X0161576Y0266368D01*
X0161549Y0266423D01*
X0161526Y0266478D01*
X0161506Y0266535D01*
X0161490Y0266594D01*
X0161477Y0266653D01*
X0161468Y0266712D01*
X0161463Y0266773D01*
X0161461Y0266833D01*
X0161461Y0274833D01*
X0161463Y0274893D01*
X0161468Y0274954D01*
X0161477Y0275013D01*
X0161490Y0275072D01*
X0161506Y0275131D01*
X0161526Y0275188D01*
X0161549Y0275243D01*
X0161576Y0275298D01*
X0161605Y0275350D01*
X0161638Y0275401D01*
X0161674Y0275450D01*
X0161712Y0275496D01*
X0161754Y0275540D01*
X0161798Y0275582D01*
X0161844Y0275620D01*
X0161893Y0275656D01*
X0161944Y0275689D01*
X0161996Y0275718D01*
X0162051Y0275745D01*
X0162106Y0275768D01*
X0162163Y0275788D01*
X0162222Y0275804D01*
X0162281Y0275817D01*
X0162340Y0275826D01*
X0162401Y0275831D01*
X0162461Y0275833D01*
X0189461Y0275833D01*
X0189521Y0275831D01*
X0189582Y0275826D01*
X0189641Y0275817D01*
X0189700Y0275804D01*
X0189759Y0275788D01*
X0189816Y0275768D01*
X0189871Y0275745D01*
X0189926Y0275718D01*
X0189978Y0275689D01*
X0190029Y0275656D01*
X0190078Y0275620D01*
X0190124Y0275582D01*
X0190168Y0275540D01*
X0190210Y0275496D01*
X0190248Y0275450D01*
X0190284Y0275401D01*
X0190317Y0275350D01*
X0190346Y0275298D01*
X0190373Y0275243D01*
X0190396Y0275188D01*
X0190416Y0275131D01*
X0190432Y0275072D01*
X0190445Y0275013D01*
X0190454Y0274954D01*
X0190459Y0274893D01*
X0190461Y0274833D01*
X0254761Y0224633D02*
X0256161Y0226033D01*
X0258061Y0224733D01*
X0257961Y0224333D02*
X0259961Y0225333D01*
X0260461Y0227333D01*
X0261961Y0227333D01*
X0262461Y0225333D01*
X0264461Y0224333D01*
X0266461Y0225833D01*
X0267461Y0224833D01*
X0266461Y0222833D01*
X0267461Y0220333D01*
X0269461Y0220333D01*
X0269461Y0218833D01*
X0266961Y0218333D01*
X0266461Y0215833D01*
X0267461Y0214333D01*
X0266461Y0213333D01*
X0264961Y0214333D01*
X0263961Y0213833D01*
X0262961Y0216833D01*
X0264461Y0218833D01*
X0263961Y0221333D01*
X0261961Y0222333D01*
X0259961Y0222333D01*
X0258461Y0220833D01*
X0258461Y0217833D01*
X0259961Y0216833D01*
X0258461Y0214333D01*
X0257961Y0214333D01*
X0256461Y0213333D01*
X0255461Y0214333D01*
X0256461Y0215833D01*
X0255461Y0218333D01*
X0253461Y0218833D01*
X0253461Y0220333D01*
X0255461Y0220333D01*
X0256461Y0222833D01*
X0254961Y0224833D01*
X0256461Y0225833D01*
X0257961Y0224333D01*
X0257563Y0224731D02*
X0255037Y0224731D01*
X0254761Y0224633D02*
X0256061Y0222733D01*
X0256384Y0222935D02*
X0266512Y0222935D01*
X0266561Y0222733D02*
X0267961Y0224633D01*
X0266561Y0226033D01*
X0264561Y0224733D01*
X0264991Y0224731D02*
X0267409Y0224731D01*
X0267110Y0224132D02*
X0255486Y0224132D01*
X0255935Y0223534D02*
X0266811Y0223534D01*
X0266659Y0222337D02*
X0256262Y0222337D01*
X0256023Y0221738D02*
X0259366Y0221738D01*
X0258767Y0221140D02*
X0255783Y0221140D01*
X0255261Y0220833D02*
X0252961Y0220433D01*
X0252961Y0218433D01*
X0255161Y0218033D01*
X0255535Y0218147D02*
X0258461Y0218147D01*
X0258461Y0218746D02*
X0253811Y0218746D01*
X0253461Y0219344D02*
X0258461Y0219344D01*
X0258461Y0219943D02*
X0253461Y0219943D01*
X0255544Y0220541D02*
X0258461Y0220541D01*
X0255187Y0217873D02*
X0255228Y0217727D01*
X0255272Y0217582D01*
X0255319Y0217439D01*
X0255371Y0217296D01*
X0255425Y0217155D01*
X0255484Y0217015D01*
X0255545Y0216876D01*
X0255610Y0216739D01*
X0255679Y0216604D01*
X0255750Y0216471D01*
X0255825Y0216339D01*
X0255904Y0216209D01*
X0255985Y0216081D01*
X0255961Y0216033D02*
X0254761Y0214233D01*
X0256161Y0212833D01*
X0257961Y0214033D01*
X0258661Y0213633D01*
X0260161Y0217033D01*
X0259785Y0216950D02*
X0256014Y0216950D01*
X0256253Y0216352D02*
X0259672Y0216352D01*
X0259313Y0215753D02*
X0256407Y0215753D01*
X0256008Y0215155D02*
X0258953Y0215155D01*
X0258594Y0214556D02*
X0255609Y0214556D01*
X0255836Y0213958D02*
X0257397Y0213958D01*
X0256499Y0213359D02*
X0256435Y0213359D01*
X0255774Y0217549D02*
X0258888Y0217549D01*
X0258085Y0224691D02*
X0258212Y0224764D01*
X0258341Y0224835D01*
X0258471Y0224903D01*
X0258603Y0224967D01*
X0258737Y0225029D01*
X0258872Y0225087D01*
X0259008Y0225142D01*
X0259146Y0225194D01*
X0259284Y0225243D01*
X0259424Y0225288D01*
X0259565Y0225331D01*
X0259707Y0225369D01*
X0259849Y0225405D01*
X0259861Y0225433D02*
X0260361Y0227833D01*
X0262261Y0227833D01*
X0262761Y0225433D01*
X0262469Y0225329D02*
X0259953Y0225329D01*
X0260109Y0225928D02*
X0262312Y0225928D01*
X0262162Y0226526D02*
X0260259Y0226526D01*
X0260409Y0227125D02*
X0262013Y0227125D01*
X0263666Y0224731D02*
X0258756Y0224731D01*
X0256965Y0225329D02*
X0255705Y0225329D01*
X0263151Y0221738D02*
X0266899Y0221738D01*
X0267138Y0221140D02*
X0263999Y0221140D01*
X0264119Y0220541D02*
X0267377Y0220541D01*
X0267461Y0220833D02*
X0269661Y0220433D01*
X0269661Y0218433D01*
X0267461Y0218033D01*
X0266923Y0218147D02*
X0263946Y0218147D01*
X0263497Y0217549D02*
X0266804Y0217549D01*
X0266684Y0216950D02*
X0263048Y0216950D01*
X0262561Y0217033D02*
X0263961Y0213633D01*
X0264761Y0214033D01*
X0266561Y0212833D01*
X0267961Y0214233D01*
X0266661Y0216033D01*
X0266514Y0215753D02*
X0263321Y0215753D01*
X0263520Y0215155D02*
X0266913Y0215155D01*
X0267312Y0214556D02*
X0263720Y0214556D01*
X0263919Y0213958D02*
X0264209Y0213958D01*
X0265524Y0213958D02*
X0267085Y0213958D01*
X0266486Y0213359D02*
X0266422Y0213359D01*
X0266564Y0216352D02*
X0263121Y0216352D01*
X0264395Y0218746D02*
X0269023Y0218746D01*
X0269461Y0219344D02*
X0264358Y0219344D01*
X0264239Y0219943D02*
X0269461Y0219943D01*
X0266965Y0225329D02*
X0265789Y0225329D01*
X0266611Y0222717D02*
X0266694Y0222594D01*
X0266774Y0222469D01*
X0266851Y0222342D01*
X0266925Y0222213D01*
X0266995Y0222083D01*
X0267062Y0221950D01*
X0267126Y0221817D01*
X0267187Y0221681D01*
X0267244Y0221544D01*
X0267298Y0221406D01*
X0267349Y0221267D01*
X0267396Y0221126D01*
X0267439Y0220984D01*
X0267479Y0220841D01*
X0262561Y0217033D02*
X0262653Y0217080D01*
X0262743Y0217131D01*
X0262831Y0217185D01*
X0262917Y0217242D01*
X0263000Y0217302D01*
X0263082Y0217366D01*
X0263160Y0217433D01*
X0263237Y0217502D01*
X0263310Y0217574D01*
X0263381Y0217650D01*
X0263449Y0217727D01*
X0263514Y0217808D01*
X0263576Y0217890D01*
X0263634Y0217975D01*
X0263690Y0218062D01*
X0263742Y0218151D01*
X0263790Y0218242D01*
X0263836Y0218335D01*
X0263877Y0218429D01*
X0263915Y0218525D01*
X0263950Y0218623D01*
X0263980Y0218721D01*
X0264007Y0218821D01*
X0264031Y0218921D01*
X0264050Y0219023D01*
X0264065Y0219125D01*
X0264077Y0219227D01*
X0264085Y0219330D01*
X0264089Y0219433D01*
X0264088Y0219537D01*
X0264084Y0219640D01*
X0264077Y0219743D01*
X0264065Y0219845D01*
X0264049Y0219947D01*
X0264030Y0220049D01*
X0264006Y0220149D01*
X0263979Y0220249D01*
X0263949Y0220347D01*
X0263914Y0220444D01*
X0263876Y0220540D01*
X0263834Y0220635D01*
X0263789Y0220727D01*
X0263740Y0220818D01*
X0263688Y0220907D01*
X0263632Y0220994D01*
X0263573Y0221079D01*
X0263511Y0221162D01*
X0263446Y0221242D01*
X0263378Y0221319D01*
X0263307Y0221394D01*
X0263234Y0221467D01*
X0263157Y0221536D01*
X0263078Y0221603D01*
X0262997Y0221666D01*
X0262913Y0221726D01*
X0262827Y0221783D01*
X0262739Y0221837D01*
X0262649Y0221888D01*
X0262557Y0221935D01*
X0262464Y0221978D01*
X0262369Y0222018D01*
X0262272Y0222054D01*
X0262174Y0222087D01*
X0262075Y0222116D01*
X0261975Y0222141D01*
X0261874Y0222162D01*
X0261772Y0222180D01*
X0261670Y0222193D01*
X0261567Y0222203D01*
X0261464Y0222209D01*
X0261361Y0222211D01*
X0261258Y0222209D01*
X0261155Y0222203D01*
X0261052Y0222193D01*
X0260950Y0222180D01*
X0260848Y0222162D01*
X0260747Y0222141D01*
X0260647Y0222116D01*
X0260548Y0222087D01*
X0260450Y0222054D01*
X0260353Y0222018D01*
X0260258Y0221978D01*
X0260165Y0221935D01*
X0260073Y0221888D01*
X0259983Y0221837D01*
X0259895Y0221783D01*
X0259809Y0221726D01*
X0259725Y0221666D01*
X0259644Y0221603D01*
X0259565Y0221536D01*
X0259488Y0221467D01*
X0259415Y0221394D01*
X0259344Y0221319D01*
X0259276Y0221242D01*
X0259211Y0221162D01*
X0259149Y0221079D01*
X0259090Y0220994D01*
X0259034Y0220907D01*
X0258982Y0220818D01*
X0258933Y0220727D01*
X0258888Y0220635D01*
X0258846Y0220540D01*
X0258808Y0220444D01*
X0258773Y0220347D01*
X0258743Y0220249D01*
X0258716Y0220149D01*
X0258692Y0220049D01*
X0258673Y0219947D01*
X0258657Y0219845D01*
X0258645Y0219743D01*
X0258638Y0219640D01*
X0258634Y0219537D01*
X0258633Y0219433D01*
X0258637Y0219330D01*
X0258645Y0219227D01*
X0258657Y0219125D01*
X0258672Y0219023D01*
X0258691Y0218921D01*
X0258715Y0218821D01*
X0258742Y0218721D01*
X0258772Y0218623D01*
X0258807Y0218525D01*
X0258845Y0218429D01*
X0258886Y0218335D01*
X0258932Y0218242D01*
X0258980Y0218151D01*
X0259032Y0218062D01*
X0259088Y0217975D01*
X0259146Y0217890D01*
X0259208Y0217808D01*
X0259273Y0217727D01*
X0259341Y0217650D01*
X0259412Y0217574D01*
X0259485Y0217502D01*
X0259562Y0217433D01*
X0259640Y0217366D01*
X0259722Y0217302D01*
X0259805Y0217242D01*
X0259891Y0217185D01*
X0259979Y0217131D01*
X0260069Y0217080D01*
X0260161Y0217033D01*
X0255242Y0220856D02*
X0255283Y0221008D01*
X0255327Y0221160D01*
X0255375Y0221311D01*
X0255426Y0221460D01*
X0255482Y0221608D01*
X0255541Y0221754D01*
X0255604Y0221899D01*
X0255670Y0222043D01*
X0255740Y0222184D01*
X0255813Y0222324D01*
X0255890Y0222462D01*
X0255971Y0222598D01*
X0256055Y0222732D01*
X0267451Y0218041D02*
X0267417Y0217891D01*
X0267380Y0217742D01*
X0267338Y0217594D01*
X0267294Y0217447D01*
X0267245Y0217301D01*
X0267193Y0217156D01*
X0267138Y0217013D01*
X0267079Y0216871D01*
X0267016Y0216730D01*
X0266950Y0216591D01*
X0266881Y0216454D01*
X0266808Y0216319D01*
X0266732Y0216185D01*
X0266653Y0216053D01*
X0264553Y0224733D02*
X0264424Y0224807D01*
X0264293Y0224879D01*
X0264160Y0224947D01*
X0264026Y0225012D01*
X0263891Y0225073D01*
X0263754Y0225132D01*
X0263615Y0225187D01*
X0263476Y0225239D01*
X0263335Y0225287D01*
X0263193Y0225332D01*
X0263050Y0225374D01*
X0262906Y0225412D01*
X0262761Y0225447D01*
X0127461Y0332633D02*
X0127461Y0337033D01*
D11*
X0110693Y0336951D02*
X0109343Y0336951D01*
X0110760Y0336739D02*
X0110899Y0336580D01*
X0111034Y0336419D01*
X0111165Y0336254D01*
X0111292Y0336085D01*
X0111415Y0335914D01*
X0111534Y0335740D01*
X0111648Y0335563D01*
X0111758Y0335383D01*
X0111863Y0335201D01*
X0111964Y0335016D01*
X0112061Y0334828D01*
X0112152Y0334638D01*
X0112240Y0334446D01*
X0112322Y0334252D01*
X0112399Y0334057D01*
X0112472Y0333859D01*
X0112540Y0333659D01*
X0112603Y0333458D01*
X0112661Y0333255D01*
X0112714Y0333051D01*
X0112762Y0332846D01*
X0112805Y0332640D01*
X0112843Y0332433D01*
X0112875Y0332224D01*
X0112903Y0332015D01*
X0112926Y0331806D01*
X0112943Y0331596D01*
X0112955Y0331385D01*
X0112962Y0331175D01*
X0112964Y0330964D01*
X0112961Y0330753D01*
X0112952Y0330543D01*
X0112938Y0330333D01*
X0112920Y0330123D01*
X0112896Y0329913D01*
X0112867Y0329704D01*
X0112832Y0329497D01*
X0112793Y0329289D01*
X0112749Y0329083D01*
X0112699Y0328879D01*
X0112645Y0328675D01*
X0112586Y0328473D01*
X0112521Y0328272D01*
X0112452Y0328073D01*
X0112378Y0327876D01*
X0112299Y0327680D01*
X0112215Y0327487D01*
X0112127Y0327296D01*
X0112034Y0327106D01*
X0111936Y0326920D01*
X0111834Y0326735D01*
X0111727Y0326554D01*
X0111616Y0326375D01*
X0111501Y0326198D01*
X0111381Y0326025D01*
X0111257Y0325855D01*
X0111129Y0325687D01*
X0110996Y0325523D01*
X0110860Y0325362D01*
X0110720Y0325205D01*
X0110576Y0325051D01*
X0110428Y0324901D01*
X0110277Y0324754D01*
X0110122Y0324611D01*
X0109964Y0324472D01*
X0109802Y0324337D01*
X0109637Y0324206D01*
X0109469Y0324079D01*
X0109298Y0323956D01*
X0109124Y0323837D01*
X0108947Y0323723D01*
X0108767Y0323613D01*
X0108584Y0323507D01*
X0108399Y0323406D01*
X0108212Y0323310D01*
X0108022Y0323218D01*
X0107830Y0323131D01*
X0107637Y0323048D01*
X0107441Y0322971D01*
X0107243Y0322898D01*
X0107043Y0322830D01*
X0106842Y0322767D01*
X0106640Y0322709D01*
X0106436Y0322656D01*
X0106230Y0322608D01*
X0106024Y0322565D01*
X0105817Y0322527D01*
X0105609Y0322494D01*
X0105400Y0322466D01*
X0105190Y0322444D01*
X0104980Y0322426D01*
X0104770Y0322414D01*
X0104559Y0322407D01*
X0104348Y0322405D01*
X0104138Y0322408D01*
X0103927Y0322417D01*
X0103717Y0322430D01*
X0103507Y0322449D01*
X0103297Y0322473D01*
X0103089Y0322502D01*
X0102881Y0322536D01*
X0102674Y0322575D01*
X0102468Y0322619D01*
X0102263Y0322669D01*
X0102059Y0322723D01*
X0101857Y0322782D01*
X0101656Y0322847D01*
X0101457Y0322916D01*
X0101260Y0322990D01*
X0101064Y0323069D01*
X0100871Y0323152D01*
X0100680Y0323241D01*
X0100490Y0323334D01*
X0100304Y0323431D01*
X0100119Y0323533D01*
X0099938Y0323640D01*
X0099758Y0323751D01*
X0099582Y0323867D01*
X0099409Y0323986D01*
X0099238Y0324110D01*
X0099071Y0324238D01*
X0098907Y0324371D01*
X0098746Y0324507D01*
X0098588Y0324647D01*
X0098434Y0324791D01*
X0098284Y0324938D01*
X0098137Y0325090D01*
X0097994Y0325244D01*
X0097855Y0325403D01*
X0097720Y0325564D01*
X0097589Y0325729D01*
X0097462Y0325897D01*
X0097339Y0326068D01*
X0097220Y0326243D01*
X0097105Y0326420D01*
X0096995Y0326599D01*
X0096890Y0326782D01*
X0096789Y0326967D01*
X0096692Y0327154D01*
X0096600Y0327344D01*
X0096513Y0327535D01*
X0096431Y0327729D01*
X0096353Y0327925D01*
X0096280Y0328123D01*
X0096212Y0328323D01*
X0096149Y0328524D01*
X0096091Y0328726D01*
X0096038Y0328930D01*
X0095990Y0329135D01*
X0095946Y0329342D01*
X0095908Y0329549D01*
X0095876Y0329757D01*
X0095848Y0329966D01*
X0095825Y0330176D01*
X0095808Y0330386D01*
X0095795Y0330596D01*
X0095788Y0330807D01*
X0095786Y0331017D01*
X0095789Y0331228D01*
X0095798Y0331439D01*
X0095811Y0331649D01*
X0095830Y0331859D01*
X0095853Y0332068D01*
X0095882Y0332277D01*
X0095916Y0332485D01*
X0095956Y0332692D01*
X0096000Y0332898D01*
X0096049Y0333103D01*
X0096103Y0333307D01*
X0096162Y0333509D01*
X0096227Y0333710D01*
X0096296Y0333909D01*
X0096370Y0334106D01*
X0096448Y0334302D01*
X0096532Y0334495D01*
X0096620Y0334686D01*
X0096713Y0334876D01*
X0096811Y0335062D01*
X0096913Y0335247D01*
X0097019Y0335429D01*
X0097130Y0335608D01*
X0097246Y0335784D01*
X0097365Y0335958D01*
X0097489Y0336128D01*
X0097617Y0336295D01*
X0097749Y0336460D01*
X0097886Y0336621D01*
X0098280Y0337069D02*
X0099630Y0337069D01*
X0097386Y0356621D02*
X0097249Y0356460D01*
X0097117Y0356295D01*
X0096989Y0356128D01*
X0096865Y0355958D01*
X0096746Y0355784D01*
X0096630Y0355608D01*
X0096519Y0355429D01*
X0096413Y0355247D01*
X0096311Y0355062D01*
X0096213Y0354876D01*
X0096120Y0354686D01*
X0096032Y0354495D01*
X0095948Y0354302D01*
X0095870Y0354106D01*
X0095796Y0353909D01*
X0095727Y0353710D01*
X0095662Y0353509D01*
X0095603Y0353307D01*
X0095549Y0353103D01*
X0095500Y0352898D01*
X0095456Y0352692D01*
X0095416Y0352485D01*
X0095382Y0352277D01*
X0095353Y0352068D01*
X0095330Y0351859D01*
X0095311Y0351649D01*
X0095298Y0351439D01*
X0095289Y0351228D01*
X0095286Y0351017D01*
X0095288Y0350807D01*
X0095295Y0350596D01*
X0095308Y0350386D01*
X0095325Y0350176D01*
X0095348Y0349966D01*
X0095376Y0349757D01*
X0095408Y0349549D01*
X0095446Y0349342D01*
X0095490Y0349135D01*
X0095538Y0348930D01*
X0095591Y0348726D01*
X0095649Y0348524D01*
X0095712Y0348323D01*
X0095780Y0348123D01*
X0095853Y0347925D01*
X0095931Y0347729D01*
X0096013Y0347535D01*
X0096100Y0347344D01*
X0096192Y0347154D01*
X0096289Y0346967D01*
X0096390Y0346782D01*
X0096495Y0346599D01*
X0096605Y0346420D01*
X0096720Y0346243D01*
X0096839Y0346068D01*
X0096962Y0345897D01*
X0097089Y0345729D01*
X0097220Y0345564D01*
X0097355Y0345403D01*
X0097494Y0345244D01*
X0097637Y0345090D01*
X0097784Y0344938D01*
X0097934Y0344791D01*
X0098088Y0344647D01*
X0098246Y0344507D01*
X0098407Y0344371D01*
X0098571Y0344238D01*
X0098738Y0344110D01*
X0098909Y0343986D01*
X0099082Y0343867D01*
X0099258Y0343751D01*
X0099438Y0343640D01*
X0099619Y0343533D01*
X0099804Y0343431D01*
X0099990Y0343334D01*
X0100180Y0343241D01*
X0100371Y0343152D01*
X0100564Y0343069D01*
X0100760Y0342990D01*
X0100957Y0342916D01*
X0101156Y0342847D01*
X0101357Y0342782D01*
X0101559Y0342723D01*
X0101763Y0342669D01*
X0101968Y0342619D01*
X0102174Y0342575D01*
X0102381Y0342536D01*
X0102589Y0342502D01*
X0102797Y0342473D01*
X0103007Y0342449D01*
X0103217Y0342430D01*
X0103427Y0342417D01*
X0103638Y0342408D01*
X0103848Y0342405D01*
X0104059Y0342407D01*
X0104270Y0342414D01*
X0104480Y0342426D01*
X0104690Y0342444D01*
X0104900Y0342466D01*
X0105109Y0342494D01*
X0105317Y0342527D01*
X0105524Y0342565D01*
X0105730Y0342608D01*
X0105936Y0342656D01*
X0106140Y0342709D01*
X0106342Y0342767D01*
X0106543Y0342830D01*
X0106743Y0342898D01*
X0106941Y0342971D01*
X0107137Y0343048D01*
X0107330Y0343131D01*
X0107522Y0343218D01*
X0107712Y0343310D01*
X0107899Y0343406D01*
X0108084Y0343507D01*
X0108267Y0343613D01*
X0108447Y0343723D01*
X0108624Y0343837D01*
X0108798Y0343956D01*
X0108969Y0344079D01*
X0109137Y0344206D01*
X0109302Y0344337D01*
X0109464Y0344472D01*
X0109622Y0344611D01*
X0109777Y0344754D01*
X0109928Y0344901D01*
X0110076Y0345051D01*
X0110220Y0345205D01*
X0110360Y0345362D01*
X0110496Y0345523D01*
X0110629Y0345687D01*
X0110757Y0345855D01*
X0110881Y0346025D01*
X0111001Y0346198D01*
X0111116Y0346375D01*
X0111227Y0346554D01*
X0111334Y0346735D01*
X0111436Y0346920D01*
X0111534Y0347106D01*
X0111627Y0347296D01*
X0111715Y0347487D01*
X0111799Y0347680D01*
X0111878Y0347876D01*
X0111952Y0348073D01*
X0112021Y0348272D01*
X0112086Y0348473D01*
X0112145Y0348675D01*
X0112199Y0348879D01*
X0112249Y0349083D01*
X0112293Y0349289D01*
X0112332Y0349497D01*
X0112367Y0349704D01*
X0112396Y0349913D01*
X0112420Y0350123D01*
X0112438Y0350333D01*
X0112452Y0350543D01*
X0112461Y0350753D01*
X0112464Y0350964D01*
X0112462Y0351175D01*
X0112455Y0351385D01*
X0112443Y0351596D01*
X0112426Y0351806D01*
X0112403Y0352015D01*
X0112375Y0352224D01*
X0112343Y0352433D01*
X0112305Y0352640D01*
X0112262Y0352846D01*
X0112214Y0353051D01*
X0112161Y0353255D01*
X0112103Y0353458D01*
X0112040Y0353659D01*
X0111972Y0353859D01*
X0111899Y0354057D01*
X0111822Y0354252D01*
X0111740Y0354446D01*
X0111652Y0354638D01*
X0111561Y0354828D01*
X0111464Y0355016D01*
X0111363Y0355201D01*
X0111258Y0355383D01*
X0111148Y0355563D01*
X0111034Y0355740D01*
X0110915Y0355914D01*
X0110792Y0356085D01*
X0110665Y0356254D01*
X0110534Y0356419D01*
X0110399Y0356580D01*
X0110260Y0356739D01*
X0110193Y0356951D02*
X0108843Y0356951D01*
X0099130Y0357069D02*
X0097780Y0357069D01*
X0072961Y0330833D02*
X0071961Y0329833D01*
X0071961Y0311833D01*
X0072961Y0310833D01*
X0063508Y0316562D02*
X0063508Y0270105D01*
X0001500Y0270105D01*
X0001500Y0316562D01*
X0063508Y0316562D01*
X0084961Y0320833D02*
X0085961Y0319833D01*
X0085961Y0301333D01*
X0084961Y0300333D01*
X0133843Y0278333D02*
X0133845Y0278399D01*
X0133851Y0278465D01*
X0133861Y0278531D01*
X0133874Y0278596D01*
X0133892Y0278660D01*
X0133913Y0278722D01*
X0133938Y0278784D01*
X0133966Y0278844D01*
X0133998Y0278902D01*
X0134034Y0278958D01*
X0134072Y0279011D01*
X0134114Y0279063D01*
X0134159Y0279112D01*
X0134206Y0279158D01*
X0134257Y0279201D01*
X0134309Y0279241D01*
X0134364Y0279278D01*
X0134421Y0279312D01*
X0134480Y0279342D01*
X0134541Y0279369D01*
X0134603Y0279392D01*
X0134666Y0279411D01*
X0134731Y0279427D01*
X0134796Y0279439D01*
X0134862Y0279447D01*
X0134928Y0279451D01*
X0134994Y0279451D01*
X0135060Y0279447D01*
X0135126Y0279439D01*
X0135191Y0279427D01*
X0135256Y0279411D01*
X0135319Y0279392D01*
X0135381Y0279369D01*
X0135442Y0279342D01*
X0135501Y0279312D01*
X0135558Y0279278D01*
X0135613Y0279241D01*
X0135665Y0279201D01*
X0135716Y0279158D01*
X0135763Y0279112D01*
X0135808Y0279063D01*
X0135850Y0279011D01*
X0135888Y0278958D01*
X0135924Y0278902D01*
X0135956Y0278844D01*
X0135984Y0278784D01*
X0136009Y0278722D01*
X0136030Y0278660D01*
X0136048Y0278596D01*
X0136061Y0278531D01*
X0136071Y0278465D01*
X0136077Y0278399D01*
X0136079Y0278333D01*
X0136077Y0278267D01*
X0136071Y0278201D01*
X0136061Y0278135D01*
X0136048Y0278070D01*
X0136030Y0278006D01*
X0136009Y0277944D01*
X0135984Y0277882D01*
X0135956Y0277822D01*
X0135924Y0277764D01*
X0135888Y0277708D01*
X0135850Y0277655D01*
X0135808Y0277603D01*
X0135763Y0277554D01*
X0135716Y0277508D01*
X0135665Y0277465D01*
X0135613Y0277425D01*
X0135558Y0277388D01*
X0135501Y0277354D01*
X0135442Y0277324D01*
X0135381Y0277297D01*
X0135319Y0277274D01*
X0135256Y0277255D01*
X0135191Y0277239D01*
X0135126Y0277227D01*
X0135060Y0277219D01*
X0134994Y0277215D01*
X0134928Y0277215D01*
X0134862Y0277219D01*
X0134796Y0277227D01*
X0134731Y0277239D01*
X0134666Y0277255D01*
X0134603Y0277274D01*
X0134541Y0277297D01*
X0134480Y0277324D01*
X0134421Y0277354D01*
X0134364Y0277388D01*
X0134309Y0277425D01*
X0134257Y0277465D01*
X0134206Y0277508D01*
X0134159Y0277554D01*
X0134114Y0277603D01*
X0134072Y0277655D01*
X0134034Y0277708D01*
X0133998Y0277764D01*
X0133966Y0277822D01*
X0133938Y0277882D01*
X0133913Y0277944D01*
X0133892Y0278006D01*
X0133874Y0278070D01*
X0133861Y0278135D01*
X0133851Y0278201D01*
X0133845Y0278267D01*
X0133843Y0278333D01*
X0132461Y0278333D02*
X0132463Y0278432D01*
X0132469Y0278532D01*
X0132479Y0278631D01*
X0132493Y0278729D01*
X0132510Y0278827D01*
X0132532Y0278924D01*
X0132557Y0279020D01*
X0132586Y0279115D01*
X0132619Y0279209D01*
X0132656Y0279301D01*
X0132696Y0279392D01*
X0132740Y0279481D01*
X0132788Y0279569D01*
X0132839Y0279654D01*
X0132893Y0279737D01*
X0132950Y0279819D01*
X0133011Y0279897D01*
X0133075Y0279974D01*
X0133141Y0280047D01*
X0133211Y0280118D01*
X0133283Y0280186D01*
X0133358Y0280252D01*
X0133436Y0280314D01*
X0133516Y0280373D01*
X0133598Y0280429D01*
X0133682Y0280481D01*
X0133769Y0280530D01*
X0133857Y0280576D01*
X0133947Y0280618D01*
X0134039Y0280657D01*
X0134132Y0280692D01*
X0134226Y0280723D01*
X0134322Y0280750D01*
X0134419Y0280773D01*
X0134516Y0280793D01*
X0134614Y0280809D01*
X0134713Y0280821D01*
X0134812Y0280829D01*
X0134911Y0280833D01*
X0135011Y0280833D01*
X0135110Y0280829D01*
X0135209Y0280821D01*
X0135308Y0280809D01*
X0135406Y0280793D01*
X0135503Y0280773D01*
X0135600Y0280750D01*
X0135696Y0280723D01*
X0135790Y0280692D01*
X0135883Y0280657D01*
X0135975Y0280618D01*
X0136065Y0280576D01*
X0136153Y0280530D01*
X0136240Y0280481D01*
X0136324Y0280429D01*
X0136406Y0280373D01*
X0136486Y0280314D01*
X0136564Y0280252D01*
X0136639Y0280186D01*
X0136711Y0280118D01*
X0136781Y0280047D01*
X0136847Y0279974D01*
X0136911Y0279897D01*
X0136972Y0279819D01*
X0137029Y0279737D01*
X0137083Y0279654D01*
X0137134Y0279569D01*
X0137182Y0279481D01*
X0137226Y0279392D01*
X0137266Y0279301D01*
X0137303Y0279209D01*
X0137336Y0279115D01*
X0137365Y0279020D01*
X0137390Y0278924D01*
X0137412Y0278827D01*
X0137429Y0278729D01*
X0137443Y0278631D01*
X0137453Y0278532D01*
X0137459Y0278432D01*
X0137461Y0278333D01*
X0137459Y0278234D01*
X0137453Y0278134D01*
X0137443Y0278035D01*
X0137429Y0277937D01*
X0137412Y0277839D01*
X0137390Y0277742D01*
X0137365Y0277646D01*
X0137336Y0277551D01*
X0137303Y0277457D01*
X0137266Y0277365D01*
X0137226Y0277274D01*
X0137182Y0277185D01*
X0137134Y0277097D01*
X0137083Y0277012D01*
X0137029Y0276929D01*
X0136972Y0276847D01*
X0136911Y0276769D01*
X0136847Y0276692D01*
X0136781Y0276619D01*
X0136711Y0276548D01*
X0136639Y0276480D01*
X0136564Y0276414D01*
X0136486Y0276352D01*
X0136406Y0276293D01*
X0136324Y0276237D01*
X0136240Y0276185D01*
X0136153Y0276136D01*
X0136065Y0276090D01*
X0135975Y0276048D01*
X0135883Y0276009D01*
X0135790Y0275974D01*
X0135696Y0275943D01*
X0135600Y0275916D01*
X0135503Y0275893D01*
X0135406Y0275873D01*
X0135308Y0275857D01*
X0135209Y0275845D01*
X0135110Y0275837D01*
X0135011Y0275833D01*
X0134911Y0275833D01*
X0134812Y0275837D01*
X0134713Y0275845D01*
X0134614Y0275857D01*
X0134516Y0275873D01*
X0134419Y0275893D01*
X0134322Y0275916D01*
X0134226Y0275943D01*
X0134132Y0275974D01*
X0134039Y0276009D01*
X0133947Y0276048D01*
X0133857Y0276090D01*
X0133769Y0276136D01*
X0133682Y0276185D01*
X0133598Y0276237D01*
X0133516Y0276293D01*
X0133436Y0276352D01*
X0133358Y0276414D01*
X0133283Y0276480D01*
X0133211Y0276548D01*
X0133141Y0276619D01*
X0133075Y0276692D01*
X0133011Y0276769D01*
X0132950Y0276847D01*
X0132893Y0276929D01*
X0132839Y0277012D01*
X0132788Y0277097D01*
X0132740Y0277185D01*
X0132696Y0277274D01*
X0132656Y0277365D01*
X0132619Y0277457D01*
X0132586Y0277551D01*
X0132557Y0277646D01*
X0132532Y0277742D01*
X0132510Y0277839D01*
X0132493Y0277937D01*
X0132479Y0278035D01*
X0132469Y0278134D01*
X0132463Y0278234D01*
X0132461Y0278333D01*
X0088843Y0183333D02*
X0088845Y0183399D01*
X0088851Y0183465D01*
X0088861Y0183531D01*
X0088874Y0183596D01*
X0088892Y0183660D01*
X0088913Y0183722D01*
X0088938Y0183784D01*
X0088966Y0183844D01*
X0088998Y0183902D01*
X0089034Y0183958D01*
X0089072Y0184011D01*
X0089114Y0184063D01*
X0089159Y0184112D01*
X0089206Y0184158D01*
X0089257Y0184201D01*
X0089309Y0184241D01*
X0089364Y0184278D01*
X0089421Y0184312D01*
X0089480Y0184342D01*
X0089541Y0184369D01*
X0089603Y0184392D01*
X0089666Y0184411D01*
X0089731Y0184427D01*
X0089796Y0184439D01*
X0089862Y0184447D01*
X0089928Y0184451D01*
X0089994Y0184451D01*
X0090060Y0184447D01*
X0090126Y0184439D01*
X0090191Y0184427D01*
X0090256Y0184411D01*
X0090319Y0184392D01*
X0090381Y0184369D01*
X0090442Y0184342D01*
X0090501Y0184312D01*
X0090558Y0184278D01*
X0090613Y0184241D01*
X0090665Y0184201D01*
X0090716Y0184158D01*
X0090763Y0184112D01*
X0090808Y0184063D01*
X0090850Y0184011D01*
X0090888Y0183958D01*
X0090924Y0183902D01*
X0090956Y0183844D01*
X0090984Y0183784D01*
X0091009Y0183722D01*
X0091030Y0183660D01*
X0091048Y0183596D01*
X0091061Y0183531D01*
X0091071Y0183465D01*
X0091077Y0183399D01*
X0091079Y0183333D01*
X0091077Y0183267D01*
X0091071Y0183201D01*
X0091061Y0183135D01*
X0091048Y0183070D01*
X0091030Y0183006D01*
X0091009Y0182944D01*
X0090984Y0182882D01*
X0090956Y0182822D01*
X0090924Y0182764D01*
X0090888Y0182708D01*
X0090850Y0182655D01*
X0090808Y0182603D01*
X0090763Y0182554D01*
X0090716Y0182508D01*
X0090665Y0182465D01*
X0090613Y0182425D01*
X0090558Y0182388D01*
X0090501Y0182354D01*
X0090442Y0182324D01*
X0090381Y0182297D01*
X0090319Y0182274D01*
X0090256Y0182255D01*
X0090191Y0182239D01*
X0090126Y0182227D01*
X0090060Y0182219D01*
X0089994Y0182215D01*
X0089928Y0182215D01*
X0089862Y0182219D01*
X0089796Y0182227D01*
X0089731Y0182239D01*
X0089666Y0182255D01*
X0089603Y0182274D01*
X0089541Y0182297D01*
X0089480Y0182324D01*
X0089421Y0182354D01*
X0089364Y0182388D01*
X0089309Y0182425D01*
X0089257Y0182465D01*
X0089206Y0182508D01*
X0089159Y0182554D01*
X0089114Y0182603D01*
X0089072Y0182655D01*
X0089034Y0182708D01*
X0088998Y0182764D01*
X0088966Y0182822D01*
X0088938Y0182882D01*
X0088913Y0182944D01*
X0088892Y0183006D01*
X0088874Y0183070D01*
X0088861Y0183135D01*
X0088851Y0183201D01*
X0088845Y0183267D01*
X0088843Y0183333D01*
X0087461Y0183333D02*
X0087463Y0183432D01*
X0087469Y0183532D01*
X0087479Y0183631D01*
X0087493Y0183729D01*
X0087510Y0183827D01*
X0087532Y0183924D01*
X0087557Y0184020D01*
X0087586Y0184115D01*
X0087619Y0184209D01*
X0087656Y0184301D01*
X0087696Y0184392D01*
X0087740Y0184481D01*
X0087788Y0184569D01*
X0087839Y0184654D01*
X0087893Y0184737D01*
X0087950Y0184819D01*
X0088011Y0184897D01*
X0088075Y0184974D01*
X0088141Y0185047D01*
X0088211Y0185118D01*
X0088283Y0185186D01*
X0088358Y0185252D01*
X0088436Y0185314D01*
X0088516Y0185373D01*
X0088598Y0185429D01*
X0088682Y0185481D01*
X0088769Y0185530D01*
X0088857Y0185576D01*
X0088947Y0185618D01*
X0089039Y0185657D01*
X0089132Y0185692D01*
X0089226Y0185723D01*
X0089322Y0185750D01*
X0089419Y0185773D01*
X0089516Y0185793D01*
X0089614Y0185809D01*
X0089713Y0185821D01*
X0089812Y0185829D01*
X0089911Y0185833D01*
X0090011Y0185833D01*
X0090110Y0185829D01*
X0090209Y0185821D01*
X0090308Y0185809D01*
X0090406Y0185793D01*
X0090503Y0185773D01*
X0090600Y0185750D01*
X0090696Y0185723D01*
X0090790Y0185692D01*
X0090883Y0185657D01*
X0090975Y0185618D01*
X0091065Y0185576D01*
X0091153Y0185530D01*
X0091240Y0185481D01*
X0091324Y0185429D01*
X0091406Y0185373D01*
X0091486Y0185314D01*
X0091564Y0185252D01*
X0091639Y0185186D01*
X0091711Y0185118D01*
X0091781Y0185047D01*
X0091847Y0184974D01*
X0091911Y0184897D01*
X0091972Y0184819D01*
X0092029Y0184737D01*
X0092083Y0184654D01*
X0092134Y0184569D01*
X0092182Y0184481D01*
X0092226Y0184392D01*
X0092266Y0184301D01*
X0092303Y0184209D01*
X0092336Y0184115D01*
X0092365Y0184020D01*
X0092390Y0183924D01*
X0092412Y0183827D01*
X0092429Y0183729D01*
X0092443Y0183631D01*
X0092453Y0183532D01*
X0092459Y0183432D01*
X0092461Y0183333D01*
X0092459Y0183234D01*
X0092453Y0183134D01*
X0092443Y0183035D01*
X0092429Y0182937D01*
X0092412Y0182839D01*
X0092390Y0182742D01*
X0092365Y0182646D01*
X0092336Y0182551D01*
X0092303Y0182457D01*
X0092266Y0182365D01*
X0092226Y0182274D01*
X0092182Y0182185D01*
X0092134Y0182097D01*
X0092083Y0182012D01*
X0092029Y0181929D01*
X0091972Y0181847D01*
X0091911Y0181769D01*
X0091847Y0181692D01*
X0091781Y0181619D01*
X0091711Y0181548D01*
X0091639Y0181480D01*
X0091564Y0181414D01*
X0091486Y0181352D01*
X0091406Y0181293D01*
X0091324Y0181237D01*
X0091240Y0181185D01*
X0091153Y0181136D01*
X0091065Y0181090D01*
X0090975Y0181048D01*
X0090883Y0181009D01*
X0090790Y0180974D01*
X0090696Y0180943D01*
X0090600Y0180916D01*
X0090503Y0180893D01*
X0090406Y0180873D01*
X0090308Y0180857D01*
X0090209Y0180845D01*
X0090110Y0180837D01*
X0090011Y0180833D01*
X0089911Y0180833D01*
X0089812Y0180837D01*
X0089713Y0180845D01*
X0089614Y0180857D01*
X0089516Y0180873D01*
X0089419Y0180893D01*
X0089322Y0180916D01*
X0089226Y0180943D01*
X0089132Y0180974D01*
X0089039Y0181009D01*
X0088947Y0181048D01*
X0088857Y0181090D01*
X0088769Y0181136D01*
X0088682Y0181185D01*
X0088598Y0181237D01*
X0088516Y0181293D01*
X0088436Y0181352D01*
X0088358Y0181414D01*
X0088283Y0181480D01*
X0088211Y0181548D01*
X0088141Y0181619D01*
X0088075Y0181692D01*
X0088011Y0181769D01*
X0087950Y0181847D01*
X0087893Y0181929D01*
X0087839Y0182012D01*
X0087788Y0182097D01*
X0087740Y0182185D01*
X0087696Y0182274D01*
X0087656Y0182365D01*
X0087619Y0182457D01*
X0087586Y0182551D01*
X0087557Y0182646D01*
X0087532Y0182742D01*
X0087510Y0182839D01*
X0087493Y0182937D01*
X0087479Y0183035D01*
X0087469Y0183134D01*
X0087463Y0183234D01*
X0087461Y0183333D01*
X0086043Y0139733D02*
X0086045Y0139799D01*
X0086051Y0139865D01*
X0086061Y0139931D01*
X0086074Y0139996D01*
X0086092Y0140060D01*
X0086113Y0140122D01*
X0086138Y0140184D01*
X0086166Y0140244D01*
X0086198Y0140302D01*
X0086234Y0140358D01*
X0086272Y0140411D01*
X0086314Y0140463D01*
X0086359Y0140512D01*
X0086406Y0140558D01*
X0086457Y0140601D01*
X0086509Y0140641D01*
X0086564Y0140678D01*
X0086621Y0140712D01*
X0086680Y0140742D01*
X0086741Y0140769D01*
X0086803Y0140792D01*
X0086866Y0140811D01*
X0086931Y0140827D01*
X0086996Y0140839D01*
X0087062Y0140847D01*
X0087128Y0140851D01*
X0087194Y0140851D01*
X0087260Y0140847D01*
X0087326Y0140839D01*
X0087391Y0140827D01*
X0087456Y0140811D01*
X0087519Y0140792D01*
X0087581Y0140769D01*
X0087642Y0140742D01*
X0087701Y0140712D01*
X0087758Y0140678D01*
X0087813Y0140641D01*
X0087865Y0140601D01*
X0087916Y0140558D01*
X0087963Y0140512D01*
X0088008Y0140463D01*
X0088050Y0140411D01*
X0088088Y0140358D01*
X0088124Y0140302D01*
X0088156Y0140244D01*
X0088184Y0140184D01*
X0088209Y0140122D01*
X0088230Y0140060D01*
X0088248Y0139996D01*
X0088261Y0139931D01*
X0088271Y0139865D01*
X0088277Y0139799D01*
X0088279Y0139733D01*
X0088277Y0139667D01*
X0088271Y0139601D01*
X0088261Y0139535D01*
X0088248Y0139470D01*
X0088230Y0139406D01*
X0088209Y0139344D01*
X0088184Y0139282D01*
X0088156Y0139222D01*
X0088124Y0139164D01*
X0088088Y0139108D01*
X0088050Y0139055D01*
X0088008Y0139003D01*
X0087963Y0138954D01*
X0087916Y0138908D01*
X0087865Y0138865D01*
X0087813Y0138825D01*
X0087758Y0138788D01*
X0087701Y0138754D01*
X0087642Y0138724D01*
X0087581Y0138697D01*
X0087519Y0138674D01*
X0087456Y0138655D01*
X0087391Y0138639D01*
X0087326Y0138627D01*
X0087260Y0138619D01*
X0087194Y0138615D01*
X0087128Y0138615D01*
X0087062Y0138619D01*
X0086996Y0138627D01*
X0086931Y0138639D01*
X0086866Y0138655D01*
X0086803Y0138674D01*
X0086741Y0138697D01*
X0086680Y0138724D01*
X0086621Y0138754D01*
X0086564Y0138788D01*
X0086509Y0138825D01*
X0086457Y0138865D01*
X0086406Y0138908D01*
X0086359Y0138954D01*
X0086314Y0139003D01*
X0086272Y0139055D01*
X0086234Y0139108D01*
X0086198Y0139164D01*
X0086166Y0139222D01*
X0086138Y0139282D01*
X0086113Y0139344D01*
X0086092Y0139406D01*
X0086074Y0139470D01*
X0086061Y0139535D01*
X0086051Y0139601D01*
X0086045Y0139667D01*
X0086043Y0139733D01*
X0084661Y0139733D02*
X0084663Y0139832D01*
X0084669Y0139932D01*
X0084679Y0140031D01*
X0084693Y0140129D01*
X0084710Y0140227D01*
X0084732Y0140324D01*
X0084757Y0140420D01*
X0084786Y0140515D01*
X0084819Y0140609D01*
X0084856Y0140701D01*
X0084896Y0140792D01*
X0084940Y0140881D01*
X0084988Y0140969D01*
X0085039Y0141054D01*
X0085093Y0141137D01*
X0085150Y0141219D01*
X0085211Y0141297D01*
X0085275Y0141374D01*
X0085341Y0141447D01*
X0085411Y0141518D01*
X0085483Y0141586D01*
X0085558Y0141652D01*
X0085636Y0141714D01*
X0085716Y0141773D01*
X0085798Y0141829D01*
X0085882Y0141881D01*
X0085969Y0141930D01*
X0086057Y0141976D01*
X0086147Y0142018D01*
X0086239Y0142057D01*
X0086332Y0142092D01*
X0086426Y0142123D01*
X0086522Y0142150D01*
X0086619Y0142173D01*
X0086716Y0142193D01*
X0086814Y0142209D01*
X0086913Y0142221D01*
X0087012Y0142229D01*
X0087111Y0142233D01*
X0087211Y0142233D01*
X0087310Y0142229D01*
X0087409Y0142221D01*
X0087508Y0142209D01*
X0087606Y0142193D01*
X0087703Y0142173D01*
X0087800Y0142150D01*
X0087896Y0142123D01*
X0087990Y0142092D01*
X0088083Y0142057D01*
X0088175Y0142018D01*
X0088265Y0141976D01*
X0088353Y0141930D01*
X0088440Y0141881D01*
X0088524Y0141829D01*
X0088606Y0141773D01*
X0088686Y0141714D01*
X0088764Y0141652D01*
X0088839Y0141586D01*
X0088911Y0141518D01*
X0088981Y0141447D01*
X0089047Y0141374D01*
X0089111Y0141297D01*
X0089172Y0141219D01*
X0089229Y0141137D01*
X0089283Y0141054D01*
X0089334Y0140969D01*
X0089382Y0140881D01*
X0089426Y0140792D01*
X0089466Y0140701D01*
X0089503Y0140609D01*
X0089536Y0140515D01*
X0089565Y0140420D01*
X0089590Y0140324D01*
X0089612Y0140227D01*
X0089629Y0140129D01*
X0089643Y0140031D01*
X0089653Y0139932D01*
X0089659Y0139832D01*
X0089661Y0139733D01*
X0089659Y0139634D01*
X0089653Y0139534D01*
X0089643Y0139435D01*
X0089629Y0139337D01*
X0089612Y0139239D01*
X0089590Y0139142D01*
X0089565Y0139046D01*
X0089536Y0138951D01*
X0089503Y0138857D01*
X0089466Y0138765D01*
X0089426Y0138674D01*
X0089382Y0138585D01*
X0089334Y0138497D01*
X0089283Y0138412D01*
X0089229Y0138329D01*
X0089172Y0138247D01*
X0089111Y0138169D01*
X0089047Y0138092D01*
X0088981Y0138019D01*
X0088911Y0137948D01*
X0088839Y0137880D01*
X0088764Y0137814D01*
X0088686Y0137752D01*
X0088606Y0137693D01*
X0088524Y0137637D01*
X0088440Y0137585D01*
X0088353Y0137536D01*
X0088265Y0137490D01*
X0088175Y0137448D01*
X0088083Y0137409D01*
X0087990Y0137374D01*
X0087896Y0137343D01*
X0087800Y0137316D01*
X0087703Y0137293D01*
X0087606Y0137273D01*
X0087508Y0137257D01*
X0087409Y0137245D01*
X0087310Y0137237D01*
X0087211Y0137233D01*
X0087111Y0137233D01*
X0087012Y0137237D01*
X0086913Y0137245D01*
X0086814Y0137257D01*
X0086716Y0137273D01*
X0086619Y0137293D01*
X0086522Y0137316D01*
X0086426Y0137343D01*
X0086332Y0137374D01*
X0086239Y0137409D01*
X0086147Y0137448D01*
X0086057Y0137490D01*
X0085969Y0137536D01*
X0085882Y0137585D01*
X0085798Y0137637D01*
X0085716Y0137693D01*
X0085636Y0137752D01*
X0085558Y0137814D01*
X0085483Y0137880D01*
X0085411Y0137948D01*
X0085341Y0138019D01*
X0085275Y0138092D01*
X0085211Y0138169D01*
X0085150Y0138247D01*
X0085093Y0138329D01*
X0085039Y0138412D01*
X0084988Y0138497D01*
X0084940Y0138585D01*
X0084896Y0138674D01*
X0084856Y0138765D01*
X0084819Y0138857D01*
X0084786Y0138951D01*
X0084757Y0139046D01*
X0084732Y0139142D01*
X0084710Y0139239D01*
X0084693Y0139337D01*
X0084679Y0139435D01*
X0084669Y0139534D01*
X0084663Y0139634D01*
X0084661Y0139733D01*
X0263961Y0334333D02*
X0266461Y0336833D01*
X0268961Y0334333D01*
X0264961Y0334333D01*
X0273961Y0336833D02*
X0277961Y0336833D01*
X0278961Y0336833D02*
X0276461Y0334333D01*
X0273961Y0336833D01*
D12*
X0275461Y0336333D02*
X0276461Y0335333D01*
X0277961Y0336833D01*
X0267461Y0334833D02*
X0266461Y0335833D01*
X0264961Y0334333D01*
D13*
X0264658Y0331101D02*
X0268261Y0331101D01*
X0268261Y0329900D02*
X0268261Y0332302D01*
X0265859Y0329900D02*
X0264658Y0331101D01*
X0264658Y0328619D02*
X0268261Y0326216D01*
X0268261Y0328619D02*
X0264658Y0326216D01*
X0264658Y0324935D02*
X0264658Y0322533D01*
X0264658Y0323734D02*
X0268261Y0323734D01*
X0274658Y0324335D02*
X0274658Y0322533D01*
X0278261Y0322533D01*
X0277060Y0322533D02*
X0277060Y0324335D01*
X0276459Y0324935D01*
X0275258Y0324935D01*
X0274658Y0324335D01*
X0274658Y0326216D02*
X0278261Y0328619D01*
X0277660Y0329900D02*
X0278261Y0330500D01*
X0278261Y0331701D01*
X0277660Y0332302D01*
X0275258Y0332302D01*
X0277660Y0329900D01*
X0275258Y0329900D01*
X0274658Y0330500D01*
X0274658Y0331701D01*
X0275258Y0332302D01*
X0274658Y0328619D02*
X0278261Y0326216D01*
X0278261Y0324935D02*
X0277060Y0323734D01*
X0258261Y0322533D02*
X0255859Y0324935D01*
X0255258Y0324935D01*
X0254658Y0324335D01*
X0254658Y0323134D01*
X0255258Y0322533D01*
X0258261Y0322533D02*
X0258261Y0324935D01*
X0248261Y0324335D02*
X0248261Y0323134D01*
X0247660Y0322533D01*
X0246459Y0323734D02*
X0246459Y0324335D01*
X0247060Y0324935D01*
X0247660Y0324935D01*
X0248261Y0324335D01*
X0246459Y0324335D02*
X0245859Y0324935D01*
X0245258Y0324935D01*
X0244658Y0324335D01*
X0244658Y0323134D01*
X0245258Y0322533D01*
X0238261Y0324335D02*
X0234658Y0324335D01*
X0236459Y0322533D01*
X0236459Y0324935D01*
X0228261Y0324335D02*
X0228261Y0323134D01*
X0227660Y0322533D01*
X0226459Y0322533D02*
X0225859Y0323734D01*
X0225859Y0324335D01*
X0226459Y0324935D01*
X0227660Y0324935D01*
X0228261Y0324335D01*
X0226459Y0322533D02*
X0224658Y0322533D01*
X0224658Y0324935D01*
X0218261Y0324335D02*
X0218261Y0323134D01*
X0217660Y0322533D01*
X0216459Y0322533D01*
X0216459Y0324335D01*
X0217060Y0324935D01*
X0217660Y0324935D01*
X0218261Y0324335D01*
X0216459Y0322533D02*
X0215258Y0323734D01*
X0214658Y0324935D01*
X0208261Y0322533D02*
X0207660Y0322533D01*
X0205258Y0324935D01*
X0204658Y0324935D01*
X0204658Y0322533D01*
X0192261Y0323134D02*
X0191660Y0322533D01*
X0191060Y0322533D01*
X0190459Y0323134D01*
X0190459Y0324335D01*
X0191060Y0324935D01*
X0191660Y0324935D01*
X0192261Y0324335D01*
X0192261Y0323134D01*
X0190459Y0323134D02*
X0189859Y0322533D01*
X0189258Y0322533D01*
X0188658Y0323134D01*
X0188658Y0324335D01*
X0189258Y0324935D01*
X0189859Y0324935D01*
X0190459Y0324335D01*
X0191660Y0326216D02*
X0191660Y0326817D01*
X0192261Y0326817D01*
X0192261Y0326216D01*
X0191660Y0326216D01*
X0192261Y0328058D02*
X0192261Y0330460D01*
X0192261Y0329259D02*
X0188658Y0329259D01*
X0189859Y0328058D01*
X0190459Y0331741D02*
X0190459Y0334143D01*
X0188658Y0333543D02*
X0190459Y0331741D01*
X0188658Y0333543D02*
X0192261Y0333543D01*
X0182261Y0333543D02*
X0182261Y0332342D01*
X0181660Y0331741D01*
X0180459Y0331741D02*
X0179859Y0332942D01*
X0179859Y0333543D01*
X0180459Y0334143D01*
X0181660Y0334143D01*
X0182261Y0333543D01*
X0180459Y0331741D02*
X0178658Y0331741D01*
X0178658Y0334143D01*
X0178658Y0329259D02*
X0182261Y0329259D01*
X0182261Y0328058D02*
X0182261Y0330460D01*
X0179859Y0328058D02*
X0178658Y0329259D01*
X0181660Y0326817D02*
X0182261Y0326817D01*
X0182261Y0326216D01*
X0181660Y0326216D01*
X0181660Y0326817D01*
X0181660Y0324935D02*
X0179258Y0324935D01*
X0178658Y0324335D01*
X0178658Y0323134D01*
X0179258Y0322533D01*
X0179859Y0322533D01*
X0180459Y0323134D01*
X0180459Y0324935D01*
X0181660Y0324935D02*
X0182261Y0324335D01*
X0182261Y0323134D01*
X0181660Y0322533D01*
X0172261Y0322033D02*
X0172261Y0324435D01*
X0172261Y0323234D02*
X0168658Y0323234D01*
X0169859Y0322033D01*
X0169258Y0325716D02*
X0168658Y0326317D01*
X0168658Y0327518D01*
X0169258Y0328119D01*
X0171660Y0325716D01*
X0172261Y0326317D01*
X0172261Y0327518D01*
X0171660Y0328119D01*
X0169258Y0328119D01*
X0169258Y0325716D02*
X0171660Y0325716D01*
X0171660Y0329400D02*
X0171660Y0330000D01*
X0172261Y0330000D01*
X0172261Y0329400D01*
X0171660Y0329400D01*
X0172261Y0331241D02*
X0172261Y0333643D01*
X0172261Y0332442D02*
X0168658Y0332442D01*
X0169859Y0331241D01*
X0170459Y0334924D02*
X0169258Y0336125D01*
X0168658Y0337326D01*
X0170459Y0336726D02*
X0170459Y0334924D01*
X0171660Y0334924D01*
X0172261Y0335525D01*
X0172261Y0336726D01*
X0171660Y0337326D01*
X0171060Y0337326D01*
X0170459Y0336726D01*
X0162261Y0334924D02*
X0161660Y0334924D01*
X0159258Y0337326D01*
X0158658Y0337326D01*
X0158658Y0334924D01*
X0158658Y0332442D02*
X0162261Y0332442D01*
X0162261Y0331241D02*
X0162261Y0333643D01*
X0159859Y0331241D02*
X0158658Y0332442D01*
X0161660Y0330000D02*
X0162261Y0330000D01*
X0162261Y0329400D01*
X0161660Y0329400D01*
X0161660Y0330000D01*
X0162261Y0328119D02*
X0162261Y0325716D01*
X0162261Y0326917D02*
X0158658Y0326917D01*
X0159859Y0325716D01*
X0162261Y0324435D02*
X0162261Y0322033D01*
X0162261Y0323234D02*
X0158658Y0323234D01*
X0159859Y0322033D01*
X0152261Y0322033D02*
X0152261Y0324435D01*
X0152261Y0323234D02*
X0148658Y0323234D01*
X0149859Y0322033D01*
X0149258Y0325716D02*
X0148658Y0326317D01*
X0148658Y0327518D01*
X0149258Y0328119D01*
X0149859Y0328119D01*
X0152261Y0325716D01*
X0152261Y0328119D01*
X0152261Y0329400D02*
X0152261Y0330000D01*
X0151660Y0330000D01*
X0151660Y0329400D01*
X0152261Y0329400D01*
X0152261Y0331241D02*
X0152261Y0333643D01*
X0152261Y0332442D02*
X0148658Y0332442D01*
X0149859Y0331241D01*
X0149859Y0334924D02*
X0149258Y0334924D01*
X0148658Y0335525D01*
X0148658Y0336726D01*
X0149258Y0337326D01*
X0149859Y0337326D01*
X0150459Y0336726D01*
X0150459Y0335525D01*
X0149859Y0334924D01*
X0150459Y0335525D02*
X0151060Y0334924D01*
X0151660Y0334924D01*
X0152261Y0335525D01*
X0152261Y0336726D01*
X0151660Y0337326D01*
X0151060Y0337326D01*
X0150459Y0336726D01*
X0142261Y0336726D02*
X0141660Y0337326D01*
X0139258Y0337326D01*
X0138658Y0336726D01*
X0138658Y0335525D01*
X0139258Y0334924D01*
X0139859Y0334924D01*
X0140459Y0335525D01*
X0140459Y0337326D01*
X0142261Y0336726D02*
X0142261Y0335525D01*
X0141660Y0334924D01*
X0142261Y0333643D02*
X0142261Y0331241D01*
X0142261Y0332442D02*
X0138658Y0332442D01*
X0139859Y0331241D01*
X0141660Y0330000D02*
X0142261Y0330000D01*
X0142261Y0329400D01*
X0141660Y0329400D01*
X0141660Y0330000D01*
X0141660Y0328119D02*
X0142261Y0327518D01*
X0142261Y0326317D01*
X0141660Y0325716D01*
X0142261Y0324435D02*
X0142261Y0322033D01*
X0142261Y0323234D02*
X0138658Y0323234D01*
X0139859Y0322033D01*
X0139258Y0325716D02*
X0138658Y0326317D01*
X0138658Y0327518D01*
X0139258Y0328119D01*
X0139859Y0328119D01*
X0140459Y0327518D01*
X0141060Y0328119D01*
X0141660Y0328119D01*
X0140459Y0327518D02*
X0140459Y0326917D01*
X0120135Y0298552D02*
X0120736Y0297952D01*
X0120736Y0296751D01*
X0120135Y0296150D01*
X0120736Y0294869D02*
X0119535Y0293668D01*
X0119535Y0294269D02*
X0119535Y0292467D01*
X0120736Y0292467D02*
X0117133Y0292467D01*
X0117133Y0294269D01*
X0117733Y0294869D01*
X0118934Y0294869D01*
X0119535Y0294269D01*
X0117733Y0296150D02*
X0117133Y0296751D01*
X0117133Y0297952D01*
X0117733Y0298552D01*
X0118334Y0298552D01*
X0118934Y0297952D01*
X0119535Y0298552D01*
X0120135Y0298552D01*
X0118934Y0297952D02*
X0118934Y0297351D01*
X0110736Y0296150D02*
X0108334Y0298552D01*
X0107733Y0298552D01*
X0107133Y0297952D01*
X0107133Y0296751D01*
X0107733Y0296150D01*
X0107733Y0294869D02*
X0108934Y0294869D01*
X0109535Y0294269D01*
X0109535Y0292467D01*
X0110736Y0292467D02*
X0107133Y0292467D01*
X0107133Y0294269D01*
X0107733Y0294869D01*
X0109535Y0293668D02*
X0110736Y0294869D01*
X0110736Y0296150D02*
X0110736Y0298552D01*
X0100836Y0298552D02*
X0100836Y0296150D01*
X0100836Y0297351D02*
X0097233Y0297351D01*
X0098434Y0296150D01*
X0097833Y0294869D02*
X0099034Y0294869D01*
X0099635Y0294269D01*
X0099635Y0292467D01*
X0100836Y0292467D02*
X0097233Y0292467D01*
X0097233Y0294269D01*
X0097833Y0294869D01*
X0099635Y0293668D02*
X0100836Y0294869D01*
X0083325Y0299136D02*
X0081190Y0299136D01*
X0082258Y0299136D02*
X0082258Y0295933D01*
X0080011Y0295933D02*
X0077875Y0299136D01*
X0076696Y0299136D02*
X0074561Y0299136D01*
X0074561Y0295933D01*
X0076696Y0295933D01*
X0077875Y0295933D02*
X0080011Y0299136D01*
X0075628Y0297535D02*
X0074561Y0297535D01*
X0094261Y0317733D02*
X0094261Y0321336D01*
X0096062Y0321336D01*
X0096663Y0320736D01*
X0096663Y0319535D01*
X0096062Y0318934D01*
X0094261Y0318934D01*
X0095462Y0318934D02*
X0096663Y0317733D01*
X0097944Y0318334D02*
X0098544Y0317733D01*
X0099745Y0317733D01*
X0100346Y0318334D01*
X0100346Y0321336D01*
X0101627Y0321336D02*
X0104029Y0317733D01*
X0104029Y0321336D01*
X0101627Y0321336D02*
X0101627Y0317733D01*
X0097944Y0318334D02*
X0097944Y0321336D01*
X0083325Y0333067D02*
X0082792Y0332533D01*
X0081190Y0332533D01*
X0081190Y0335736D01*
X0082792Y0335736D01*
X0083325Y0335202D01*
X0083325Y0334668D01*
X0082792Y0334135D01*
X0081190Y0334135D01*
X0080011Y0333601D02*
X0080011Y0333067D01*
X0079477Y0332533D01*
X0078409Y0332533D01*
X0077875Y0333067D01*
X0076696Y0333067D02*
X0076696Y0335736D01*
X0077875Y0335202D02*
X0077875Y0334668D01*
X0078409Y0334135D01*
X0079477Y0334135D01*
X0080011Y0333601D01*
X0080011Y0335202D02*
X0079477Y0335736D01*
X0078409Y0335736D01*
X0077875Y0335202D01*
X0076696Y0333067D02*
X0076162Y0332533D01*
X0075094Y0332533D01*
X0074561Y0333067D01*
X0074561Y0335736D01*
X0073028Y0338733D02*
X0073028Y0342336D01*
X0071827Y0342336D02*
X0074229Y0342336D01*
X0070546Y0341736D02*
X0069945Y0342336D01*
X0068744Y0342336D01*
X0068144Y0341736D01*
X0068144Y0341135D01*
X0068744Y0340535D01*
X0069945Y0340535D01*
X0070546Y0339934D01*
X0070546Y0339334D01*
X0069945Y0338733D01*
X0068744Y0338733D01*
X0068144Y0339334D01*
X0066863Y0338733D02*
X0065662Y0339934D01*
X0066262Y0339934D02*
X0064461Y0339934D01*
X0064461Y0338733D02*
X0064461Y0342336D01*
X0066262Y0342336D01*
X0066863Y0341736D01*
X0066863Y0340535D01*
X0066262Y0339934D01*
X0082792Y0334135D02*
X0083325Y0333601D01*
X0083325Y0333067D01*
X0094061Y0339434D02*
X0094661Y0338833D01*
X0095862Y0338833D01*
X0096463Y0339434D01*
X0096463Y0341836D01*
X0095862Y0342436D01*
X0094661Y0342436D01*
X0094061Y0341836D01*
X0094061Y0339434D01*
X0097744Y0338833D02*
X0097744Y0342436D01*
X0100146Y0338833D01*
X0100146Y0342436D01*
X0172901Y0272041D02*
X0172901Y0269639D01*
X0173501Y0269039D01*
X0174702Y0269039D01*
X0175303Y0269639D01*
X0176584Y0269639D02*
X0177184Y0269039D01*
X0178385Y0269039D01*
X0178986Y0269639D01*
X0178986Y0270840D01*
X0178385Y0271441D01*
X0177785Y0271441D01*
X0176584Y0270840D01*
X0176584Y0272642D01*
X0178986Y0272642D01*
X0175303Y0272041D02*
X0174702Y0272642D01*
X0173501Y0272642D01*
X0172901Y0272041D01*
X0173501Y0262642D02*
X0172901Y0262041D01*
X0172901Y0259639D01*
X0173501Y0259039D01*
X0174702Y0259039D01*
X0175303Y0259639D01*
X0176584Y0259639D02*
X0177184Y0259039D01*
X0178385Y0259039D01*
X0178986Y0259639D01*
X0178986Y0260240D01*
X0178385Y0260840D01*
X0176584Y0260840D01*
X0176584Y0259639D01*
X0176584Y0260840D02*
X0177785Y0262041D01*
X0178986Y0262642D01*
X0175303Y0262041D02*
X0174702Y0262642D01*
X0173501Y0262642D01*
X0192094Y0272333D02*
X0194496Y0275936D01*
X0195777Y0274735D02*
X0196979Y0275936D01*
X0196979Y0272333D01*
X0198180Y0272333D02*
X0195777Y0272333D01*
X0194496Y0272333D02*
X0192094Y0275936D01*
X0260901Y0272041D02*
X0260901Y0269639D01*
X0261501Y0269039D01*
X0262702Y0269039D01*
X0263303Y0269639D01*
X0264584Y0269639D02*
X0266986Y0272041D01*
X0266986Y0272642D01*
X0264584Y0272642D01*
X0263303Y0272041D02*
X0262702Y0272642D01*
X0261501Y0272642D01*
X0260901Y0272041D01*
X0264584Y0269639D02*
X0264584Y0269039D01*
X0265184Y0262642D02*
X0266385Y0262642D01*
X0266986Y0262041D01*
X0266986Y0261441D01*
X0266385Y0260840D01*
X0265184Y0260840D01*
X0264584Y0261441D01*
X0264584Y0262041D01*
X0265184Y0262642D01*
X0265184Y0260840D02*
X0264584Y0260240D01*
X0264584Y0259639D01*
X0265184Y0259039D01*
X0266385Y0259039D01*
X0266986Y0259639D01*
X0266986Y0260240D01*
X0266385Y0260840D01*
X0263303Y0259639D02*
X0262702Y0259039D01*
X0261501Y0259039D01*
X0260901Y0259639D01*
X0260901Y0262041D01*
X0261501Y0262642D01*
X0262702Y0262642D01*
X0263303Y0262041D01*
X0266459Y0172752D02*
X0266459Y0170350D01*
X0264658Y0172152D01*
X0268261Y0172152D01*
X0268261Y0169069D02*
X0265859Y0169069D01*
X0264658Y0167868D01*
X0265859Y0166667D01*
X0268261Y0166667D01*
X0266459Y0166667D02*
X0266459Y0169069D01*
X0258261Y0169069D02*
X0255859Y0169069D01*
X0254658Y0167868D01*
X0255859Y0166667D01*
X0258261Y0166667D01*
X0256459Y0166667D02*
X0256459Y0169069D01*
X0255258Y0170350D02*
X0254658Y0170951D01*
X0254658Y0172152D01*
X0255258Y0172752D01*
X0255859Y0172752D01*
X0256459Y0172152D01*
X0257060Y0172752D01*
X0257660Y0172752D01*
X0258261Y0172152D01*
X0258261Y0170951D01*
X0257660Y0170350D01*
X0256459Y0171551D02*
X0256459Y0172152D01*
X0248261Y0172752D02*
X0248261Y0170350D01*
X0245859Y0172752D01*
X0245258Y0172752D01*
X0244658Y0172152D01*
X0244658Y0170951D01*
X0245258Y0170350D01*
X0245859Y0169069D02*
X0248261Y0169069D01*
X0246459Y0169069D02*
X0246459Y0166667D01*
X0245859Y0166667D02*
X0248261Y0166667D01*
X0245859Y0166667D02*
X0244658Y0167868D01*
X0245859Y0169069D01*
X0274658Y0167868D02*
X0275859Y0169069D01*
X0278261Y0169069D01*
X0277660Y0170350D02*
X0278261Y0170951D01*
X0278261Y0172152D01*
X0277660Y0172752D01*
X0276459Y0172752D01*
X0275859Y0172152D01*
X0275859Y0171551D01*
X0276459Y0170350D01*
X0274658Y0170350D01*
X0274658Y0172752D01*
X0276459Y0169069D02*
X0276459Y0166667D01*
X0275859Y0166667D02*
X0274658Y0167868D01*
X0275859Y0166667D02*
X0278261Y0166667D01*
X0208261Y0167895D02*
X0208261Y0169096D01*
X0208261Y0168495D02*
X0204658Y0168495D01*
X0204658Y0167895D02*
X0204658Y0169096D01*
X0204658Y0170350D02*
X0208261Y0172752D01*
X0204658Y0172752D01*
X0204658Y0170350D02*
X0208261Y0170350D01*
X0207060Y0166614D02*
X0204658Y0166614D01*
X0207060Y0166614D02*
X0208261Y0165413D01*
X0207060Y0164212D01*
X0204658Y0164212D01*
X0198261Y0164785D02*
X0197660Y0165386D01*
X0196459Y0165386D01*
X0196459Y0164185D01*
X0195258Y0165386D02*
X0194658Y0164785D01*
X0194658Y0163584D01*
X0195258Y0162984D01*
X0197660Y0162984D01*
X0198261Y0163584D01*
X0198261Y0164785D01*
X0198261Y0166667D02*
X0194658Y0166667D01*
X0198261Y0169069D01*
X0194658Y0169069D01*
X0194658Y0170350D02*
X0194658Y0172152D01*
X0195258Y0172752D01*
X0197660Y0172752D01*
X0198261Y0172152D01*
X0198261Y0170350D01*
X0194658Y0170350D01*
X0188261Y0170350D02*
X0188261Y0172152D01*
X0187660Y0172752D01*
X0185258Y0172752D01*
X0184658Y0172152D01*
X0184658Y0170350D01*
X0188261Y0170350D01*
X0188261Y0169069D02*
X0184658Y0169069D01*
X0184658Y0166667D02*
X0188261Y0169069D01*
X0188261Y0166667D02*
X0184658Y0166667D01*
X0185258Y0165386D02*
X0184658Y0164785D01*
X0184658Y0163584D01*
X0185258Y0162984D01*
X0187660Y0162984D01*
X0188261Y0163584D01*
X0188261Y0164785D01*
X0187660Y0165386D01*
X0186459Y0165386D01*
X0186459Y0164185D01*
X0178261Y0167268D02*
X0177660Y0166667D01*
X0178261Y0167268D02*
X0178261Y0168469D01*
X0177660Y0169069D01*
X0176459Y0169069D01*
X0175859Y0168469D01*
X0175859Y0167868D01*
X0176459Y0166667D01*
X0174658Y0166667D01*
X0174658Y0169069D01*
X0174658Y0170350D02*
X0177060Y0170350D01*
X0178261Y0171551D01*
X0177060Y0172752D01*
X0174658Y0172752D01*
X0168261Y0172152D02*
X0168261Y0170951D01*
X0167660Y0170350D01*
X0167060Y0169069D02*
X0164658Y0169069D01*
X0165258Y0170350D02*
X0164658Y0170951D01*
X0164658Y0172152D01*
X0165258Y0172752D01*
X0165859Y0172752D01*
X0166459Y0172152D01*
X0167060Y0172752D01*
X0167660Y0172752D01*
X0168261Y0172152D01*
X0166459Y0172152D02*
X0166459Y0171551D01*
X0167060Y0169069D02*
X0168261Y0167868D01*
X0167060Y0166667D01*
X0164658Y0166667D01*
X0165258Y0165386D02*
X0165859Y0165386D01*
X0166459Y0164785D01*
X0167060Y0165386D01*
X0167660Y0165386D01*
X0168261Y0164785D01*
X0168261Y0163584D01*
X0167660Y0162984D01*
X0166459Y0164185D02*
X0166459Y0164785D01*
X0165258Y0165386D02*
X0164658Y0164785D01*
X0164658Y0163584D01*
X0165258Y0162984D01*
X0158261Y0162984D02*
X0154658Y0162984D01*
X0154658Y0164785D01*
X0155258Y0165386D01*
X0156459Y0165386D01*
X0157060Y0164785D01*
X0157060Y0162984D01*
X0157060Y0164185D02*
X0158261Y0165386D01*
X0157660Y0166667D02*
X0158261Y0167268D01*
X0158261Y0168469D01*
X0157660Y0169069D01*
X0157060Y0169069D01*
X0156459Y0168469D01*
X0156459Y0167268D01*
X0155859Y0166667D01*
X0155258Y0166667D01*
X0154658Y0167268D01*
X0154658Y0168469D01*
X0155258Y0169069D01*
X0154658Y0170350D02*
X0154658Y0172752D01*
X0154658Y0171551D02*
X0158261Y0171551D01*
X0138261Y0163152D02*
X0137660Y0163752D01*
X0138261Y0163152D02*
X0138261Y0161951D01*
X0137660Y0161350D01*
X0135258Y0161350D01*
X0134658Y0161951D01*
X0134658Y0163152D01*
X0135258Y0163752D01*
X0135258Y0160069D02*
X0134658Y0159469D01*
X0134658Y0158268D01*
X0135258Y0157667D01*
X0137660Y0157667D01*
X0138261Y0158268D01*
X0138261Y0159469D01*
X0137660Y0160069D01*
X0136459Y0160069D01*
X0136459Y0158868D01*
X0136459Y0156386D02*
X0137060Y0155785D01*
X0137060Y0153984D01*
X0138261Y0153984D02*
X0134658Y0153984D01*
X0134658Y0155785D01*
X0135258Y0156386D01*
X0136459Y0156386D01*
X0128261Y0158268D02*
X0127660Y0157667D01*
X0125258Y0157667D01*
X0124658Y0158268D01*
X0124658Y0159469D01*
X0125258Y0160069D01*
X0126459Y0160069D02*
X0126459Y0158868D01*
X0126459Y0160069D02*
X0127660Y0160069D01*
X0128261Y0159469D01*
X0128261Y0158268D01*
X0126459Y0156386D02*
X0125258Y0156386D01*
X0124658Y0155785D01*
X0124658Y0153984D01*
X0128261Y0153984D01*
X0127060Y0153984D02*
X0127060Y0155785D01*
X0126459Y0156386D01*
X0124658Y0161350D02*
X0124658Y0163152D01*
X0125258Y0163752D01*
X0127660Y0163752D01*
X0128261Y0163152D01*
X0128261Y0161350D01*
X0124658Y0161350D01*
X0118261Y0161951D02*
X0117660Y0161350D01*
X0118261Y0161951D02*
X0118261Y0163152D01*
X0117660Y0163752D01*
X0117060Y0163752D01*
X0116459Y0163152D01*
X0116459Y0161951D01*
X0115859Y0161350D01*
X0115258Y0161350D01*
X0114658Y0161951D01*
X0114658Y0163152D01*
X0115258Y0163752D01*
X0115258Y0160069D02*
X0114658Y0159469D01*
X0114658Y0158268D01*
X0115258Y0157667D01*
X0115859Y0157667D01*
X0116459Y0158268D01*
X0116459Y0159469D01*
X0117060Y0160069D01*
X0117660Y0160069D01*
X0118261Y0159469D01*
X0118261Y0158268D01*
X0117660Y0157667D01*
X0117060Y0156386D02*
X0114658Y0156386D01*
X0117060Y0156386D02*
X0118261Y0155185D01*
X0117060Y0153984D01*
X0114658Y0153984D01*
X0108261Y0155185D02*
X0107060Y0156386D01*
X0104658Y0156386D01*
X0104658Y0157667D02*
X0104658Y0159469D01*
X0105258Y0160069D01*
X0107660Y0160069D01*
X0108261Y0159469D01*
X0108261Y0157667D01*
X0104658Y0157667D01*
X0104658Y0153984D02*
X0107060Y0153984D01*
X0108261Y0155185D01*
X0108261Y0161350D02*
X0104658Y0161350D01*
X0104658Y0163152D01*
X0105258Y0163752D01*
X0107660Y0163752D01*
X0108261Y0163152D01*
X0108261Y0161350D01*
X0098261Y0161350D02*
X0094658Y0161350D01*
X0094658Y0163152D01*
X0095258Y0163752D01*
X0096459Y0163752D01*
X0097060Y0163152D01*
X0097060Y0161350D01*
X0097060Y0162551D02*
X0098261Y0163752D01*
X0098261Y0160069D02*
X0098261Y0157667D01*
X0094658Y0157667D01*
X0095258Y0156386D02*
X0094658Y0155785D01*
X0094658Y0154584D01*
X0095258Y0153984D01*
X0097660Y0153984D01*
X0098261Y0154584D01*
X0098261Y0155785D01*
X0097660Y0156386D01*
X0098261Y0152703D02*
X0094658Y0152703D01*
X0095859Y0151502D01*
X0094658Y0150301D01*
X0098261Y0150301D01*
X0070160Y0194033D02*
X0070761Y0194634D01*
X0070761Y0195835D01*
X0070160Y0196435D01*
X0070761Y0197716D02*
X0070761Y0200119D01*
X0070761Y0198917D02*
X0067158Y0198917D01*
X0068359Y0197716D01*
X0067758Y0196435D02*
X0067158Y0195835D01*
X0067158Y0194634D01*
X0067758Y0194033D01*
X0070160Y0194033D01*
X0049261Y0197533D02*
X0049261Y0199935D01*
X0049261Y0201216D02*
X0049261Y0203018D01*
X0048660Y0203619D01*
X0046258Y0203619D01*
X0045658Y0203018D01*
X0045658Y0201216D01*
X0049261Y0201216D01*
X0049261Y0197533D02*
X0045658Y0197533D01*
X0046258Y0204900D02*
X0048660Y0204900D01*
X0049261Y0205500D01*
X0049261Y0206701D01*
X0048660Y0207302D01*
X0046258Y0207302D01*
X0045658Y0206701D01*
X0045658Y0205500D01*
X0046258Y0204900D01*
X0046258Y0208583D02*
X0045658Y0209183D01*
X0045658Y0210384D01*
X0046258Y0210985D01*
X0046859Y0210985D01*
X0047459Y0210384D01*
X0048060Y0210985D01*
X0048660Y0210985D01*
X0049261Y0210384D01*
X0049261Y0209183D01*
X0048660Y0208583D01*
X0047459Y0209784D02*
X0047459Y0210384D01*
X0048060Y0212266D02*
X0049261Y0213467D01*
X0048060Y0214668D01*
X0045658Y0214668D01*
X0046258Y0215949D02*
X0045658Y0216550D01*
X0045658Y0217751D01*
X0046258Y0218351D01*
X0046859Y0218351D01*
X0047459Y0217751D01*
X0048060Y0218351D01*
X0048660Y0218351D01*
X0049261Y0217751D01*
X0049261Y0216550D01*
X0048660Y0215949D01*
X0047459Y0217150D02*
X0047459Y0217751D01*
X0048060Y0212266D02*
X0045658Y0212266D01*
X0067158Y0216534D02*
X0067758Y0215933D01*
X0070160Y0215933D01*
X0070761Y0216534D01*
X0070761Y0217735D01*
X0070160Y0218335D01*
X0070761Y0219616D02*
X0068359Y0222019D01*
X0067758Y0222019D01*
X0067158Y0221418D01*
X0067158Y0220217D01*
X0067758Y0219616D01*
X0067758Y0218335D02*
X0067158Y0217735D01*
X0067158Y0216534D01*
X0070761Y0219616D02*
X0070761Y0222019D01*
X0070160Y0238533D02*
X0070761Y0239134D01*
X0070761Y0240335D01*
X0070160Y0240935D01*
X0070160Y0242216D02*
X0070761Y0242817D01*
X0070761Y0244018D01*
X0070160Y0244619D01*
X0069560Y0244619D01*
X0068959Y0244018D01*
X0068959Y0243417D01*
X0068959Y0244018D02*
X0068359Y0244619D01*
X0067758Y0244619D01*
X0067158Y0244018D01*
X0067158Y0242817D01*
X0067758Y0242216D01*
X0067758Y0240935D02*
X0067158Y0240335D01*
X0067158Y0239134D01*
X0067758Y0238533D01*
X0070160Y0238533D01*
X0049261Y0239033D02*
X0049261Y0241435D01*
X0049261Y0242716D02*
X0049261Y0244518D01*
X0048660Y0245119D01*
X0046258Y0245119D01*
X0045658Y0244518D01*
X0045658Y0242716D01*
X0049261Y0242716D01*
X0049261Y0239033D02*
X0045658Y0239033D01*
X0046258Y0246400D02*
X0048660Y0246400D01*
X0049261Y0247000D01*
X0049261Y0248201D01*
X0048660Y0248802D01*
X0046258Y0248802D01*
X0045658Y0248201D01*
X0045658Y0247000D01*
X0046258Y0246400D01*
X0045658Y0250083D02*
X0047459Y0250083D01*
X0046859Y0251284D01*
X0046859Y0251884D01*
X0047459Y0252485D01*
X0048660Y0252485D01*
X0049261Y0251884D01*
X0049261Y0250683D01*
X0048660Y0250083D01*
X0045658Y0250083D02*
X0045658Y0252485D01*
X0045658Y0253766D02*
X0048060Y0253766D01*
X0049261Y0254967D01*
X0048060Y0256168D01*
X0045658Y0256168D01*
X0067158Y0262834D02*
X0067758Y0262233D01*
X0070160Y0262233D01*
X0070761Y0262834D01*
X0070761Y0264035D01*
X0070160Y0264635D01*
X0068959Y0265916D02*
X0068959Y0268319D01*
X0067158Y0267718D02*
X0068959Y0265916D01*
X0067758Y0264635D02*
X0067158Y0264035D01*
X0067158Y0262834D01*
X0067158Y0267718D02*
X0070761Y0267718D01*
X0038345Y0235136D02*
X0038345Y0231533D01*
X0037144Y0231533D02*
X0039546Y0231533D01*
X0037144Y0233935D02*
X0038345Y0235136D01*
X0035863Y0234536D02*
X0035262Y0235136D01*
X0033461Y0235136D01*
X0033461Y0231533D01*
X0035262Y0231533D01*
X0035863Y0232134D01*
X0035863Y0234536D01*
D14*
X0120309Y0322483D02*
X0119308Y0323484D01*
X0120309Y0324485D01*
X0122311Y0324485D01*
X0122311Y0325522D02*
X0119308Y0325522D01*
X0119308Y0327023D01*
X0119809Y0327524D01*
X0120809Y0327524D01*
X0121310Y0327023D01*
X0121310Y0325522D01*
X0121310Y0326523D02*
X0122311Y0327524D01*
X0122311Y0328561D02*
X0122311Y0330562D01*
X0122311Y0331599D02*
X0119308Y0331599D01*
X0119308Y0333601D01*
X0120809Y0332600D02*
X0120809Y0331599D01*
X0119308Y0330562D02*
X0119308Y0328561D01*
X0122311Y0328561D01*
X0120809Y0328561D02*
X0120809Y0329561D01*
X0120809Y0324485D02*
X0120809Y0322483D01*
X0120309Y0322483D02*
X0122311Y0322483D01*
X0128808Y0322284D02*
X0128808Y0323285D01*
X0129309Y0323785D01*
X0130309Y0323785D02*
X0130309Y0322784D01*
X0130309Y0323785D02*
X0131310Y0323785D01*
X0131811Y0323285D01*
X0131811Y0322284D01*
X0131310Y0321783D01*
X0129309Y0321783D01*
X0128808Y0322284D01*
X0128808Y0324822D02*
X0131811Y0326824D01*
X0128808Y0326824D01*
X0128808Y0327861D02*
X0128808Y0329362D01*
X0129309Y0329862D01*
X0131310Y0329862D01*
X0131811Y0329362D01*
X0131811Y0327861D01*
X0128808Y0327861D01*
X0128808Y0324822D02*
X0131811Y0324822D01*
X0131811Y0330899D02*
X0131811Y0331400D01*
X0131310Y0331400D01*
X0131310Y0330899D01*
X0131811Y0330899D01*
X0131811Y0332418D02*
X0129809Y0334420D01*
X0129309Y0334420D01*
X0128808Y0333920D01*
X0128808Y0332919D01*
X0129309Y0332418D01*
X0131811Y0332418D02*
X0131811Y0334420D01*
X0131310Y0335457D02*
X0129309Y0337459D01*
X0131310Y0337459D01*
X0131811Y0336958D01*
X0131811Y0335957D01*
X0131310Y0335457D01*
X0129309Y0335457D01*
X0128808Y0335957D01*
X0128808Y0336958D01*
X0129309Y0337459D01*
X0122311Y0335138D02*
X0122311Y0334638D01*
X0121810Y0334638D01*
X0121810Y0335138D01*
X0122311Y0335138D01*
X0223908Y0179865D02*
X0224392Y0178897D01*
X0225359Y0177930D01*
X0225359Y0179381D01*
X0225843Y0179865D01*
X0226327Y0179865D01*
X0226811Y0179381D01*
X0226811Y0178414D01*
X0226327Y0177930D01*
X0225359Y0177930D01*
X0225359Y0176918D02*
X0225359Y0174983D01*
X0224876Y0174983D02*
X0223908Y0175951D01*
X0224876Y0176918D01*
X0226811Y0176918D01*
X0226811Y0174983D02*
X0224876Y0174983D01*
X0227108Y0173738D02*
X0227592Y0174222D01*
X0229527Y0172287D01*
X0230011Y0172771D01*
X0230011Y0173738D01*
X0229527Y0174222D01*
X0227592Y0174222D01*
X0227108Y0173738D02*
X0227108Y0172771D01*
X0227592Y0172287D01*
X0229527Y0172287D01*
X0230011Y0171275D02*
X0228076Y0171275D01*
X0227108Y0170308D01*
X0228076Y0169340D01*
X0230011Y0169340D01*
X0228559Y0169340D02*
X0228559Y0171275D01*
X0233433Y0174526D02*
X0234401Y0175493D01*
X0236336Y0175493D01*
X0236336Y0176505D02*
X0235852Y0176505D01*
X0233917Y0178440D01*
X0233433Y0178440D01*
X0233433Y0176505D01*
X0234884Y0175493D02*
X0234884Y0173558D01*
X0234401Y0173558D02*
X0233433Y0174526D01*
X0234401Y0173558D02*
X0236336Y0173558D01*
X0237108Y0174504D02*
X0240011Y0174504D01*
X0240011Y0173537D02*
X0240011Y0175472D01*
X0238076Y0173537D02*
X0237108Y0174504D01*
X0238076Y0172525D02*
X0237108Y0171558D01*
X0238076Y0170590D01*
X0240011Y0170590D01*
X0238559Y0170590D02*
X0238559Y0172525D01*
X0238076Y0172525D02*
X0240011Y0172525D01*
D15*
X0129190Y0172437D02*
X0129190Y0170935D01*
X0128440Y0170185D01*
X0126188Y0170185D01*
X0126188Y0168683D02*
X0126188Y0173187D01*
X0128440Y0173187D01*
X0129190Y0172437D01*
X0124586Y0172437D02*
X0123836Y0173187D01*
X0122334Y0173187D01*
X0121584Y0172437D01*
X0121584Y0171686D01*
X0122334Y0170935D01*
X0123836Y0170935D01*
X0124586Y0170185D01*
X0124586Y0169434D01*
X0123836Y0168683D01*
X0122334Y0168683D01*
X0121584Y0169434D01*
X0119982Y0169434D02*
X0119232Y0168683D01*
X0117731Y0168683D01*
X0116980Y0169434D01*
X0116980Y0172437D01*
X0117731Y0173187D01*
X0119232Y0173187D01*
X0119982Y0172437D01*
X0115412Y0173187D02*
X0113911Y0173187D01*
X0114661Y0173187D02*
X0114661Y0168683D01*
X0113911Y0168683D02*
X0115412Y0168683D01*
X0072461Y0165083D02*
X0072461Y0156333D01*
X0071211Y0156333D01*
X0049961Y0156333D02*
X0019361Y0156333D01*
X0019361Y0191733D01*
X0033061Y0191733D01*
X0033061Y0156433D01*
X0072461Y0186333D02*
X0072461Y0191733D01*
X0033061Y0191733D01*
D16*
X0101811Y0203683D02*
X0106014Y0203683D01*
X0103912Y0203683D02*
X0103912Y0209989D01*
X0101811Y0207887D01*
X0108256Y0207887D02*
X0108256Y0208938D01*
X0109307Y0209989D01*
X0111409Y0209989D01*
X0112460Y0208938D01*
X0112460Y0207887D01*
X0111409Y0206836D01*
X0109307Y0206836D01*
X0108256Y0207887D01*
X0109307Y0206836D02*
X0108256Y0205785D01*
X0108256Y0204734D01*
X0109307Y0203683D01*
X0111409Y0203683D01*
X0112460Y0204734D01*
X0112460Y0205785D01*
X0111409Y0206836D01*
X0114702Y0206836D02*
X0116803Y0206836D01*
X0114702Y0203683D02*
X0114702Y0209989D01*
X0118905Y0209989D01*
X0121147Y0206836D02*
X0125351Y0206836D01*
X0127593Y0206836D02*
X0127593Y0209989D01*
X0131796Y0209989D01*
X0134038Y0209989D02*
X0134038Y0206836D01*
X0136140Y0207887D01*
X0137191Y0207887D01*
X0138242Y0206836D01*
X0138242Y0204734D01*
X0137191Y0203683D01*
X0135089Y0203683D01*
X0134038Y0204734D01*
X0131796Y0204734D02*
X0130745Y0203683D01*
X0128644Y0203683D01*
X0127593Y0204734D01*
X0127593Y0206836D02*
X0129694Y0207887D01*
X0130745Y0207887D01*
X0131796Y0206836D01*
X0131796Y0204734D01*
X0134038Y0209989D02*
X0138242Y0209989D01*
X0140484Y0208938D02*
X0141535Y0209989D01*
X0143636Y0209989D01*
X0144687Y0208938D01*
X0140484Y0204734D01*
X0141535Y0203683D01*
X0143636Y0203683D01*
X0144687Y0204734D01*
X0144687Y0208938D01*
X0140484Y0208938D02*
X0140484Y0204734D01*
X0124300Y0203683D02*
X0124300Y0209989D01*
X0121147Y0206836D01*
X0146811Y0293683D02*
X0151014Y0293683D01*
X0148912Y0293683D02*
X0148912Y0299989D01*
X0146811Y0297887D01*
X0153256Y0297887D02*
X0154307Y0296836D01*
X0156409Y0296836D01*
X0157460Y0295785D01*
X0157460Y0294734D01*
X0156409Y0293683D01*
X0154307Y0293683D01*
X0153256Y0294734D01*
X0153256Y0295785D01*
X0154307Y0296836D01*
X0153256Y0297887D02*
X0153256Y0298938D01*
X0154307Y0299989D01*
X0156409Y0299989D01*
X0157460Y0298938D01*
X0157460Y0297887D01*
X0156409Y0296836D01*
X0159702Y0296836D02*
X0161803Y0296836D01*
X0159702Y0293683D02*
X0159702Y0299989D01*
X0163905Y0299989D01*
X0166147Y0298938D02*
X0167198Y0299989D01*
X0169300Y0299989D01*
X0170351Y0298938D01*
X0170351Y0297887D01*
X0166147Y0293683D01*
X0170351Y0293683D01*
X0172593Y0294734D02*
X0173644Y0293683D01*
X0175745Y0293683D01*
X0176796Y0294734D01*
X0176796Y0296836D01*
X0175745Y0297887D01*
X0174694Y0297887D01*
X0172593Y0296836D01*
X0172593Y0299989D01*
X0176796Y0299989D01*
X0179038Y0299989D02*
X0179038Y0296836D01*
X0181140Y0297887D01*
X0182191Y0297887D01*
X0183242Y0296836D01*
X0183242Y0294734D01*
X0182191Y0293683D01*
X0180089Y0293683D01*
X0179038Y0294734D01*
X0179038Y0299989D02*
X0183242Y0299989D01*
X0185484Y0298938D02*
X0185484Y0294734D01*
X0189687Y0298938D01*
X0189687Y0294734D01*
X0188636Y0293683D01*
X0186535Y0293683D01*
X0185484Y0294734D01*
X0185484Y0298938D02*
X0186535Y0299989D01*
X0188636Y0299989D01*
X0189687Y0298938D01*
D17*
X0146461Y0213333D02*
X0101461Y0213333D01*
D18*
X0054461Y0220233D02*
X0054461Y0194433D01*
X0040461Y0194433D01*
X0040461Y0220233D01*
X0054461Y0220233D01*
X0054461Y0234433D02*
X0040461Y0234433D01*
X0040461Y0260233D01*
X0054461Y0260233D01*
X0054461Y0234433D01*
D19*
X0053961Y0325333D02*
X0053961Y0326333D01*
X0044461Y0326333D01*
X0044461Y0325333D01*
X0044461Y0348333D02*
X0054461Y0348333D01*
X0054461Y0349333D01*
X0044461Y0349333D02*
X0044461Y0348333D01*
X0205461Y0272833D02*
X0232461Y0272833D01*
X0232631Y0272831D01*
X0232802Y0272825D01*
X0232972Y0272814D01*
X0233142Y0272800D01*
X0233311Y0272781D01*
X0233480Y0272758D01*
X0233649Y0272732D01*
X0233816Y0272701D01*
X0233983Y0272666D01*
X0234149Y0272626D01*
X0234314Y0272583D01*
X0234478Y0272536D01*
X0234640Y0272485D01*
X0234802Y0272430D01*
X0234962Y0272371D01*
X0235120Y0272308D01*
X0235277Y0272242D01*
X0235432Y0272171D01*
X0235586Y0272097D01*
X0235737Y0272019D01*
X0235887Y0271937D01*
X0236035Y0271852D01*
X0236180Y0271763D01*
X0236323Y0271671D01*
X0236464Y0271575D01*
X0236603Y0271476D01*
X0236739Y0271373D01*
X0236873Y0271268D01*
X0237004Y0271159D01*
X0237132Y0271046D01*
X0237258Y0270931D01*
X0237381Y0270813D01*
X0237500Y0270692D01*
X0237617Y0270567D01*
X0237731Y0270440D01*
X0237842Y0270311D01*
X0237949Y0270178D01*
X0238053Y0270043D01*
X0238154Y0269906D01*
X0238252Y0269766D01*
X0238346Y0269624D01*
X0238436Y0269480D01*
X0238523Y0269333D01*
X0238607Y0269184D01*
X0238686Y0269034D01*
X0238762Y0268881D01*
X0238835Y0268727D01*
X0238903Y0268571D01*
X0238968Y0268413D01*
X0239029Y0268254D01*
X0239086Y0268093D01*
X0239139Y0267931D01*
X0239188Y0267768D01*
X0239233Y0267604D01*
X0239274Y0267438D01*
X0239312Y0267272D01*
X0239345Y0267104D01*
X0239373Y0266936D01*
X0239398Y0266768D01*
X0239419Y0266599D01*
X0239436Y0266429D01*
X0239448Y0266259D01*
X0239456Y0266089D01*
X0239460Y0265918D01*
X0239460Y0265748D01*
X0239456Y0265577D01*
X0239448Y0265407D01*
X0239436Y0265237D01*
X0239419Y0265067D01*
X0239398Y0264898D01*
X0239373Y0264730D01*
X0239345Y0264562D01*
X0239312Y0264394D01*
X0239274Y0264228D01*
X0239233Y0264062D01*
X0239188Y0263898D01*
X0239139Y0263735D01*
X0239086Y0263573D01*
X0239029Y0263412D01*
X0238968Y0263253D01*
X0238903Y0263095D01*
X0238835Y0262939D01*
X0238762Y0262785D01*
X0238686Y0262632D01*
X0238607Y0262482D01*
X0238523Y0262333D01*
X0238436Y0262186D01*
X0238346Y0262042D01*
X0238252Y0261900D01*
X0238154Y0261760D01*
X0238053Y0261623D01*
X0237949Y0261488D01*
X0237842Y0261355D01*
X0237731Y0261226D01*
X0237617Y0261099D01*
X0237500Y0260974D01*
X0237381Y0260853D01*
X0237258Y0260735D01*
X0237132Y0260620D01*
X0237004Y0260507D01*
X0236873Y0260398D01*
X0236739Y0260293D01*
X0236603Y0260190D01*
X0236464Y0260091D01*
X0236323Y0259995D01*
X0236180Y0259903D01*
X0236035Y0259814D01*
X0235887Y0259729D01*
X0235737Y0259647D01*
X0235586Y0259569D01*
X0235432Y0259495D01*
X0235277Y0259424D01*
X0235120Y0259358D01*
X0234962Y0259295D01*
X0234802Y0259236D01*
X0234640Y0259181D01*
X0234478Y0259130D01*
X0234314Y0259083D01*
X0234149Y0259040D01*
X0233983Y0259000D01*
X0233816Y0258965D01*
X0233649Y0258934D01*
X0233480Y0258908D01*
X0233311Y0258885D01*
X0233142Y0258866D01*
X0232972Y0258852D01*
X0232802Y0258841D01*
X0232631Y0258835D01*
X0232461Y0258833D01*
X0205461Y0258833D01*
X0205291Y0258835D01*
X0205120Y0258841D01*
X0204950Y0258852D01*
X0204780Y0258866D01*
X0204611Y0258885D01*
X0204442Y0258908D01*
X0204273Y0258934D01*
X0204106Y0258965D01*
X0203939Y0259000D01*
X0203773Y0259040D01*
X0203608Y0259083D01*
X0203444Y0259130D01*
X0203282Y0259181D01*
X0203120Y0259236D01*
X0202960Y0259295D01*
X0202802Y0259358D01*
X0202645Y0259424D01*
X0202490Y0259495D01*
X0202336Y0259569D01*
X0202185Y0259647D01*
X0202035Y0259729D01*
X0201887Y0259814D01*
X0201742Y0259903D01*
X0201599Y0259995D01*
X0201458Y0260091D01*
X0201319Y0260190D01*
X0201183Y0260293D01*
X0201049Y0260398D01*
X0200918Y0260507D01*
X0200790Y0260620D01*
X0200664Y0260735D01*
X0200541Y0260853D01*
X0200422Y0260974D01*
X0200305Y0261099D01*
X0200191Y0261226D01*
X0200080Y0261355D01*
X0199973Y0261488D01*
X0199869Y0261623D01*
X0199768Y0261760D01*
X0199670Y0261900D01*
X0199576Y0262042D01*
X0199486Y0262186D01*
X0199399Y0262333D01*
X0199315Y0262482D01*
X0199236Y0262632D01*
X0199160Y0262785D01*
X0199087Y0262939D01*
X0199019Y0263095D01*
X0198954Y0263253D01*
X0198893Y0263412D01*
X0198836Y0263573D01*
X0198783Y0263735D01*
X0198734Y0263898D01*
X0198689Y0264062D01*
X0198648Y0264228D01*
X0198610Y0264394D01*
X0198577Y0264562D01*
X0198549Y0264730D01*
X0198524Y0264898D01*
X0198503Y0265067D01*
X0198486Y0265237D01*
X0198474Y0265407D01*
X0198466Y0265577D01*
X0198462Y0265748D01*
X0198462Y0265918D01*
X0198466Y0266089D01*
X0198474Y0266259D01*
X0198486Y0266429D01*
X0198503Y0266599D01*
X0198524Y0266768D01*
X0198549Y0266936D01*
X0198577Y0267104D01*
X0198610Y0267272D01*
X0198648Y0267438D01*
X0198689Y0267604D01*
X0198734Y0267768D01*
X0198783Y0267931D01*
X0198836Y0268093D01*
X0198893Y0268254D01*
X0198954Y0268413D01*
X0199019Y0268571D01*
X0199087Y0268727D01*
X0199160Y0268881D01*
X0199236Y0269034D01*
X0199315Y0269184D01*
X0199399Y0269333D01*
X0199486Y0269480D01*
X0199576Y0269624D01*
X0199670Y0269766D01*
X0199768Y0269906D01*
X0199869Y0270043D01*
X0199973Y0270178D01*
X0200080Y0270311D01*
X0200191Y0270440D01*
X0200305Y0270567D01*
X0200422Y0270692D01*
X0200541Y0270813D01*
X0200664Y0270931D01*
X0200790Y0271046D01*
X0200918Y0271159D01*
X0201049Y0271268D01*
X0201183Y0271373D01*
X0201319Y0271476D01*
X0201458Y0271575D01*
X0201599Y0271671D01*
X0201742Y0271763D01*
X0201887Y0271852D01*
X0202035Y0271937D01*
X0202185Y0272019D01*
X0202336Y0272097D01*
X0202490Y0272171D01*
X0202645Y0272242D01*
X0202802Y0272308D01*
X0202960Y0272371D01*
X0203120Y0272430D01*
X0203282Y0272485D01*
X0203444Y0272536D01*
X0203608Y0272583D01*
X0203773Y0272626D01*
X0203939Y0272666D01*
X0204106Y0272701D01*
X0204273Y0272732D01*
X0204442Y0272758D01*
X0204611Y0272781D01*
X0204780Y0272800D01*
X0204950Y0272814D01*
X0205120Y0272825D01*
X0205291Y0272831D01*
X0205461Y0272833D01*
D20*
X0043461Y0227333D03*
D21*
X0039711Y0227333D03*
X0058211Y0227333D03*
M02*
