%
M48
M72
T01C0.0197
T02C0.0200
T03C0.0236
T04C0.0240
T05C0.0315
T06C0.0320
T07C0.0360
T08C0.0374
T09C0.0394
T10C0.0400
T11C0.0866
T12C0.1260
T13C0.1300
%
T01
X11546Y15183
X11346Y16033
X7096Y19823
X11146Y20833
X11546Y20233
X12546Y20233
X13546Y20233
X14546Y20233
X15546Y20233
X16496Y20783
X18146Y20333
X15146Y22683
X11146Y21833
X10296Y26283
X9796Y26283
X9296Y26283
X8796Y26283
X10796Y26633
X11396Y27333
X14646Y30683
X13446Y30933
X11696Y32383
X11446Y31983
X11446Y32783
X11696Y33183
X10496Y31683
X9496Y31183
X15746Y33633
X15946Y33233
X17096Y33133
X17996Y33133
X18996Y33133
X19596Y33133
X20146Y34983
X22646Y33083
X23646Y33083
X24646Y33083
X25146Y32783
X25646Y32433
X26646Y32433
X27146Y32983
X27546Y32183
X28146Y33833
X22146Y29833
X18796Y29483
X16646Y30683
X22146Y23083
X27146Y19833
X21146Y17833
X19896Y16333
X21646Y15083
X26646Y27583
T02
X26146Y33733
T03
X21896Y26583
T04
X20896Y26583
X22896Y26583
T05
X25396Y26083
X25396Y27083
X27396Y27083
X27396Y26083
X18596Y26083
X18596Y27083
X16596Y27083
X16596Y26083
X11896Y27733
X10896Y27733
X9896Y27733
X7846Y27883
X7846Y27083
X7846Y25633
X7846Y24833
X7846Y23383
X7846Y22583
X7846Y21133
X7846Y20333
X9896Y30733
X10896Y30733
X11896Y30733
X10446Y32583
X10446Y33583
X10396Y34583
X10396Y35583
T06
X14146Y31333
X15146Y31333
X16146Y31333
X17146Y31333
X18146Y31333
X19146Y31333
X20146Y31333
X21146Y31333
X22146Y31333
X23146Y31333
X24146Y31333
X25146Y31333
X26146Y31333
X27146Y31333
X27146Y28333
X26146Y28333
X25146Y28333
X24146Y28333
X23146Y28333
X22146Y28333
X21146Y28333
X20146Y28333
X19146Y28333
X18146Y28333
X17146Y28333
X16146Y28333
X15146Y28333
X14146Y28333
X13646Y24833
X12646Y24833
X11646Y24833
X10646Y24833
X9646Y24833
X14646Y24833
X15646Y24833
X16646Y24833
X17646Y24833
X18646Y24833
X19646Y24833
X20646Y24833
X21646Y24833
X22646Y24833
X23646Y24833
X24646Y24833
X25646Y24833
X26646Y24833
X27646Y24833
X28646Y24833
X28646Y18833
X27646Y18833
X26646Y18833
X25646Y18833
X24646Y18833
X23646Y18833
X22646Y18833
X21646Y18833
X20646Y18833
X19646Y18833
X18646Y18833
X17646Y18833
X16646Y18833
X15646Y18833
X14646Y18833
X13646Y18833
X12646Y18833
X11646Y18833
X10646Y18833
X9646Y18833
T07
X7896Y30583
X7896Y31583
X7896Y32583
T08
X6000Y29825
X5213Y29825
X5213Y28841
X6000Y28841
T09
X6226Y32843
X6226Y34623
X3666Y34623
X3666Y32843
X3396Y22733
X6396Y22733
T10
X9646Y14333
X10646Y14333
X11646Y14333
X12646Y14333
X13646Y14333
X14646Y14333
X15646Y15333
X16646Y15333
X17646Y15333
X18646Y15333
X19646Y15333
X20646Y15333
X22646Y15333
X23646Y15333
X24646Y15333
X25646Y15333
X26646Y15333
X27646Y15333
X23646Y16333
X22646Y16333
X22646Y34333
X21646Y34333
X20646Y34333
X19046Y34333
X18046Y34333
X17046Y34333
X16046Y34333
X15046Y34333
X14046Y34333
X13046Y34333
X12046Y34333
X12046Y35333
X13046Y35333
X14046Y35333
X15046Y35333
X16046Y35333
X17046Y35333
X18046Y35333
X19046Y35333
X23646Y34333
X24646Y34333
X25646Y34333
X26646Y34333
X27646Y34333
T11
X4146Y31696
X4146Y26971
T12
X8646Y34333
X28646Y28333
X28646Y17333
X8146Y15333
T13
X6066Y15633
X4886Y17603
X7246Y17603
M30
