G75*
%MOIN*%
%OFA0B0*%
%FSLAX25Y25*%
%IPPOS*%
%LPD*%
%AMOC8*
5,1,8,0,0,1.08239X$1,22.5*
%
%ADD10C,0.00600*%
%ADD11C,0.01000*%
%ADD12C,0.01400*%
%ADD13C,0.00400*%
%ADD14C,0.00300*%
%ADD15C,0.00500*%
%ADD16C,0.01800*%
D10*
X0091461Y0138333D02*
X0101461Y0138333D01*
X0101461Y0165833D01*
X0111461Y0165833D01*
X0111461Y0138333D01*
X0101461Y0138333D01*
X0111461Y0138333D02*
X0121461Y0138333D01*
X0121461Y0165833D01*
X0131461Y0165833D01*
X0131461Y0138333D01*
X0121461Y0138333D01*
X0131461Y0138333D02*
X0141461Y0138333D01*
X0141461Y0165833D01*
X0151461Y0165833D02*
X0151461Y0158333D01*
X0211461Y0158333D01*
X0211461Y0148333D01*
X0201461Y0148333D01*
X0201461Y0175833D01*
X0191461Y0175833D02*
X0211461Y0175833D01*
X0211461Y0158333D01*
X0221461Y0158333D02*
X0281461Y0158333D01*
X0281461Y0148333D01*
X0271461Y0148333D01*
X0271461Y0180833D01*
X0281461Y0180833D01*
X0281461Y0158333D01*
X0273111Y0165033D02*
X0273111Y0173633D01*
X0271461Y0180833D02*
X0261461Y0180833D01*
X0261461Y0148333D01*
X0271461Y0148333D01*
X0261461Y0148333D02*
X0251461Y0148333D01*
X0251461Y0180833D01*
X0261461Y0180833D01*
X0251461Y0180833D02*
X0241461Y0180833D01*
X0241461Y0148333D01*
X0251461Y0148333D01*
X0241461Y0148333D02*
X0231461Y0148333D01*
X0231461Y0180833D01*
X0241461Y0180833D01*
X0236911Y0178933D02*
X0236911Y0173033D01*
X0231461Y0180833D02*
X0221461Y0180833D01*
X0221461Y0158333D01*
X0221461Y0148333D01*
X0231461Y0148333D01*
X0226861Y0172983D02*
X0226861Y0178883D01*
X0191461Y0175833D02*
X0191461Y0148333D01*
X0181461Y0148333D01*
X0181461Y0175833D01*
X0191461Y0175833D01*
X0181461Y0175833D02*
X0171461Y0175833D01*
X0171461Y0148333D01*
X0161461Y0148333D01*
X0161461Y0175833D01*
X0171461Y0175833D01*
X0161461Y0175833D02*
X0151461Y0175833D01*
X0151461Y0165833D01*
X0131461Y0165833D01*
X0121461Y0165833D02*
X0111461Y0165833D01*
X0101461Y0165833D02*
X0091461Y0165833D01*
X0091461Y0148333D01*
X0151461Y0148333D01*
X0151461Y0138333D01*
X0141461Y0138333D01*
X0151461Y0148333D02*
X0161461Y0148333D01*
X0171461Y0148333D02*
X0181461Y0148333D01*
X0191461Y0148333D02*
X0201461Y0148333D01*
X0151461Y0148333D02*
X0151461Y0158333D01*
X0091461Y0148333D02*
X0091461Y0138333D01*
X0115461Y0320833D02*
X0185461Y0320833D01*
X0185461Y0348333D01*
X0115461Y0348333D01*
X0115461Y0338333D01*
X0195461Y0338333D01*
X0195461Y0348333D01*
X0185461Y0348333D01*
X0185461Y0358333D01*
X0115461Y0358333D01*
X0115461Y0348333D01*
X0115461Y0338333D02*
X0115461Y0320833D01*
X0125461Y0320833D02*
X0125461Y0358333D01*
X0135461Y0358333D02*
X0135461Y0320833D01*
X0145461Y0320833D02*
X0145461Y0358333D01*
X0155461Y0358333D02*
X0155461Y0320833D01*
X0159961Y0322633D02*
X0159961Y0328533D01*
X0165461Y0320833D02*
X0165461Y0358333D01*
X0175461Y0358333D02*
X0175461Y0320833D01*
X0169961Y0322633D02*
X0169961Y0328533D01*
X0185461Y0320833D02*
X0195461Y0320833D01*
X0195461Y0338333D01*
X0201461Y0338333D02*
X0281461Y0338333D01*
X0281461Y0320833D01*
X0261461Y0320833D01*
X0251461Y0320833D01*
X0251461Y0348333D01*
X0261461Y0348333D01*
X0261461Y0320833D01*
X0271461Y0320833D02*
X0271461Y0348333D01*
X0281461Y0348333D01*
X0281461Y0338333D01*
X0279961Y0337333D02*
X0276461Y0333833D01*
X0272961Y0337333D01*
X0279961Y0337333D01*
X0269961Y0333833D02*
X0266461Y0337333D01*
X0262961Y0333833D01*
X0269961Y0333833D01*
X0271461Y0348333D02*
X0261461Y0348333D01*
X0251461Y0348333D02*
X0241461Y0348333D01*
X0241461Y0320833D01*
X0231461Y0320833D01*
X0231461Y0348333D01*
X0241461Y0348333D01*
X0231461Y0348333D02*
X0221461Y0348333D01*
X0221461Y0320833D01*
X0211461Y0320833D01*
X0211461Y0348333D01*
X0221461Y0348333D01*
X0211461Y0348333D02*
X0201461Y0348333D01*
X0201461Y0338333D01*
X0201461Y0320833D01*
X0211461Y0320833D01*
X0221461Y0320833D02*
X0231461Y0320833D01*
X0241461Y0320833D02*
X0251461Y0320833D01*
X0195461Y0348333D02*
X0195461Y0358333D01*
X0185461Y0358333D01*
D11*
X0263961Y0334333D02*
X0266461Y0336833D01*
X0268961Y0334333D01*
X0264961Y0334333D01*
X0273961Y0336833D02*
X0277961Y0336833D01*
X0278961Y0336833D02*
X0276461Y0334333D01*
X0273961Y0336833D01*
X0086143Y0139733D02*
X0086145Y0139799D01*
X0086151Y0139865D01*
X0086161Y0139931D01*
X0086174Y0139996D01*
X0086192Y0140060D01*
X0086213Y0140122D01*
X0086238Y0140184D01*
X0086266Y0140244D01*
X0086298Y0140302D01*
X0086334Y0140358D01*
X0086372Y0140411D01*
X0086414Y0140463D01*
X0086459Y0140512D01*
X0086506Y0140558D01*
X0086557Y0140601D01*
X0086609Y0140641D01*
X0086664Y0140678D01*
X0086721Y0140712D01*
X0086780Y0140742D01*
X0086841Y0140769D01*
X0086903Y0140792D01*
X0086966Y0140811D01*
X0087031Y0140827D01*
X0087096Y0140839D01*
X0087162Y0140847D01*
X0087228Y0140851D01*
X0087294Y0140851D01*
X0087360Y0140847D01*
X0087426Y0140839D01*
X0087491Y0140827D01*
X0087556Y0140811D01*
X0087619Y0140792D01*
X0087681Y0140769D01*
X0087742Y0140742D01*
X0087801Y0140712D01*
X0087858Y0140678D01*
X0087913Y0140641D01*
X0087965Y0140601D01*
X0088016Y0140558D01*
X0088063Y0140512D01*
X0088108Y0140463D01*
X0088150Y0140411D01*
X0088188Y0140358D01*
X0088224Y0140302D01*
X0088256Y0140244D01*
X0088284Y0140184D01*
X0088309Y0140122D01*
X0088330Y0140060D01*
X0088348Y0139996D01*
X0088361Y0139931D01*
X0088371Y0139865D01*
X0088377Y0139799D01*
X0088379Y0139733D01*
X0088377Y0139667D01*
X0088371Y0139601D01*
X0088361Y0139535D01*
X0088348Y0139470D01*
X0088330Y0139406D01*
X0088309Y0139344D01*
X0088284Y0139282D01*
X0088256Y0139222D01*
X0088224Y0139164D01*
X0088188Y0139108D01*
X0088150Y0139055D01*
X0088108Y0139003D01*
X0088063Y0138954D01*
X0088016Y0138908D01*
X0087965Y0138865D01*
X0087913Y0138825D01*
X0087858Y0138788D01*
X0087801Y0138754D01*
X0087742Y0138724D01*
X0087681Y0138697D01*
X0087619Y0138674D01*
X0087556Y0138655D01*
X0087491Y0138639D01*
X0087426Y0138627D01*
X0087360Y0138619D01*
X0087294Y0138615D01*
X0087228Y0138615D01*
X0087162Y0138619D01*
X0087096Y0138627D01*
X0087031Y0138639D01*
X0086966Y0138655D01*
X0086903Y0138674D01*
X0086841Y0138697D01*
X0086780Y0138724D01*
X0086721Y0138754D01*
X0086664Y0138788D01*
X0086609Y0138825D01*
X0086557Y0138865D01*
X0086506Y0138908D01*
X0086459Y0138954D01*
X0086414Y0139003D01*
X0086372Y0139055D01*
X0086334Y0139108D01*
X0086298Y0139164D01*
X0086266Y0139222D01*
X0086238Y0139282D01*
X0086213Y0139344D01*
X0086192Y0139406D01*
X0086174Y0139470D01*
X0086161Y0139535D01*
X0086151Y0139601D01*
X0086145Y0139667D01*
X0086143Y0139733D01*
X0084761Y0139733D02*
X0084763Y0139832D01*
X0084769Y0139932D01*
X0084779Y0140031D01*
X0084793Y0140129D01*
X0084810Y0140227D01*
X0084832Y0140324D01*
X0084857Y0140420D01*
X0084886Y0140515D01*
X0084919Y0140609D01*
X0084956Y0140701D01*
X0084996Y0140792D01*
X0085040Y0140881D01*
X0085088Y0140969D01*
X0085139Y0141054D01*
X0085193Y0141137D01*
X0085250Y0141219D01*
X0085311Y0141297D01*
X0085375Y0141374D01*
X0085441Y0141447D01*
X0085511Y0141518D01*
X0085583Y0141586D01*
X0085658Y0141652D01*
X0085736Y0141714D01*
X0085816Y0141773D01*
X0085898Y0141829D01*
X0085982Y0141881D01*
X0086069Y0141930D01*
X0086157Y0141976D01*
X0086247Y0142018D01*
X0086339Y0142057D01*
X0086432Y0142092D01*
X0086526Y0142123D01*
X0086622Y0142150D01*
X0086719Y0142173D01*
X0086816Y0142193D01*
X0086914Y0142209D01*
X0087013Y0142221D01*
X0087112Y0142229D01*
X0087211Y0142233D01*
X0087311Y0142233D01*
X0087410Y0142229D01*
X0087509Y0142221D01*
X0087608Y0142209D01*
X0087706Y0142193D01*
X0087803Y0142173D01*
X0087900Y0142150D01*
X0087996Y0142123D01*
X0088090Y0142092D01*
X0088183Y0142057D01*
X0088275Y0142018D01*
X0088365Y0141976D01*
X0088453Y0141930D01*
X0088540Y0141881D01*
X0088624Y0141829D01*
X0088706Y0141773D01*
X0088786Y0141714D01*
X0088864Y0141652D01*
X0088939Y0141586D01*
X0089011Y0141518D01*
X0089081Y0141447D01*
X0089147Y0141374D01*
X0089211Y0141297D01*
X0089272Y0141219D01*
X0089329Y0141137D01*
X0089383Y0141054D01*
X0089434Y0140969D01*
X0089482Y0140881D01*
X0089526Y0140792D01*
X0089566Y0140701D01*
X0089603Y0140609D01*
X0089636Y0140515D01*
X0089665Y0140420D01*
X0089690Y0140324D01*
X0089712Y0140227D01*
X0089729Y0140129D01*
X0089743Y0140031D01*
X0089753Y0139932D01*
X0089759Y0139832D01*
X0089761Y0139733D01*
X0089759Y0139634D01*
X0089753Y0139534D01*
X0089743Y0139435D01*
X0089729Y0139337D01*
X0089712Y0139239D01*
X0089690Y0139142D01*
X0089665Y0139046D01*
X0089636Y0138951D01*
X0089603Y0138857D01*
X0089566Y0138765D01*
X0089526Y0138674D01*
X0089482Y0138585D01*
X0089434Y0138497D01*
X0089383Y0138412D01*
X0089329Y0138329D01*
X0089272Y0138247D01*
X0089211Y0138169D01*
X0089147Y0138092D01*
X0089081Y0138019D01*
X0089011Y0137948D01*
X0088939Y0137880D01*
X0088864Y0137814D01*
X0088786Y0137752D01*
X0088706Y0137693D01*
X0088624Y0137637D01*
X0088540Y0137585D01*
X0088453Y0137536D01*
X0088365Y0137490D01*
X0088275Y0137448D01*
X0088183Y0137409D01*
X0088090Y0137374D01*
X0087996Y0137343D01*
X0087900Y0137316D01*
X0087803Y0137293D01*
X0087706Y0137273D01*
X0087608Y0137257D01*
X0087509Y0137245D01*
X0087410Y0137237D01*
X0087311Y0137233D01*
X0087211Y0137233D01*
X0087112Y0137237D01*
X0087013Y0137245D01*
X0086914Y0137257D01*
X0086816Y0137273D01*
X0086719Y0137293D01*
X0086622Y0137316D01*
X0086526Y0137343D01*
X0086432Y0137374D01*
X0086339Y0137409D01*
X0086247Y0137448D01*
X0086157Y0137490D01*
X0086069Y0137536D01*
X0085982Y0137585D01*
X0085898Y0137637D01*
X0085816Y0137693D01*
X0085736Y0137752D01*
X0085658Y0137814D01*
X0085583Y0137880D01*
X0085511Y0137948D01*
X0085441Y0138019D01*
X0085375Y0138092D01*
X0085311Y0138169D01*
X0085250Y0138247D01*
X0085193Y0138329D01*
X0085139Y0138412D01*
X0085088Y0138497D01*
X0085040Y0138585D01*
X0084996Y0138674D01*
X0084956Y0138765D01*
X0084919Y0138857D01*
X0084886Y0138951D01*
X0084857Y0139046D01*
X0084832Y0139142D01*
X0084810Y0139239D01*
X0084793Y0139337D01*
X0084779Y0139435D01*
X0084769Y0139534D01*
X0084763Y0139634D01*
X0084761Y0139733D01*
D12*
X0264961Y0334333D02*
X0266461Y0335833D01*
X0267461Y0334833D01*
X0275461Y0336333D02*
X0276461Y0335333D01*
X0277961Y0336833D01*
D13*
X0277663Y0332302D02*
X0275261Y0329900D01*
X0274661Y0329900D01*
X0275261Y0328619D02*
X0274661Y0328018D01*
X0274661Y0326817D01*
X0275261Y0326216D01*
X0277663Y0326216D01*
X0278264Y0326817D01*
X0278264Y0328018D01*
X0277663Y0328619D01*
X0278264Y0329900D02*
X0278264Y0332302D01*
X0277663Y0332302D01*
X0277663Y0324935D02*
X0276462Y0324935D01*
X0275862Y0324335D01*
X0275862Y0322533D01*
X0275862Y0323734D02*
X0274661Y0324935D01*
X0274661Y0322533D02*
X0278264Y0322533D01*
X0278264Y0324335D01*
X0277663Y0324935D01*
X0268264Y0324335D02*
X0268264Y0322533D01*
X0264661Y0322533D01*
X0265862Y0322533D02*
X0265862Y0324335D01*
X0266462Y0324935D01*
X0267663Y0324935D01*
X0268264Y0324335D01*
X0267663Y0326216D02*
X0265261Y0326216D01*
X0264661Y0326817D01*
X0264661Y0328018D01*
X0265261Y0328619D01*
X0265261Y0329900D02*
X0264661Y0330500D01*
X0264661Y0331701D01*
X0265261Y0332302D01*
X0265862Y0332302D01*
X0266462Y0331701D01*
X0266462Y0329900D01*
X0265261Y0329900D01*
X0266462Y0329900D02*
X0267663Y0331101D01*
X0268264Y0332302D01*
X0267663Y0328619D02*
X0268264Y0328018D01*
X0268264Y0326817D01*
X0267663Y0326216D01*
X0265862Y0323734D02*
X0264661Y0324935D01*
X0258264Y0324335D02*
X0258264Y0322533D01*
X0254661Y0322533D01*
X0255862Y0322533D02*
X0255862Y0324335D01*
X0256462Y0324935D01*
X0257663Y0324935D01*
X0258264Y0324335D01*
X0258264Y0326216D02*
X0258264Y0328018D01*
X0257663Y0328619D01*
X0257063Y0328619D01*
X0256462Y0328018D01*
X0256462Y0326216D01*
X0254661Y0326216D02*
X0258264Y0326216D01*
X0256462Y0328018D02*
X0255862Y0328619D01*
X0255261Y0328619D01*
X0254661Y0328018D01*
X0254661Y0326216D01*
X0254661Y0324935D02*
X0255862Y0323734D01*
X0255261Y0329900D02*
X0257663Y0332302D01*
X0255261Y0332302D01*
X0254661Y0331701D01*
X0254661Y0330500D01*
X0255261Y0329900D01*
X0257663Y0329900D01*
X0258264Y0330500D01*
X0258264Y0331701D01*
X0257663Y0332302D01*
X0248264Y0331101D02*
X0247063Y0329900D01*
X0247063Y0328619D02*
X0246462Y0328018D01*
X0246462Y0326216D01*
X0246462Y0324935D02*
X0245862Y0324335D01*
X0245862Y0322533D01*
X0245862Y0323734D02*
X0244661Y0324935D01*
X0244661Y0326216D02*
X0244661Y0328018D01*
X0245261Y0328619D01*
X0245862Y0328619D01*
X0246462Y0328018D01*
X0247063Y0328619D02*
X0247663Y0328619D01*
X0248264Y0328018D01*
X0248264Y0326216D01*
X0244661Y0326216D01*
X0246462Y0324935D02*
X0247663Y0324935D01*
X0248264Y0324335D01*
X0248264Y0322533D01*
X0244661Y0322533D01*
X0238264Y0322533D02*
X0238264Y0324335D01*
X0237663Y0324935D01*
X0236462Y0324935D01*
X0235862Y0324335D01*
X0235862Y0322533D01*
X0235862Y0323734D02*
X0234661Y0324935D01*
X0234661Y0326216D02*
X0234661Y0328018D01*
X0235261Y0328619D01*
X0235862Y0328619D01*
X0236462Y0328018D01*
X0236462Y0326216D01*
X0234661Y0326216D02*
X0238264Y0326216D01*
X0238264Y0328018D01*
X0237663Y0328619D01*
X0237063Y0328619D01*
X0236462Y0328018D01*
X0237663Y0329900D02*
X0238264Y0330500D01*
X0238264Y0331701D01*
X0237663Y0332302D01*
X0237063Y0332302D01*
X0234661Y0329900D01*
X0234661Y0332302D01*
X0228264Y0331701D02*
X0228264Y0330500D01*
X0227663Y0329900D01*
X0227663Y0328619D02*
X0227063Y0328619D01*
X0226462Y0328018D01*
X0226462Y0326216D01*
X0226462Y0324935D02*
X0225862Y0324335D01*
X0225862Y0322533D01*
X0225862Y0323734D02*
X0224661Y0324935D01*
X0224661Y0326216D02*
X0224661Y0328018D01*
X0225261Y0328619D01*
X0225862Y0328619D01*
X0226462Y0328018D01*
X0227663Y0328619D02*
X0228264Y0328018D01*
X0228264Y0326216D01*
X0224661Y0326216D01*
X0226462Y0324935D02*
X0227663Y0324935D01*
X0228264Y0324335D01*
X0228264Y0322533D01*
X0224661Y0322533D01*
X0218264Y0322533D02*
X0218264Y0324335D01*
X0217663Y0324935D01*
X0216462Y0324935D01*
X0215862Y0324335D01*
X0215862Y0322533D01*
X0215862Y0323734D02*
X0214661Y0324935D01*
X0214661Y0326216D02*
X0214661Y0328018D01*
X0215261Y0328619D01*
X0215862Y0328619D01*
X0216462Y0328018D01*
X0216462Y0326216D01*
X0214661Y0326216D02*
X0218264Y0326216D01*
X0218264Y0328018D01*
X0217663Y0328619D01*
X0217063Y0328619D01*
X0216462Y0328018D01*
X0216462Y0329900D02*
X0216462Y0332302D01*
X0214661Y0331701D02*
X0218264Y0331701D01*
X0216462Y0329900D01*
X0214661Y0322533D02*
X0218264Y0322533D01*
X0208264Y0322533D02*
X0208264Y0324335D01*
X0207663Y0324935D01*
X0206462Y0324935D01*
X0205862Y0324335D01*
X0205862Y0322533D01*
X0205862Y0323734D02*
X0204661Y0324935D01*
X0204661Y0326216D02*
X0204661Y0328018D01*
X0205261Y0328619D01*
X0205862Y0328619D01*
X0206462Y0328018D01*
X0206462Y0326216D01*
X0204661Y0326216D02*
X0208264Y0326216D01*
X0208264Y0328018D01*
X0207663Y0328619D01*
X0207063Y0328619D01*
X0206462Y0328018D01*
X0206462Y0329900D02*
X0207063Y0331101D01*
X0207063Y0331701D01*
X0206462Y0332302D01*
X0205261Y0332302D01*
X0204661Y0331701D01*
X0204661Y0330500D01*
X0205261Y0329900D01*
X0206462Y0329900D02*
X0208264Y0329900D01*
X0208264Y0332302D01*
X0208264Y0322533D02*
X0204661Y0322533D01*
X0224661Y0330500D02*
X0225261Y0329900D01*
X0224661Y0330500D02*
X0224661Y0331701D01*
X0225261Y0332302D01*
X0225862Y0332302D01*
X0226462Y0331701D01*
X0226462Y0331101D01*
X0226462Y0331701D02*
X0227063Y0332302D01*
X0227663Y0332302D01*
X0228264Y0331701D01*
X0234661Y0322533D02*
X0238264Y0322533D01*
X0244661Y0329900D02*
X0244661Y0332302D01*
X0244661Y0331101D02*
X0248264Y0331101D01*
X0247563Y0174152D02*
X0248164Y0173552D01*
X0248164Y0172351D01*
X0247563Y0171750D01*
X0246963Y0170469D02*
X0244561Y0170469D01*
X0244561Y0171750D02*
X0246963Y0174152D01*
X0247563Y0174152D01*
X0244561Y0174152D02*
X0244561Y0171750D01*
X0246362Y0170469D02*
X0246362Y0168067D01*
X0246963Y0168067D02*
X0244561Y0168067D01*
X0244561Y0166786D02*
X0245762Y0165585D01*
X0245762Y0166185D02*
X0245762Y0164384D01*
X0244561Y0164384D02*
X0248164Y0164384D01*
X0248164Y0166185D01*
X0247563Y0166786D01*
X0246362Y0166786D01*
X0245762Y0166185D01*
X0246963Y0168067D02*
X0248164Y0169268D01*
X0246963Y0170469D01*
X0254561Y0170469D02*
X0256963Y0170469D01*
X0258164Y0169268D01*
X0256963Y0168067D01*
X0254561Y0168067D01*
X0254561Y0166786D02*
X0255762Y0165585D01*
X0255762Y0166185D02*
X0255762Y0164384D01*
X0254561Y0164384D02*
X0258164Y0164384D01*
X0258164Y0166185D01*
X0257563Y0166786D01*
X0256362Y0166786D01*
X0255762Y0166185D01*
X0256362Y0168067D02*
X0256362Y0170469D01*
X0255161Y0171750D02*
X0254561Y0172351D01*
X0254561Y0173552D01*
X0255161Y0174152D01*
X0255762Y0174152D01*
X0256362Y0173552D01*
X0256362Y0172951D01*
X0256362Y0173552D02*
X0256963Y0174152D01*
X0257563Y0174152D01*
X0258164Y0173552D01*
X0258164Y0172351D01*
X0257563Y0171750D01*
X0264561Y0172351D02*
X0265161Y0171750D01*
X0264561Y0172351D02*
X0264561Y0173552D01*
X0265161Y0174152D01*
X0266362Y0174152D01*
X0266963Y0173552D01*
X0266963Y0172951D01*
X0266362Y0171750D01*
X0268164Y0171750D01*
X0268164Y0174152D01*
X0266963Y0170469D02*
X0264561Y0170469D01*
X0266362Y0170469D02*
X0266362Y0168067D01*
X0266963Y0168067D02*
X0268164Y0169268D01*
X0266963Y0170469D01*
X0266963Y0168067D02*
X0264561Y0168067D01*
X0264561Y0166786D02*
X0265762Y0165585D01*
X0265762Y0166185D02*
X0265762Y0164384D01*
X0264561Y0164384D02*
X0268164Y0164384D01*
X0268164Y0166185D01*
X0267563Y0166786D01*
X0266362Y0166786D01*
X0265762Y0166185D01*
X0274561Y0166786D02*
X0275762Y0165585D01*
X0275762Y0166185D02*
X0275762Y0164384D01*
X0274561Y0164384D02*
X0278164Y0164384D01*
X0278164Y0166185D01*
X0277563Y0166786D01*
X0276362Y0166786D01*
X0275762Y0166185D01*
X0276362Y0168067D02*
X0276362Y0169268D01*
X0274561Y0168067D02*
X0274561Y0170469D01*
X0275161Y0171750D02*
X0277563Y0174152D01*
X0275161Y0174152D01*
X0274561Y0173552D01*
X0274561Y0172351D01*
X0275161Y0171750D01*
X0277563Y0171750D01*
X0278164Y0172351D01*
X0278164Y0173552D01*
X0277563Y0174152D01*
X0278164Y0170469D02*
X0278164Y0168067D01*
X0274561Y0168067D01*
X0208164Y0168014D02*
X0205762Y0168014D01*
X0204561Y0166813D01*
X0205762Y0165612D01*
X0208164Y0165612D01*
X0208164Y0169295D02*
X0208164Y0170496D01*
X0208164Y0169895D02*
X0204561Y0169895D01*
X0204561Y0169295D02*
X0204561Y0170496D01*
X0204561Y0171750D02*
X0208164Y0171750D01*
X0204561Y0174152D01*
X0208164Y0174152D01*
X0198164Y0173552D02*
X0198164Y0171750D01*
X0194561Y0171750D01*
X0194561Y0173552D01*
X0195161Y0174152D01*
X0197563Y0174152D01*
X0198164Y0173552D01*
X0198164Y0170469D02*
X0194561Y0170469D01*
X0198164Y0168067D01*
X0194561Y0168067D01*
X0195161Y0166786D02*
X0196362Y0166786D01*
X0196362Y0165585D01*
X0195161Y0166786D02*
X0194561Y0166185D01*
X0194561Y0164984D01*
X0195161Y0164384D01*
X0197563Y0164384D01*
X0198164Y0164984D01*
X0198164Y0166185D01*
X0197563Y0166786D01*
X0188164Y0166185D02*
X0188164Y0164984D01*
X0187563Y0164384D01*
X0185161Y0164384D01*
X0184561Y0164984D01*
X0184561Y0166185D01*
X0185161Y0166786D01*
X0186362Y0166786D01*
X0186362Y0165585D01*
X0187563Y0166786D02*
X0188164Y0166185D01*
X0188164Y0168067D02*
X0184561Y0170469D01*
X0188164Y0170469D01*
X0188164Y0171750D02*
X0188164Y0173552D01*
X0187563Y0174152D01*
X0185161Y0174152D01*
X0184561Y0173552D01*
X0184561Y0171750D01*
X0188164Y0171750D01*
X0188164Y0168067D02*
X0184561Y0168067D01*
X0178164Y0168067D02*
X0176362Y0168067D01*
X0176963Y0169268D01*
X0176963Y0169869D01*
X0176362Y0170469D01*
X0175161Y0170469D01*
X0174561Y0169869D01*
X0174561Y0168668D01*
X0175161Y0168067D01*
X0178164Y0168067D02*
X0178164Y0170469D01*
X0178164Y0171750D02*
X0175762Y0171750D01*
X0174561Y0172951D01*
X0175762Y0174152D01*
X0178164Y0174152D01*
X0168164Y0173552D02*
X0168164Y0171750D01*
X0164561Y0171750D01*
X0165762Y0171750D02*
X0165762Y0173552D01*
X0166362Y0174152D01*
X0167563Y0174152D01*
X0168164Y0173552D01*
X0165762Y0172951D02*
X0164561Y0174152D01*
X0165762Y0170469D02*
X0168164Y0170469D01*
X0168164Y0168067D02*
X0165762Y0168067D01*
X0164561Y0169268D01*
X0165762Y0170469D01*
X0165762Y0166786D02*
X0165161Y0166786D01*
X0164561Y0166185D01*
X0164561Y0164984D01*
X0165161Y0164384D01*
X0166362Y0165585D02*
X0166362Y0166185D01*
X0165762Y0166786D01*
X0166362Y0166185D02*
X0166963Y0166786D01*
X0167563Y0166786D01*
X0168164Y0166185D01*
X0168164Y0164984D01*
X0167563Y0164384D01*
X0158164Y0164384D02*
X0158164Y0166185D01*
X0157563Y0166786D01*
X0156362Y0166786D01*
X0155762Y0166185D01*
X0155762Y0164384D01*
X0155762Y0165585D02*
X0154561Y0166786D01*
X0155161Y0168067D02*
X0154561Y0168668D01*
X0154561Y0169869D01*
X0155161Y0170469D01*
X0155762Y0170469D01*
X0156362Y0169869D01*
X0156362Y0168668D01*
X0156963Y0168067D01*
X0157563Y0168067D01*
X0158164Y0168668D01*
X0158164Y0169869D01*
X0157563Y0170469D01*
X0158164Y0171750D02*
X0158164Y0174152D01*
X0158164Y0172951D02*
X0154561Y0172951D01*
X0154561Y0164384D02*
X0158164Y0164384D01*
X0138164Y0163552D02*
X0138164Y0162351D01*
X0137563Y0161750D01*
X0135161Y0161750D01*
X0134561Y0162351D01*
X0134561Y0163552D01*
X0135161Y0164152D01*
X0137563Y0164152D02*
X0138164Y0163552D01*
X0137563Y0160469D02*
X0138164Y0159869D01*
X0138164Y0158668D01*
X0137563Y0158067D01*
X0135161Y0158067D01*
X0134561Y0158668D01*
X0134561Y0159869D01*
X0135161Y0160469D01*
X0136362Y0160469D01*
X0136362Y0159268D01*
X0136362Y0156786D02*
X0135762Y0156185D01*
X0135762Y0154384D01*
X0134561Y0154384D02*
X0138164Y0154384D01*
X0138164Y0156185D01*
X0137563Y0156786D01*
X0136362Y0156786D01*
X0128164Y0156185D02*
X0127563Y0156786D01*
X0126362Y0156786D01*
X0125762Y0156185D01*
X0125762Y0154384D01*
X0124561Y0154384D02*
X0128164Y0154384D01*
X0128164Y0156185D01*
X0127563Y0158067D02*
X0125161Y0158067D01*
X0124561Y0158668D01*
X0124561Y0159869D01*
X0125161Y0160469D01*
X0126362Y0160469D01*
X0126362Y0159268D01*
X0127563Y0158067D02*
X0128164Y0158668D01*
X0128164Y0159869D01*
X0127563Y0160469D01*
X0128164Y0161750D02*
X0124561Y0161750D01*
X0124561Y0163552D01*
X0125161Y0164152D01*
X0127563Y0164152D01*
X0128164Y0163552D01*
X0128164Y0161750D01*
X0118164Y0162351D02*
X0117563Y0161750D01*
X0116963Y0161750D01*
X0116362Y0162351D01*
X0116362Y0163552D01*
X0115762Y0164152D01*
X0115161Y0164152D01*
X0114561Y0163552D01*
X0114561Y0162351D01*
X0115161Y0161750D01*
X0115161Y0160469D02*
X0114561Y0159869D01*
X0114561Y0158668D01*
X0115161Y0158067D01*
X0116362Y0158668D02*
X0116362Y0159869D01*
X0115762Y0160469D01*
X0115161Y0160469D01*
X0116362Y0158668D02*
X0116963Y0158067D01*
X0117563Y0158067D01*
X0118164Y0158668D01*
X0118164Y0159869D01*
X0117563Y0160469D01*
X0118164Y0162351D02*
X0118164Y0163552D01*
X0117563Y0164152D01*
X0118164Y0156786D02*
X0115762Y0156786D01*
X0114561Y0155585D01*
X0115762Y0154384D01*
X0118164Y0154384D01*
X0108164Y0154384D02*
X0105762Y0154384D01*
X0104561Y0155585D01*
X0105762Y0156786D01*
X0108164Y0156786D01*
X0108164Y0158067D02*
X0104561Y0158067D01*
X0104561Y0159869D01*
X0105161Y0160469D01*
X0107563Y0160469D01*
X0108164Y0159869D01*
X0108164Y0158067D01*
X0108164Y0161750D02*
X0104561Y0161750D01*
X0104561Y0163552D01*
X0105161Y0164152D01*
X0107563Y0164152D01*
X0108164Y0163552D01*
X0108164Y0161750D01*
X0098164Y0161750D02*
X0098164Y0163552D01*
X0097563Y0164152D01*
X0096362Y0164152D01*
X0095762Y0163552D01*
X0095762Y0161750D01*
X0095762Y0162951D02*
X0094561Y0164152D01*
X0094561Y0161750D02*
X0098164Y0161750D01*
X0098164Y0158067D02*
X0094561Y0158067D01*
X0094561Y0160469D01*
X0095161Y0156786D02*
X0094561Y0156185D01*
X0094561Y0154984D01*
X0095161Y0154384D01*
X0097563Y0154384D01*
X0098164Y0154984D01*
X0098164Y0156185D01*
X0097563Y0156786D01*
X0098164Y0153103D02*
X0094561Y0153103D01*
X0094561Y0150701D02*
X0098164Y0150701D01*
X0096963Y0151902D01*
X0098164Y0153103D01*
D14*
X0222911Y0172044D02*
X0225813Y0172044D01*
X0225813Y0173495D01*
X0225329Y0173979D01*
X0224362Y0173979D01*
X0223878Y0173495D01*
X0223878Y0172044D01*
X0223878Y0173011D02*
X0222911Y0173979D01*
X0222911Y0174990D02*
X0222911Y0176925D01*
X0222911Y0177937D02*
X0222911Y0179872D01*
X0222911Y0178904D02*
X0225813Y0178904D01*
X0224846Y0177937D01*
X0225813Y0176925D02*
X0225813Y0174990D01*
X0222911Y0174990D01*
X0224362Y0174990D02*
X0224362Y0175958D01*
X0227811Y0176388D02*
X0227811Y0175421D01*
X0228294Y0174937D01*
X0230229Y0176872D01*
X0228294Y0176872D01*
X0227811Y0176388D01*
X0228294Y0174937D02*
X0230229Y0174937D01*
X0230713Y0175421D01*
X0230713Y0176388D01*
X0230229Y0176872D01*
X0232911Y0176825D02*
X0232911Y0174890D01*
X0235813Y0174890D01*
X0235813Y0176825D01*
X0235329Y0177837D02*
X0235813Y0178321D01*
X0235813Y0179288D01*
X0235329Y0179772D01*
X0234846Y0179772D01*
X0232911Y0177837D01*
X0232911Y0179772D01*
X0234362Y0175858D02*
X0234362Y0174890D01*
X0234362Y0173879D02*
X0233878Y0173395D01*
X0233878Y0171944D01*
X0233878Y0172911D02*
X0232911Y0173879D01*
X0234362Y0173879D02*
X0235329Y0173879D01*
X0235813Y0173395D01*
X0235813Y0171944D01*
X0232911Y0171944D01*
X0230713Y0172958D02*
X0229746Y0171990D01*
X0227811Y0171990D01*
X0227811Y0170979D02*
X0228778Y0170011D01*
X0228778Y0170495D02*
X0228778Y0169044D01*
X0227811Y0169044D02*
X0230713Y0169044D01*
X0230713Y0170495D01*
X0230229Y0170979D01*
X0229262Y0170979D01*
X0228778Y0170495D01*
X0229262Y0171990D02*
X0229262Y0173925D01*
X0229746Y0173925D02*
X0227811Y0173925D01*
X0229746Y0173925D02*
X0230713Y0172958D01*
X0237811Y0173925D02*
X0239746Y0173925D01*
X0240713Y0172958D01*
X0239746Y0171990D01*
X0237811Y0171990D01*
X0237811Y0170979D02*
X0238778Y0170011D01*
X0238778Y0170495D02*
X0238778Y0169044D01*
X0237811Y0169044D02*
X0240713Y0169044D01*
X0240713Y0170495D01*
X0240229Y0170979D01*
X0239262Y0170979D01*
X0238778Y0170495D01*
X0239262Y0171990D02*
X0239262Y0173925D01*
X0239746Y0174937D02*
X0240713Y0175904D01*
X0237811Y0175904D01*
X0237811Y0174937D02*
X0237811Y0176872D01*
X0194113Y0321983D02*
X0191211Y0321983D01*
X0192178Y0321983D02*
X0192178Y0323435D01*
X0192662Y0323918D01*
X0193629Y0323918D01*
X0194113Y0323435D01*
X0194113Y0321983D01*
X0192178Y0322951D02*
X0191211Y0323918D01*
X0191211Y0324930D02*
X0191211Y0326381D01*
X0191694Y0326865D01*
X0192178Y0326865D01*
X0192662Y0326381D01*
X0192662Y0324930D01*
X0192662Y0326381D02*
X0193146Y0326865D01*
X0193629Y0326865D01*
X0194113Y0326381D01*
X0194113Y0324930D01*
X0191211Y0324930D01*
X0191694Y0327876D02*
X0191211Y0328360D01*
X0191211Y0329328D01*
X0191694Y0329811D01*
X0192178Y0329811D01*
X0192662Y0329328D01*
X0192662Y0327876D01*
X0191694Y0327876D01*
X0192662Y0327876D02*
X0193629Y0328844D01*
X0194113Y0329811D01*
X0189713Y0329644D02*
X0189713Y0331095D01*
X0189229Y0331579D01*
X0188262Y0331579D01*
X0187778Y0331095D01*
X0187778Y0329644D01*
X0187778Y0330611D02*
X0186811Y0331579D01*
X0186811Y0332590D02*
X0186811Y0334042D01*
X0187294Y0334525D01*
X0189229Y0334525D01*
X0189713Y0334042D01*
X0189713Y0332590D01*
X0186811Y0332590D01*
X0186811Y0329644D02*
X0189713Y0329644D01*
X0184113Y0329811D02*
X0183629Y0329811D01*
X0181694Y0327876D01*
X0181211Y0327876D01*
X0181694Y0326865D02*
X0181211Y0326381D01*
X0181211Y0324930D01*
X0184113Y0324930D01*
X0184113Y0326381D01*
X0183629Y0326865D01*
X0183146Y0326865D01*
X0182662Y0326381D01*
X0182662Y0324930D01*
X0182662Y0323918D02*
X0182178Y0323435D01*
X0182178Y0321983D01*
X0181211Y0321983D02*
X0184113Y0321983D01*
X0184113Y0323435D01*
X0183629Y0323918D01*
X0182662Y0323918D01*
X0182178Y0322951D02*
X0181211Y0323918D01*
X0182662Y0326381D02*
X0182178Y0326865D01*
X0181694Y0326865D01*
X0184113Y0327876D02*
X0184113Y0329811D01*
X0179713Y0329644D02*
X0179713Y0331095D01*
X0179229Y0331579D01*
X0178262Y0331579D01*
X0177778Y0331095D01*
X0177778Y0329644D01*
X0177778Y0330611D02*
X0176811Y0331579D01*
X0176811Y0332590D02*
X0176811Y0334042D01*
X0177294Y0334525D01*
X0179229Y0334525D01*
X0179713Y0334042D01*
X0179713Y0332590D01*
X0176811Y0332590D01*
X0176811Y0329644D02*
X0179713Y0329644D01*
X0174113Y0328844D02*
X0171211Y0328844D01*
X0171211Y0329811D02*
X0171211Y0327876D01*
X0171694Y0326865D02*
X0171211Y0326381D01*
X0171211Y0325414D01*
X0171694Y0324930D01*
X0173629Y0324930D01*
X0174113Y0325414D01*
X0174113Y0326381D01*
X0173629Y0326865D01*
X0173146Y0327876D02*
X0174113Y0328844D01*
X0169713Y0329644D02*
X0169713Y0331095D01*
X0169229Y0331579D01*
X0168262Y0331579D01*
X0167778Y0331095D01*
X0167778Y0329644D01*
X0167778Y0330611D02*
X0166811Y0331579D01*
X0166811Y0332590D02*
X0166811Y0334042D01*
X0167294Y0334525D01*
X0169229Y0334525D01*
X0169713Y0334042D01*
X0169713Y0332590D01*
X0166811Y0332590D01*
X0166811Y0329644D02*
X0169713Y0329644D01*
X0164113Y0329328D02*
X0164113Y0328360D01*
X0163629Y0327876D01*
X0163629Y0326865D02*
X0164113Y0326381D01*
X0164113Y0325414D01*
X0163629Y0324930D01*
X0161694Y0324930D01*
X0161211Y0325414D01*
X0161211Y0326381D01*
X0161694Y0326865D01*
X0161211Y0327876D02*
X0163146Y0329811D01*
X0163629Y0329811D01*
X0164113Y0329328D01*
X0161211Y0329811D02*
X0161211Y0327876D01*
X0159713Y0329644D02*
X0159713Y0331095D01*
X0159229Y0331579D01*
X0158262Y0331579D01*
X0157778Y0331095D01*
X0157778Y0329644D01*
X0157778Y0330611D02*
X0156811Y0331579D01*
X0156811Y0332590D02*
X0156811Y0334042D01*
X0157294Y0334525D01*
X0159229Y0334525D01*
X0159713Y0334042D01*
X0159713Y0332590D01*
X0156811Y0332590D01*
X0156811Y0329644D02*
X0159713Y0329644D01*
X0154113Y0329328D02*
X0153629Y0329811D01*
X0151694Y0327876D01*
X0151211Y0328360D01*
X0151211Y0329328D01*
X0151694Y0329811D01*
X0153629Y0329811D01*
X0154113Y0329328D02*
X0154113Y0328360D01*
X0153629Y0327876D01*
X0151694Y0327876D01*
X0151694Y0326865D02*
X0151211Y0326381D01*
X0151211Y0325414D01*
X0151694Y0324930D01*
X0153629Y0324930D01*
X0154113Y0325414D01*
X0154113Y0326381D01*
X0153629Y0326865D01*
X0153629Y0323918D02*
X0152662Y0323918D01*
X0152178Y0323435D01*
X0152178Y0321983D01*
X0151211Y0321983D02*
X0154113Y0321983D01*
X0154113Y0323435D01*
X0153629Y0323918D01*
X0152178Y0322951D02*
X0151211Y0323918D01*
X0149713Y0329644D02*
X0146811Y0329644D01*
X0147778Y0329644D02*
X0147778Y0331095D01*
X0148262Y0331579D01*
X0149229Y0331579D01*
X0149713Y0331095D01*
X0149713Y0329644D01*
X0147778Y0330611D02*
X0146811Y0331579D01*
X0146811Y0332590D02*
X0146811Y0334042D01*
X0147294Y0334525D01*
X0149229Y0334525D01*
X0149713Y0334042D01*
X0149713Y0332590D01*
X0146811Y0332590D01*
X0147294Y0335537D02*
X0146811Y0336021D01*
X0146811Y0336988D01*
X0147294Y0337472D01*
X0148262Y0337472D01*
X0148746Y0336988D01*
X0148746Y0336504D01*
X0148262Y0335537D01*
X0149713Y0335537D01*
X0149713Y0337472D01*
X0156811Y0336988D02*
X0159713Y0336988D01*
X0158262Y0335537D01*
X0158262Y0337472D01*
X0166811Y0336988D02*
X0166811Y0336021D01*
X0167294Y0335537D01*
X0168262Y0336504D02*
X0168262Y0336988D01*
X0167778Y0337472D01*
X0167294Y0337472D01*
X0166811Y0336988D01*
X0168262Y0336988D02*
X0168746Y0337472D01*
X0169229Y0337472D01*
X0169713Y0336988D01*
X0169713Y0336021D01*
X0169229Y0335537D01*
X0176811Y0335537D02*
X0178746Y0337472D01*
X0179229Y0337472D01*
X0179713Y0336988D01*
X0179713Y0336021D01*
X0179229Y0335537D01*
X0176811Y0335537D02*
X0176811Y0337472D01*
X0186811Y0337472D02*
X0186811Y0335537D01*
X0186811Y0336504D02*
X0189713Y0336504D01*
X0188746Y0335537D01*
X0174113Y0323435D02*
X0174113Y0321983D01*
X0171211Y0321983D01*
X0172178Y0321983D02*
X0172178Y0323435D01*
X0172662Y0323918D01*
X0173629Y0323918D01*
X0174113Y0323435D01*
X0172178Y0322951D02*
X0171211Y0323918D01*
X0164113Y0323435D02*
X0164113Y0321983D01*
X0161211Y0321983D01*
X0162178Y0321983D02*
X0162178Y0323435D01*
X0162662Y0323918D01*
X0163629Y0323918D01*
X0164113Y0323435D01*
X0162178Y0322951D02*
X0161211Y0323918D01*
X0144113Y0323435D02*
X0144113Y0321983D01*
X0141211Y0321983D01*
X0142178Y0321983D02*
X0142178Y0323435D01*
X0142662Y0323918D01*
X0143629Y0323918D01*
X0144113Y0323435D01*
X0144113Y0324930D02*
X0144113Y0326381D01*
X0143629Y0326865D01*
X0141694Y0326865D01*
X0141211Y0326381D01*
X0141211Y0324930D01*
X0144113Y0324930D01*
X0142178Y0322951D02*
X0141211Y0323918D01*
X0141694Y0327876D02*
X0143629Y0329811D01*
X0141694Y0329811D01*
X0141211Y0329328D01*
X0141211Y0328360D01*
X0141694Y0327876D01*
X0143629Y0327876D01*
X0144113Y0328360D01*
X0144113Y0329328D01*
X0143629Y0329811D01*
X0139713Y0329644D02*
X0139713Y0331095D01*
X0139229Y0331579D01*
X0138262Y0331579D01*
X0137778Y0331095D01*
X0137778Y0329644D01*
X0137778Y0330611D02*
X0136811Y0331579D01*
X0136811Y0332590D02*
X0136811Y0334042D01*
X0137294Y0334525D01*
X0139229Y0334525D01*
X0139713Y0334042D01*
X0139713Y0332590D01*
X0136811Y0332590D01*
X0136811Y0329644D02*
X0139713Y0329644D01*
X0134113Y0329328D02*
X0134113Y0327876D01*
X0131211Y0327876D01*
X0131211Y0329328D01*
X0131694Y0329811D01*
X0133629Y0329811D01*
X0134113Y0329328D01*
X0134113Y0326865D02*
X0131211Y0326865D01*
X0134113Y0324930D01*
X0131211Y0324930D01*
X0131694Y0323918D02*
X0132662Y0323918D01*
X0132662Y0322951D01*
X0133629Y0323918D02*
X0134113Y0323435D01*
X0134113Y0322467D01*
X0133629Y0321983D01*
X0131694Y0321983D01*
X0131211Y0322467D01*
X0131211Y0323435D01*
X0131694Y0323918D01*
X0129713Y0329644D02*
X0129713Y0331095D01*
X0129229Y0331579D01*
X0128262Y0331579D01*
X0127778Y0331095D01*
X0127778Y0329644D01*
X0127778Y0330611D02*
X0126811Y0331579D01*
X0126811Y0332590D02*
X0126811Y0334042D01*
X0127294Y0334525D01*
X0129229Y0334525D01*
X0129713Y0334042D01*
X0129713Y0332590D01*
X0126811Y0332590D01*
X0126811Y0329644D02*
X0129713Y0329644D01*
X0122113Y0329328D02*
X0121629Y0329811D01*
X0121146Y0329811D01*
X0120662Y0329328D01*
X0120178Y0329811D01*
X0119694Y0329811D01*
X0119211Y0329328D01*
X0119211Y0328360D01*
X0119694Y0327876D01*
X0119211Y0326865D02*
X0121146Y0326865D01*
X0122113Y0325897D01*
X0121146Y0324930D01*
X0119211Y0324930D01*
X0119211Y0323918D02*
X0120178Y0322951D01*
X0120178Y0323435D02*
X0120178Y0321983D01*
X0119211Y0321983D02*
X0122113Y0321983D01*
X0122113Y0323435D01*
X0121629Y0323918D01*
X0120662Y0323918D01*
X0120178Y0323435D01*
X0120662Y0324930D02*
X0120662Y0326865D01*
X0121629Y0327876D02*
X0122113Y0328360D01*
X0122113Y0329328D01*
X0120662Y0329328D02*
X0120662Y0328844D01*
X0126811Y0335537D02*
X0127294Y0335537D01*
X0129229Y0337472D01*
X0129713Y0337472D01*
X0129713Y0335537D01*
X0136811Y0336021D02*
X0136811Y0336988D01*
X0137294Y0337472D01*
X0137778Y0337472D01*
X0138262Y0336988D01*
X0138262Y0335537D01*
X0137294Y0335537D01*
X0136811Y0336021D01*
X0138262Y0335537D02*
X0139229Y0336504D01*
X0139713Y0337472D01*
D15*
X0167177Y0205886D02*
X0166426Y0205135D01*
X0166426Y0202883D01*
X0167928Y0202883D02*
X0167928Y0205135D01*
X0167177Y0205886D01*
X0167928Y0205135D02*
X0168678Y0205886D01*
X0169429Y0205886D01*
X0169429Y0202883D01*
X0171030Y0203634D02*
X0171030Y0205135D01*
X0171781Y0205886D01*
X0173282Y0205886D01*
X0174033Y0205135D01*
X0174033Y0203634D01*
X0173282Y0202883D01*
X0171781Y0202883D01*
X0171030Y0203634D01*
X0172498Y0200587D02*
X0170997Y0199086D01*
X0170997Y0197585D01*
X0172498Y0196083D01*
X0174100Y0196083D02*
X0174100Y0199086D01*
X0175601Y0200587D01*
X0177102Y0199086D01*
X0177102Y0196083D01*
X0178703Y0196834D02*
X0178703Y0197585D01*
X0179454Y0198335D01*
X0181706Y0198335D01*
X0181706Y0196834D01*
X0180955Y0196083D01*
X0179454Y0196083D01*
X0178703Y0196834D01*
X0177102Y0198335D02*
X0174100Y0198335D01*
X0175634Y0202883D02*
X0177886Y0202883D01*
X0178637Y0203634D01*
X0178637Y0205135D01*
X0177886Y0205886D01*
X0175634Y0205886D01*
X0180188Y0203634D02*
X0180188Y0202883D01*
X0180939Y0202883D01*
X0180939Y0203634D01*
X0180188Y0203634D01*
X0182540Y0204385D02*
X0185543Y0204385D01*
X0185543Y0205135D02*
X0184792Y0205886D01*
X0183291Y0205886D01*
X0182540Y0205135D01*
X0182540Y0204385D01*
X0183291Y0202883D02*
X0184792Y0202883D01*
X0185543Y0203634D01*
X0185543Y0205135D01*
X0187127Y0205886D02*
X0189379Y0204385D01*
X0187127Y0202883D01*
X0189379Y0202883D02*
X0189379Y0207387D01*
X0190981Y0205135D02*
X0191731Y0205886D01*
X0193233Y0205886D01*
X0193233Y0204385D02*
X0190981Y0204385D01*
X0190981Y0205135D02*
X0190981Y0202883D01*
X0193233Y0202883D01*
X0193983Y0203634D01*
X0193233Y0204385D01*
X0195551Y0205886D02*
X0197052Y0205886D01*
X0196302Y0206637D02*
X0196302Y0203634D01*
X0195551Y0202883D01*
X0195518Y0200587D02*
X0193266Y0200587D01*
X0192515Y0199837D01*
X0192515Y0196834D01*
X0193266Y0196083D01*
X0195518Y0196083D01*
X0195518Y0200587D01*
X0197086Y0200587D02*
X0198587Y0199086D01*
X0198587Y0197585D01*
X0197086Y0196083D01*
X0190914Y0196834D02*
X0190914Y0199837D01*
X0190163Y0200587D01*
X0188662Y0200587D01*
X0187911Y0199837D01*
X0190914Y0196834D01*
X0190163Y0196083D01*
X0188662Y0196083D01*
X0187911Y0196834D01*
X0187911Y0199837D01*
X0186310Y0199086D02*
X0184809Y0200587D01*
X0184809Y0196083D01*
X0186310Y0196083D02*
X0183307Y0196083D01*
X0181706Y0198335D02*
X0180205Y0199837D01*
X0178703Y0200587D01*
X0198620Y0202883D02*
X0200122Y0202883D01*
X0199371Y0202883D02*
X0199371Y0205886D01*
X0200122Y0205886D01*
X0201706Y0205886D02*
X0203958Y0204385D01*
X0201706Y0202883D01*
X0203958Y0202883D02*
X0203958Y0207387D01*
X0206277Y0207387D02*
X0206277Y0208138D01*
X0206277Y0205886D02*
X0206277Y0202883D01*
X0207028Y0202883D02*
X0205526Y0202883D01*
X0205543Y0200587D02*
X0207044Y0200587D01*
X0207795Y0199837D01*
X0205543Y0200587D02*
X0204792Y0199837D01*
X0204792Y0199086D01*
X0207795Y0196083D01*
X0204792Y0196083D01*
X0209346Y0196083D02*
X0210097Y0196083D01*
X0210097Y0196834D01*
X0209346Y0196834D01*
X0209346Y0196083D01*
X0211698Y0196834D02*
X0211698Y0199837D01*
X0214701Y0196834D01*
X0213950Y0196083D01*
X0212449Y0196083D01*
X0211698Y0196834D01*
X0211698Y0199837D02*
X0212449Y0200587D01*
X0213950Y0200587D01*
X0214701Y0199837D01*
X0214701Y0196834D01*
X0216302Y0196083D02*
X0219305Y0196083D01*
X0217803Y0196083D02*
X0217803Y0200587D01*
X0219305Y0199086D01*
X0220856Y0196834D02*
X0220856Y0196083D01*
X0221607Y0196083D01*
X0221607Y0196834D01*
X0220856Y0196834D01*
X0223208Y0196083D02*
X0226211Y0196083D01*
X0224709Y0196083D02*
X0224709Y0200587D01*
X0226211Y0199086D01*
X0226211Y0202883D02*
X0226211Y0205886D01*
X0225460Y0205886D01*
X0224709Y0205135D01*
X0223959Y0205886D01*
X0223208Y0205135D01*
X0223208Y0202883D01*
X0224709Y0202883D02*
X0224709Y0205135D01*
X0221607Y0205886D02*
X0220856Y0205886D01*
X0220105Y0205135D01*
X0219355Y0205886D01*
X0218604Y0205135D01*
X0218604Y0202883D01*
X0220105Y0202883D02*
X0220105Y0205135D01*
X0221607Y0205886D02*
X0221607Y0202883D01*
X0217003Y0203634D02*
X0217003Y0204385D01*
X0216252Y0205135D01*
X0214751Y0205135D01*
X0214000Y0204385D01*
X0214000Y0203634D01*
X0214751Y0202883D01*
X0216252Y0202883D01*
X0217003Y0203634D01*
X0216252Y0205135D02*
X0217003Y0205886D01*
X0217003Y0206637D01*
X0216252Y0207387D01*
X0214751Y0207387D01*
X0214000Y0206637D01*
X0214000Y0205886D01*
X0214751Y0205135D01*
X0212399Y0203634D02*
X0211648Y0203634D01*
X0211648Y0202883D01*
X0212399Y0202883D01*
X0212399Y0203634D01*
X0209346Y0203634D02*
X0209346Y0206637D01*
X0208596Y0205886D02*
X0210097Y0205886D01*
X0209346Y0203634D02*
X0208596Y0202883D01*
X0207028Y0205886D02*
X0206277Y0205886D01*
X0199371Y0207387D02*
X0199371Y0208138D01*
X0128411Y0173187D02*
X0126909Y0173187D01*
X0127660Y0173187D02*
X0127660Y0168683D01*
X0128411Y0168683D02*
X0126909Y0168683D01*
X0125341Y0169434D02*
X0124591Y0168683D01*
X0123089Y0168683D01*
X0122339Y0169434D01*
X0120737Y0169434D02*
X0119987Y0168683D01*
X0118486Y0168683D01*
X0117735Y0169434D01*
X0117735Y0170185D01*
X0118486Y0170935D01*
X0119987Y0170935D01*
X0120737Y0171686D01*
X0120737Y0172437D01*
X0119987Y0173187D01*
X0118486Y0173187D01*
X0117735Y0172437D01*
X0116134Y0173187D02*
X0116134Y0168683D01*
X0116134Y0170185D02*
X0113882Y0170185D01*
X0113131Y0170935D01*
X0113131Y0172437D01*
X0113882Y0173187D01*
X0116134Y0173187D01*
X0122339Y0172437D02*
X0123089Y0173187D01*
X0124591Y0173187D01*
X0125341Y0172437D01*
X0125341Y0169434D01*
D16*
X0124751Y0210533D02*
X0129761Y0210533D01*
X0131431Y0212203D01*
X0131431Y0215543D01*
X0129761Y0217213D01*
X0124751Y0217213D01*
X0120555Y0213873D02*
X0115546Y0217213D01*
X0111493Y0215543D02*
X0109823Y0217213D01*
X0106483Y0217213D01*
X0104813Y0215543D01*
X0104813Y0213873D01*
X0111493Y0213873D01*
X0111493Y0212203D02*
X0111493Y0215543D01*
X0111493Y0212203D02*
X0109823Y0210533D01*
X0106483Y0210533D01*
X0098947Y0212203D02*
X0097277Y0210533D01*
X0098947Y0212203D02*
X0098947Y0218883D01*
X0100617Y0217213D02*
X0097277Y0217213D01*
X0115546Y0210533D02*
X0120555Y0213873D01*
X0120555Y0210533D02*
X0120555Y0220553D01*
X0132001Y0229920D02*
X0132001Y0231590D01*
X0133671Y0233260D01*
X0137011Y0233260D01*
X0138681Y0234930D01*
X0138681Y0236600D01*
X0137011Y0238269D01*
X0133671Y0238269D01*
X0132001Y0236600D01*
X0132001Y0234930D01*
X0133671Y0233260D01*
X0137011Y0233260D02*
X0138681Y0231590D01*
X0138681Y0229920D01*
X0137011Y0228250D01*
X0133671Y0228250D01*
X0132001Y0229920D01*
X0142877Y0228250D02*
X0142877Y0233260D01*
X0144547Y0234930D01*
X0146217Y0233260D01*
X0146217Y0228250D01*
X0149557Y0228250D02*
X0149557Y0234930D01*
X0147887Y0234930D01*
X0146217Y0233260D01*
X0153752Y0233260D02*
X0153752Y0228250D01*
X0157092Y0228250D02*
X0157092Y0233260D01*
X0155422Y0234930D01*
X0153752Y0233260D01*
X0157092Y0233260D02*
X0158762Y0234930D01*
X0160432Y0234930D01*
X0160432Y0228250D01*
X0151512Y0220553D02*
X0153182Y0218883D01*
X0153182Y0217213D01*
X0151512Y0215543D01*
X0148172Y0215543D01*
X0146502Y0213873D01*
X0146502Y0212203D01*
X0148172Y0210533D01*
X0151512Y0210533D01*
X0153182Y0212203D01*
X0146502Y0218883D02*
X0148172Y0220553D01*
X0151512Y0220553D01*
X0142306Y0215543D02*
X0142306Y0212203D01*
X0140636Y0210533D01*
X0137297Y0210533D01*
X0135627Y0212203D01*
X0135627Y0215543D01*
X0137297Y0217213D01*
X0140636Y0217213D01*
X0142306Y0215543D01*
X0167968Y0210533D02*
X0171307Y0210533D01*
X0169638Y0210533D02*
X0169638Y0220553D01*
X0171307Y0220553D01*
X0175503Y0215543D02*
X0177173Y0217213D01*
X0180513Y0217213D01*
X0180513Y0213873D02*
X0175503Y0213873D01*
X0175503Y0215543D02*
X0175503Y0210533D01*
X0180513Y0210533D01*
X0182183Y0212203D01*
X0180513Y0213873D01*
X0186379Y0210533D02*
X0186379Y0217213D01*
X0193058Y0217213D02*
X0193058Y0212203D01*
X0191388Y0210533D01*
X0186379Y0210533D01*
X0197254Y0212203D02*
X0197254Y0218883D01*
X0198924Y0220553D01*
X0203934Y0220553D01*
X0203934Y0210533D01*
X0198924Y0210533D01*
X0197254Y0212203D01*
X0218720Y0210533D02*
X0220390Y0212203D01*
X0220390Y0218883D01*
X0222059Y0217213D02*
X0218720Y0217213D01*
X0218720Y0224910D02*
X0217050Y0224910D01*
X0215380Y0226580D01*
X0215380Y0234930D01*
X0220390Y0234930D01*
X0222059Y0233260D01*
X0222059Y0229920D01*
X0220390Y0228250D01*
X0215380Y0228250D01*
X0211184Y0229920D02*
X0211184Y0234930D01*
X0211184Y0229920D02*
X0209514Y0228250D01*
X0204504Y0228250D01*
X0204504Y0234930D01*
X0200309Y0234930D02*
X0198639Y0234930D01*
X0198639Y0228250D01*
X0200309Y0228250D02*
X0196969Y0228250D01*
X0193058Y0228250D02*
X0193058Y0234930D01*
X0188049Y0234930D01*
X0186379Y0233260D01*
X0186379Y0228250D01*
X0182183Y0229920D02*
X0182183Y0233260D01*
X0180513Y0234930D01*
X0177173Y0234930D01*
X0175503Y0233260D01*
X0175503Y0229920D01*
X0177173Y0228250D01*
X0180513Y0228250D01*
X0182183Y0229920D01*
X0198639Y0238269D02*
X0198639Y0239939D01*
X0226255Y0233260D02*
X0226255Y0228250D01*
X0226255Y0233260D02*
X0227925Y0234930D01*
X0232935Y0234930D01*
X0232935Y0228250D01*
X0236845Y0228250D02*
X0240185Y0228250D01*
X0238515Y0228250D02*
X0238515Y0234930D01*
X0240185Y0234930D01*
X0238515Y0238269D02*
X0238515Y0239939D01*
X0244381Y0236600D02*
X0244381Y0233260D01*
X0246051Y0231590D01*
X0251061Y0231590D01*
X0251061Y0228250D02*
X0251061Y0238269D01*
X0246051Y0238269D01*
X0244381Y0236600D01*
X0246051Y0220553D02*
X0244381Y0218883D01*
X0244381Y0217213D01*
X0246051Y0215543D01*
X0249391Y0215543D01*
X0251061Y0217213D01*
X0251061Y0218883D01*
X0249391Y0220553D01*
X0246051Y0220553D01*
X0240185Y0220553D02*
X0240185Y0210533D01*
X0235175Y0210533D01*
X0233505Y0212203D01*
X0233505Y0215543D01*
X0235175Y0217213D01*
X0240185Y0217213D01*
X0244381Y0213873D02*
X0244381Y0212203D01*
X0246051Y0210533D01*
X0249391Y0210533D01*
X0251061Y0212203D01*
X0251061Y0213873D01*
X0249391Y0215543D01*
X0246051Y0215543D02*
X0244381Y0213873D01*
X0229310Y0210533D02*
X0225970Y0210533D01*
X0227640Y0210533D02*
X0227640Y0217213D01*
X0229310Y0217213D01*
X0227640Y0220553D02*
X0227640Y0222223D01*
M02*
